<svg width="22" height="23" viewBox="0 0 22 23" fill="none" xmlns="http://www.w3.org/2000/svg">
<path d="M20.3298 10.876L11.412 19.7938C10.3195 20.8862 8.8378 21.5 7.29278 21.5C5.74776 21.5 4.26603 20.8862 3.17353 19.7938C2.08104 18.7013 1.46729 17.2195 1.46729 15.6745C1.46729 14.1295 2.08104 12.6477 3.17353 11.5553L12.0913 2.6375C12.8196 1.90917 13.8074 1.5 14.8375 1.5C15.8675 1.5 16.8553 1.90917 17.5836 2.6375C18.3119 3.36583 18.7211 4.35365 18.7211 5.38366C18.7211 6.41367 18.3119 7.4015 17.5836 8.12983L8.65616 17.0476C8.292 17.4118 7.79808 17.6163 7.28308 17.6163C6.76807 17.6163 6.27416 17.4118 5.90999 17.0476C5.54583 16.6834 5.34124 16.1895 5.34124 15.6745C5.34124 15.1595 5.54583 14.6656 5.90999 14.3014L14.1485 6.07263" stroke="#DBDCE8" stroke-width="2" stroke-linecap="round" stroke-linejoin="round"/>
</svg>
