<svg width="55" height="55" viewBox="0 0 55 55" fill="none" xmlns="http://www.w3.org/2000/svg">
<circle cx="27.5" cy="27.5" r="27.5" fill="white"/>
<path d="M31.1467 14.1646L28.2226 11.9331C27.5017 11.383 26.5009 11.3867 25.7841 11.9422L14.7749 20.4744C14.2861 20.8532 14 21.4368 14 22.0552V26.9721C14 28.6519 15.9457 29.5834 17.2542 28.5299L31.1875 17.3124C32.1985 16.4985 32.1785 14.9521 31.1467 14.1646Z" fill="#8A66F0"/>
<path d="M31.1467 26.1894L28.2226 23.9579C27.5017 23.4078 26.5009 23.4115 25.7841 23.967L14.7749 32.4992C14.2861 32.878 14 33.4616 14 34.08V38.9968C14 40.6767 15.9457 41.6082 17.2542 40.5547L31.1875 29.3372C32.1985 28.5232 32.1785 26.9768 31.1467 26.1894Z" fill="#8A66F0"/>
<path d="M30.2246 20.4295L33.2709 17.8643C33.9775 17.2692 34.9997 17.2355 35.7439 17.7828L39.185 20.313C39.6976 20.6899 40.0003 21.2881 40.0003 21.9243V26.8249C40.0003 28.473 38.1187 29.4137 36.8003 28.4249L30.3129 23.5593C29.2835 22.7873 29.2404 21.2583 30.2246 20.4295Z" fill="#8A66F0"/>
<path d="M29.9914 32.5736L33.2609 29.8763C33.9731 29.2887 34.995 29.2651 35.7336 29.8191L38.8747 32.1748C39.3783 32.5526 39.6747 33.1453 39.6747 33.7748V38.6572C39.6747 40.2803 37.8432 41.2274 36.5187 40.2892L30.1081 35.7484C29.033 34.9869 28.9751 33.4121 29.9914 32.5736Z" fill="#8A66F0"/>
</svg>
