<svg width="17" height="18" viewBox="0 0 17 18" fill="none" xmlns="http://www.w3.org/2000/svg">
<path d="M14.2999 8.20007H3.09999C2.21634 8.20007 1.5 8.91641 1.5 9.80006V15.4C1.5 16.2837 2.21634 17 3.09999 17H14.2999C15.1835 17 15.8999 16.2837 15.8999 15.4V9.80006C15.8999 8.91641 15.1835 8.20007 14.2999 8.20007Z" stroke="#A5A7BC" stroke-width="2" stroke-linecap="round" stroke-linejoin="round"/>
<path d="M4.7002 8.19994V4.99997C4.7002 3.93911 5.12162 2.9217 5.87176 2.17156C6.6219 1.42142 7.6393 1 8.70016 1C9.76102 1 10.7784 1.42142 11.5286 2.17156C12.2787 2.9217 12.7001 3.93911 12.7001 4.99997V8.19994" stroke="#A5A7BC" stroke-width="2" stroke-linecap="round" stroke-linejoin="round"/>
</svg>
