<svg width="22" height="19" viewBox="0 0 22 19" fill="none" xmlns="http://www.w3.org/2000/svg">
<path d="M18.6923 7.86364C18.6923 8.08063 18.6052 8.28874 18.4501 8.44218C18.295 8.59562 18.0847 8.68182 17.8654 8.68182H13.7308C13.5115 8.68182 13.3011 8.59562 13.146 8.44218C12.991 8.28874 12.9038 8.08063 12.9038 7.86364C12.9038 7.64664 12.991 7.43853 13.146 7.28509C13.3011 7.13166 13.5115 7.04545 13.7308 7.04545H17.8654C18.0847 7.04545 18.295 7.13166 18.4501 7.28509C18.6052 7.43853 18.6923 7.64664 18.6923 7.86364ZM17.8654 10.3182H13.7308C13.5115 10.3182 13.3011 10.4044 13.146 10.5578C12.991 10.7113 12.9038 10.9194 12.9038 11.1364C12.9038 11.3534 12.991 11.5615 13.146 11.7149C13.3011 11.8683 13.5115 11.9545 13.7308 11.9545H17.8654C18.0847 11.9545 18.295 11.8683 18.4501 11.7149C18.6052 11.5615 18.6923 11.3534 18.6923 11.1364C18.6923 10.9194 18.6052 10.7113 18.4501 10.5578C18.295 10.4044 18.0847 10.3182 17.8654 10.3182ZM11.5436 13.3867C11.5706 13.4907 11.5767 13.599 11.5615 13.7054C11.5463 13.8118 11.51 13.9142 11.4548 14.0067C11.3996 14.0993 11.3265 14.1801 11.2397 14.2447C11.1529 14.3093 11.0541 14.3563 10.9489 14.3831C10.8437 14.4099 10.7342 14.4159 10.6267 14.4009C10.5192 14.3858 10.4157 14.3499 10.3222 14.2953C10.2287 14.2407 10.147 14.1683 10.0817 14.0824C10.0164 13.9966 9.96889 13.8988 9.94181 13.7947C9.804 13.268 9.49326 12.8014 9.05838 12.4683C8.62351 12.1352 8.08913 11.9545 7.53918 11.9545C6.98923 11.9545 6.45486 12.1352 6.01998 12.4683C5.5851 12.8014 5.27436 13.268 5.13656 13.7947C5.10965 13.899 5.06223 13.9969 4.99702 14.083C4.93181 14.1691 4.85009 14.2416 4.75653 14.2963C4.66297 14.3511 4.55941 14.3871 4.45177 14.4023C4.34414 14.4174 4.23454 14.4114 4.12925 14.3846C4.02396 14.3578 3.92505 14.3107 3.83818 14.246C3.75131 14.1813 3.67818 14.1004 3.62297 14.0077C3.56777 13.915 3.53158 13.8125 3.51647 13.706C3.50136 13.5994 3.50762 13.491 3.53491 13.3869C3.78641 12.419 4.38814 11.5762 5.22597 11.0181C4.75616 10.5633 4.43394 9.98035 4.30044 9.34358C4.16694 8.70681 4.2282 8.04512 4.47641 7.44295C4.72462 6.84077 5.14852 6.32542 5.69403 5.96264C6.23953 5.59986 6.88191 5.40611 7.53918 5.40611C8.19646 5.40611 8.83883 5.59986 9.38434 5.96264C9.92984 6.32542 10.3537 6.84077 10.602 7.44295C10.8502 8.04512 10.9114 8.70681 10.7779 9.34358C10.6444 9.98035 10.3222 10.5633 9.8524 11.0181C10.6902 11.5761 11.2919 12.4189 11.5435 13.3867H11.5436ZM7.53918 10.3182C7.86628 10.3182 8.18604 10.2222 8.45801 10.0424C8.72998 9.8626 8.94196 9.60703 9.06714 9.30803C9.19231 9.00902 9.22506 8.68 9.16125 8.36258C9.09744 8.04516 8.93992 7.75358 8.70863 7.52473C8.47733 7.29589 8.18265 7.14004 7.86183 7.0769C7.54102 7.01376 7.20848 7.04616 6.90628 7.17002C6.60408 7.29387 6.34579 7.5036 6.16406 7.7727C5.98233 8.0418 5.88534 8.35818 5.88534 8.68182C5.88583 9.11566 6.06023 9.53159 6.37028 9.83836C6.68033 10.1451 7.10071 10.3177 7.53918 10.3182ZM22 2.13636V16.8636C21.9995 17.2975 21.8251 17.7134 21.5151 18.0202C21.205 18.327 20.7846 18.4995 20.3462 18.5H2.15385C1.71537 18.4995 1.29499 18.327 0.984944 18.0202C0.674895 17.7134 0.500492 17.2975 0.5 16.8636V2.13636C0.500492 1.70252 0.674895 1.28659 0.984944 0.979818C1.29499 0.673046 1.71537 0.500487 2.15385 0.5H20.3462C20.7846 0.500487 21.205 0.673046 21.5151 0.979818C21.8251 1.28659 21.9995 1.70252 22 2.13636ZM20.3472 16.8636L20.3462 2.13636H2.15385V16.8636H20.3462H20.3472Z" fill="#A5A7BC"/>
</svg>
