<svg width="22" height="22" viewBox="0 0 22 22" fill="none" xmlns="http://www.w3.org/2000/svg">
<g clip-path="url(#clip0)">
<path d="M12.93 12.855C12.6896 13.1129 12.3998 13.3198 12.0778 13.4633C11.7558 13.6067 11.4082 13.6839 11.0558 13.6901C10.7033 13.6963 10.3532 13.6315 10.0264 13.4995C9.6995 13.3674 9.40258 13.1709 9.15332 12.9217C8.90405 12.6724 8.70755 12.3755 8.57552 12.0486C8.4435 11.7218 8.37866 11.3717 8.38488 11.0192C8.3911 10.6667 8.46825 10.3191 8.61172 9.99714C8.75519 9.67514 8.96205 9.38534 9.21995 9.14502M16.2725 16.1975C14.7767 17.3377 12.9554 17.9693 11.075 18C4.94995 18 1.44995 11 1.44995 11C2.53835 8.97168 4.04794 7.19955 5.87745 5.80252L16.2725 16.1975ZM9.23745 4.21002C9.83974 4.06904 10.4564 3.99857 11.075 4.00002C17.2 4.00002 20.7 11 20.7 11C20.1688 11.9937 19.5354 12.9292 18.81 13.7913L9.23745 4.21002Z" stroke="#DBDCE8" stroke-width="2" stroke-linecap="round" stroke-linejoin="round"/>
<path d="M1.44995 1.375L20.7 20.625" stroke="#DBDCE8" stroke-width="2" stroke-linecap="round" stroke-linejoin="round"/>
</g>
<defs>
<clipPath id="clip0">
<rect width="21" height="21" fill="white" transform="translate(0.574951 0.5)"/>
</clipPath>
</defs>
</svg>
