<svg width="20" height="21" viewBox="0 0 20 21" fill="none" xmlns="http://www.w3.org/2000/svg">
<path d="M1.8999 4.80005H3.7999H18.9999" stroke="#DBDCE8" stroke-width="2" stroke-linecap="round" stroke-linejoin="round"/>
<path d="M6.6498 4.8V2.9C6.6498 2.39609 6.84998 1.91282 7.2063 1.5565C7.56262 1.20018 8.04589 1 8.5498 1H12.3498C12.8537 1 13.337 1.20018 13.6933 1.5565C14.0496 1.91282 14.2498 2.39609 14.2498 2.9V4.8M17.0998 4.8V18.1C17.0998 18.6039 16.8996 19.0872 16.5433 19.4435C16.187 19.7998 15.7037 20 15.1998 20H5.6998C5.19589 20 4.71262 19.7998 4.3563 19.4435C3.99998 19.0872 3.7998 18.6039 3.7998 18.1V4.8H17.0998Z" stroke="#DBDCE8" stroke-width="2" stroke-linecap="round" stroke-linejoin="round"/>
<path d="M8.5498 9.55005V15.25" stroke="#DBDCE8" stroke-width="2" stroke-linecap="round" stroke-linejoin="round"/>
<path d="M12.3501 9.55005V15.25" stroke="#DBDCE8" stroke-width="2" stroke-linecap="round" stroke-linejoin="round"/>
</svg>
