<svg width="100" height="30" viewBox="0 0 100 30" fill="none" xmlns="http://www.w3.org/2000/svg">
<path d="M96.2963 29.7858H3.7037C1.66759 29.7858 0 28.1576 0 26.1697V4.4732C0 2.48526 1.66759 0.857115 3.7037 0.857115H96.2963C98.3324 0.857115 100 2.48526 100 4.4732V26.1697C100 28.1576 98.3324 29.7858 96.2963 29.7858Z" fill="black"/>
<path d="M96.2963 1.43659C98.0111 1.43659 99.4065 2.79895 99.4065 4.4732V26.1697C99.4065 27.8439 98.0111 29.2063 96.2963 29.2063H3.7037C1.98889 29.2063 0.593518 27.8439 0.593518 26.1697V4.4732C0.593518 2.79895 1.98889 1.43659 3.7037 1.43659H96.2963ZM96.2963 0.857115H3.7037C1.66759 0.857115 0 2.48526 0 4.4732V26.1697C0 28.1576 1.66759 29.7858 3.7037 29.7858H96.2963C98.3324 29.7858 100 28.1576 100 26.1697V4.4732C100 2.48526 98.3324 0.857115 96.2963 0.857115Z" fill="#A6A6A6"/>
<path d="M35.1241 8.26556C35.1241 8.86944 34.9389 9.35309 34.5741 9.7138C34.1546 10.1414 33.6083 10.3566 32.9389 10.3566C32.2991 10.3566 31.7528 10.1378 31.3046 9.70657C30.8555 9.26902 30.6315 8.73203 30.6315 8.08927C30.6315 7.44652 30.8555 6.90953 31.3046 6.4756C31.7528 6.04076 32.2991 5.82199 32.9389 5.82199C33.2574 5.82199 33.5611 5.88618 33.8509 6.00551C34.1398 6.12574 34.375 6.28847 34.5454 6.48916L34.1583 6.87066C33.8611 6.52803 33.4565 6.35898 32.9389 6.35898C32.4722 6.35898 32.0676 6.51809 31.7241 6.83901C31.3842 7.16084 31.2139 7.5776 31.2139 8.08927C31.2139 8.60095 31.3842 9.02132 31.7241 9.34315C32.0676 9.66046 32.4722 9.82318 32.9389 9.82318C33.4342 9.82318 33.8509 9.66046 34.1796 9.33953C34.3963 9.12709 34.5194 8.83419 34.5518 8.45992H32.9389V7.9374H35.0907C35.1167 8.0504 35.1241 8.15979 35.1241 8.26556V8.26556Z" fill="white" stroke="white" stroke-width="0.16" stroke-miterlimit="10"/>
<path d="M38.5379 6.45388H36.5166V7.828H38.3388V8.35052H36.5166V9.72463H38.5379V10.2571H35.9444V5.92142H38.5379V6.45388Z" fill="white" stroke="white" stroke-width="0.16" stroke-miterlimit="10"/>
<path d="M40.9472 10.2571H40.375V6.45388H39.1352V5.92142H42.188V6.45388H40.9472V10.2571V10.2571Z" fill="white" stroke="white" stroke-width="0.16" stroke-miterlimit="10"/>
<path d="M44.3972 10.2571V5.92142H44.9685V10.2571H44.3972Z" fill="white" stroke="white" stroke-width="0.16" stroke-miterlimit="10"/>
<path d="M47.5009 10.2571H46.9333V6.45388H45.6889V5.92142H48.7454V6.45388H47.5009V10.2571Z" fill="white" stroke="white" stroke-width="0.16" stroke-miterlimit="10"/>
<path d="M54.525 9.69933C54.0871 10.1378 53.5445 10.3566 52.8973 10.3566C52.2463 10.3566 51.7037 10.1378 51.2658 9.69933C50.8287 9.26179 50.6111 8.7248 50.6111 8.08927C50.6111 7.45375 50.8287 6.91676 51.2658 6.47921C51.7037 6.04076 52.2463 5.82199 52.8973 5.82199C53.5408 5.82199 54.0834 6.04076 54.5213 6.48283C54.9621 6.92399 55.1797 7.45736 55.1797 8.08927C55.1797 8.7248 54.9621 9.26179 54.525 9.69933ZM51.6889 9.33592C52.0186 9.66046 52.4195 9.82318 52.8973 9.82318C53.3713 9.82318 53.776 9.66046 54.1019 9.33592C54.4306 9.01137 54.5973 8.59462 54.5973 8.08927C54.5973 7.58393 54.4306 7.16717 54.1019 6.84263C53.776 6.51809 53.3713 6.35536 52.8973 6.35536C52.4195 6.35536 52.0186 6.51809 51.6889 6.84263C51.3602 7.16717 51.1936 7.58393 51.1936 8.08927C51.1936 8.59462 51.3602 9.01137 51.6889 9.33592V9.33592Z" fill="white" stroke="white" stroke-width="0.16" stroke-miterlimit="10"/>
<path d="M55.9824 10.2571V5.92142H56.6769L58.8361 9.29341H58.8611L58.8361 8.45991V5.92142H59.4074V10.2571H58.8111L56.55 6.71876H56.525L56.55 7.55589V10.2571H55.9824V10.2571Z" fill="white" stroke="white" stroke-width="0.16" stroke-miterlimit="10"/>
<path d="M50.4704 16.5889C48.7306 16.5889 47.3093 17.8816 47.3093 19.6653C47.3093 21.4344 48.7306 22.7408 50.4704 22.7408C52.2139 22.7408 53.6352 21.4344 53.6352 19.6653C53.6352 17.8816 52.2139 16.5889 50.4704 16.5889ZM50.4704 21.5294C49.5158 21.5294 48.6945 20.76 48.6945 19.6653C48.6945 18.556 49.5158 17.8003 50.4704 17.8003C51.425 17.8003 52.25 18.556 52.25 19.6653C52.25 20.76 51.425 21.5294 50.4704 21.5294V21.5294ZM43.5732 16.5889C41.8296 16.5889 40.4121 17.8816 40.4121 19.6653C40.4121 21.4344 41.8296 22.7408 43.5732 22.7408C45.3158 22.7408 46.7343 21.4344 46.7343 19.6653C46.7343 17.8816 45.3158 16.5889 43.5732 16.5889ZM43.5732 21.5294C42.6176 21.5294 41.7935 20.76 41.7935 19.6653C41.7935 18.556 42.6176 17.8003 43.5732 17.8003C44.5278 17.8003 45.3491 18.556 45.3491 19.6653C45.3491 20.76 44.5278 21.5294 43.5732 21.5294ZM35.3658 17.5318V18.839H38.563C38.4695 19.5694 38.2195 20.1064 37.8361 20.4807C37.3695 20.9327 36.6426 21.4344 35.3658 21.4344C33.3982 21.4344 31.8574 19.884 31.8574 17.963C31.8574 16.042 33.3982 14.4916 35.3658 14.4916C36.4297 14.4916 37.2037 14.8975 37.775 15.4236L38.7185 14.5024C37.9195 13.7575 36.8565 13.1853 35.3658 13.1853C32.6676 13.1853 30.4 15.3287 30.4 17.963C30.4 20.5973 32.6676 22.7408 35.3658 22.7408C36.8241 22.7408 37.9195 22.2743 38.7806 21.3992C39.663 20.5377 39.938 19.3263 39.938 18.3481C39.938 18.0444 39.9121 17.765 39.8658 17.5318H35.3658ZM68.9269 18.5452C68.6667 17.8572 67.8639 16.5889 66.2287 16.5889C64.6083 16.5889 63.2593 17.8355 63.2593 19.6653C63.2593 21.3883 64.5945 22.7408 66.3843 22.7408C67.8315 22.7408 68.6667 21.8792 69.0102 21.3775L67.9361 20.6787C67.5778 21.1904 67.0898 21.5294 66.3843 21.5294C65.6833 21.5294 65.1806 21.2157 64.8583 20.5973L69.0722 18.895L68.9269 18.5452V18.5452ZM64.6306 19.5694C64.5945 18.3834 65.5741 17.7759 66.2759 17.7759C66.8259 17.7759 67.2926 18.0444 67.4482 18.4286L64.6306 19.5694V19.5694ZM61.2056 22.5536H62.5908V13.5134H61.2056V22.5536ZM58.9371 17.2741H58.8908C58.5796 16.9143 57.9861 16.5889 57.2343 16.5889C55.6565 16.5889 54.2139 17.9413 54.2139 19.6752C54.2139 21.3992 55.6565 22.7408 57.2343 22.7408C57.9861 22.7408 58.5796 22.4126 58.8908 22.0419H58.9371V22.4831C58.9371 23.6592 58.2935 24.2911 57.2556 24.2911C56.4093 24.2911 55.8843 23.6945 55.6676 23.1928L54.463 23.6836C54.8102 24.4991 55.7296 25.5025 57.2556 25.5025C58.8796 25.5025 60.25 24.5696 60.25 22.2996V16.776H58.9371V17.2741V17.2741ZM57.3528 21.5294C56.3982 21.5294 55.5991 20.7492 55.5991 19.6752C55.5991 18.5913 56.3982 17.8003 57.3528 17.8003C58.2935 17.8003 59.0352 18.5913 59.0352 19.6752C59.0352 20.7492 58.2935 21.5294 57.3528 21.5294V21.5294ZM75.412 13.5134H72.0991V22.5536H73.4806V19.1283H75.412C76.9463 19.1283 78.4509 18.0444 78.4509 16.3204C78.4509 14.5973 76.9426 13.5134 75.412 13.5134V13.5134ZM75.4482 17.8708H73.4806V14.7709H75.4482C76.4796 14.7709 77.0685 15.6071 77.0685 16.3204C77.0685 17.0201 76.4796 17.8708 75.4482 17.8708ZM83.988 16.5717C82.9898 16.5717 81.9519 17.002 81.525 17.9558L82.7509 18.4575C83.0148 17.9558 83.5 17.793 84.013 17.793C84.7296 17.793 85.4565 18.2134 85.4676 18.9556V19.0505C85.2176 18.9095 84.6824 18.7007 84.0241 18.7007C82.7037 18.7007 81.3583 19.4103 81.3583 20.7347C81.3583 21.9461 82.4398 22.7263 83.6556 22.7263C84.5852 22.7263 85.0982 22.3168 85.4204 21.8403H85.4676V22.5392H86.8019V19.0713C86.8019 17.4685 85.5759 16.5717 83.988 16.5717ZM83.8213 21.5257C83.3695 21.5257 82.7398 21.307 82.7398 20.76C82.7398 20.0603 83.525 19.7918 84.2046 19.7918C84.813 19.7918 85.0982 19.9229 85.4676 20.0956C85.3593 20.9327 84.6213 21.5257 83.8213 21.5257V21.5257ZM91.663 16.7697L90.075 20.6886H90.0278L88.3861 16.7697H86.8963L89.363 22.2463L87.9556 25.2937H89.3991L93.2 16.7697H91.663V16.7697ZM79.2102 22.5536H80.5954V13.5134H79.2102V22.5536Z" fill="white"/>
<path d="M7.72963 6.30925C7.51203 6.53164 7.38611 6.87788 7.38611 7.32628V23.3202C7.38611 23.7686 7.51203 24.1148 7.72963 24.3372L7.78333 24.386L16.963 15.4272V15.2157L7.78333 6.25682L7.72963 6.30925Z" fill="url(#paint0_linear)"/>
<path d="M20.0194 18.415L16.963 15.4272V15.2156L20.0231 12.2279L20.0917 12.2667L23.7157 14.28C24.75 14.8513 24.75 15.7915 23.7157 16.3665L20.0917 18.3761L20.0194 18.415V18.415Z" fill="url(#paint1_linear)"/>
<path d="M20.0917 18.3761L16.9629 15.3214L7.72961 24.3372C8.07313 24.6898 8.63332 24.7323 9.27035 24.3797L20.0917 18.3761" fill="url(#paint2_linear)"/>
<path d="M20.0917 12.2668L9.27035 6.26316C8.63332 5.91421 8.07313 5.9567 7.72961 6.30926L16.9629 15.3214L20.0917 12.2668Z" fill="url(#paint3_linear)"/>
<defs>
<linearGradient id="paint0_linear" x1="16.1479" y1="23.4868" x2="4.01409" y2="11.0589" gradientUnits="userSpaceOnUse">
<stop stop-color="#00A0FF"/>
<stop offset="0.0066" stop-color="#00A1FF"/>
<stop offset="0.2601" stop-color="#00BEFF"/>
<stop offset="0.5122" stop-color="#00D2FF"/>
<stop offset="0.7604" stop-color="#00DFFF"/>
<stop offset="1" stop-color="#00E3FF"/>
</linearGradient>
<linearGradient id="paint1_linear" x1="25.0625" y1="15.3204" x2="7.13888" y2="15.3204" gradientUnits="userSpaceOnUse">
<stop stop-color="#FFE000"/>
<stop offset="0.4087" stop-color="#FFBD00"/>
<stop offset="0.7754" stop-color="#FFA500"/>
<stop offset="1" stop-color="#FF9C00"/>
</linearGradient>
<linearGradient id="paint2_linear" x1="18.3904" y1="13.6609" x2="1.9359" y2="-3.19231" gradientUnits="userSpaceOnUse">
<stop stop-color="#FF3A44"/>
<stop offset="1" stop-color="#C31162"/>
</linearGradient>
<linearGradient id="paint3_linear" x1="5.40539" y1="29.6583" x2="12.753" y2="22.1327" gradientUnits="userSpaceOnUse">
<stop stop-color="#32A071"/>
<stop offset="0.0685" stop-color="#2DA771"/>
<stop offset="0.4762" stop-color="#15CF74"/>
<stop offset="0.8009" stop-color="#06E775"/>
<stop offset="1" stop-color="#00F076"/>
</linearGradient>
</defs>
</svg>
