<svg width="22" height="18" viewBox="0 0 22 18" fill="none" xmlns="http://www.w3.org/2000/svg">
<path d="M18.1923 7.36364C18.1923 7.58063 18.1052 7.78874 17.9501 7.94218C17.795 8.09562 17.5847 8.18182 17.3654 8.18182H13.2308C13.0115 8.18182 12.8011 8.09562 12.646 7.94218C12.491 7.78874 12.4038 7.58063 12.4038 7.36364C12.4038 7.14664 12.491 6.93853 12.646 6.78509C12.8011 6.63166 13.0115 6.54545 13.2308 6.54545H17.3654C17.5847 6.54545 17.795 6.63166 17.9501 6.78509C18.1052 6.93853 18.1923 7.14664 18.1923 7.36364ZM17.3654 9.81818H13.2308C13.0115 9.81818 12.8011 9.90438 12.646 10.0578C12.491 10.2113 12.4038 10.4194 12.4038 10.6364C12.4038 10.8534 12.491 11.0615 12.646 11.2149C12.8011 11.3683 13.0115 11.4545 13.2308 11.4545H17.3654C17.5847 11.4545 17.795 11.3683 17.9501 11.2149C18.1052 11.0615 18.1923 10.8534 18.1923 10.6364C18.1923 10.4194 18.1052 10.2113 17.9501 10.0578C17.795 9.90438 17.5847 9.81818 17.3654 9.81818ZM11.0436 12.8867C11.0706 12.9907 11.0767 13.099 11.0615 13.2054C11.0463 13.3118 11.01 13.4142 10.9548 13.5067C10.8996 13.5993 10.8265 13.6801 10.7397 13.7447C10.6529 13.8093 10.5541 13.8563 10.4489 13.8831C10.3437 13.9099 10.2342 13.9159 10.1267 13.9009C10.0192 13.8858 9.91571 13.8499 9.82219 13.7953C9.72868 13.7407 9.64695 13.6683 9.58169 13.5824C9.51642 13.4966 9.46889 13.3988 9.44181 13.2947C9.304 12.768 8.99326 12.3014 8.55839 11.9683C8.12351 11.6352 7.58913 11.4545 7.03918 11.4545C6.48923 11.4545 5.95486 11.6352 5.51998 11.9683C5.0851 12.3014 4.77436 12.768 4.63656 13.2947C4.60965 13.399 4.56223 13.4969 4.49702 13.583C4.43181 13.6691 4.35009 13.7416 4.25653 13.7963C4.16297 13.8511 4.05941 13.8871 3.95177 13.9023C3.84414 13.9174 3.73454 13.9114 3.62925 13.8846C3.52396 13.8578 3.42505 13.8107 3.33818 13.746C3.25131 13.6813 3.17818 13.6004 3.12297 13.5077C3.06777 13.415 3.03158 13.3125 3.01647 13.206C3.00136 13.0994 3.00762 12.991 3.03491 12.8869C3.28641 11.919 3.88814 11.0762 4.72597 10.5181C4.25616 10.0633 3.93394 9.48035 3.80044 8.84358C3.66694 8.20681 3.7282 7.54512 3.97641 6.94295C4.22462 6.34077 4.64852 5.82542 5.19403 5.46264C5.73953 5.09986 6.38191 4.90611 7.03918 4.90611C7.69646 4.90611 8.33883 5.09986 8.88434 5.46264C9.42985 5.82542 9.85375 6.34077 10.102 6.94295C10.3502 7.54512 10.4114 8.20681 10.2779 8.84358C10.1444 9.48035 9.82221 10.0633 9.3524 10.5181C10.1902 11.0761 10.7919 11.9189 11.0435 12.8867H11.0436ZM7.03918 9.81818C7.36628 9.81818 7.68604 9.72221 7.95801 9.5424C8.22998 9.3626 8.44196 9.10703 8.56714 8.80803C8.69231 8.50902 8.72506 8.18 8.66125 7.86258C8.59744 7.54516 8.43992 7.25358 8.20863 7.02473C7.97733 6.79589 7.68265 6.64004 7.36183 6.5769C7.04102 6.51376 6.70848 6.54616 6.40628 6.67002C6.10408 6.79387 5.84579 7.0036 5.66406 7.2727C5.48233 7.5418 5.38534 7.85818 5.38534 8.18182C5.38583 8.61566 5.56023 9.03159 5.87028 9.33836C6.18033 9.64514 6.60071 9.81769 7.03918 9.81818ZM21.5 1.63636V16.3636C21.4995 16.7975 21.3251 17.2134 21.0151 17.5202C20.705 17.827 20.2846 17.9995 19.8462 18H1.65385C1.21537 17.9995 0.794994 17.827 0.484944 17.5202C0.174895 17.2134 0.000492455 16.7975 0 16.3636V1.63636C0.000492455 1.20252 0.174895 0.78659 0.484944 0.479818C0.794994 0.173046 1.21537 0.000487249 1.65385 0H19.8462C20.2846 0.000487249 20.705 0.173046 21.0151 0.479818C21.3251 0.78659 21.4995 1.20252 21.5 1.63636ZM19.8472 16.3636L19.8462 1.63636H1.65385V16.3636H19.8462H19.8472Z" fill="#DBDCE8"/>
</svg>
