<svg width="21" height="21" viewBox="0 0 21 21" fill="none" xmlns="http://www.w3.org/2000/svg">
<path d="M10.5002 0.5C8.96634 0.499933 7.453 0.852741 6.07728 1.53113C4.70156 2.20952 3.50034 3.19531 2.56654 4.41222C1.63275 5.62914 0.991418 7.04457 0.69216 8.54901C0.392901 10.0535 0.44374 11.6066 0.840743 13.0882C1.23775 14.5699 1.97027 15.9403 2.98165 17.0936C3.99302 18.2468 5.25614 19.1519 6.67328 19.7389C8.09042 20.3259 9.62359 20.5789 11.1542 20.4786C12.6848 20.3782 14.1718 19.927 15.5001 19.16C15.6196 19.0975 15.7252 19.0114 15.8106 18.907C15.896 18.8027 15.9594 18.6821 15.997 18.5525C16.0346 18.423 16.0455 18.2872 16.0293 18.1533C16.013 18.0194 15.9698 17.8902 15.9023 17.7735C15.8349 17.6567 15.7444 17.5548 15.6365 17.4739C15.5286 17.393 15.4055 17.3347 15.2745 17.3026C15.1435 17.2705 15.0074 17.2653 14.8743 17.2872C14.7412 17.3091 14.6139 17.3576 14.5001 17.43C12.9751 18.3105 11.2022 18.6632 9.45625 18.4334C7.71036 18.2036 6.08906 17.4041 4.84381 16.159C3.59855 14.9138 2.79892 13.2926 2.56892 11.5467C2.33893 9.80076 2.69141 8.02774 3.57172 6.50257C4.45203 4.97741 5.81096 3.78532 7.43778 3.11119C9.0646 2.43706 10.8684 2.31855 12.5694 2.77404C14.2705 3.22953 15.7737 4.23358 16.8459 5.63046C17.9182 7.02734 18.4996 8.739 18.5 10.5V11.25C18.5 11.7141 18.3157 12.1592 17.9875 12.4874C17.6593 12.8156 17.2142 13 16.7501 13C16.286 13 15.8409 12.8156 15.5127 12.4874C15.1845 12.1592 15.0001 11.7141 15.0001 11.25V7C15.0001 6.73478 14.8948 6.48043 14.7072 6.29289C14.5197 6.10536 14.2654 6 14.0001 6C13.7676 5.99482 13.5405 6.07088 13.358 6.21507C13.1755 6.35926 13.049 6.56257 13.0002 6.79C12.2651 6.28158 11.394 6.0063 10.5002 6C9.7474 5.991 9.00436 6.17102 8.33914 6.5236C7.67392 6.87617 7.1078 7.39001 6.69261 8.01807C6.27742 8.64612 6.02645 9.36831 5.96268 10.1185C5.89891 10.8687 6.02437 11.6229 6.32758 12.312C6.63079 13.0011 7.10206 13.6032 7.69821 14.063C8.29437 14.5228 8.99636 14.8257 9.73989 14.9439C10.4834 15.0621 11.2447 14.9918 11.9541 14.7396C12.6634 14.4873 13.2982 14.0611 13.8001 13.5C14.2753 14.1153 14.9303 14.5673 15.6742 14.793C16.4181 15.0188 17.2139 15.0071 17.9509 14.7596C18.6878 14.5121 19.3293 14.0411 19.7862 13.4121C20.243 12.7831 20.4926 12.0274 20.5 11.25V10.5C20.5 9.18678 20.2413 7.88642 19.7388 6.67316C19.2363 5.45991 18.4997 4.35752 17.5711 3.42893C16.6426 2.50035 15.5402 1.76375 14.327 1.2612C13.1137 0.758658 11.8134 0.5 10.5002 0.5V0.5ZM10.5002 13C10.0058 13 9.52244 12.8534 9.11132 12.5787C8.70021 12.304 8.37979 11.9135 8.19057 11.4567C8.00136 10.9999 7.95185 10.4972 8.04831 10.0123C8.14477 9.52732 8.38287 9.08186 8.73249 8.73223C9.08211 8.3826 9.52756 8.1445 10.0125 8.04804C10.4974 7.95157 11.0001 8.00108 11.4569 8.1903C11.9137 8.37952 12.3042 8.69995 12.5788 9.11107C12.8535 9.5222 13.0002 10.0055 13.0002 10.5C13.0002 11.163 12.7368 11.7989 12.2679 12.2678C11.7991 12.7366 11.1632 13 10.5002 13V13Z" fill="#DBDCE8"/>
</svg>
