<svg width="20" height="20" viewBox="0 0 20 20" fill="none" xmlns="http://www.w3.org/2000/svg">
<path d="M17.1201 15.4668C18.1657 14.1144 18.8045 12.4922 18.9618 10.79C18.1615 11.2876 16.1047 12.2546 14.2804 12.1415C12.6084 12.0168 11.0368 11.2961 9.85122 10.1106C8.66568 8.92506 7.94503 7.35338 7.82035 5.68141C7.69566 4.00945 8.17523 2.34827 9.17182 1C7.46961 1.15731 5.84741 1.79614 4.49503 2.84175C3.14265 3.88737 2.11602 5.29651 1.53528 6.9043C0.954531 8.51208 0.843691 10.252 1.21572 11.9205C1.58775 13.589 2.42727 15.117 3.63604 16.3258C4.84481 17.5345 6.37283 18.3741 8.04132 18.7461C9.7098 19.1181 11.4497 19.0073 13.0575 18.4265C14.6653 17.8458 16.0744 16.8192 17.1201 15.4668Z" stroke="#DBDCE8" stroke-width="2" stroke-linecap="round" stroke-linejoin="round"/>
</svg>
