<svg width="17" height="18" viewBox="0 0 17 18" fill="none" xmlns="http://www.w3.org/2000/svg">
<path d="M13.7999 8.20007H2.59999C1.71634 8.20007 1 8.91641 1 9.80006V15.4C1 16.2837 1.71634 17 2.59999 17H13.7999C14.6835 17 15.3999 16.2837 15.3999 15.4V9.80006C15.3999 8.91641 14.6835 8.20007 13.7999 8.20007Z" stroke="#DBDCE8" stroke-width="2" stroke-linecap="round" stroke-linejoin="round"/>
<path d="M4.2002 8.19994V4.99997C4.2002 3.93911 4.62162 2.9217 5.37176 2.17156C6.1219 1.42142 7.1393 1 8.20016 1C9.26102 1 10.2784 1.42142 11.0286 2.17156C11.7787 2.9217 12.2001 3.93911 12.2001 4.99997V8.19994" stroke="#DBDCE8" stroke-width="2" stroke-linecap="round" stroke-linejoin="round"/>
</svg>
