<svg width="17" height="20" viewBox="0 0 17 20" fill="none" xmlns="http://www.w3.org/2000/svg">
<path d="M16.0257 5.1023C16.4114 4.71657 16.6237 4.2043 16.6237 3.65937C16.6237 3.11444 16.4114 2.60217 16.0257 2.21644L14.4072 0.59799C14.0215 0.212256 13.5092 0 12.9643 0C12.4194 0 11.9071 0.212256 11.5224 0.596969L0.672852 11.4128V15.9182H5.17614L16.0257 5.1023ZM12.9643 2.04092L14.5838 3.65835L12.9612 5.27476L11.3428 3.65733L12.9643 2.04092ZM2.71377 13.8772V12.2598L9.89781 5.09822L11.5163 6.71667L4.33324 13.8772H2.71377ZM0.672852 17.9591H17.0002V20H0.672852V17.9591Z" fill="#DBDCE8"/>
</svg>
