<svg width="32" height="30" viewBox="0 0 32 30" fill="none" xmlns="http://www.w3.org/2000/svg">
<path d="M30.2503 4H27.0003V6H30.0003V28H2.00026V6H5.00026V4H1.75026C1.51649 4.00391 1.28579 4.05383 1.07132 4.14691C0.856857 4.23999 0.662828 4.37441 0.500319 4.54249C0.33781 4.71057 0.210004 4.90902 0.124203 5.1265C0.0384012 5.34398 -0.00371596 5.57624 0.000257051 5.81V28.19C-0.00371596 28.4238 0.0384012 28.656 0.124203 28.8735C0.210004 29.091 0.33781 29.2894 0.500319 29.4575C0.662828 29.6256 0.856857 29.76 1.07132 29.8531C1.28579 29.9462 1.51649 29.9961 1.75026 30H30.2503C30.484 29.9961 30.7147 29.9462 30.9292 29.8531C31.1437 29.76 31.3377 29.6256 31.5002 29.4575C31.6627 29.2894 31.7905 29.091 31.8763 28.8735C31.9621 28.656 32.0042 28.4238 32.0003 28.19V5.81C32.0042 5.57624 31.9621 5.34398 31.8763 5.1265C31.7905 4.90902 31.6627 4.71057 31.5002 4.54249C31.3377 4.37441 31.1437 4.23999 30.9292 4.14691C30.7147 4.05383 30.484 4.00391 30.2503 4Z" fill="#A5A7BC"/>
<path d="M6.00024 12H8.00024V14H6.00024V12Z" fill="#A5A7BC"/>
<path d="M12.0002 12H14.0002V14H12.0002V12Z" fill="#A5A7BC"/>
<path d="M18.0002 12H20.0002V14H18.0002V12Z" fill="#A5A7BC"/>
<path d="M24.0002 12H26.0002V14H24.0002V12Z" fill="#A5A7BC"/>
<path d="M6.00024 17H8.00024V19H6.00024V17Z" fill="#A5A7BC"/>
<path d="M12.0002 17H14.0002V19H12.0002V17Z" fill="#A5A7BC"/>
<path d="M18.0002 17H20.0002V19H18.0002V17Z" fill="#A5A7BC"/>
<path d="M24.0002 17H26.0002V19H24.0002V17Z" fill="#A5A7BC"/>
<path d="M6.00024 22H8.00024V24H6.00024V22Z" fill="#A5A7BC"/>
<path d="M12.0002 22H14.0002V24H12.0002V22Z" fill="#A5A7BC"/>
<path d="M18.0002 22H20.0002V24H18.0002V22Z" fill="#A5A7BC"/>
<path d="M24.0002 22H26.0002V24H24.0002V22Z" fill="#A5A7BC"/>
<path d="M8.00024 8C8.26546 8 8.51981 7.89464 8.70735 7.70711C8.89489 7.51957 9.00024 7.26522 9.00024 7V1C9.00024 0.734784 8.89489 0.48043 8.70735 0.292893C8.51981 0.105357 8.26546 0 8.00024 0C7.73503 0 7.48067 0.105357 7.29314 0.292893C7.1056 0.48043 7.00024 0.734784 7.00024 1V7C7.00024 7.26522 7.1056 7.51957 7.29314 7.70711C7.48067 7.89464 7.73503 8 8.00024 8Z" fill="#A5A7BC"/>
<path d="M24.0002 8C24.2655 8 24.5198 7.89464 24.7074 7.70711C24.8949 7.51957 25.0002 7.26522 25.0002 7V1C25.0002 0.734784 24.8949 0.48043 24.7074 0.292893C24.5198 0.105357 24.2655 0 24.0002 0C23.735 0 23.4807 0.105357 23.2931 0.292893C23.1056 0.48043 23.0002 0.734784 23.0002 1V7C23.0002 7.26522 23.1056 7.51957 23.2931 7.70711C23.4807 7.89464 23.735 8 24.0002 8Z" fill="#A5A7BC"/>
<path d="M11.0002 4H21.0002V6H11.0002V4Z" fill="#A5A7BC"/>
</svg>
