<svg width="471" height="483" viewBox="0 0 471 483" fill="none" xmlns="http://www.w3.org/2000/svg">
<path d="M470.177 386.136C470.177 495.617 339.223 489.563 243.591 473.767C22.106 437.183 0 386.717 0 277.236C0 167.756 55.1098 109.632 164.519 109.632C273.929 109.632 470.177 276.656 470.177 386.136Z" fill="url(#paint0_linear)"/>
<g clip-path="url(#clip0)">
<g filter="url(#filter0_d)">
<path d="M51.7609 26.9404C51.061 26.9396 50.3894 27.2162 49.8934 27.7095C49.3974 28.2028 49.1175 28.8725 49.1151 29.5718L48.4651 311.775C48.4643 312.474 48.7411 313.145 49.2349 313.64C49.7286 314.136 50.3989 314.416 51.0987 314.418L278.644 314.941C279.344 314.942 280.015 314.665 280.511 314.172C281.008 313.679 281.287 313.009 281.29 312.31L281.94 30.1071C281.941 29.4078 281.664 28.7369 281.17 28.2413C280.676 27.7457 280.006 27.466 279.306 27.4636L51.7609 26.9404Z" fill="#E6E6E6"/>
<path d="M60.1885 35.3995C59.4887 35.3988 58.8171 35.6753 58.3211 36.1686C57.8251 36.6619 57.5452 37.3316 57.5427 38.0309L56.9316 303.354C56.9309 304.053 57.2077 304.724 57.7014 305.22C58.1951 305.716 58.8655 305.995 59.5653 305.998L270.217 306.482C270.916 306.483 271.588 306.206 272.084 305.713C272.58 305.22 272.86 304.55 272.862 303.851L273.473 38.5274C273.474 37.8281 273.197 37.1571 272.704 36.6616C272.21 36.166 271.54 35.8863 270.84 35.8839L60.1885 35.3995Z" fill="white"/>
<path d="M242.858 150.613L87.6415 150.256C87.1213 150.256 86.6065 150.152 86.1263 149.952C85.6461 149.753 85.21 149.46 84.8429 149.092C84.4758 148.724 84.185 148.287 83.987 147.806C83.789 147.326 83.6877 146.811 83.6889 146.291C83.6901 145.772 83.7937 145.257 83.9939 144.778C84.1942 144.298 84.4871 143.862 84.8558 143.496C85.2246 143.129 85.662 142.839 86.1431 142.641C86.6242 142.444 87.1396 142.343 87.6597 142.344L242.876 142.701C243.926 142.704 244.932 143.123 245.672 143.867C246.413 144.611 246.827 145.617 246.825 146.666C246.822 147.715 246.403 148.72 245.659 149.46C244.916 150.2 243.908 150.615 242.858 150.613Z" fill="#E6E6E6"/>
<path d="M244.361 76.9008L141.385 76.664C139.934 76.6607 138.762 74.8868 138.767 72.7019C138.772 70.517 139.953 68.7485 141.403 68.7518L244.379 68.9886C245.83 68.9919 247.002 70.7659 246.997 72.9507C246.992 75.1356 245.812 76.9041 244.361 76.9008Z" fill="#E6E6E6"/>
<path d="M244.308 99.5826L141.333 99.3458C139.882 99.3425 138.71 97.5686 138.715 95.3837C138.72 93.1988 139.9 91.4303 141.351 91.4336L244.327 91.6704C245.778 91.6737 246.949 93.4476 246.944 95.6325C246.939 97.8174 245.759 99.5859 244.308 99.5826Z" fill="#E6E6E6"/>
<path d="M242.799 176.196L87.5825 175.839C86.5327 175.836 85.5271 175.417 84.7867 174.674C84.0463 173.93 83.6318 172.923 83.6342 171.874C83.6366 170.825 84.0558 169.82 84.7996 169.08C85.5434 168.34 86.551 167.925 87.6007 167.927L242.817 168.284C243.867 168.287 244.873 168.706 245.613 169.45C246.354 170.194 246.768 171.2 246.766 172.249C246.763 173.298 246.344 174.303 245.6 175.043C244.857 175.783 243.849 176.198 242.799 176.196Z" fill="#E6E6E6"/>
<path d="M242.74 201.779L87.5236 201.422C87.0034 201.421 86.4885 201.318 86.0083 201.118C85.5282 200.918 85.0921 200.626 84.725 200.258C84.3579 199.89 84.0671 199.453 83.8691 198.972C83.6711 198.492 83.5697 197.977 83.5709 197.457C83.5721 196.937 83.6758 196.423 83.876 195.943C84.0763 195.464 84.3691 195.028 84.7379 194.662C85.1066 194.295 85.5441 194.005 86.0252 193.807C86.5063 193.609 87.0217 193.509 87.5418 193.51L242.759 193.867C243.279 193.868 243.794 193.971 244.274 194.171C244.754 194.371 245.19 194.663 245.557 195.031C245.924 195.4 246.215 195.836 246.413 196.317C246.611 196.798 246.712 197.312 246.711 197.832C246.71 198.352 246.606 198.866 246.406 199.346C246.206 199.826 245.913 200.261 245.544 200.628C245.175 200.994 244.738 201.285 244.257 201.482C243.776 201.68 243.26 201.781 242.74 201.779Z" fill="#E6E6E6"/>
<path d="M242.681 227.362L87.4647 227.005C86.9447 227.004 86.43 226.9 85.9501 226.701C85.4701 226.501 85.0343 226.208 84.6675 225.84C84.3006 225.472 84.01 225.035 83.8121 224.555C83.6142 224.074 83.513 223.559 83.5142 223.04C83.5154 222.52 83.619 222.006 83.8191 221.527C84.0192 221.047 84.3118 220.612 84.6804 220.245C85.0489 219.879 85.4861 219.588 85.9669 219.391C86.4478 219.193 86.9629 219.092 87.4829 219.093L242.7 219.45C243.749 219.453 244.755 219.872 245.495 220.616C246.236 221.359 246.65 222.366 246.648 223.415C246.646 224.464 246.226 225.469 245.483 226.209C244.739 226.949 243.731 227.364 242.681 227.362Z" fill="#E6E6E6"/>
<path d="M242.622 252.945L87.4058 252.588C86.356 252.585 85.3504 252.166 84.61 251.422C83.8696 250.679 83.455 249.672 83.4574 248.623C83.4598 247.574 83.879 246.569 84.6228 245.829C85.3667 245.089 86.3742 244.674 87.424 244.676L242.641 245.033C243.69 245.036 244.696 245.455 245.437 246.199C246.177 246.942 246.591 247.949 246.589 248.998C246.587 250.047 246.167 251.052 245.424 251.792C244.68 252.532 243.672 252.947 242.622 252.945Z" fill="#E6E6E6"/>
<path d="M242.564 278.528L87.3469 278.171C86.8269 278.17 86.3122 278.066 85.8323 277.866C85.3523 277.666 84.9165 277.374 84.5497 277.006C83.8088 276.262 83.394 275.255 83.3964 274.206C83.3988 273.156 83.8183 272.151 84.5626 271.411C85.3068 270.671 86.3149 270.256 87.3651 270.259L242.582 270.615C243.102 270.616 243.617 270.72 244.097 270.919C244.577 271.119 245.013 271.412 245.38 271.78C245.747 272.148 246.038 272.585 246.236 273.066C246.434 273.546 246.536 274.061 246.534 274.581C246.533 275.1 246.43 275.615 246.229 276.094C246.029 276.574 245.736 277.01 245.367 277.376C244.999 277.743 244.561 278.033 244.08 278.231C243.599 278.428 243.084 278.529 242.564 278.528Z" fill="#E6E6E6"/>
<path d="M104.688 105.064C116.205 105.064 125.542 95.7355 125.542 84.2283C125.542 72.7211 116.205 63.3927 104.688 63.3927C93.1706 63.3927 83.834 72.7211 83.834 84.2283C83.834 95.7355 93.1706 105.064 104.688 105.064Z" fill="#A5A7BC"/>
<path d="M224.248 78.0948L224.248 28.7978C224.355 21.4372 221.546 14.3327 216.432 9.03307C211.319 3.73346 204.315 0.668616 196.949 0.506751C189.583 0.344887 182.452 3.09913 177.11 8.16898C171.768 13.2388 168.648 20.2131 168.432 27.5713H174.576C174.794 21.9508 177.18 16.6325 181.234 12.73C185.289 8.82755 190.697 6.64354 196.327 6.63529C196.433 6.63529 196.54 6.63618 196.647 6.63768C202.427 6.73028 207.934 9.11155 211.958 13.2584C215.982 17.4052 218.194 22.9783 218.107 28.7535V78.1206C218.108 78.2464 218.108 78.3719 218.107 78.4861C218.056 82.3234 216.496 85.9867 213.764 88.6841C211.032 91.3815 207.347 92.8965 203.506 92.9016C203.446 92.9016 203.386 92.9013 203.326 92.9007C199.448 92.8473 195.751 91.258 193.046 88.4821C190.34 85.7063 188.849 81.9709 188.899 78.0969L188.933 29.1319C188.963 27.2069 189.748 25.3709 191.119 24.0182C192.49 22.6655 194.338 21.9042 196.265 21.8979C198.192 21.8915 200.044 22.6407 201.424 23.9844C202.804 25.3281 203.601 27.159 203.644 29.0836V66.4756C203.644 67.2892 203.968 68.0695 204.544 68.6449C205.119 69.2202 205.9 69.5434 206.715 69.5434C207.529 69.5434 208.31 69.2202 208.886 68.6449C209.462 68.0695 209.785 67.2892 209.785 66.4756L209.785 29.0351C209.729 25.4917 208.279 22.1126 205.749 19.6288C203.219 17.1449 199.812 15.7558 196.265 15.7619C192.718 15.768 189.316 17.1688 186.795 19.6614C184.274 22.1539 182.836 25.5379 182.792 29.0815L182.758 78.0577C182.698 83.5528 184.822 88.8476 188.663 92.7804C192.505 96.7131 197.752 98.9627 203.251 99.0356C203.337 99.0368 203.421 99.0371 203.507 99.0371C208.965 99.0287 214.2 96.8749 218.081 93.0411C221.962 89.2074 224.178 84.0017 224.248 78.5493C224.249 78.3893 224.249 78.229 224.248 78.0948Z" fill="url(#paint1_linear)"/>
</g>
<path d="M441.03 365.965H258.298V367.513H441.03V365.965Z" fill="#DBDCE8"/>
<path d="M336.515 120.603H379.472V99.2589C379.488 93.4945 377.227 87.9566 373.181 83.8472C371.205 81.8226 368.843 80.2144 366.234 79.1177C363.625 78.021 360.823 77.458 357.992 77.4621C346.253 77.4621 336.822 86.7859 336.522 98.6887C336.518 98.8842 336.515 99.0699 336.515 99.2589L336.515 120.603Z" fill="#35373F"/>
<path d="M327.844 236.755C328.834 236.879 329.84 236.77 330.782 236.438C331.723 236.105 332.573 235.558 333.266 234.839C333.958 234.121 334.474 233.251 334.771 232.298C335.068 231.346 335.139 230.337 334.977 229.353L333.345 219.388H325.295L322.5 228.511C322.226 229.406 322.151 230.35 322.28 231.277C322.41 232.204 322.741 233.091 323.25 233.877C323.759 234.662 324.434 235.327 325.228 235.824C326.021 236.321 326.914 236.639 327.844 236.755Z" fill="#FFB9B9"/>
<path d="M426.425 355.616L416.865 356.789L367.558 253.57L339.718 356.789L329.656 353.773L339.048 188.221L383.323 185.875C400.121 205.744 413.316 291.338 426.425 355.616Z" fill="#35373F"/>
<path d="M334.318 367.513H314.261C313.333 367.513 312.441 367.155 311.771 366.513C311.102 365.871 310.706 364.995 310.667 364.069C310.639 363.398 310.8 362.732 311.132 362.148C311.463 361.563 311.952 361.083 312.543 360.762L324.079 354.494L331.187 352.6C334.316 356.183 337.308 356.201 340.19 353.31L341.135 359.605C341.282 360.585 341.216 361.585 340.941 362.537C340.666 363.488 340.188 364.37 339.541 365.12C338.894 365.871 338.093 366.473 337.191 366.886C336.29 367.299 335.31 367.513 334.318 367.513Z" fill="#35373F"/>
<path d="M420.522 367.513H400.465C399.537 367.513 398.645 367.155 397.975 366.513C397.305 365.871 396.91 364.995 396.871 364.069C396.843 363.398 397.004 362.732 397.335 362.148C397.667 361.563 398.156 361.083 398.746 360.762L410.282 354.494L417.39 352.6C420.519 356.183 423.512 356.201 426.393 353.31L427.338 359.605C427.485 360.585 427.419 361.585 427.144 362.537C426.869 363.488 426.392 364.37 425.745 365.12C425.098 365.871 424.296 366.474 423.395 366.886C422.493 367.299 421.513 367.513 420.522 367.513Z" fill="#35373F"/>
<path d="M322.612 221.733L335.023 221.063L342.737 131.585L336.898 132.46C334.73 132.785 332.731 133.821 331.217 135.405C329.703 136.989 328.759 139.032 328.535 141.211L322.612 221.733Z" fill="url(#paint2_linear)"/>
<path d="M354.812 115.499C363.89 115.499 371.248 108.147 371.248 99.0775C371.248 90.0084 363.89 82.6564 354.812 82.6564C345.735 82.6564 338.377 90.0084 338.377 99.0775C338.377 108.147 345.735 115.499 354.812 115.499Z" fill="#FFB9B9"/>
<path d="M374.602 127.228C362.165 163.508 351.23 166.042 341.06 151.357C341.956 140.414 345.591 131.548 352.129 124.882C355.925 122.282 353.684 117.342 350.787 112.147L366.552 106.785C367.001 113.404 369.902 120.237 374.602 127.228Z" fill="#FFB9B9"/>
<path d="M384.162 187.383C366.154 199.805 349.956 202.1 339.215 190.399C335.46 174.865 334.684 158.579 336.507 142.484C336.796 139.967 337.637 137.545 338.972 135.39C340.307 133.236 342.101 131.403 344.228 130.023L352.129 124.882L355.986 137.114L370.913 120.861L382.19 122.221C384.366 122.483 386.352 123.593 387.714 125.309C389.077 127.025 389.706 129.209 389.467 131.387L384.162 187.383Z" fill="url(#paint3_linear)"/>
<path d="M373.214 86.6712L369.132 99.6473L333.839 99.0206C333.959 94.4806 335.496 90.0916 338.235 86.4668C340.973 82.8419 344.777 80.1622 349.114 78.802C353.451 77.4418 358.104 77.469 362.425 78.8798C366.746 80.2906 370.518 83.0146 373.214 86.6712H373.214Z" fill="#35373F"/>
<path d="M380.217 222.809C380.058 222.809 379.905 222.872 379.793 222.984C379.68 223.096 379.616 223.248 379.616 223.407L379.468 287.522C379.468 287.681 379.531 287.834 379.643 287.946C379.755 288.059 379.908 288.123 380.067 288.123L431.764 288.242C431.923 288.242 432.076 288.179 432.188 288.067C432.301 287.955 432.364 287.803 432.365 287.644L432.513 223.529C432.513 223.37 432.45 223.217 432.338 223.105C432.226 222.992 432.073 222.929 431.914 222.928L380.217 222.809Z" fill="#E6E6E6"/>
<path d="M382.132 224.731C381.973 224.731 381.82 224.794 381.707 224.906C381.595 225.018 381.531 225.17 381.53 225.329L381.392 285.609C381.391 285.768 381.454 285.921 381.566 286.033C381.679 286.146 381.831 286.209 381.99 286.21L429.849 286.32C430.008 286.32 430.161 286.257 430.273 286.145C430.386 286.033 430.45 285.881 430.45 285.722L430.589 225.442C430.589 225.283 430.526 225.13 430.414 225.018C430.302 224.905 430.15 224.842 429.991 224.841L382.132 224.731Z" fill="white"/>
<path d="M423.633 250.907L388.369 250.826C388.251 250.826 388.134 250.802 388.025 250.757C387.916 250.712 387.817 250.645 387.733 250.561C387.65 250.478 387.584 250.379 387.539 250.269C387.494 250.16 387.471 250.043 387.471 249.925C387.472 249.807 387.495 249.69 387.541 249.581C387.586 249.473 387.653 249.374 387.736 249.29C387.82 249.207 387.919 249.141 388.029 249.096C388.138 249.051 388.255 249.028 388.373 249.029L423.638 249.11C423.756 249.11 423.873 249.133 423.982 249.179C424.091 249.224 424.19 249.291 424.273 249.374C424.356 249.458 424.423 249.557 424.467 249.666C424.512 249.776 424.535 249.892 424.535 250.01C424.535 250.129 424.511 250.245 424.466 250.354C424.42 250.463 424.354 250.562 424.27 250.645C424.186 250.729 424.087 250.795 423.978 250.84C423.869 250.885 423.752 250.907 423.633 250.907H423.633Z" fill="#E6E6E6"/>
<path d="M423.975 234.16L400.579 234.106C400.25 234.106 399.983 233.703 399.984 233.206C399.986 232.71 400.254 232.308 400.583 232.309L423.979 232.363C424.309 232.363 424.575 232.766 424.574 233.263C424.573 233.759 424.305 234.161 423.975 234.16Z" fill="#E6E6E6"/>
<path d="M423.963 239.313L400.567 239.259C400.238 239.259 399.971 238.856 399.973 238.359C399.974 237.863 400.242 237.461 400.571 237.462L423.967 237.516C424.297 237.516 424.563 237.919 424.562 238.416C424.561 238.912 424.293 239.314 423.963 239.313Z" fill="#E6E6E6"/>
<path d="M423.62 256.719L388.355 256.638C388.117 256.638 387.888 256.543 387.72 256.374C387.552 256.205 387.457 255.976 387.458 255.738C387.458 255.499 387.554 255.271 387.723 255.103C387.892 254.934 388.121 254.84 388.36 254.841L423.624 254.922C423.863 254.922 424.091 255.018 424.26 255.187C424.428 255.356 424.522 255.584 424.522 255.823C424.521 256.061 424.426 256.29 424.257 256.458C424.088 256.626 423.859 256.72 423.62 256.719Z" fill="#E6E6E6"/>
<path d="M423.607 262.532L388.342 262.451C388.104 262.45 387.875 262.355 387.707 262.186C387.539 262.017 387.445 261.788 387.445 261.55C387.446 261.312 387.541 261.084 387.71 260.915C387.879 260.747 388.108 260.653 388.346 260.653L423.611 260.734C423.849 260.735 424.078 260.83 424.246 260.999C424.414 261.168 424.508 261.397 424.508 261.635C424.507 261.873 424.412 262.102 424.243 262.27C424.074 262.438 423.845 262.532 423.607 262.532Z" fill="#E6E6E6"/>
<path d="M423.593 268.344L388.329 268.263C388.211 268.263 388.093 268.24 387.984 268.194C387.875 268.149 387.776 268.082 387.693 267.999C387.609 267.915 387.543 267.816 387.498 267.707C387.453 267.597 387.43 267.48 387.43 267.362C387.431 267.244 387.454 267.127 387.5 267.018C387.545 266.909 387.612 266.81 387.696 266.727C387.779 266.644 387.879 266.578 387.988 266.533C388.098 266.488 388.215 266.465 388.333 266.466L423.597 266.547C423.836 266.547 424.065 266.642 424.233 266.811C424.401 266.98 424.496 267.209 424.495 267.448C424.494 267.686 424.399 267.914 424.23 268.082C424.061 268.251 423.832 268.345 423.593 268.344Z" fill="#E6E6E6"/>
<path d="M423.58 274.157L388.315 274.075C388.077 274.075 387.848 273.98 387.68 273.811C387.511 273.642 387.417 273.413 387.418 273.175C387.418 272.936 387.514 272.708 387.683 272.54C387.852 272.371 388.081 272.277 388.319 272.278L423.584 272.359C423.702 272.359 423.819 272.383 423.928 272.428C424.037 272.474 424.136 272.54 424.219 272.624C424.303 272.707 424.369 272.807 424.414 272.916C424.459 273.025 424.482 273.142 424.481 273.26C424.481 273.378 424.458 273.495 424.412 273.604C424.367 273.713 424.3 273.811 424.217 273.895C424.133 273.978 424.033 274.044 423.924 274.089C423.815 274.134 423.698 274.157 423.58 274.157Z" fill="#E6E6E6"/>
<path d="M423.566 279.969L388.302 279.888C388.063 279.887 387.835 279.792 387.666 279.623C387.498 279.454 387.404 279.225 387.404 278.987C387.405 278.748 387.5 278.52 387.669 278.352C387.838 278.184 388.067 278.09 388.306 278.09L423.571 278.171C423.809 278.172 424.037 278.267 424.206 278.436C424.374 278.605 424.468 278.834 424.467 279.072C424.467 279.31 424.372 279.539 424.203 279.707C424.034 279.875 423.805 279.969 423.566 279.969Z" fill="#E6E6E6"/>
<path d="M392.242 240.559C394.858 240.559 396.98 238.439 396.98 235.825C396.98 233.211 394.858 231.091 392.242 231.091C389.625 231.091 387.504 233.211 387.504 235.825C387.504 238.439 389.625 240.559 392.242 240.559Z" fill="#A4A7BC"/>
<path d="M397.546 227.372C396.555 227.496 395.549 227.387 394.608 227.054C393.667 226.721 392.816 226.174 392.124 225.456C391.431 224.737 390.916 223.867 390.619 222.915C390.322 221.962 390.251 220.954 390.412 219.969L392.044 210.004H400.094L402.89 219.127C403.164 220.022 403.239 220.966 403.109 221.893C402.979 222.82 402.649 223.707 402.139 224.493C401.63 225.279 400.955 225.943 400.162 226.441C399.368 226.938 398.475 227.256 397.546 227.372Z" fill="#FFB9B9"/>
<path d="M402.778 212.35L390.367 211.68L382.652 122.201L388.492 123.076C390.66 123.401 392.658 124.437 394.172 126.022C395.686 127.606 396.63 129.648 396.855 131.827L402.778 212.35Z" fill="url(#paint4_linear)"/>
</g>
<defs>
<filter id="filter0_d" x="28.4651" y="-14.5" width="303.475" height="384.441" filterUnits="userSpaceOnUse" color-interpolation-filters="sRGB">
<feFlood flood-opacity="0" result="BackgroundImageFix"/>
<feColorMatrix in="SourceAlpha" type="matrix" values="0 0 0 0 0 0 0 0 0 0 0 0 0 0 0 0 0 0 127 0"/>
<feOffset dx="15" dy="20"/>
<feGaussianBlur stdDeviation="17.5"/>
<feColorMatrix type="matrix" values="0 0 0 0 0 0 0 0 0 0 0 0 0 0 0 0 0 0 0.15 0"/>
<feBlend mode="normal" in2="BackgroundImageFix" result="effect1_dropShadow"/>
<feBlend mode="normal" in="SourceGraphic" in2="effect1_dropShadow" result="shape"/>
</filter>
<linearGradient id="paint0_linear" x1="0" y1="109.632" x2="493.169" y2="143.035" gradientUnits="userSpaceOnUse">
<stop offset="0.0104167" stop-color="#BD95FF"/>
<stop offset="1" stop-color="#5B68DE"/>
</linearGradient>
<linearGradient id="paint1_linear" x1="168.432" y1="0.5" x2="227.194" y2="2.28795" gradientUnits="userSpaceOnUse">
<stop offset="0.0104167" stop-color="#BD95FF"/>
<stop offset="1" stop-color="#5B68DE"/>
</linearGradient>
<linearGradient id="paint2_linear" x1="322.612" y1="131.585" x2="343.815" y2="131.839" gradientUnits="userSpaceOnUse">
<stop offset="0.0104167" stop-color="#BD95FF"/>
<stop offset="1" stop-color="#5B68DE"/>
</linearGradient>
<linearGradient id="paint3_linear" x1="335.564" y1="120.861" x2="392.335" y2="122.992" gradientUnits="userSpaceOnUse">
<stop offset="0.0104167" stop-color="#BD95FF"/>
<stop offset="1" stop-color="#5B68DE"/>
</linearGradient>
<linearGradient id="paint4_linear" x1="382.652" y1="122.201" x2="403.856" y2="122.455" gradientUnits="userSpaceOnUse">
<stop offset="0.0104167" stop-color="#BD95FF"/>
<stop offset="1" stop-color="#5B68DE"/>
</linearGradient>
<clipPath id="clip0">
<rect width="413.471" height="367.013" fill="white" transform="translate(19.0421 0.5)"/>
</clipPath>
</defs>
</svg>
