<svg width="557" height="482" viewBox="0 0 557 482" fill="none" xmlns="http://www.w3.org/2000/svg">
<path d="M545.15 317.467C545.15 413.266 376.149 482 254.203 482C132.256 482 0 396.003 0 322.783C0 249.562 317.806 155.511 439.752 155.511C561.699 155.511 545.15 244.246 545.15 317.467Z" fill="url(#paint0_linear)"/>
<g clip-path="url(#clip0)">
<path d="M121.248 378.899C181.094 378.899 229.609 375.209 229.609 370.658C229.609 366.106 181.094 362.417 121.248 362.417C61.4025 362.417 12.8877 366.106 12.8877 370.658C12.8877 375.209 61.4025 378.899 121.248 378.899Z" fill="#606AE0"/>
<path d="M543.861 327.552H159.512C156.094 327.552 152.816 326.192 150.399 323.772C147.982 321.352 146.624 318.07 146.624 314.647C285.951 298.433 422.659 298.433 556.749 314.647C556.749 318.07 555.391 321.352 552.974 323.772C550.557 326.192 547.279 327.552 543.861 327.552Z" fill="#2F2E41"/>
<path d="M556.749 315.406L146.624 314.647L194.156 234.562L194.384 234.183V57.6842C194.383 55.5418 194.805 53.4205 195.623 51.4412C196.442 49.4619 197.642 47.6635 199.155 46.1487C200.668 44.6338 202.464 43.4322 204.44 42.6125C206.417 41.7927 208.535 41.3709 210.675 41.3711H490.424C492.563 41.3709 494.682 41.7927 496.659 42.6125C498.635 43.4322 500.431 44.6338 501.944 46.1487C503.457 47.6635 504.657 49.4619 505.475 51.4412C506.294 53.4205 506.715 55.5418 506.715 57.6842V235.397L556.749 315.406Z" fill="#3F3D56"/>
<path d="M210.303 52.7576C208.896 52.7591 207.548 53.3195 206.553 54.3157C205.558 55.3118 204.998 56.6625 204.997 58.0713V219.001C204.998 220.409 205.558 221.76 206.553 222.756C207.548 223.752 208.896 224.313 210.303 224.314H493.07C494.477 224.313 495.825 223.752 496.82 222.756C497.815 221.76 498.375 220.409 498.376 219.001V58.0713C498.375 56.6625 497.815 55.3119 496.82 54.3157C495.825 53.3196 494.477 52.7592 493.07 52.7576H210.303Z" fill="white"/>
<path d="M211.488 245.569C211.053 245.57 210.628 245.695 210.262 245.93C209.896 246.164 209.604 246.499 209.422 246.894L194.776 278.777C194.616 279.124 194.547 279.505 194.573 279.886C194.599 280.267 194.721 280.635 194.927 280.957C195.133 281.278 195.416 281.543 195.75 281.726C196.085 281.91 196.46 282.006 196.842 282.006H504.841C505.229 282.006 505.61 281.906 505.949 281.717C506.287 281.528 506.572 281.256 506.776 280.926C506.98 280.595 507.096 280.218 507.113 279.831C507.13 279.443 507.049 279.057 506.875 278.71L490.955 246.828C490.767 246.449 490.477 246.13 490.118 245.907C489.759 245.685 489.344 245.568 488.922 245.569H211.488Z" fill="#2F2E41"/>
<path d="M350.549 50.1007C352.433 50.1007 353.961 48.5713 353.961 46.6847C353.961 44.7982 352.433 43.2688 350.549 43.2688C348.665 43.2688 347.138 44.7982 347.138 46.6847C347.138 48.5713 348.665 50.1007 350.549 50.1007Z" fill="white"/>
<path d="M320.276 288.079C319.776 288.079 319.29 288.245 318.893 288.549C318.496 288.854 318.21 289.28 318.08 289.764L314.406 303.427C314.315 303.765 314.303 304.119 314.371 304.462C314.439 304.805 314.584 305.127 314.797 305.405C315.009 305.682 315.282 305.907 315.595 306.062C315.908 306.217 316.253 306.297 316.602 306.297H386.47C386.832 306.297 387.19 306.21 387.512 306.044C387.834 305.878 388.112 305.636 388.322 305.341C388.532 305.045 388.669 304.703 388.72 304.344C388.772 303.984 388.737 303.618 388.618 303.275L383.895 289.611C383.74 289.164 383.45 288.776 383.065 288.501C382.68 288.226 382.219 288.079 381.746 288.079H320.276Z" fill="#2F2E41"/>
<path d="M506.715 231.526V234.562H194.156L194.391 234.183V231.526H506.715Z" fill="#2F2E41"/>
<path d="M497.997 106.274C527.305 106.274 551.063 82.4838 551.063 53.137C551.063 23.7903 527.305 0 497.997 0C468.69 0 444.931 23.7903 444.931 53.137C444.931 82.4838 468.69 106.274 497.997 106.274Z" fill="#8A66F0"/>
<path d="M519.982 76.2895H476.013C475.209 76.2887 474.438 75.9686 473.869 75.3993C473.301 74.83 472.981 74.0582 472.98 73.2531V46.6846C472.981 45.8795 473.301 45.1077 473.87 44.5385C474.438 43.9692 475.209 43.6491 476.013 43.6482H519.982C520.786 43.6491 521.556 43.9692 522.125 44.5385C522.693 45.1077 523.013 45.8795 523.014 46.6846V73.2531C523.013 74.0582 522.693 74.83 522.125 75.3993C521.556 75.9686 520.786 76.2887 519.982 76.2895ZM476.013 46.6846V73.2531H519.984L519.982 46.6846L476.013 46.6846Z" fill="white"/>
<path d="M511.643 46.6848H484.352V34.5392C484.352 25.7421 490.091 19.3572 497.997 19.3572C505.904 19.3572 511.643 25.7421 511.643 34.5392L511.643 46.6848ZM487.384 43.6484H508.61V34.5392C508.61 27.3881 504.246 22.3936 497.997 22.3936C491.748 22.3936 487.384 27.3882 487.384 34.5392L487.384 43.6484Z" fill="white"/>
<path d="M497.997 62.2461C499.672 62.2461 501.03 60.8867 501.03 59.2097C501.03 57.5328 499.672 56.1733 497.997 56.1733C496.323 56.1733 494.965 57.5328 494.965 59.2097C494.965 60.8867 496.323 62.2461 497.997 62.2461Z" fill="white"/>
<path d="M460.953 169.729H242.421C241.348 169.727 240.319 169.3 239.56 168.54C238.802 167.781 238.375 166.751 238.374 165.676V111.395C238.375 110.321 238.802 109.291 239.56 108.531C240.319 107.772 241.348 107.344 242.421 107.343H460.953C462.025 107.344 463.054 107.772 463.813 108.531C464.571 109.291 464.998 110.321 464.999 111.395V165.676C464.998 166.751 464.571 167.781 463.813 168.54C463.054 169.3 462.025 169.727 460.953 169.729ZM242.421 108.964C241.777 108.965 241.16 109.221 240.704 109.677C240.249 110.133 239.993 110.751 239.992 111.395V165.676C239.993 166.321 240.249 166.939 240.704 167.395C241.16 167.851 241.777 168.107 242.421 168.108H460.953C461.596 168.107 462.214 167.851 462.669 167.395C463.124 166.939 463.38 166.321 463.381 165.676V111.395C463.38 110.751 463.124 110.133 462.669 109.677C462.214 109.221 461.596 108.965 460.953 108.964L242.421 108.964Z" fill="#E6E6E6"/>
<path d="M276.376 152.96C285.48 152.96 292.861 145.569 292.861 136.453C292.861 127.336 285.48 119.946 276.376 119.946C267.272 119.946 259.891 127.336 259.891 136.453C259.891 145.569 267.272 152.96 276.376 152.96Z" fill="#E6E6E6"/>
<path d="M314.448 125.448C314.087 125.448 313.729 125.519 313.395 125.657C313.061 125.795 312.758 125.997 312.503 126.253C312.247 126.508 312.044 126.812 311.906 127.146C311.767 127.48 311.696 127.838 311.696 128.2C311.696 128.561 311.767 128.919 311.906 129.253C312.044 129.588 312.247 129.891 312.503 130.147C312.758 130.402 313.061 130.605 313.395 130.743C313.729 130.881 314.087 130.951 314.448 130.951H443.972C444.701 130.951 445.399 130.661 445.915 130.145C446.43 129.629 446.719 128.929 446.719 128.2C446.719 127.47 446.43 126.77 445.915 126.254C445.399 125.738 444.701 125.448 443.972 125.448H314.448Z" fill="#E6E6E6"/>
<path d="M314.448 141.955C313.719 141.955 313.021 142.245 312.505 142.761C311.99 143.277 311.701 143.977 311.701 144.706C311.701 145.436 311.99 146.136 312.505 146.652C313.021 147.168 313.719 147.458 314.448 147.458H370.183C370.911 147.458 371.61 147.168 372.125 146.652C372.641 146.136 372.93 145.436 372.93 144.706C372.93 143.977 372.641 143.277 372.125 142.761C371.61 142.245 370.911 141.955 370.183 141.955H314.448Z" fill="#E6E6E6"/>
<path d="M160.332 238.958C159.197 238.763 158.118 238.321 157.172 237.663C156.225 237.005 155.435 236.147 154.855 235.151C154.276 234.154 153.922 233.042 153.818 231.893C153.714 230.744 153.863 229.586 154.254 228.502L119.673 168.611L136.018 163.46L164.901 223.882C166.677 224.661 168.107 226.065 168.918 227.829C169.73 229.593 169.867 231.594 169.304 233.452C168.741 235.31 167.516 236.897 165.863 237.912C164.209 238.927 162.241 239.299 160.332 238.958L160.332 238.958Z" fill="#FFB8B8"/>
<path d="M120.89 178.316C120.393 178.224 119.924 178.018 119.519 177.713C119.115 177.409 118.786 177.016 118.559 176.563L109.434 158.548C109.087 157.861 108.99 157.074 109.16 156.323C109.33 155.572 109.756 154.904 110.366 154.434L120.132 146.912C120.754 146.428 121.53 146.184 122.316 146.225C123.103 146.266 123.849 146.589 124.418 147.135L137.961 160.021C138.292 160.336 138.555 160.716 138.731 161.138C138.908 161.559 138.995 162.013 138.988 162.47C138.981 162.927 138.879 163.378 138.689 163.793C138.498 164.209 138.224 164.581 137.883 164.885L123.698 177.536C123.322 177.874 122.873 178.12 122.385 178.255C121.898 178.391 121.387 178.412 120.89 178.316H120.89Z" fill="#6C63FF"/>
<path d="M119.201 182.646C118.707 182.54 118.244 182.321 117.848 182.006C117.452 181.69 117.134 181.288 116.919 180.829L108.295 162.569C107.966 161.872 107.891 161.083 108.081 160.337C108.272 159.591 108.717 158.935 109.339 158.482L119.309 151.233C119.944 150.766 120.726 150.544 121.511 150.607C122.296 150.669 123.033 151.012 123.587 151.574L136.77 164.829C137.092 165.153 137.344 165.541 137.509 165.967C137.674 166.393 137.749 166.849 137.729 167.306C137.709 167.763 137.595 168.21 137.393 168.62C137.191 169.031 136.907 169.395 136.558 169.689L122.03 181.944C121.644 182.271 121.188 182.505 120.698 182.626C120.207 182.748 119.695 182.755 119.201 182.646Z" fill="#6C63FF"/>
<path d="M64.5594 355.768L73.2365 358.132L86.4716 325.744L73.6659 322.255L64.5594 355.768Z" fill="#FFB8B8"/>
<path d="M87.7783 370.759L60.5082 363.329L63.3749 352.779L80.7933 357.524C83.4061 358.236 85.6295 359.958 86.9744 362.311C88.3192 364.665 88.6754 367.457 87.9645 370.073L87.7783 370.759Z" fill="#2F2E41"/>
<path d="M138.736 362.398L147.728 362.397L152.007 327.666L138.734 327.667L138.736 362.398Z" fill="#FFB8B8"/>
<path d="M165.071 370.757L136.81 370.759L136.809 359.825L154.861 359.824C157.569 359.824 160.166 360.901 162.08 362.818C163.995 364.735 165.071 367.336 165.071 370.047L165.071 370.757Z" fill="#2F2E41"/>
<path d="M137.929 127.802C144.964 120.758 144.964 109.336 137.929 102.291C130.893 95.2467 119.487 95.2467 112.452 102.291C105.416 109.336 105.416 120.758 112.452 127.802C119.487 134.847 130.893 134.847 137.929 127.802Z" fill="#FFB8B8"/>
<path d="M136.017 334.777L125.948 261.047C125.873 260.5 125.624 259.992 125.238 259.597C124.852 259.203 124.349 258.943 123.805 258.857C123.26 258.771 122.702 258.863 122.213 259.119C121.725 259.375 121.331 259.782 121.092 260.279L86.8217 331.454C86.4732 332.169 85.8799 332.735 85.1497 333.05C84.4194 333.364 83.6007 333.405 82.8425 333.166L69.6364 328.935C68.8186 328.676 68.134 328.107 67.7287 327.351C67.3234 326.594 67.2292 325.708 67.4664 324.883C83.5304 268.092 97.4005 225.839 112.878 204.227C112.938 204.144 113.001 204.064 113.068 203.986L116.5 199.976C116.81 199.613 117.194 199.323 117.627 199.123C118.059 198.924 118.53 198.821 119.006 198.822H144.276C144.936 198.819 145.581 199.016 146.128 199.387C146.675 199.758 147.097 200.285 147.34 200.899L147.999 202.547C148.051 202.679 148.096 202.814 148.132 202.952C156.393 234.434 158.534 276.245 154.873 334.533C154.819 335.372 154.448 336.16 153.836 336.735C153.223 337.311 152.415 337.632 151.575 337.634H139.287C138.49 337.631 137.72 337.341 137.12 336.816C136.519 336.291 136.127 335.567 136.017 334.777Z" fill="#2F2E41"/>
<path d="M111.656 202.731C108.016 196.897 90.6442 166.758 106.237 146.346C106.517 145.985 106.697 145.557 106.76 145.104L107.379 140.357C107.435 139.914 107.582 139.486 107.809 139.101C108.036 138.716 108.339 138.381 108.699 138.116C109.059 137.852 109.469 137.664 109.904 137.563C110.34 137.462 110.791 137.451 111.23 137.53C116.651 138.517 126.86 141.623 134.337 151.322C134.693 151.789 134.919 152.343 134.989 152.927L135.401 156.233C135.453 156.667 135.616 157.081 135.875 157.434C136.134 157.787 136.479 158.067 136.877 158.247C141.646 160.416 152.317 168.865 148.426 200.403C148.333 201.188 147.961 201.914 147.378 202.447C146.796 202.98 146.041 203.285 145.252 203.308L114.557 204.278C114.522 204.279 114.488 204.279 114.453 204.279C113.894 204.279 113.344 204.137 112.855 203.866C112.366 203.595 111.954 203.205 111.656 202.731Z" fill="#6C63FF"/>
<path d="M99.2078 251.067C98.4282 250.218 97.844 249.208 97.4964 248.109C97.1487 247.009 97.0462 245.846 97.1958 244.703C97.3455 243.559 97.7437 242.462 98.3626 241.489C98.9814 240.516 99.8057 239.691 100.777 239.072L109.95 170.503L126.032 176.427L112.024 241.929C112.955 243.632 113.23 245.619 112.796 247.512C112.362 249.404 111.25 251.072 109.67 252.198C108.09 253.325 106.152 253.832 104.224 253.624C102.296 253.415 100.511 252.506 99.2078 251.067Z" fill="#FFB8B8"/>
<path d="M104.991 178.931C104.654 178.553 104.408 178.103 104.274 177.615C104.139 177.126 104.119 176.614 104.216 176.116L107.986 156.273C108.13 155.516 108.533 154.834 109.126 154.343C109.719 153.853 110.465 153.585 111.234 153.586L123.555 153.607C124.343 153.605 125.105 153.886 125.703 154.4C126.301 154.914 126.694 155.626 126.811 156.406L129.669 174.893C129.739 175.345 129.714 175.806 129.597 176.248C129.48 176.69 129.272 177.103 128.987 177.46C128.702 177.818 128.347 178.112 127.942 178.325C127.538 178.537 127.094 178.664 126.639 178.696L107.69 180.031C107.186 180.068 106.68 179.988 106.212 179.797C105.744 179.606 105.326 179.31 104.991 178.931L104.991 178.931Z" fill="#6C63FF"/>
<path d="M105.369 103.828C106.707 99.7664 107.695 95.5974 108.321 91.3668C108.518 88.9037 107.888 86.2535 106.097 84.5541C102.745 81.3737 97.0489 82.8885 93.543 85.8984C88.4763 90.2485 85.9493 96.9335 84.9943 103.548C84.0393 110.162 84.4595 116.888 84.2296 123.567C83.9998 130.246 83.0458 137.114 79.6452 142.864C76.2447 148.615 69.9343 153.029 63.2781 152.539C60.5915 152.394 58.0404 151.311 56.0675 149.48C55.0991 148.557 54.3657 147.415 53.9287 146.151C53.4918 144.886 53.3642 143.534 53.5564 142.21C50.1544 148.31 51.879 156.577 56.9534 161.372C62.0279 166.168 69.8333 167.523 76.5044 165.476C83.1755 163.429 88.666 158.295 91.9455 152.128C95.2251 145.961 96.4269 138.837 96.2527 131.853C96.119 126.489 95.2085 121.082 96.1136 115.793C97.0188 110.505 100.324 105.136 105.536 103.891L105.369 103.828Z" fill="#2F2E41"/>
<path d="M122.211 131.817C121.504 130.694 121.047 129.432 120.87 128.117C120.693 126.801 120.802 125.463 121.188 124.193C121.574 122.923 122.229 121.751 123.108 120.758C123.987 119.764 125.07 118.972 126.282 118.434C129.548 116.987 133.326 117.541 136.832 116.854C143.113 115.623 148.283 109.878 148.656 103.48C149.029 97.0828 144.419 90.6887 138.189 89.2194C135.704 88.6333 133.114 88.7712 130.565 88.9125C128.116 89.0482 125.666 89.184 123.23 89.4636C118.409 90.0168 113.533 91.1857 109.521 93.9183C105.509 96.6508 102.479 101.176 102.531 106.034C102.591 111.579 105.202 122.617 108.834 126.803C112.338 130.842 115.007 132.297 120.568 132.572L122.211 131.817Z" fill="#2F2E41"/>
</g>
<defs>
<linearGradient id="paint0_linear" x1="0" y1="155.511" x2="570.624" y2="206.759" gradientUnits="userSpaceOnUse">
<stop offset="0.0104167" stop-color="#BD95FF"/>
<stop offset="1" stop-color="#5B68DE"/>
</linearGradient>
<clipPath id="clip0">
<rect width="543.861" height="378.899" fill="white" transform="translate(12.8877)"/>
</clipPath>
</defs>
</svg>
