<svg width="580" height="580" viewBox="0 0 580 580" fill="none" xmlns="http://www.w3.org/2000/svg">
<path d="M580 401.955C580 491.133 324.76 579.334 235.582 579.334C146.404 579.334 90.02 421.931 90.02 332.753C90.02 243.575 259.752 277.471 348.93 277.471C438.108 277.471 580 312.777 580 401.955Z" fill="url(#paint0_linear)"/>
<g clip-path="url(#clip0)">
<g filter="url(#filter0_d)">
<path d="M120.826 85.02C118.352 85.0228 115.981 86.0058 114.232 87.7535C112.483 89.5011 111.499 91.8706 111.497 94.3421V405.862C111.499 408.333 112.483 410.703 114.232 412.45C115.981 414.198 118.352 415.181 120.826 415.184H358.492C360.966 415.181 363.337 414.198 365.086 412.45C366.835 410.703 367.819 408.333 367.822 405.862V94.3421C367.819 91.8706 366.835 89.5011 365.086 87.7535C363.337 86.0059 360.966 85.0228 358.492 85.02H120.826Z" fill="#E6E6E6"/>
</g>
<path d="M351.356 210.33H127.963C125.33 210.327 122.805 209.281 120.944 207.421C119.082 205.56 118.034 203.038 118.031 200.407V136.791C118.034 134.16 119.082 131.638 120.944 129.778C122.805 127.917 125.33 126.871 127.963 126.868H351.356C353.989 126.871 356.513 127.917 358.375 129.778C360.237 131.638 361.284 134.16 361.287 136.791V200.407C361.284 203.038 360.237 205.56 358.375 207.421C356.513 209.281 353.989 210.327 351.356 210.33Z" fill="white"/>
<path d="M351.356 307.455H127.963C125.33 307.452 122.805 306.405 120.944 304.545C119.082 302.684 118.034 300.162 118.031 297.531V233.915C118.034 231.284 119.082 228.762 120.944 226.902C122.805 225.041 125.33 223.995 127.963 223.992H351.356C353.989 223.995 356.513 225.041 358.375 226.902C360.237 228.762 361.284 231.284 361.287 233.915V297.531C361.284 300.162 360.237 302.684 358.375 304.545C356.513 306.405 353.989 307.452 351.356 307.455V307.455Z" fill="white"/>
<path d="M127.963 321.718C125.489 321.72 123.118 322.703 121.369 324.451C119.62 326.199 118.636 328.568 118.634 331.04V394.655C118.636 397.126 119.62 399.496 121.369 401.244C123.118 402.991 125.489 403.974 127.963 403.977H351.356C353.829 403.974 356.201 402.991 357.95 401.244C359.698 399.496 360.682 397.126 360.685 394.655V331.04C360.682 328.568 359.698 326.199 357.95 324.451C356.201 322.703 353.829 321.72 351.356 321.718H127.963Z" fill="white"/>
<path d="M354.528 104.416C358.282 104.416 361.325 101.375 361.325 97.6239C361.325 93.8728 358.282 90.832 354.528 90.832C350.775 90.832 347.731 93.8728 347.731 97.6239C347.731 101.375 350.775 104.416 354.528 104.416Z" fill="white"/>
<path d="M140.593 272.515C144.347 272.515 147.39 269.474 147.39 265.723C147.39 261.972 144.347 258.931 140.593 258.931C136.839 258.931 133.796 261.972 133.796 265.723C133.796 269.474 136.839 272.515 140.593 272.515Z" fill="#E6E6E6"/>
<path d="M218.758 271.457H165.741C164.219 271.457 162.76 270.853 161.684 269.778C160.608 268.702 160.003 267.244 160.003 265.723C160.003 264.202 160.608 262.744 161.684 261.669C162.76 260.593 164.219 259.989 165.741 259.989H218.758C220.28 259.989 221.74 260.593 222.816 261.669C223.892 262.744 224.496 264.202 224.496 265.723C224.496 267.244 223.892 268.702 222.816 269.778C221.74 270.853 220.28 271.457 218.758 271.457Z" fill="#E6E6E6"/>
<path d="M261.41 272.855C265.163 272.855 268.207 269.814 268.207 266.063C268.207 262.312 265.163 259.271 261.41 259.271C257.656 259.271 254.613 262.312 254.613 266.063C254.613 269.814 257.656 272.855 261.41 272.855Z" fill="#E6E6E6"/>
<path d="M339.575 271.797H286.558C285.036 271.797 283.577 271.193 282.501 270.118C281.424 269.042 280.82 267.584 280.82 266.063C280.82 264.542 281.424 263.083 282.501 262.008C283.577 260.933 285.036 260.329 286.558 260.329H339.575C341.097 260.329 342.557 260.933 343.633 262.008C344.709 263.083 345.314 264.542 345.314 266.063C345.314 267.584 344.709 269.042 343.633 270.118C342.557 271.193 341.097 271.797 339.575 271.797V271.797Z" fill="#E6E6E6"/>
<path d="M358.068 95.0476L357.107 94.0872L354.529 96.6637L351.95 94.0872L350.989 95.0476L353.568 97.6242L350.989 100.2L351.95 101.161L354.529 98.584L357.107 101.161L358.068 100.2L355.49 97.6242L358.068 95.0476Z" fill="#E6E6E6"/>
<path d="M140.593 175.391C144.347 175.391 147.39 172.35 147.39 168.599C147.39 164.848 144.347 161.807 140.593 161.807C136.839 161.807 133.796 164.848 133.796 168.599C133.796 172.35 136.839 175.391 140.593 175.391Z" fill="#E6E6E6"/>
<path d="M340.085 173.654H178.316C176.795 173.653 175.337 173.048 174.262 171.973C173.187 170.897 172.583 169.44 172.583 167.92C172.583 166.4 173.187 164.943 174.262 163.867C175.337 162.792 176.795 162.187 178.316 162.186H340.085C341.606 162.187 343.064 162.792 344.139 163.867C345.214 164.943 345.818 166.4 345.818 167.92C345.818 169.44 345.214 170.897 344.139 171.973C343.064 173.048 341.606 173.653 340.085 173.654V173.654Z" fill="#E6E6E6"/>
<path d="M311.877 173.654H167.781C166.259 173.654 164.799 173.05 163.723 171.975C162.647 170.899 162.042 169.441 162.042 167.92C162.042 166.399 162.647 164.941 163.723 163.865C164.799 162.79 166.259 162.186 167.781 162.186H311.877C313.398 162.187 314.857 162.792 315.931 163.867C317.006 164.943 317.61 166.4 317.61 167.92C317.61 169.44 317.006 170.897 315.931 171.973C314.857 173.048 313.398 173.653 311.877 173.654V173.654Z" fill="url(#paint1_linear)"/>
<path d="M140.593 369.639C144.347 369.639 147.39 366.598 147.39 362.847C147.39 359.096 144.347 356.055 140.593 356.055C136.839 356.055 133.796 359.096 133.796 362.847C133.796 366.598 136.839 369.639 140.593 369.639Z" fill="#E6E6E6"/>
<path d="M340.085 367.902H178.316C176.794 367.902 175.335 367.298 174.259 366.223C173.182 365.147 172.578 363.689 172.578 362.168C172.578 360.647 173.182 359.189 174.259 358.113C175.335 357.038 176.794 356.434 178.316 356.434H340.085C341.607 356.434 343.067 357.038 344.143 358.113C345.219 359.189 345.824 360.647 345.824 362.168C345.824 363.689 345.219 365.147 344.143 366.223C343.067 367.298 341.607 367.902 340.085 367.902Z" fill="#E6E6E6"/>
<path d="M253.933 367.902H167.781C166.259 367.902 164.799 367.298 163.723 366.223C162.647 365.147 162.042 363.689 162.042 362.168C162.042 360.647 162.647 359.189 163.723 358.113C164.799 357.038 166.259 356.434 167.781 356.434H253.933C255.455 356.434 256.914 357.038 257.99 358.113C259.067 359.189 259.671 360.647 259.671 362.168C259.671 363.689 259.067 365.147 257.99 366.223C256.914 367.298 255.455 367.902 253.933 367.902Z" fill="url(#paint2_linear)"/>
<path d="M175.088 271.457H165.742C164.22 271.457 162.76 270.853 161.684 269.778C160.608 268.702 160.003 267.244 160.003 265.723C160.003 264.202 160.608 262.744 161.684 261.669C162.76 260.593 164.22 259.989 165.742 259.989H175.088C176.609 259.989 178.069 260.593 179.145 261.669C180.221 262.744 180.826 264.202 180.826 265.723C180.826 267.244 180.221 268.702 179.145 269.778C178.069 270.853 176.609 271.457 175.088 271.457Z" fill="url(#paint3_linear)"/>
<path d="M315.786 271.797H286.558C285.036 271.797 283.577 271.193 282.501 270.118C281.424 269.042 280.82 267.584 280.82 266.063C280.82 264.542 281.424 263.083 282.501 262.008C283.577 260.933 285.036 260.329 286.558 260.329H315.786C317.307 260.33 318.765 260.935 319.84 262.01C320.915 263.085 321.518 264.543 321.518 266.063C321.518 267.583 320.915 269.04 319.84 270.115C318.765 271.191 317.307 271.796 315.786 271.797V271.797Z" fill="url(#paint4_linear)"/>
<path d="M459.25 340.516C460.131 340.428 460.981 340.148 461.741 339.695C462.501 339.243 463.153 338.63 463.651 337.898C464.148 337.167 464.479 336.336 464.62 335.463C464.761 334.59 464.709 333.697 464.467 332.846L482.086 320.521L471.695 316.409L456.556 328.744C455.153 329.245 453.983 330.242 453.266 331.547C452.55 332.853 452.338 334.375 452.67 335.826C453.002 337.277 453.856 338.556 455.068 339.421C456.281 340.285 457.769 340.675 459.25 340.517L459.25 340.516Z" fill="#A0616A"/>
<path d="M467.463 331.516C467.084 331.515 466.71 331.435 466.364 331.281C465.972 331.11 465.626 330.848 465.356 330.516C465.087 330.185 464.9 329.794 464.812 329.375L463.629 323.886C463.528 323.415 463.554 322.926 463.705 322.469C463.856 322.012 464.126 321.603 464.487 321.285L474.936 312.091L464.622 290.497C463.904 288.995 463.781 287.278 464.277 285.69C464.773 284.101 465.851 282.759 467.296 281.931C468.74 281.104 470.445 280.852 472.067 281.227C473.69 281.602 475.11 282.575 476.045 283.953L489.254 303.422C490.235 304.855 490.912 306.475 491.243 308.18C491.574 309.886 491.552 311.641 491.177 313.337C490.763 315.13 489.98 316.817 488.878 318.291C487.775 319.765 486.378 320.994 484.775 321.9L468.819 331.147C468.407 331.388 467.94 331.515 467.463 331.516V331.516Z" fill="#CCCCCC"/>
<path d="M408.922 319.779C409.657 320.27 410.492 320.593 411.367 320.727C412.241 320.861 413.135 320.801 413.984 320.553C414.833 320.304 415.617 319.873 416.281 319.288C416.946 318.704 417.473 317.982 417.828 317.171L439.27 318.849L433.864 309.074L414.331 308.98C412.93 308.475 411.392 308.501 410.008 309.054C408.625 309.607 407.493 310.647 406.826 311.978C406.159 313.309 406.004 314.839 406.391 316.276C406.777 317.714 407.677 318.96 408.922 319.779V319.779Z" fill="#A0616A"/>
<path d="M460.2 268.595C468.364 268.595 474.983 261.982 474.983 253.824C474.983 245.665 468.364 239.052 460.2 239.052C452.035 239.052 445.417 245.665 445.417 253.824C445.417 261.982 452.035 268.595 460.2 268.595Z" fill="#FFB8B8"/>
<path d="M416.674 455.901L409.601 453.798L414.352 425.539L424.791 428.643L416.674 455.901Z" fill="#A0616A"/>
<path d="M416.438 463.288L393.633 456.508L393.719 456.22C394.066 455.055 394.639 453.97 395.405 453.026C396.172 452.083 397.116 451.3 398.186 450.721C399.255 450.142 400.428 449.78 401.638 449.654C402.848 449.529 404.07 449.643 405.236 449.989L405.236 449.989L419.165 454.13L416.438 463.288Z" fill="#2F2E41"/>
<path d="M494.159 455.54L486.78 455.539L483.27 427.099L490.549 427.099L494.159 455.54Z" fill="#A0616A"/>
<path d="M496.041 462.687L472.248 462.686V462.385C472.248 461.17 472.487 459.967 472.953 458.844C473.418 457.721 474.1 456.701 474.96 455.842C475.82 454.982 476.841 454.301 477.965 453.836C479.088 453.371 480.293 453.131 481.509 453.131H481.509L496.041 453.132L496.041 462.687Z" fill="#2F2E41"/>
<path d="M419.394 447.54H411.986C411.588 447.54 411.196 447.453 410.837 447.284C410.477 447.116 410.159 446.871 409.905 446.566C409.65 446.261 409.467 445.904 409.366 445.52C409.265 445.136 409.25 444.735 409.322 444.344L419.699 387.891C419.689 346.761 435.883 322.938 436.047 322.702L436.244 322.417L466.511 324.885L496.679 443.694C496.778 444.082 496.789 444.488 496.712 444.882C496.634 445.275 496.47 445.646 496.232 445.969C495.993 446.291 495.686 446.557 495.332 446.746C494.978 446.935 494.586 447.043 494.185 447.063L485.861 447.466C485.298 447.495 484.739 447.347 484.265 447.043C483.79 446.738 483.423 446.292 483.215 445.768L451.322 366.098C451.259 365.924 451.141 365.775 450.986 365.673C450.832 365.571 450.648 365.521 450.463 365.532C450.278 365.533 450.099 365.592 449.95 365.701C449.801 365.81 449.689 365.962 449.631 366.137L421.953 445.722C421.768 446.253 421.422 446.713 420.964 447.039C420.505 447.365 419.957 447.54 419.394 447.54V447.54Z" fill="#2F2E41"/>
<path d="M467.145 327.271L466.914 327.254L434.689 324.823L440.341 288.9C440.961 284.891 442.863 281.189 445.761 278.347C448.66 275.506 452.4 273.677 456.424 273.134V273.134C456.672 273.099 456.921 273.066 457.172 273.033C460.334 272.617 463.549 273.02 466.509 274.204C469.469 275.388 472.075 277.312 474.077 279.793C476.126 282.287 477.498 285.266 478.063 288.444C478.627 291.621 478.364 294.89 477.299 297.937L467.145 327.271Z" fill="#CCCCCC"/>
<path d="M450.752 317.89C449.445 318.94 447.942 319.721 446.331 320.189C444.72 320.657 443.033 320.803 441.366 320.618L422.715 318.612C422.289 318.566 421.88 318.419 421.521 318.185C421.162 317.95 420.865 317.633 420.652 317.261C420.44 316.889 420.319 316.471 420.299 316.043C420.28 315.615 420.362 315.189 420.54 314.799L423.027 309.343C423.23 308.898 423.549 308.517 423.951 308.239C424.353 307.961 424.823 307.797 425.311 307.765L438.905 306.854L443.367 283.349C443.655 281.84 444.461 280.479 445.644 279.5C446.828 278.52 448.317 277.983 449.854 277.982C450.783 277.977 451.702 278.171 452.55 278.55C453.398 278.928 454.155 279.483 454.771 280.177C455.94 281.513 456.54 283.253 456.444 285.025L455.58 308.328C455.522 310.091 455.098 311.822 454.335 313.411C453.572 315.001 452.487 316.415 451.147 317.563C451.017 317.675 450.886 317.784 450.752 317.89Z" fill="#CCCCCC"/>
<path d="M448.958 250.134C447.118 250.848 445.178 251.274 443.208 251.399C441.226 251.424 439.119 250.737 438.035 249.229C437.619 248.57 437.35 247.829 437.247 247.057C437.145 246.285 437.21 245.5 437.439 244.755C437.85 243.246 438.589 241.845 439.604 240.654C440.618 239.463 441.884 238.511 443.309 237.864C444.807 237.186 446.425 236.809 448.069 236.756C449.713 236.703 451.351 236.975 452.89 237.556C454.002 234.178 458.191 232.339 462.069 232.235C469.989 232.023 477.071 237.419 480.512 243.908C483.954 250.398 484.457 257.815 484.671 265.017C484.723 266.773 484.745 268.604 483.912 270.19C482.672 272.551 479.855 273.822 477.2 274.831C470.236 277.471 463.052 279.488 455.732 280.861C459.247 278.616 460.362 273.784 458.136 270.444C457.046 268.81 455.258 267.45 454.968 265.558C454.621 263.288 456.559 261.304 457.276 259.108C457.638 257.919 457.654 256.651 457.323 255.453C456.992 254.255 456.326 253.176 455.404 252.342C454.401 251.471 453.201 250.856 451.908 250.549C450.615 250.243 449.266 250.254 447.978 250.582" fill="#2F2E41"/>
<path d="M506.219 463.641H381.63C381.471 463.641 381.317 463.578 381.205 463.465C381.092 463.352 381.028 463.199 381.028 463.04C381.028 462.88 381.092 462.727 381.205 462.614C381.317 462.501 381.471 462.438 381.63 462.438H506.219C506.379 462.438 506.532 462.501 506.645 462.614C506.758 462.727 506.821 462.88 506.821 463.04C506.821 463.199 506.758 463.352 506.645 463.465C506.532 463.578 506.379 463.641 506.219 463.641Z" fill="#464DC7"/>
</g>
<g filter="url(#filter1_d)">
<path d="M370.335 140.099C360.106 146.649 348.255 150.221 336.111 150.414C323.967 150.607 312.008 147.414 301.576 141.193C303.411 137.777 305.737 134.648 308.478 131.906C312.708 127.656 317.856 124.432 323.526 122.482C329.196 120.532 335.238 119.908 341.187 120.657C347.137 121.406 352.835 123.509 357.844 126.805C362.854 130.1 367.041 134.5 370.085 139.666C370.166 139.806 370.254 139.953 370.335 140.099Z" fill="url(#paint5_linear)"/>
<path d="M333.085 104.99C351.008 104.99 365.538 90.46 365.538 72.5367C365.538 54.6134 351.008 40.0837 333.085 40.0837C315.161 40.0837 300.632 54.6134 300.632 72.5367C300.632 90.46 315.161 104.99 333.085 104.99Z" fill="#2F2E41"/>
<path d="M354.051 95.4272C360.45 83.7221 356.148 69.0462 344.443 62.6476C332.738 56.249 318.062 60.5508 311.663 72.2559C305.264 83.961 309.566 98.6369 321.271 105.035C332.976 111.434 347.652 107.132 354.051 95.4272Z" fill="#FFB8B8"/>
<path d="M310.659 68.6489C316.178 72.4531 322.73 74.4777 329.433 74.4509C327.042 76.109 324.32 77.2289 321.454 77.7336C330.367 79.6455 339.578 79.6972 348.512 77.8857C350.498 77.5673 352.414 76.9092 354.176 75.9402C355.054 75.4498 355.819 74.78 356.422 73.9744C357.024 73.1688 357.45 72.2454 357.672 71.2643C358.266 67.873 355.623 64.7919 352.877 62.7154C348.673 59.5846 343.825 57.4276 338.684 56.4003C333.543 55.3731 328.239 55.5013 323.154 56.7758C319.833 57.634 316.507 59.0841 314.351 61.7506C312.194 64.4171 311.555 68.5279 313.61 71.2736L310.659 68.6489Z" fill="#2F2E41"/>
<path d="M335.074 19C317.555 19.0195 300.758 25.987 288.37 38.3742C275.981 50.7613 269.012 67.5566 268.99 85.0757C268.993 90.42 269.65 95.7439 270.947 100.928C271.082 101.461 271.217 101.994 271.36 102.519C275.172 116.494 283.475 128.828 294.989 137.618C306.503 146.407 320.588 151.166 335.074 151.159C349.562 151.159 363.649 146.399 375.168 137.61C386.687 128.822 394.999 116.493 398.827 102.519C398.97 101.986 399.105 101.461 399.232 100.928C401.629 91.1947 401.78 81.0434 399.676 71.2423C397.572 61.4412 393.267 52.2468 387.086 44.3544C380.906 36.462 373.011 30.0782 364.001 25.6857C354.99 21.2932 345.098 19.007 335.074 19V19ZM397.721 100.928C397.594 101.461 397.451 101.994 397.3 102.519C394.616 112.077 389.767 120.889 383.128 128.27C376.49 135.652 368.241 141.405 359.02 145.085C349.799 148.764 339.855 150.27 329.958 149.486C320.062 148.702 310.479 145.649 301.952 140.564C287.781 132.037 277.389 118.434 272.888 102.519C272.736 101.986 272.593 101.461 272.458 100.928C271.132 95.7484 270.462 90.4226 270.462 85.0757C270.472 75.9231 272.427 66.8772 276.197 58.537C279.966 50.1968 285.465 42.7528 292.329 36.698C299.192 30.6432 307.264 26.1158 316.009 23.4157C324.755 20.7155 333.974 19.9043 343.056 21.0357C352.139 22.1671 360.877 25.2153 368.693 29.9784C376.508 34.7415 383.222 41.1109 388.391 48.6645C393.559 56.2181 397.064 64.7837 398.672 73.7939C400.281 82.804 399.957 92.0531 397.721 100.928H397.721Z" stroke="white" stroke-width="7"/>
</g>
<g filter="url(#filter2_d)">
<path d="M125.274 313.429C115.046 319.979 103.196 323.552 91.0521 323.745C78.908 323.939 66.9499 320.747 56.5181 314.527C56.6291 314.312 56.7484 314.097 56.8758 313.891C60.222 307.859 65.0985 302.815 71.0143 299.268C76.93 295.72 83.6761 293.794 90.573 293.684C97.47 293.573 104.274 295.282 110.301 298.638C116.327 301.994 121.363 306.879 124.9 312.801C124.948 312.864 124.988 312.936 125.028 313C125.107 313.135 125.195 313.286 125.274 313.429Z" fill="url(#paint6_linear)"/>
<path d="M120.477 245.866C120.477 252.284 118.574 258.559 115.008 263.896C111.442 269.232 106.374 273.392 100.444 275.848C94.5135 278.305 87.9883 278.947 81.693 277.695C75.3977 276.443 69.6152 273.352 65.0765 268.813C60.5379 264.275 57.4471 258.492 56.1949 252.197C54.9427 245.902 55.5854 239.376 58.0417 233.446C60.498 227.516 64.6576 222.448 69.9944 218.882C75.3313 215.316 81.6058 213.412 88.0244 213.412C92.2919 213.392 96.5211 214.218 100.468 215.841C104.414 217.465 108 219.855 111.018 222.872C114.035 225.89 116.425 229.476 118.049 233.422C119.672 237.369 120.498 241.598 120.477 245.866V245.866Z" fill="#2F2E41"/>
<path d="M113.454 266.03C113.082 266.964 112.655 267.875 112.173 268.758C109.1 274.379 103.921 278.548 97.7734 280.35C91.6262 282.152 85.0151 281.439 79.3939 278.367C76.6084 276.847 74.1497 274.792 72.1583 272.322C70.1669 269.851 68.682 267.012 67.7882 263.967C66.8945 260.922 66.6096 257.731 66.9497 254.576C67.2898 251.421 68.2482 248.364 69.7703 245.579C71.2924 242.795 73.3483 240.337 75.8204 238.348C78.2926 236.358 81.1325 234.875 84.178 233.984C87.2236 233.092 90.4149 232.809 93.5698 233.152C96.7246 233.494 99.7811 234.455 102.564 235.979C107.728 238.802 111.683 243.413 113.688 248.946C115.693 254.479 115.61 260.554 113.454 266.03V266.03Z" fill="#FFB8B8"/>
<path d="M138.12 213.174C137.611 212.617 137.078 212.068 136.529 211.535C127.691 202.776 116.557 196.692 104.412 193.985C92.2666 191.277 79.6033 192.056 67.8811 196.231C56.159 200.407 45.8551 207.809 38.1565 217.585C30.4579 227.361 25.6779 239.114 24.3674 251.488C23.0568 263.862 25.2689 276.355 30.7488 287.527C36.2287 298.699 44.7535 308.096 55.3409 314.634C65.9283 321.172 78.1475 324.586 90.5907 324.483C103.034 324.38 115.195 320.763 125.672 314.049C129.585 311.538 133.224 308.625 136.529 305.355C137.07 304.822 137.603 304.282 138.12 303.725C149.661 291.475 156.089 275.28 156.089 258.449C156.089 241.619 149.661 225.424 138.12 213.174V213.174ZM136.529 303.263C133.036 306.883 129.133 310.083 124.9 312.8C124.892 312.808 124.884 312.808 124.876 312.816C114.762 319.292 103.045 322.822 91.0376 323.014C79.03 323.205 67.2063 320.048 56.8915 313.898C56.8837 313.898 56.8837 313.89 56.8756 313.89C48.9645 309.173 42.1537 302.818 36.8999 295.252C31.646 287.687 28.0707 279.085 26.4136 270.025C24.7566 260.964 25.0561 251.654 27.2921 242.719C29.5282 233.783 33.649 225.43 39.3782 218.217C45.1075 211.005 52.3127 205.101 60.5106 200.902C68.7086 196.703 77.7096 194.305 86.9102 193.87C96.1108 193.434 105.298 194.971 113.856 198.377C122.414 201.784 130.144 206.98 136.529 213.619C137.078 214.176 137.603 214.749 138.12 215.329C148.742 227.177 154.617 242.529 154.617 258.441C154.617 274.354 148.742 289.706 138.12 301.553C137.611 302.134 137.078 302.707 136.529 303.263Z" stroke="white" stroke-width="7"/>
<path d="M114.327 218.915C112.728 216.201 110.411 213.982 107.63 212.503C104.85 211.023 101.714 210.341 98.5704 210.531C95.2705 210.779 92.1309 211.994 89.048 213.197L73.3745 219.311C69.3188 220.893 64.877 222.831 63.1171 226.813C61.4836 230.508 62.7023 234.776 63.9359 238.624L69.8 256.913C70.6035 252.805 71.4197 248.656 73.123 244.832C74.8264 241.008 77.5204 237.482 81.2451 235.571C85.3163 233.482 90.1148 233.526 94.6851 233.746C101.158 234.057 108.196 234.881 112.795 239.446C115.236 242.039 116.891 245.271 117.568 248.768C118.234 252.246 118.569 255.779 118.569 259.32C121.223 254.757 123.459 249.963 125.249 244.998C126.722 241.3 127.561 237.381 127.731 233.405C127.766 229.434 126.642 225.337 123.994 222.378C121.346 219.418 117.031 217.821 113.237 218.992" fill="#2F2E41"/>
</g>
<defs>
<filter id="filter0_d" x="91.4966" y="70.02" width="326.325" height="400.164" filterUnits="userSpaceOnUse" color-interpolation-filters="sRGB">
<feFlood flood-opacity="0" result="BackgroundImageFix"/>
<feColorMatrix in="SourceAlpha" type="matrix" values="0 0 0 0 0 0 0 0 0 0 0 0 0 0 0 0 0 0 127 0"/>
<feOffset dx="15" dy="20"/>
<feGaussianBlur stdDeviation="17.5"/>
<feColorMatrix type="matrix" values="0 0 0 0 0 0 0 0 0 0 0 0 0 0 0 0 0 0 0.15 0"/>
<feBlend mode="normal" in2="BackgroundImageFix" result="effect1_dropShadow"/>
<feBlend mode="normal" in="SourceGraphic" in2="effect1_dropShadow" result="shape"/>
</filter>
<filter id="filter1_d" x="245.49" y="0.5" width="209.159" height="209.159" filterUnits="userSpaceOnUse" color-interpolation-filters="sRGB">
<feFlood flood-opacity="0" result="BackgroundImageFix"/>
<feColorMatrix in="SourceAlpha" type="matrix" values="0 0 0 0 0 0 0 0 0 0 0 0 0 0 0 0 0 0 127 0"/>
<feOffset dx="15" dy="20"/>
<feGaussianBlur stdDeviation="17.5"/>
<feColorMatrix type="matrix" values="0 0 0 0 0 0 0 0 0 0 0 0 0 0 0 0 0 0 0.15 0"/>
<feBlend mode="normal" in2="BackgroundImageFix" result="effect1_dropShadow"/>
<feBlend mode="normal" in="SourceGraphic" in2="effect1_dropShadow" result="shape"/>
</filter>
<filter id="filter2_d" x="0.5" y="173.902" width="209.089" height="209.083" filterUnits="userSpaceOnUse" color-interpolation-filters="sRGB">
<feFlood flood-opacity="0" result="BackgroundImageFix"/>
<feColorMatrix in="SourceAlpha" type="matrix" values="0 0 0 0 0 0 0 0 0 0 0 0 0 0 0 0 0 0 127 0"/>
<feOffset dx="15" dy="20"/>
<feGaussianBlur stdDeviation="17.5"/>
<feColorMatrix type="matrix" values="0 0 0 0 0 0 0 0 0 0 0 0 0 0 0 0 0 0 0.15 0"/>
<feBlend mode="normal" in2="BackgroundImageFix" result="effect1_dropShadow"/>
<feBlend mode="normal" in="SourceGraphic" in2="effect1_dropShadow" result="shape"/>
</filter>
<linearGradient id="paint0_linear" x1="90.02" y1="271.149" x2="602.58" y2="314.92" gradientUnits="userSpaceOnUse">
<stop offset="0.0104167" stop-color="#BD95FF"/>
<stop offset="1" stop-color="#5B68DE"/>
</linearGradient>
<linearGradient id="paint1_linear" x1="162.042" y1="162.186" x2="269.122" y2="240.204" gradientUnits="userSpaceOnUse">
<stop offset="0.0104167" stop-color="#BD95FF"/>
<stop offset="1" stop-color="#5B68DE"/>
</linearGradient>
<linearGradient id="paint2_linear" x1="162.042" y1="356.434" x2="247.126" y2="395.339" gradientUnits="userSpaceOnUse">
<stop offset="0.0104167" stop-color="#BD95FF"/>
<stop offset="1" stop-color="#5B68DE"/>
</linearGradient>
<linearGradient id="paint3_linear" x1="160.003" y1="259.989" x2="181.738" y2="262.109" gradientUnits="userSpaceOnUse">
<stop offset="0.0104167" stop-color="#BD95FF"/>
<stop offset="1" stop-color="#5B68DE"/>
</linearGradient>
<linearGradient id="paint4_linear" x1="280.82" y1="260.329" x2="322.201" y2="268.216" gradientUnits="userSpaceOnUse">
<stop offset="0.0104167" stop-color="#BD95FF"/>
<stop offset="1" stop-color="#5B68DE"/>
</linearGradient>
<linearGradient id="paint5_linear" x1="301.576" y1="120.349" x2="372.952" y2="129.115" gradientUnits="userSpaceOnUse">
<stop offset="0.0104167" stop-color="#BD95FF"/>
<stop offset="1" stop-color="#5B68DE"/>
</linearGradient>
<linearGradient id="paint6_linear" x1="56.5181" y1="293.679" x2="127.891" y2="302.443" gradientUnits="userSpaceOnUse">
<stop offset="0.0104167" stop-color="#BD95FF"/>
<stop offset="1" stop-color="#5B68DE"/>
</linearGradient>
<clipPath id="clip0">
<rect width="395.325" height="378.621" fill="white" transform="translate(111.497 85.02)"/>
</clipPath>
</defs>
</svg>
