<svg width="426" height="302" viewBox="0 0 426 302" fill="none" xmlns="http://www.w3.org/2000/svg">
<ellipse cx="157.234" cy="76.4781" rx="89.5887" ry="76.4781" fill="#8A66F0" fill-opacity="0.2"/>
<ellipse opacity="0.1" cx="336.411" cy="125.643" rx="89.5887" ry="76.4781" fill="#8A66F0"/>
<ellipse opacity="0.1" cx="286.701" cy="256.748" rx="40.9704" ry="34.9614" fill="#8A66F0"/>
<ellipse opacity="0.2" cx="134.837" cy="228.888" rx="73.7468" ry="62.8213" fill="#8A66F0"/>
<path d="M251.193 226.589C256.874 218.722 260.479 208.744 261.572 204.738C255.563 203.827 243.873 203.754 245.184 210.747C246.495 217.739 240.632 231.869 237.536 238.06V240.792L236.99 255.541C239.175 259.183 243.873 261.555 242.999 256.748C242.125 251.941 242.817 245.708 243.545 241.338C243.727 239.699 245.512 234.455 251.193 226.589Z" fill="#FE8763"/>
<path d="M239.523 244.73C240.397 239.486 238.795 237.446 237.884 237.082C234.825 239.267 233.332 242.363 232.968 243.638C234.607 252.924 238.54 270.951 241.162 268.766C243.784 266.581 243.347 258.751 242.801 255.109C242.801 255.109 242.072 258.569 241.162 256.748C240.252 254.927 238.649 249.974 239.523 244.73Z" fill="#6E43FB"/>
<path d="M239.105 250.193C238.668 245.386 235.882 241.635 234.607 241.453C231.329 241.453 232.968 251.285 233.514 252.924C233.951 254.235 234.06 256.202 234.607 260.572C235.517 264.032 238.121 271.06 240.744 269.312C243.366 267.564 242.564 263.121 241.836 261.118C241.108 259.48 239.542 255 239.105 250.193Z" fill="#1C0F40"/>
<path d="M118.995 55.2575V117.533C129.374 110.977 160.512 92.9503 221.694 94.0429C270.64 94.9169 303.999 119.9 314.56 132.282L318.384 134.467C319.295 137.745 322.099 137.963 326.032 112.616C329.965 87.2691 311.283 66.3651 301.45 59.0814C295.077 52.5262 270.203 37.8861 221.694 31.7678C173.185 25.6496 133.016 44.8783 118.995 55.2575Z" fill="#BBA8F0"/>
<path d="M304.728 118.541V67.7378C336.63 93.5219 326.032 120.362 316.746 130.559L304.728 118.541Z" fill="#FFD312"/>
<ellipse cx="315.117" cy="95.9326" rx="6.009" ry="12.8363" transform="rotate(-15.9078 315.117 95.9326)" fill="#FFBB14"/>
<path d="M151.29 56.2971L151.497 50.2916C166.106 45.1104 181.066 43.476 186.72 43.3064L186.494 49.8578C171.629 49.7829 156.831 54.1194 151.29 56.2971Z" fill="white"/>
<path d="M151.159 75.97L151.366 69.9646C165.975 64.7833 180.935 63.1489 186.589 62.9793L186.363 69.5307C171.498 69.4558 156.7 73.7923 151.159 75.97Z" fill="white"/>
<path d="M150.406 66.1053L150.613 60.0999C162.755 56.6921 166.068 55.7131 175.406 54.3951L175.218 59.8546C168.629 60.7207 155.947 63.9277 150.406 66.1053Z" fill="#DDD1FF"/>
<path d="M201.325 47.7499L201.532 41.7444C217.331 40.1024 237.596 42.0761 245.754 43.2682L245.547 49.2737C245.547 49.2737 225.441 45.8479 201.325 47.7499Z" fill="#DDD1FF"/>
<path d="M200.648 67.404L200.855 61.3986C216.653 59.7566 236.919 61.7303 245.077 62.9224L244.87 68.9278C244.87 68.9278 224.764 65.5021 200.648 67.404Z" fill="#DDD1FF"/>
<path d="M200.953 58.5549L201.16 52.5495C215.415 51.2869 237.224 52.8812 245.381 54.0733L245.175 60.0788C245.175 60.0788 219.048 56.8781 200.953 58.5549Z" fill="white"/>
<path d="M181.27 108.162L182.909 89.5887L193.288 93.9589L194.927 102.699L192.195 114.717L181.27 119.634V108.162Z" fill="#FFB1B2"/>
<path d="M250.1 99.9679L241.36 86.8573L234.258 96.6902L233.712 104.338C236.808 108.708 244.747 117.012 251.739 115.263C258.731 113.515 277.232 105.431 285.608 101.607C285.426 101.242 285.062 100.405 285.062 97.7828C285.062 95.1607 287.611 93.2305 288.886 92.8663L299.265 88.4961C299.447 88.314 299.811 87.8406 299.811 87.4036C299.811 86.9666 299.083 86.8573 298.718 86.8573L288.886 90.135L290.524 87.9499C291.253 87.2215 292.054 85.874 289.432 86.311C286.81 86.7481 284.333 89.7708 283.423 91.2275C282.877 92.138 281.456 94.2866 280.145 95.5977C278.834 96.9087 259.569 99.0574 250.1 99.9679Z" fill="#FFB1B2"/>
<path d="M286.701 101.06C291.071 102.808 292.527 96.3261 292.71 92.8663C290.087 92.8663 287.975 93.9589 287.247 95.0514C286.154 96.6902 285.608 99.9679 286.701 101.06Z" fill="#FFB1B2"/>
<path d="M242.73 86.8574L233.166 70.4692C230.07 80.3021 226.015 101.17 233.444 99.4216C240.873 97.6735 242.73 90.3171 242.73 86.8574Z" fill="#4A6F9A"/>
<path d="M235.897 80.8483C235.897 70.7969 230.07 66.099 227.157 65.0064C227.157 65.0064 227.157 67.7378 226.064 72.6542C225.802 73.8323 225.627 76.1504 223.879 77.0244C222.131 77.8985 220.237 75.2035 219.509 73.7468C218.052 71.1975 214.483 65.5527 211.861 63.3676C199.625 63.8046 191.831 71.1975 189.464 74.8393C186.915 78.6632 181.707 86.9666 181.27 89.5887C181.707 91.7738 190.557 98.147 194.927 101.06L199.297 121.273L235.351 119.634C235.533 110.893 235.897 90.8997 235.897 80.8483Z" fill="#5E8ABD"/>
<path d="M212.034 63.0341L219.204 49.1711C219.57 48.4646 220.574 48.4468 220.964 49.14L222.68 52.1885C222.75 52.3137 222.847 52.4222 222.963 52.5067L228.384 56.4492C228.643 56.6373 228.795 56.9345 228.79 57.2543C228.762 58.813 228.603 63.9017 227.703 71.498C227.325 74.6907 227.302 77.9305 221.148 77.0244C215.61 76.209 212.518 65.8005 211.955 63.7259C211.892 63.4923 211.922 63.2491 212.034 63.0341Z" fill="#FFB1B2"/>
<path d="M233.697 56.3362C232.386 53.7141 233.515 51.6018 234.243 50.8735C230.783 52.3302 223.864 53.8233 223.864 48.1421C223.864 41.0406 224.972 40.4241 227.157 38.2391C228.905 36.491 234.44 36.9644 236.99 37.6928C238.082 37.3286 241.563 35.2501 242.437 31.7539C243.311 28.2578 240.616 25.5628 239.159 24.6524C238.249 24.1061 235.772 23.4506 233.15 25.1987C230.528 26.9467 227.323 25.927 226.049 25.1987C225.32 24.6524 223.208 23.4506 220.586 23.0136C216.653 22.5765 214.213 24.2882 213.485 25.1987C212.392 26.4733 210.753 29.8966 212.938 33.3927C215.67 37.7629 215.123 37.7629 215.123 43.7719C215.123 48.5791 217.308 50.8735 218.401 51.4197L219.494 48.6884C219.676 48.8705 220.04 50.3272 220.04 54.6974C220.04 60.1601 221.132 62.8915 223.864 66.1691C226.595 69.4467 233.697 68.9005 232.604 66.1691C231.73 63.984 232.24 61.6168 232.604 60.7064C233.333 59.7959 234.571 57.6472 233.697 56.3362Z" fill="#140C2D"/>
<path d="M220.096 45.719C220.467 44.6681 220.956 43.7067 221.411 42.9448C221.795 42.3013 221.423 41.4326 220.709 41.6612C219.504 42.047 218.771 43.1169 218.509 43.772C218.397 44.2176 218.341 45.0586 218.614 45.9446C218.853 46.722 219.825 46.4859 220.096 45.719Z" fill="#FFB1B2"/>
<path d="M229.342 55.7198C229.888 56.084 230.871 56.5938 232.62 55.7198" stroke="#FFB1B2" stroke-linecap="round"/>
<path d="M236.444 47.462C238.629 43.9659 237.718 39.45 236.99 37.6291C234.259 36.6003 229.014 36.7551 227.703 37.6291C226.064 38.7217 224.106 40.6117 223.333 43.7018C222.787 45.8869 223.515 48.0083 223.879 49.6471C224.426 51.2859 226.064 54.2358 228.249 52.9248C230.435 51.6137 232.802 52.0143 233.712 52.3785L238.629 52.9248C237.9 51.8322 236.444 49.2101 236.444 47.462Z" fill="#FFB1B2"/>
<circle cx="232.073" cy="47.5257" r="0.546273" fill="black"/>
<circle cx="236.443" cy="47.5257" r="0.546273" fill="black"/>
<path d="M230.434 45.8869C230.617 45.5227 231.418 44.7944 233.166 44.7944M235.897 45.3406C236.261 45.1586 237.208 44.9036 238.082 45.3406" stroke="black" stroke-linecap="round"/>
<path d="M212.714 99.3935C211.403 102.016 214.717 107.041 216.538 109.226L211.621 110.319L207.797 105.403L200.696 95.0234L199.603 89.0144L202.881 85.1905L207.251 80.8203C208.89 79.9098 212.932 78.6352 215.992 80.8203C219.051 83.0054 219.451 86.4651 219.269 87.9218L220.908 90.1069L219.269 91.1994L218.723 93.9308C218.177 94.295 216.756 94.8048 215.445 93.9308C215.008 95.2419 216.72 95.9338 217.63 96.1159C216.902 97.2084 214.899 99.3935 212.714 99.3935Z" fill="#FFA06D"/>
<path d="M270.619 144.868C270.182 140.498 265.702 140.498 263.517 141.044L246.583 144.868L252.046 158.525L268.98 152.516C269.708 151.788 271.056 149.238 270.619 144.868Z" fill="#EB905F"/>
<path d="M222.001 109.112H216.538L210.529 108.02L206.76 114.029C203.665 118.581 198.348 130.199 201.844 140.25C205.34 150.301 203.301 161.008 201.844 163.74L206.76 165.925L220.963 165.379L234.074 151.722C231.161 149.172 225.771 143.309 227.519 140.25C233.2 132.384 229.158 126.047 226.426 123.862L222.001 109.112Z" fill="#FF762B"/>
<path d="M226.611 155.688C227.485 152.629 230.923 149.901 232.926 148.99C235.111 147.351 241.229 144.074 248.222 144.074C254.777 146.259 255.323 153.725 254.777 157.184L243.305 161.555L222.547 164.832L217.084 163.74C218.905 162.647 225.736 158.747 226.611 155.688Z" fill="#FF3159"/>
<path d="M222.591 109.194C216.909 108.32 215.125 114.657 214.943 117.935C214.761 119.027 215.052 122.305 217.674 126.675C220.296 131.045 223.501 129.589 224.776 128.314C230.603 131.774 243.349 139.567 247.719 143.063C252.089 146.559 259.009 144.52 261.922 143.063L282.681 132.138L294.152 124.49C294.881 124.308 296.774 123.725 298.522 122.851C300.271 121.977 300.708 117.753 300.708 115.75L304.531 112.472C305.078 111.926 306.17 110.724 306.17 110.287C306.17 109.85 305.442 110.105 305.078 110.287L295.245 115.75C296.519 114.293 298.85 111.161 297.976 110.287C294.48 110.287 290.693 117.571 289.236 121.212L277.218 126.129L255.367 132.138L233.516 115.75C232.241 113.929 228.272 110.068 222.591 109.194Z" fill="#FFA06D"/>
<path d="M215.992 71.9659C215.118 67.1587 209.801 67.4136 207.251 68.142C206.705 68.2804 201.242 70.3271 200.15 73.0584C199.276 75.2435 196.144 75.7898 194.687 75.7898C193.594 75.7898 190.754 76.2268 188.132 77.9749C182.887 81.471 183.762 88.5362 184.854 91.6317C186.129 94.5452 187.367 101.246 182.123 104.742C173.819 109.986 170.287 116.396 169.558 118.945C167.555 127.322 166.172 144.839 176.66 147.898C187.148 150.957 194.505 147.716 196.872 145.713C198.511 144.62 201.679 141.124 201.242 135.88C200.805 130.636 202.153 127.504 202.881 126.593L212.168 114.575C212.532 113.301 213.042 109.768 212.168 105.835C211.294 101.902 207.069 98.3691 205.066 97.0944L203.974 93.2705C203.245 93.2705 201.679 92.7243 201.242 90.5392C200.805 88.3541 203.245 88.172 204.52 88.3541C204.338 87.4436 204.52 85.295 206.705 83.9839C211.949 84.4209 214.353 82.3451 214.899 81.2525C215.627 80.16 216.866 76.7731 215.992 71.9659Z" fill="#1C0F3F"/>
<path d="M222.617 83.9167C223.468 86.04 222.733 88.1103 221.28 88.6929C219.828 89.2754 217.866 88.287 217.014 86.1636C216.163 84.0402 216.898 81.97 218.351 81.3874C219.803 80.8048 221.765 81.7933 222.617 83.9167Z" stroke="#1B1653"/>
<path d="M217.154 87.1943C218.006 89.3176 217.27 91.3879 215.818 91.9705C214.365 92.553 212.403 91.5646 211.551 89.4412C210.7 87.3178 211.435 85.2476 212.888 84.665C214.34 84.0824 216.303 85.0709 217.154 87.1943Z" stroke="#1B1653"/>
<path d="M211.075 88.3541C210.638 88.3541 206.887 88.7183 205.066 88.9004M201.242 89.9929L199.603 91.6318" stroke="#1B1653" stroke-linecap="round"/>
<path d="M212.714 87.2616C213.26 86.7153 214.462 85.6228 214.899 85.6228M218.177 84.5302L218.723 83.984L219.816 83.4377" stroke="#724B4B" stroke-linecap="round"/>
<circle cx="215.445" cy="87.8078" r="0.546273" fill="black"/>
<circle cx="219.815" cy="85.6227" r="0.546273" fill="black"/>
<path d="M141.123 89.5887C141.56 86.0925 146.768 83.0334 149.317 81.9409L150.956 93.4126L147.678 99.4216L144.4 104.338L142.215 104.884C140.576 104.702 137.736 103.573 139.484 100.514C141.669 96.6902 140.576 93.9589 141.123 89.5887Z" fill="#FFB1B2"/>
<path d="M147.564 84.2912L141.811 90.487C141.432 90.8947 141.459 91.5331 141.871 91.9073L146.221 95.8624C146.691 96.2893 147.434 96.1765 147.756 95.6295L152.175 88.1177C152.418 87.7035 152.333 87.1745 151.971 86.8581L148.955 84.219C148.548 83.8629 147.932 83.8949 147.564 84.2912Z" fill="white"/>
<path d="M145.493 104.884L138.391 100.514L129.651 114.171C124.553 122.729 115.557 140.174 120.364 141.485C125.172 142.796 131.472 138.753 134.021 136.568L145.493 104.884Z" fill="#281562"/>
<path d="M141.669 119.634C142.98 116.575 152.048 107.798 156.419 103.792L147.678 102.153C144.583 104.702 137.955 111.003 136.206 115.81C134.458 120.617 132.929 134.201 132.383 140.392L131.29 151.317L132.929 152.41C135.296 142.759 140.358 122.693 141.669 119.634Z" fill="#3C1F94"/>
<path d="M154.3 104.155C154.501 103.965 154.509 103.649 154.32 103.448C154.13 103.248 153.813 103.239 153.613 103.428L154.3 104.155ZM138.938 117.995L138.594 117.632L138.138 118.063L138.66 118.411L138.938 117.995ZM140.577 119.087L140.762 119.552L141.645 119.199L140.854 118.671L140.577 119.087ZM137.845 120.18L137.66 119.716L137.401 119.819L137.353 120.094L137.845 120.18ZM153.613 103.428L138.594 117.632L139.281 118.358L154.3 104.155L153.613 103.428ZM138.66 118.411L140.299 119.503L140.854 118.671L139.215 117.579L138.66 118.411ZM140.391 118.623L137.66 119.716L138.031 120.644L140.762 119.552L140.391 118.623ZM137.353 120.094L131.89 151.231L132.875 151.404L138.338 120.266L137.353 120.094Z" fill="#664EAE"/>
<path d="M181.171 85.2752C181.608 68.2315 169.699 65.0631 163.69 65.6094C158.873 66.0474 152.983 69.1055 149.487 74.3497C145.991 79.594 147.666 84.5468 148.941 86.3677C149.851 88.5528 151.126 94.0156 148.941 98.3857C148.504 103.193 153.493 105.851 156.042 106.58L159.32 108.765C165.329 110.768 178.767 114.555 184.449 113.681C190.13 112.807 189.001 104.213 187.726 100.025C185.905 97.1111 182.045 90.0824 181.171 85.2752Z" fill="#42154E"/>
<path d="M155.595 104.42L154.503 112.068L162.15 110.975C164.153 109.336 167.832 105.512 166.521 103.327C165.209 101.142 165.61 98.0468 165.974 96.7721V85.3004C166.521 84.572 167.395 82.7875 166.521 81.4765C165.647 80.1654 163.971 81.2944 163.243 82.0228C160.329 78.7451 154.175 72.4084 152.864 73.2824C149.805 75.4675 149.768 81.1123 150.132 83.6616L147.401 87.9499C147.401 88.1319 147.947 88.6873 150.132 89.1243C150.569 93.9315 155.049 95.8617 157.234 96.2259L155.595 104.42Z" fill="#FFB1B2"/>
<path d="M154.503 81.3946C155.049 81.5767 156.251 82.1594 156.688 83.0334" stroke="#BD7F96"/>
<path d="M149.586 79.5461C149.824 79.5181 150.375 79.5208 150.679 79.7558" stroke="#BD7F96"/>
<circle cx="150.132" cy="81.3946" r="0.546273" fill="black"/>
<circle cx="154.503" cy="83.5797" r="0.546273" fill="black"/>
<circle cx="164.882" cy="84.126" r="1.09255" fill="#DE81A3"/>
<path d="M151.225 92.32C152.318 91.7738 152.864 91.7738 153.41 90.6812" stroke="#843854"/>
<path d="M166.341 84.1286C167.858 84.0831 169.337 84.6137 170.479 85.6138C171.621 86.6138 172.343 88.0092 172.498 89.5194C172.654 91.0296 172.232 92.5427 171.317 93.7545C170.403 94.9664 169.063 95.7871 167.568 96.0519C166.074 96.3166 164.534 96.0056 163.259 95.1815C161.984 94.3573 161.068 93.0811 160.695 91.6094C160.323 90.1376 160.521 88.5794 161.251 87.2479C161.98 85.9164 163.187 84.9104 164.627 84.432L164.828 85.0356C163.539 85.4634 162.461 86.3629 161.809 87.5535C161.156 88.744 160.979 90.1373 161.312 91.4533C161.645 92.7693 162.464 93.9104 163.604 94.6473C164.744 95.3842 166.121 95.6623 167.458 95.4256C168.794 95.1889 169.992 94.455 170.81 93.3714C171.627 92.2878 172.004 90.9349 171.865 89.5846C171.726 88.2342 171.081 86.9865 170.06 86.0923C169.039 85.1982 167.717 84.7237 166.36 84.7644L166.341 84.1286Z" fill="#FFDD79"/>
<path d="M163.789 109.801L155.049 111.44L155.595 104.884H154.503L141.392 120.18L134.291 152.956L144.67 156.78L163.789 109.801Z" fill="white"/>
<path d="M174.168 107.616C169.361 107.179 167.431 104.156 167.067 102.699C163.971 106.159 156.251 115.045 150.132 122.911C144.014 130.778 142.12 145.855 141.938 152.41L144.123 157.873C155.049 160.968 177.665 166.176 180.724 162.243C183.783 158.31 187.097 144.216 188.372 137.661C188.736 133.473 189.355 123.676 188.918 117.995C188.481 112.314 186.186 109.801 185.094 109.254C183.455 108.89 178.976 108.053 174.168 107.616Z" fill="#3C1F94"/>
<path d="M173.076 148.586L173.622 120.726L167.067 139.846L168.706 152.41L173.076 148.586Z" fill="#281562"/>
<path d="M170.344 106.523L160.512 124.004L155.049 125.096L158.326 126.735C154.867 130.195 147.729 144.762 144.67 157.873" stroke="#664EAE"/>
<path d="M180.724 238.175L149.586 207.584L144.123 204.306L139.753 214.139L146.308 225.611C155.777 230.709 176.463 242.654 183.455 249.647C190.447 256.639 190.374 260.936 189.464 262.211L192.742 260.026V254.017L189.464 245.823L180.724 238.175Z" fill="#EF9395"/>
<path d="M193.288 246.915C191.54 245.167 188.189 244.002 186.733 243.637C186.186 245.823 188.918 249.646 191.103 253.47C192.851 256.529 188.918 257.294 189.464 257.841C189.646 258.023 189.901 259.152 189.464 262.211C189.027 265.27 190.01 266.399 190.557 266.581C190.921 266.763 191.868 267.018 192.742 266.581C193.834 266.035 196.566 259.479 197.112 256.748C197.549 254.563 194.745 251.103 193.288 249.646L198.204 251.832L198.751 249.646C197.658 249.464 195.036 248.663 193.288 246.915Z" fill="#3C1F94"/>
<path d="M148.494 281.33L118.995 195.566L144.67 202.667L140.846 214.139C143.395 217.052 149.149 227.905 151.771 248.008C152.645 265.488 154.685 278.235 155.595 282.423V286.793L153.41 294.987L148.494 299.357C146.308 299.722 142.812 299.357 146.308 294.987C149.805 290.617 149.222 284.062 148.494 281.33Z" fill="#FFB1B2"/>
<path d="M158.327 290.071C157.889 285.7 155.959 282.787 155.049 281.877C155.049 293.895 150.679 295.533 147.947 296.626C145.762 297.5 145.398 296.626 146.309 294.987C143.577 296.808 138.661 300.668 140.846 301.542C143.577 302.635 149.586 300.996 152.318 299.904C154.503 299.03 155.777 294.077 156.141 291.709L158.327 297.718L159.419 297.172C159.237 296.626 158.764 294.441 158.327 290.071Z" fill="#3C1F94"/>
<path d="M238.628 157.326C308.988 143.342 326.578 118.177 326.578 103.245V170.437C324.393 179.906 303.744 203.104 238.628 220.148C173.513 237.191 112.075 204.306 89.4961 185.733V117.995C109.89 136.932 168.269 171.311 238.628 157.326Z" fill="url(#paint0_linear)"/>
<path d="M95.5051 103.792L69.284 76.4781L61.6362 80.8483L95.5051 103.792Z" fill="#A183FF"/>
<path d="M61.6362 87.4036V80.8483L95.5051 103.792L61.6362 87.4036Z" fill="#3C1F94"/>
<path d="M58.9049 98.329L57.2661 93.4126L95.5052 103.792L58.9049 98.329Z" fill="#3C1F94"/>
<path d="M95.5051 103.792L56.1735 84.126L44.7018 90.6812L95.5051 103.792Z" fill="#A183FF"/>
<path d="M47.9794 84.0153C40.3316 80.0093 23.9434 68.6104 19.5732 55.0628C15.2031 41.5153 18.1165 33.0299 20.1195 30.4806C23.033 25.9283 31.045 16.3868 39.7853 14.6387C48.5257 12.8906 51.4392 16.8238 51.8033 19.0089C52.5317 20.6477 52.2404 24.9086 45.2481 28.8418C38.2558 32.7749 29.5883 33.7582 26.1285 33.7582C20.8479 33.9403 8.42931 32.6657 1 26.1104" stroke="#E45E5E" stroke-dasharray="3 3"/>
<path d="M141.938 79.2095V22.9434L108.069 43.1555V99.4216L141.938 79.2095Z" fill="#FFD312"/>
<path d="M108.069 99.4216L141.938 22.9434L108.069 43.1555V99.4216Z" fill="#FFBB14"/>
<path d="M160.512 95.0514L157.234 96.1439C157.234 96.6902 156.032 102.699 155.595 104.884C158.654 104.01 161.604 98.329 160.512 95.0514Z" fill="#E092AF"/>
<path d="M111.893 164.428L128.281 172.076V209.222L111.893 201.575V164.428Z" fill="#8A70D8"/>
<path d="M236.99 189.01L253.378 184.64V216.324L236.99 220.694V189.01Z" fill="#605DAE"/>
<path d="M276.321 179.177L292.709 172.622V201.028L276.321 207.584V179.177Z" fill="#5759B3"/>
<path d="M123.365 181.362C130.467 186.279 138.988 189.666 155.595 194.473" stroke="#FCCA6A" stroke-width="2" stroke-linecap="round" stroke-dasharray="3 3"/>
<path d="M119.541 157.327L72.0154 130.013V208.13L119.541 234.351V157.327Z" fill="#F1EDFE"/>
<ellipse cx="84.7898" cy="157.524" rx="8.22299" ry="14.6469" transform="rotate(-20.1982 84.7898 157.524)" fill="#B096FF"/>
<rect x="99.3291" y="160.604" width="19.8384" height="2.18509" rx="1" transform="rotate(30 99.3291 160.604)" fill="#C5B3FF"/>
<rect x="99.3291" y="167.159" width="14.674" height="2.18509" rx="1" transform="rotate(30 99.3291 167.159)" fill="#C5B3FF"/>
<rect x="81.8484" y="175.9" width="30.1214" height="2.18509" rx="1" transform="rotate(30 81.8484 175.9)" fill="#C5B3FF"/>
<rect x="81.8484" y="181.362" width="30.1214" height="2.18509" rx="1" transform="rotate(30 81.8484 181.362)" fill="#C5B3FF"/>
<rect x="81.8484" y="187.918" width="22.1307" height="2.18509" rx="1" transform="rotate(30 81.8484 187.918)" fill="#C5B3FF"/>
<rect x="81.8484" y="193.38" width="27.2454" height="2.18509" rx="1" transform="rotate(30 81.8484 193.38)" fill="#C5B3FF"/>
<rect x="81.8484" y="199.936" width="31.1484" height="2.18509" rx="1" transform="rotate(30 81.8484 199.936)" fill="#C5B3FF"/>
<path d="M159.419 175.9C199.255 188.191 246.823 178.085 246.823 178.085V253.47C246.823 253.47 198.204 261.118 159.419 251.285C159.419 232.501 159.419 204.93 159.419 175.9Z" fill="#F1EDFE"/>
<path d="M192.195 232.166C209.13 233.258 223.879 232.166 223.879 232.166V248.008C223.879 248.008 207.491 249.1 192.195 248.008C192.195 243.841 192.195 238.605 192.195 232.166Z" fill="#FFD312"/>
<path d="M163.243 204.306C177.446 209.222 202.575 209.222 202.575 209.222V225.611C202.575 225.611 176.353 223.972 163.243 220.148C163.243 215.974 163.243 210.757 163.243 204.306Z" fill="#B096FF"/>
<path d="M181.27 187.372C197.658 189.557 216.778 188.464 216.778 188.464V204.852C216.778 204.852 190.01 205.945 181.27 203.213C181.27 199.039 181.27 193.823 181.27 187.372Z" fill="#B096FF"/>
<ellipse cx="169.798" cy="192.288" rx="7.10154" ry="8.19409" transform="rotate(-21.0357 169.798 192.288)" fill="#B096FF"/>
<ellipse cx="235.64" cy="239.488" rx="7.63799" ry="8.81306" transform="rotate(6.58356 235.64 239.488)" fill="#FFD312"/>
<path d="M286.154 242.545V167.159C327.671 150.116 339.143 121.455 339.689 109.255C340.417 121.637 341.437 153.94 339.689 184.094C337.941 214.248 303.271 235.626 286.154 242.545Z" fill="#FFD312"/>
<path d="M309.644 178.631V166.613C326.578 154.595 334.531 141.261 334.816 137.661V150.225C332.587 158.419 317.292 173.715 309.644 178.631Z" fill="white"/>
<path d="M292.163 226.703V202.667C322.208 186.279 335.077 166.389 335.362 162.789V187.371C333.134 195.566 316.745 215.231 292.163 226.703Z" fill="#FFBB14"/>
<ellipse cx="298.911" cy="177.762" rx="7.38458" ry="12.6896" transform="rotate(16.5783 298.911 177.762)" fill="#B096FF"/>
<path d="M249.634 195.271C258.225 194.374 266.896 191.391 282.627 184.219" stroke="#FCCA6A" stroke-width="2" stroke-linecap="round" stroke-dasharray="3 3"/>
<defs>
<linearGradient id="paint0_linear" x1="89.4961" y1="103.245" x2="336.605" y2="129.112" gradientUnits="userSpaceOnUse">
<stop offset="0.0104167" stop-color="#BD95FF"/>
<stop offset="1" stop-color="#5B68DE"/>
</linearGradient>
</defs>
</svg>
