<svg width="27" height="33" viewBox="0 0 27 33" fill="none" xmlns="http://www.w3.org/2000/svg">
<path d="M17.6465 3.16464L14.7225 0.933139C14.0016 0.382987 13.0008 0.38671 12.284 0.942211L1.27473 9.4744C0.785943 9.85322 0.499878 10.4368 0.499878 11.0552V15.9721C0.499878 17.6519 2.44557 18.5834 3.75409 17.5299L17.6874 6.31241C18.6984 5.49847 18.6783 3.95207 17.6465 3.16464Z" fill="#8A66F0"/>
<path d="M17.6465 15.1894L14.7225 12.9579C14.0016 12.4078 13.0008 12.4115 12.284 12.967L1.27473 21.4992C0.785943 21.878 0.499878 22.4616 0.499878 23.08V27.9968C0.499878 29.6767 2.44557 30.6082 3.75409 29.5547L17.6874 18.3372C18.6984 17.5232 18.6783 15.9768 17.6465 15.1894Z" fill="#8A66F0"/>
<path d="M16.7245 9.42951L19.7707 6.86425C20.4773 6.26921 21.4995 6.23553 22.2438 6.78277L25.6849 9.31302C26.1975 9.68989 26.5001 10.2881 26.5001 10.9243V15.8249C26.5001 17.473 24.6186 18.4137 23.3001 17.4249L16.8128 12.5593C15.7834 11.7873 15.7403 10.2583 16.7245 9.42951Z" fill="#8A66F0"/>
<path d="M16.4913 21.5736L19.7608 18.8763C20.473 18.2887 21.4949 18.2651 22.2335 18.8191L25.3746 21.1748C25.8782 21.5526 26.1746 22.1453 26.1746 22.7748V27.6572C26.1746 29.2803 24.3431 30.2274 23.0185 29.2892L16.608 24.7484C15.5329 23.9869 15.475 22.4121 16.4913 21.5736Z" fill="#8A66F0"/>
</svg>
