<svg width="23" height="30" viewBox="0 0 23 30" fill="none" xmlns="http://www.w3.org/2000/svg">
<path d="M4.5 24.6765L3.78784 24.9817C2.4681 25.5473 1 24.5793 1 23.1434V7.26601C1 6.3354 1.64187 5.52776 2.54845 5.31765L16.5485 2.07305C17.8022 1.78249 19 2.73447 19 4.02141V6.67651" stroke="#332F2F" stroke-width="2" stroke-linecap="round" stroke-linejoin="round"/>
<path d="M10.6498 21.1813L8.64983 21.9289C8.25903 22.075 8 22.4484 8 22.8656V26.7304C8 27.4282 8.69658 27.9115 9.35017 27.6671L11.3502 26.9194C11.741 26.7733 12 26.4 12 25.9828V22.1179C12 21.4202 11.3034 20.9369 10.6498 21.1813Z" stroke="#332F2F" stroke-width="2"/>
<path d="M10.7585 12.4854L8.75852 12.9831C8.31284 13.094 8 13.4943 8 13.9535V16.8925C8 17.5427 8.61059 18.0199 9.24148 17.8629L11.2415 17.3653C11.6872 17.2544 12 16.8541 12 16.3949V13.4558C12 12.8057 11.3894 12.3285 10.7585 12.4854Z" stroke="#332F2F" stroke-width="2"/>
<path d="M16 12.0196L16 24.8921C16 25.5423 16.6109 26.0196 17.2418 25.8624L21.2418 24.8655C21.6873 24.7544 22 24.3543 22 23.8952L22 11.3561C22 10.7384 21.4457 10.2685 20.8363 10.3696L16.8363 11.0331C16.3538 11.1132 16 11.5305 16 12.0196Z" stroke="#332F2F" stroke-width="2"/>
</svg>
