<svg width="66" height="67" viewBox="0 0 66 67" fill="none" xmlns="http://www.w3.org/2000/svg">
<g filter="url(#filter0_d)">
<path d="M32.845 15.38C23.0048 15.38 15 23.3849 15 33.225C15 43.0652 23.0059 51.07 32.845 51.07C42.6841 51.07 50.6879 43.0641 50.6879 33.225C50.6879 23.3859 42.6841 15.38 32.845 15.38ZM32.845 49.5243C23.8571 49.5243 16.5457 42.2119 16.5457 33.225C16.5457 24.2381 23.8571 16.9257 32.845 16.9257C41.8319 16.9257 49.1422 24.2381 49.1422 33.225C49.1422 42.2119 41.8319 49.5243 32.845 49.5243Z" fill="#FF9B04"/>
<path d="M28.1356 30.184C28.7298 30.184 29.2115 29.7023 29.2115 29.1082C29.2115 28.514 28.7298 28.0323 28.1356 28.0323C27.5415 28.0323 27.0598 28.514 27.0598 29.1082C27.0598 29.7023 27.5415 30.184 28.1356 30.184Z" fill="#FF9B04"/>
<path d="M37.5512 30.184C38.1453 30.184 38.627 29.7023 38.627 29.1082C38.627 28.514 38.1453 28.0323 37.5512 28.0323C36.957 28.0323 36.4753 28.514 36.4753 29.1082C36.4753 29.7023 36.957 30.184 37.5512 30.184Z" fill="#FF9B04"/>
<rect x="26" y="38" width="13.7399" height="1.52665" rx="0.763326" fill="#FF9B04"/>
</g>
<defs>
<filter id="filter0_d" x="0" y="0.380005" width="65.6879" height="65.69" filterUnits="userSpaceOnUse" color-interpolation-filters="sRGB">
<feFlood flood-opacity="0" result="BackgroundImageFix"/>
<feColorMatrix in="SourceAlpha" type="matrix" values="0 0 0 0 0 0 0 0 0 0 0 0 0 0 0 0 0 0 127 0"/>
<feOffset/>
<feGaussianBlur stdDeviation="7.5"/>
<feColorMatrix type="matrix" values="0 0 0 0 1 0 0 0 0 0.607843 0 0 0 0 0.0156863 0 0 0 1 0"/>
<feBlend mode="normal" in2="BackgroundImageFix" result="effect1_dropShadow"/>
<feBlend mode="normal" in="SourceGraphic" in2="effect1_dropShadow" result="shape"/>
</filter>
</defs>
</svg>
