<svg width="66" height="67" viewBox="0 0 66 67" fill="none" xmlns="http://www.w3.org/2000/svg">
<g filter="url(#filter0_d)">
<path d="M32.845 15.6899C23.0048 15.6899 15 23.6948 15 33.5349C15 43.3751 23.0059 51.3799 32.845 51.3799C42.6841 51.3799 50.6879 43.3741 50.6879 33.5349C50.6879 23.6958 42.6841 15.6899 32.845 15.6899ZM32.845 49.8342C23.8571 49.8342 16.5457 42.5218 16.5457 33.5349C16.5457 24.548 23.8571 17.2357 32.845 17.2357C41.8319 17.2357 49.1422 24.548 49.1422 33.5349C49.1422 42.5218 41.8319 49.8342 32.845 49.8342Z" fill="#EA1212"/>
<path d="M32.8571 37.8407C31.4927 37.837 30.1503 38.1841 28.9586 38.8485C27.7669 39.5129 26.7659 40.4724 26.0517 41.635C25.9979 41.7222 25.9809 41.8272 26.0045 41.9269C26.0281 42.0266 26.0903 42.1129 26.1775 42.1667L26.7669 42.5305C26.854 42.584 26.9588 42.6008 27.0582 42.5772C27.1577 42.5537 27.2438 42.4917 27.2976 42.4048C27.88 41.4541 28.6972 40.6693 29.6707 40.1258C30.6442 39.5824 31.7412 39.2987 32.8561 39.302C33.9643 39.2989 35.055 39.5793 36.0243 40.1166C36.9936 40.6539 37.8093 41.4303 38.3939 42.3718C38.4486 42.4581 38.5352 42.5192 38.6348 42.542C38.7344 42.5648 38.8389 42.5473 38.9257 42.4934L39.511 42.1265C39.5541 42.0998 39.5915 42.0648 39.621 42.0235C39.6505 41.9823 39.6716 41.9355 39.6829 41.8861C39.6942 41.8366 39.6956 41.7854 39.6869 41.7354C39.6783 41.6854 39.6598 41.6376 39.6326 41.5948C38.9166 40.4436 37.9184 39.4945 36.7326 38.8374C35.5468 38.1804 34.2128 37.8373 32.8571 37.8407Z" fill="#EA1212"/>
<path d="M28.1356 30.4939C28.7298 30.4939 29.2115 30.0123 29.2115 29.4181C29.2115 28.824 28.7298 28.3423 28.1356 28.3423C27.5415 28.3423 27.0598 28.824 27.0598 29.4181C27.0598 30.0123 27.5415 30.4939 28.1356 30.4939Z" fill="#EA1212"/>
<path d="M37.5512 30.4939C38.1453 30.4939 38.627 30.0123 38.627 29.4181C38.627 28.824 38.1453 28.3423 37.5512 28.3423C36.957 28.3423 36.4753 28.824 36.4753 29.4181C36.4753 30.0123 36.957 30.4939 37.5512 30.4939Z" fill="#EA1212"/>
</g>
<defs>
<filter id="filter0_d" x="0" y="0.689941" width="65.6879" height="65.69" filterUnits="userSpaceOnUse" color-interpolation-filters="sRGB">
<feFlood flood-opacity="0" result="BackgroundImageFix"/>
<feColorMatrix in="SourceAlpha" type="matrix" values="0 0 0 0 0 0 0 0 0 0 0 0 0 0 0 0 0 0 127 0"/>
<feOffset/>
<feGaussianBlur stdDeviation="7.5"/>
<feColorMatrix type="matrix" values="0 0 0 0 0.917647 0 0 0 0 0.0705882 0 0 0 0 0.0705882 0 0 0 1 0"/>
<feBlend mode="normal" in2="BackgroundImageFix" result="effect1_dropShadow"/>
<feBlend mode="normal" in="SourceGraphic" in2="effect1_dropShadow" result="shape"/>
</filter>
</defs>
</svg>
