<svg width="66" height="66" viewBox="0 0 66 66" fill="none" xmlns="http://www.w3.org/2000/svg">
<g filter="url(#filter0_d)">
<path d="M32.845 15C23.0048 15 15 23.0048 15 32.845C15 42.6851 23.0059 50.69 32.845 50.69C42.6841 50.69 50.6879 42.6841 50.6879 32.845C50.6879 23.0059 42.6841 15 32.845 15ZM32.845 49.1443C23.8571 49.1443 16.5457 41.8319 16.5457 32.845C16.5457 23.8581 23.8571 16.5457 32.845 16.5457C41.8319 16.5457 49.1422 23.8581 49.1422 32.845C49.1422 41.8319 41.8319 49.1443 32.845 49.1443Z" fill="#19A503"/>
<path d="M32.8297 41.8977C34.1941 41.9014 35.5365 41.5544 36.7282 40.8899C37.9199 40.2255 38.9209 39.266 39.635 38.1034C39.6888 38.0162 39.7058 37.9112 39.6823 37.8115C39.6587 37.7118 39.5965 37.6255 39.5093 37.5717L38.9199 37.2079C38.8328 37.1544 38.728 37.1376 38.6285 37.1612C38.5291 37.1847 38.443 37.2468 38.3892 37.3336C37.8068 38.2843 36.9895 39.0691 36.016 39.6126C35.0425 40.156 33.9456 40.4397 32.8307 40.4364C31.7224 40.4395 30.6318 40.1591 29.6625 39.6218C28.6932 39.0845 27.8775 38.3081 27.2928 37.3666C27.2381 37.2803 27.1516 37.2192 27.052 37.1964C26.9524 37.1736 26.8479 37.1911 26.7611 37.245L26.1758 37.6119C26.1327 37.6386 26.0952 37.6736 26.0657 37.7149C26.0362 37.7561 26.0152 37.8029 26.0039 37.8523C25.9926 37.9018 25.9912 37.953 25.9998 38.003C26.0085 38.053 26.027 38.1008 26.0542 38.1436C26.7701 39.2948 27.7684 40.2439 28.9542 40.901C30.14 41.558 31.474 41.9011 32.8297 41.8977Z" fill="#19A503"/>
<path d="M28.1356 29.804C28.7298 29.804 29.2115 29.3223 29.2115 28.7282C29.2115 28.134 28.7298 27.6523 28.1356 27.6523C27.5415 27.6523 27.0598 28.134 27.0598 28.7282C27.0598 29.3223 27.5415 29.804 28.1356 29.804Z" fill="#19A503"/>
<path d="M37.5512 29.804C38.1453 29.804 38.627 29.3223 38.627 28.7282C38.627 28.134 38.1453 27.6523 37.5512 27.6523C36.957 27.6523 36.4753 28.134 36.4753 28.7282C36.4753 29.3223 36.957 29.804 37.5512 29.804Z" fill="#19A503"/>
</g>
<defs>
<filter id="filter0_d" x="0" y="0" width="65.6879" height="65.69" filterUnits="userSpaceOnUse" color-interpolation-filters="sRGB">
<feFlood flood-opacity="0" result="BackgroundImageFix"/>
<feColorMatrix in="SourceAlpha" type="matrix" values="0 0 0 0 0 0 0 0 0 0 0 0 0 0 0 0 0 0 127 0"/>
<feOffset/>
<feGaussianBlur stdDeviation="7.5"/>
<feColorMatrix type="matrix" values="0 0 0 0 0.0980392 0 0 0 0 0.647059 0 0 0 0 0.0117647 0 0 0 1 0"/>
<feBlend mode="normal" in2="BackgroundImageFix" result="effect1_dropShadow"/>
<feBlend mode="normal" in="SourceGraphic" in2="effect1_dropShadow" result="shape"/>
</filter>
</defs>
</svg>
