<svg width="26" height="25" viewBox="0 0 26 25" fill="none" xmlns="http://www.w3.org/2000/svg">
<path d="M23.6402 22.2971C23.4701 22.4673 23.2437 22.5611 23.0028 22.5611C22.7619 22.5611 22.5356 22.4673 22.365 22.2967C21.9438 21.8758 21.4694 21.4014 21.0482 20.98C20.8778 20.8096 20.784 20.5831 20.784 20.3424C20.784 20.1043 20.8755 19.8805 21.0418 19.7113C21.044 19.7091 21.0461 19.707 21.0483 19.7048C21.2185 19.5345 21.4449 19.4408 21.6857 19.4408C21.9266 19.4408 22.153 19.5345 22.3232 19.7048C22.7444 20.1256 23.2191 20.6004 23.6403 21.0218C23.8107 21.1923 23.9046 21.4187 23.9046 21.6594C23.9046 21.9001 23.8107 22.1265 23.6402 22.2971ZM10.4393 17.0386C8.24961 14.8488 8.24961 11.2857 10.4393 9.09586C11.4993 8.03582 12.9097 7.45207 14.4107 7.45207C15.9117 7.45207 17.3221 8.03582 18.3821 9.09586C20.5719 11.2857 20.5719 14.8488 18.3821 17.0386C17.3221 18.0986 15.9117 18.6824 14.4107 18.6824C12.9097 18.6824 11.4993 18.0986 10.4393 17.0386ZM9.36175 3.94074C8.74467 3.94074 8.24272 3.43879 8.24272 2.82172C8.24272 2.20469 8.74467 1.70269 9.36175 1.70269C9.97882 1.70269 10.4808 2.20469 10.4808 2.82172C10.4808 3.43879 9.97882 3.94074 9.36175 3.94074ZM2.64994 13.4629C2.03282 13.4629 1.53081 12.961 1.53081 12.3439C1.53081 11.7269 2.03282 11.2249 2.64994 11.2249C3.26696 11.2249 3.76902 11.7269 3.76902 12.3439C3.76902 12.961 3.26696 13.4629 2.64994 13.4629ZM22.7855 5.37256C23.4025 5.37256 23.9046 5.87457 23.9046 6.49159C23.9046 7.10892 23.4025 7.61112 22.7855 7.61112C22.1684 7.61112 21.6664 7.10892 21.6664 6.49159C21.6664 5.87457 22.1684 5.37256 22.7855 5.37256ZM23.4059 18.6226C22.9466 18.163 22.3357 17.9099 21.6857 17.9099C21.3185 17.9099 20.9639 17.991 20.6419 18.1441L20.0085 17.5109C21.8877 15.147 22.0533 11.8595 20.5051 9.33283L21.2434 8.64493C21.6782 8.95727 22.2105 9.14194 22.7855 9.14194C24.2466 9.14194 25.4354 7.95301 25.4354 6.49159C25.4354 5.03048 24.2466 3.84175 22.7855 3.84175C21.3243 3.84175 20.1356 5.03048 20.1356 6.49159C20.1356 6.82041 20.1962 7.13519 20.3061 7.42595L19.565 8.11645C19.5319 8.0819 19.4986 8.04741 19.4646 8.01342C18.1155 6.66426 16.3206 5.92126 14.4107 5.92126C14.1421 5.92126 13.8759 5.93646 13.6127 5.9655L11.7789 3.90558C11.928 3.57447 12.0116 3.20779 12.0116 2.82172C12.0116 1.3606 10.8229 0.171875 9.36175 0.171875C7.90058 0.171875 6.71191 1.3606 6.71191 2.82172C6.71191 3.37429 6.88208 3.88767 7.17248 4.31273L3.31187 9.77779C3.10021 9.72314 2.87839 9.69405 2.64994 9.69405C1.18873 9.69405 0 10.8828 0 12.3439C0 13.8051 1.18873 14.9937 2.64994 14.9937C4.11105 14.9937 5.29983 13.8051 5.29983 12.3439C5.29983 11.6653 5.04306 11.0456 4.62199 10.5763L8.3658 5.27663C8.67349 5.4019 9.00956 5.47156 9.36175 5.47156C9.87666 5.47156 10.3573 5.32347 10.7645 5.06834L11.3419 5.71695L11.9193 6.36555C10.9678 6.71835 10.0955 7.2748 9.3569 8.01342C6.57036 10.8001 6.57031 15.3343 9.3569 18.121C10.706 19.4702 12.5008 20.2132 14.4107 20.2132C16.0801 20.2132 17.6615 19.6455 18.9343 18.6016L19.5355 19.2026C19.3511 19.5494 19.2532 19.9383 19.2532 20.3424C19.2532 20.9919 19.5061 21.6027 19.9655 22.0622C20.387 22.4839 20.8616 22.9585 21.2827 23.3792C21.742 23.8388 22.3529 24.0919 23.0028 24.0919C23.6527 24.0919 24.2637 23.8388 24.7231 23.3792C25.1824 22.9196 25.4354 22.3089 25.4354 21.6594C25.4354 21.0099 25.1824 20.3992 24.7231 19.9396C24.3018 19.5181 23.8273 19.0436 23.4059 18.6226Z" fill="#332F2F"/>
<path d="M17.5418 11.2324C17.1191 11.2324 16.7764 11.5751 16.7764 11.9978V13.8935C16.7764 14.3162 17.1191 14.6589 17.5418 14.6589C17.9645 14.6589 18.3072 14.3162 18.3072 13.8935V11.9978C18.3072 11.5751 17.9645 11.2324 17.5418 11.2324Z" fill="#332F2F"/>
<path d="M11.591 11.2151C11.1683 11.2151 10.8256 11.5578 10.8256 11.9805V13.9109C10.8256 14.3336 11.1683 14.6763 11.591 14.6763C12.0137 14.6763 12.3564 14.3336 12.3564 13.9109V11.9805C12.3564 11.5578 12.0137 11.2151 11.591 11.2151Z" fill="#332F2F"/>
<path d="M14.5664 9.80469C14.1437 9.80469 13.801 10.1474 13.801 10.5701V15.3151C13.801 15.7378 14.1437 16.0805 14.5664 16.0805C14.9891 16.0805 15.3318 15.7378 15.3318 15.3151V10.5701C15.3318 10.1474 14.9891 9.80469 14.5664 9.80469Z" fill="#332F2F"/>
</svg>
