<svg width="23" height="21" viewBox="0 0 23 21" fill="none" xmlns="http://www.w3.org/2000/svg">
<path d="M3.90234 6.64307H11.6166" stroke="#DBDCE8" stroke-width="2" stroke-linecap="round" stroke-linejoin="round"/>
<path d="M1.32959 1.5H6.47243" stroke="#DBDCE8" stroke-width="2" stroke-linecap="round" stroke-linejoin="round"/>
<path d="M3.90234 1.5V15.6428C3.90234 15.9838 4.0378 16.3108 4.27892 16.552C4.52004 16.7931 4.84706 16.9285 5.18805 16.9285H11.6166" stroke="#DBDCE8" stroke-width="2" stroke-linecap="round" stroke-linejoin="round"/>
<path d="M20.6142 4.07104H12.9C12.1899 4.07104 11.6143 4.64668 11.6143 5.35676V7.92818C11.6143 8.63826 12.1899 9.21389 12.9 9.21389H20.6142C21.3243 9.21389 21.8999 8.63826 21.8999 7.92818V5.35676C21.8999 4.64668 21.3243 4.07104 20.6142 4.07104Z" stroke="#DBDCE8" stroke-width="2" stroke-linecap="round" stroke-linejoin="round"/>
<path d="M20.6142 14.3572H12.9C12.1899 14.3572 11.6143 14.9328 11.6143 15.6429V18.2143C11.6143 18.9244 12.1899 19.5 12.9 19.5H20.6142C21.3243 19.5 21.8999 18.9244 21.8999 18.2143V15.6429C21.8999 14.9328 21.3243 14.3572 20.6142 14.3572Z" stroke="#DBDCE8" stroke-width="2" stroke-linecap="round" stroke-linejoin="round"/>
</svg>
