<svg width="24" height="24" viewBox="0 0 24 24" fill="none" xmlns="http://www.w3.org/2000/svg">
<path d="M22 12.0049C22 14.2928 21.2527 16.5181 19.8718 18.3423C18.4909 20.1665 16.552 21.4897 14.35 22.1107C12.148 22.7317 9.8034 22.6165 7.67289 21.7826C5.54237 20.9487 3.74253 19.4417 2.54715 17.4909C1.35177 15.5401 0.826269 13.2523 1.05059 10.9754C1.27491 8.69851 2.23678 6.55721 3.78987 4.8772C5.34296 3.1972 7.40228 2.07044 9.65457 1.66833C11.9069 1.26622 14.2289 1.61076 16.2673 2.64954" stroke="#332F2F" stroke-width="2" stroke-linecap="round" stroke-linejoin="round"/>
<rect x="7.4024" y="10.6106" width="6.54686" height="2.09091" rx="1" transform="rotate(45 7.4024 10.6106)" fill="#332F2F"/>
<rect x="23.4847" y="4.12109" width="17.8151" height="2.09091" rx="1" transform="rotate(135 23.4847 4.12109)" fill="#332F2F"/>
</svg>
