<svg width="25" height="26" viewBox="0 0 25 26" fill="none" xmlns="http://www.w3.org/2000/svg">
<path d="M12.4999 17.6726C11.511 17.6726 10.5443 17.3794 9.72204 16.83C8.89979 16.2806 8.25892 15.4997 7.88048 14.5861C7.50204 13.6724 7.40303 12.6671 7.59595 11.6972C7.78888 10.7273 8.26509 9.83635 8.96435 9.13708C9.66362 8.43782 10.5545 7.96161 11.5244 7.76868C12.4944 7.57576 13.4997 7.67477 14.4133 8.05321C15.327 8.43165 16.1079 9.07252 16.6573 9.89477C17.2067 10.717 17.4999 11.6837 17.4999 12.6726C17.4999 13.9987 16.9731 15.2705 16.0354 16.2082C15.0978 17.1459 13.826 17.6726 12.4999 17.6726ZM12.4999 9.33928C11.8406 9.33928 11.1962 9.53478 10.648 9.90105C10.0998 10.2673 9.67258 10.7879 9.42029 11.397C9.168 12.0061 9.10198 12.6763 9.2306 13.3229C9.35922 13.9695 9.67669 14.5635 10.1429 15.0297C10.609 15.4958 11.203 15.8133 11.8496 15.9419C12.4962 16.0705 13.1664 16.0045 13.7755 15.7522C14.3846 15.4999 14.9052 15.0727 15.2715 14.5245C15.6377 13.9764 15.8332 13.3319 15.8332 12.6726C15.8332 11.7886 15.4821 10.9407 14.8569 10.3156C14.2318 9.69047 13.384 9.33928 12.4999 9.33928V9.33928Z" fill="#332F2F"/>
<path d="M16.6669 25.1719H8.33353C7.44947 25.1719 6.60162 24.8207 5.9765 24.1956C5.35137 23.5705 5.00018 22.7226 5.00018 21.8386V19.7135C5.00168 19.5481 5.05241 19.3868 5.14591 19.2502C5.23941 19.1137 5.37144 19.0081 5.52519 18.9469L8.55853 17.7302C8.66135 17.6846 8.77234 17.6603 8.8848 17.6588C8.99726 17.6572 9.10887 17.6785 9.21291 17.7212C9.31695 17.7639 9.41126 17.8273 9.49016 17.9074C9.56907 17.9876 9.63093 18.0829 9.67202 18.1876C9.71311 18.2923 9.73258 18.4042 9.72926 18.5166C9.72594 18.6291 9.6999 18.7396 9.6527 18.8417C9.6055 18.9438 9.53812 19.0353 9.45463 19.1107C9.37113 19.186 9.27325 19.2437 9.16687 19.2802L6.66686 20.2802V21.8386C6.66686 22.2806 6.84245 22.7045 7.15501 23.0171C7.46758 23.3296 7.8915 23.5052 8.33353 23.5052H16.6669C17.1089 23.5052 17.5328 23.3296 17.8454 23.0171C18.158 22.7045 18.3336 22.2806 18.3336 21.8386V20.2802L15.8336 19.2802C15.628 19.1984 15.4634 19.0384 15.3759 18.8352C15.2883 18.632 15.2851 18.4024 15.3669 18.1969C15.4487 17.9913 15.6087 17.8267 15.8119 17.7392C16.0151 17.6517 16.2447 17.6484 16.4502 17.7302L19.4836 18.9469C19.6373 19.0081 19.7693 19.1137 19.8628 19.2502C19.9563 19.3868 20.0071 19.5481 20.0086 19.7135V21.8386C20.0086 22.277 19.9221 22.7111 19.754 23.1161C19.586 23.5211 19.3397 23.8889 19.0293 24.1985C18.7189 24.5082 18.3505 24.7535 17.9451 24.9206C17.5397 25.0876 17.1053 25.173 16.6669 25.1719V25.1719Z" fill="#332F2F"/>
<path d="M6.66632 8.50524C5.84223 8.50524 5.03664 8.26087 4.35143 7.80303C3.66623 7.34518 3.13217 6.69444 2.81681 5.93308C2.50144 5.17172 2.41892 4.33394 2.5797 3.52568C2.74047 2.71742 3.13731 1.97499 3.72003 1.39227C4.30275 0.809549 5.04518 0.412711 5.85344 0.251938C6.66169 0.0911662 7.49947 0.17368 8.26084 0.489047C9.0222 0.804413 9.67294 1.33847 10.1308 2.02367C10.5886 2.70888 10.833 3.51447 10.833 4.33856C10.833 4.88573 10.7252 5.42755 10.5158 5.93308C10.3064 6.4386 9.99952 6.89793 9.6126 7.28485C9.22569 7.67176 8.76636 7.97867 8.26084 8.18807C7.75531 8.39746 7.21349 8.50524 6.66632 8.50524V8.50524ZM6.66632 1.83855C6.17186 1.83855 5.68851 1.98517 5.27739 2.25988C4.86626 2.53458 4.54583 2.92503 4.35661 3.38185C4.16739 3.83866 4.11788 4.34133 4.21435 4.82629C4.31081 5.31124 4.54891 5.7567 4.89854 6.10633C5.24818 6.45596 5.69364 6.69407 6.17859 6.79053C6.66354 6.88699 7.16621 6.83748 7.62303 6.64826C8.07985 6.45905 8.47029 6.13861 8.745 5.72749C9.0197 5.31636 9.16632 4.83301 9.16632 4.33856C9.16632 3.67551 8.90293 3.03963 8.43409 2.57078C7.96525 2.10194 7.32936 1.83855 6.66632 1.83855Z" fill="#332F2F"/>
<path d="M5.83335 15.497H3.33335C2.44929 15.497 1.60144 15.1458 0.976315 14.5207C0.351191 13.8955 3.90664e-07 13.0477 3.90664e-07 12.1636V10.7053C-0.000161178 10.5384 0.0497963 10.3753 0.143402 10.2371C0.237007 10.0989 0.369947 9.99205 0.525002 9.9303L3.18335 8.88863C3.3858 8.80826 3.61166 8.81036 3.81259 8.89447C4.01351 8.97857 4.17352 9.13801 4.25835 9.33863C4.29894 9.44039 4.31907 9.54916 4.31758 9.65871C4.31609 9.76827 4.29301 9.87645 4.24967 9.97707C4.20632 10.0777 4.14356 10.1688 4.06497 10.2451C3.98639 10.3215 3.89352 10.3816 3.79168 10.422L1.66667 11.272V12.1636C1.66667 12.6057 1.84227 13.0296 2.15483 13.3422C2.46739 13.6547 2.89132 13.8303 3.33335 13.8303H5.83335C6.05437 13.8303 6.26633 13.9181 6.42261 14.0744C6.57889 14.2307 6.66669 14.4426 6.66669 14.6636C6.66669 14.8847 6.57889 15.0966 6.42261 15.2529C6.26633 15.4092 6.05437 15.497 5.83335 15.497V15.497Z" fill="#332F2F"/>
<path d="M18.3332 8.50524C17.5091 8.50524 16.7035 8.26087 16.0183 7.80303C15.3331 7.34518 14.799 6.69444 14.4837 5.93308C14.1683 5.17172 14.0858 4.33394 14.2466 3.52568C14.4073 2.71742 14.8042 1.97499 15.3869 1.39227C15.9696 0.809549 16.7121 0.412711 17.5203 0.251938C18.3286 0.0911662 19.1663 0.17368 19.9277 0.489047C20.6891 0.804413 21.3398 1.33847 21.7977 2.02367C22.2555 2.70888 22.4999 3.51447 22.4999 4.33856C22.4999 5.44363 22.0609 6.50344 21.2795 7.28485C20.4981 8.06625 19.4383 8.50524 18.3332 8.50524V8.50524ZM18.3332 1.83855C17.8387 1.83855 17.3554 1.98517 16.9443 2.25988C16.5331 2.53458 16.2127 2.92503 16.0235 3.38185C15.8343 3.83866 15.7848 4.34133 15.8812 4.82629C15.9777 5.31124 16.2158 5.7567 16.5654 6.10633C16.915 6.45596 17.3605 6.69407 17.8455 6.79053C18.3304 6.88699 18.8331 6.83748 19.2899 6.64826C19.7467 6.45905 20.1372 6.13861 20.4119 5.72749C20.6866 5.31636 20.8332 4.83301 20.8332 4.33856C20.8332 3.67551 20.5698 3.03963 20.101 2.57078C19.6321 2.10194 18.9962 1.83855 18.3332 1.83855Z" fill="#332F2F"/>
<path d="M21.6668 15.4963H19.1668C18.9458 15.4963 18.7338 15.4085 18.5775 15.2522C18.4212 15.0959 18.3334 14.884 18.3334 14.6629C18.3334 14.4419 18.4212 14.23 18.5775 14.0737C18.7338 13.9174 18.9458 13.8296 19.1668 13.8296H21.6668C22.1088 13.8296 22.5327 13.654 22.8453 13.3415C23.1579 13.0289 23.3335 12.605 23.3335 12.1629V11.2713L21.2084 10.4379C21.1066 10.3975 21.0137 10.3374 20.9352 10.2611C20.8566 10.1847 20.7938 10.0937 20.7505 9.99303C20.7071 9.89241 20.684 9.78423 20.6825 9.67468C20.6811 9.56512 20.7012 9.45635 20.7418 9.35459C20.8218 9.14944 20.9799 8.98432 21.1813 8.89531C21.3827 8.80631 21.6112 8.80065 21.8168 8.87959L24.4751 9.92126C24.6302 9.98301 24.7631 10.0899 24.8567 10.2281C24.9503 10.3663 25.0003 10.5294 25.0001 10.6963V12.1546C25.0012 12.593 24.9158 13.0274 24.7488 13.4328C24.5818 13.8382 24.3364 14.2066 24.0268 14.517C23.7171 14.8274 23.3493 15.0737 22.9443 15.2418C22.5394 15.4098 22.1052 15.4963 21.6668 15.4963Z" fill="#332F2F"/>
</svg>
