<svg width="1105" height="267" viewBox="0 0 1105 267" fill="none" xmlns="http://www.w3.org/2000/svg">
<path opacity="0.1" d="M973.508 49.1967C1022.32 37.5229 1034.53 11.5348 1034.53 0H1090C1098.28 0 1105 6.71573 1105 15V252C1105 260.284 1098.36 267 1090.08 267H423C472.847 233.229 613.408 188.449 704.508 188.032C777.387 187.698 852.329 128.69 880.69 99.2273C891.289 87.4146 924.692 60.8706 973.508 49.1967Z" fill="#8A66F0"/>
<path opacity="0.15" d="M1023.04 52.51C1053.47 40.05 1061.08 12.3117 1061.08 0H1090C1098.28 0 1105 6.71573 1105 15V252C1105 260.284 1098.38 267 1090.09 267H707C738.069 230.955 798.599 201.14 855.38 200.695C900.804 200.339 947.514 137.357 965.191 105.91C971.798 93.3017 992.617 64.97 1023.04 52.51Z" fill="#8A66F0"/>
<path opacity="0.15" d="M230 0H0V267H24.707C71.7852 243 86.25 179 87.5977 150C88.6458 127.167 102.871 79.2 151.387 70C199.902 60.8 224.01 19.5 230 0Z" fill="#8A66F0"/>
<path opacity="0.1" d="M333 0H0V267H60C128.161 243 124.875 179 126.826 150C128.344 127.167 148.939 79.2 219.182 70C289.424 60.8 324.328 19.5 333 0Z" fill="#8A66F0"/>
</svg>
