<svg width="74" height="100" viewBox="0 0 74 100" fill="none" xmlns="http://www.w3.org/2000/svg">
<path d="M36.9288 73.7148C35.7024 73.7148 34.9072 73.823 34.4386 73.9322V89.8512C34.9081 89.9583 35.6661 89.9583 36.3516 89.9583C41.3331 89.9948 44.5835 87.2518 44.5835 81.4392C44.6178 76.3869 41.6585 73.7148 36.9288 73.7148Z" fill="#A5A7BC"/>
<path d="M73.4707 23.9636C73.4649 23.505 73.3195 23.0521 73.0045 22.694L53.723 0.67066C53.7191 0.664487 53.7133 0.66249 53.7077 0.656862C53.5928 0.528503 53.4608 0.422657 53.319 0.329339C53.2769 0.302105 53.2346 0.277596 53.1906 0.252723C53.0661 0.186274 52.9377 0.131082 52.8037 0.0907769C52.7674 0.0802468 52.7349 0.0653594 52.6984 0.0559186C52.5512 0.0216049 52.4018 0 52.2486 0H4.86248C2.70054 0 0.940918 1.7598 0.940918 3.92174V96.0784C0.940918 98.2413 2.70054 100 4.86248 100H69.5682C71.732 100 73.49 98.2413 73.49 96.0784V24.1833C73.4898 24.1096 73.4784 24.0374 73.4707 23.9636ZM4.86248 3.92174H50.2878V23.9862C50.2878 25.0684 51.1649 25.9469 52.2486 25.9469H69.5682L69.5702 66.5852H4.86248V3.92174ZM14.7564 95.165C11.5324 95.165 8.80855 94.3206 7.35086 93.3976L8.53985 89.0242C9.57634 89.5623 11.9545 90.5588 14.3341 90.5588C17.3654 90.5588 18.8986 89.1008 18.8986 87.2202C18.8986 84.7636 16.4438 83.6511 13.8721 83.6511H11.4939V79.4692H13.7586C15.7141 79.4309 18.2092 78.7014 18.2092 76.5912C18.2092 75.0957 16.9808 73.9832 14.5251 73.9832C12.4921 73.9832 10.3427 74.8641 9.30782 75.4786L8.11719 71.2584C9.61356 70.298 12.6074 69.3761 15.8301 69.3761C21.1633 69.3761 24.1184 72.1785 24.1184 75.5935C24.1184 78.2417 22.6235 80.3136 19.5516 81.3878V81.4644C22.5451 82.0024 24.9625 84.2658 24.9625 87.5285C24.9625 91.9403 21.0878 95.165 14.7564 95.165ZM46.3875 91.1151C43.8245 93.2444 39.9249 94.2554 35.1604 94.2554C32.3087 94.2554 30.2871 94.0744 28.9156 93.8954V69.9964C30.9381 69.6729 33.5725 69.4921 36.3519 69.4921C40.9723 69.4921 43.969 70.3219 46.3147 72.0905C48.8422 73.9681 50.4296 76.9637 50.4296 81.2597C50.4296 85.9165 48.7331 89.1295 46.3875 91.1151ZM59.994 94.3637C57.2139 94.3637 54.4717 93.6427 53.0997 92.8835L54.219 88.3348C55.699 89.0921 57.9729 89.8515 60.3195 89.8515C62.8471 89.8515 64.1817 88.8048 64.1817 87.2155C64.1817 85.699 63.0261 84.8326 60.1031 83.7862C56.0608 82.3777 53.4243 80.1402 53.4243 76.6026C53.4243 72.4514 56.8902 69.2747 62.6298 69.2747C65.3727 69.2747 67.3947 69.853 68.8386 70.5022L67.6111 74.9427C66.6365 74.4725 64.9036 73.7862 62.5214 73.7862C60.1385 73.7862 58.9849 74.869 58.9849 76.1337C58.9849 77.6847 60.356 78.3722 63.498 79.5632C67.793 81.1505 69.8141 83.3891 69.8141 86.8176C69.8133 90.8987 66.6719 94.3637 59.994 94.3637Z" fill="#A5A7BC"/>
<path d="M17.2197 32.3936C17.2019 32.3974 17.1834 32.4021 17.1665 32.4084L17.2727 32.5141C17.2569 32.474 17.2373 32.4339 17.2197 32.3936Z" fill="#A5A7BC"/>
<path d="M53.1518 20.4163C48.0648 24.3512 42.7609 23.2138 37.2731 22.9495C37.2731 22.9495 37.2921 22.9609 37.3036 22.9696C36.7704 22.9384 36.238 22.9237 35.7066 22.9495C30.2184 23.2138 24.9156 24.3512 19.8276 20.4163C17.1411 18.3376 13.5469 20.7316 13.9844 24.0807C14.3579 26.9435 16.0707 29.6319 17.2205 32.3935C17.2243 32.3926 17.2281 32.3915 17.2315 32.3897C16.3813 29.8436 15.2324 27.3394 14.863 24.7247C14.6949 23.5308 16.2502 20.9458 16.8305 21.0003C18.8913 21.1986 21 22.0473 22.7831 23.1483C23.2273 23.4221 22.7224 25.6376 22.292 26.8309C21.7027 28.4609 20.943 30.0994 19.9038 31.4656C19.4285 32.0913 18.1647 32.1158 17.2306 32.3895C17.2441 32.4317 17.2588 32.4729 17.2737 32.5141C17.2737 32.5141 17.1654 32.4073 17.1654 32.4084H17.1673L17.1654 32.4073C17.5039 34.5339 17.8236 36.664 18.186 38.7857C18.4134 40.1132 18.6057 41.4602 18.9932 42.7426C19.6696 44.9888 20.7275 47.1444 21.1823 49.426C21.7969 52.4944 22.989 54.7808 26.1767 55.8416C27.9412 56.4303 29.4606 57.7898 31.2342 58.3089C33.4646 58.9599 36.2277 60.0465 38.085 59.2913C43.9539 56.9024 51.4466 55.8396 51.4217 46.8592C51.4179 45.6132 52.5706 44.3997 53.0091 43.1105C53.4475 41.8233 53.7997 40.5495 53.978 39.2808C54.5141 37.7503 55.596 33.767 55.8124 32.4084L55.7051 32.5141C55.7206 32.4729 55.7358 32.4318 55.7493 32.3895C54.8157 32.1158 53.551 32.0905 53.0751 31.4656C52.0352 30.0994 51.2761 28.4624 50.6874 26.8309C50.2565 25.6376 49.752 23.4221 50.1963 23.1483C51.9789 22.0473 54.0889 21.1986 56.1494 21.0003C56.7295 20.9442 58.2845 23.5308 58.116 24.7247C57.7463 27.3393 56.5975 29.8445 55.7473 32.3897C55.7511 32.3917 55.7549 32.3926 55.7587 32.3935C56.9085 29.6328 58.6203 26.9435 58.9947 24.0807C59.4332 20.7327 55.8391 18.3376 53.1518 20.4163ZM35.3352 25.7601C35.8134 25.7601 36.293 25.7601 36.7722 25.7601C36.7722 28.178 36.7722 30.5945 36.7722 33.011C36.293 33.011 35.8134 33.011 35.3352 33.011C35.3352 30.5936 35.3352 28.177 35.3352 25.7601ZM29.9559 42.1246C28.3312 45.554 27.3628 48.8844 28.7351 52.6054C28.8711 52.975 28.5734 53.5044 28.2584 54.9932C23.5901 48.7365 27.4723 43.81 29.073 38.4798C26.3909 37.4356 23.9045 36.4649 20.9882 35.3289C21.3937 32.822 23.8361 31.7946 26.6694 31.7162C29.5652 31.6377 31.0543 33.5319 30.9841 36.3075C30.9354 38.2663 30.7725 40.4022 29.9559 42.1246ZM39.7803 55.0238C37.0018 55.0238 35.179 55.0238 32.9196 55.0238C35.3706 52.4091 34.6683 50.4331 32.1694 48.6177C31.5116 48.1415 30.8755 46.8307 31.0852 46.1787C31.3174 45.4572 32.4715 44.7401 33.3314 44.5754C34.7909 44.2964 36.3793 44.2169 37.8292 44.495C39.0499 44.7296 40.1509 45.5903 41.3054 46.1747C40.6861 47.1508 40.1977 48.249 39.4223 49.0787C37.7288 50.8888 36.6634 52.6275 39.7803 55.0238ZM42.9926 38.4238C44.2487 43.6595 48.7322 48.6849 43.4848 53.9592C43.4561 53.2795 43.2012 52.5088 43.4321 51.9362C44.7331 48.7083 43.6974 45.8737 42.3838 42.9287C41.5892 41.1484 41.0721 39.1226 40.9784 37.1804C40.851 34.5618 41.5365 31.9377 44.8117 31.7414C47.864 31.5591 50.3341 32.7089 51.1 35.3552C48.1109 36.4865 45.7079 37.3973 42.9926 38.4238Z" fill="#A5A7BC"/>
<path d="M55.8141 32.4083V32.4072L55.8121 32.4083H55.8141Z" fill="#A5A7BC"/>
</svg>
