<svg width="74" height="100" viewBox="0 0 74 100" fill="none" xmlns="http://www.w3.org/2000/svg">
<path d="M59.3168 74.4468C58.1977 74.4468 57.4403 74.555 57.0439 74.663V81.8475C57.5131 81.9546 58.0895 81.99 58.8842 81.99C61.8079 81.99 63.6138 80.5109 63.6138 78.0196C63.6138 75.7812 62.0608 74.4468 59.3168 74.4468Z" fill="#A5A7BC"/>
<path d="M38.3458 74.4468C37.227 74.4468 36.4692 74.555 36.0732 74.663V81.8475C36.5427 81.9546 37.1183 81.99 37.9135 81.99C40.837 81.99 42.6426 80.5109 42.6426 78.0196C42.6417 75.7812 41.0888 74.4468 38.3458 74.4468Z" fill="#A5A7BC"/>
<path d="M73.3736 23.9646C73.368 23.5059 73.2223 23.0526 72.9073 22.6951L53.6249 0.67066C53.6211 0.664487 53.6153 0.66249 53.6087 0.656862C53.4947 0.528503 53.3616 0.422294 53.2209 0.329339C53.1788 0.302105 53.1365 0.277233 53.0926 0.252723C52.968 0.186274 52.8397 0.131082 52.7048 0.0907769C52.6685 0.0802468 52.6369 0.0653594 52.6004 0.0559186C52.454 0.0216049 52.3028 0 52.1505 0H4.76531C2.60355 0 0.84375 1.7598 0.84375 3.92174V96.0784C0.84375 98.2413 2.60337 100 4.76531 100H69.4711C71.6348 100 73.3926 98.2413 73.3926 96.0784V24.1842C73.3926 24.1096 73.3812 24.0374 73.3736 23.9646ZM21.4526 94.805L19.5761 88.5607H12.6104L10.877 94.805H5.17326L12.6104 70.4763H19.8288L27.3733 94.805H21.4526ZM45.8538 83.6511C43.9773 85.4203 41.197 86.215 37.9488 86.215C37.2269 86.215 36.5759 86.1787 36.0724 86.1059V94.8048H30.6204V70.7998C32.3165 70.5117 34.6984 70.2953 38.0557 70.2953C41.4486 70.2953 43.8673 70.9443 45.4929 72.2446C47.0439 73.4701 48.0904 75.4921 48.0904 77.8742C48.0922 80.258 47.2965 82.2791 45.8538 83.6511ZM66.824 83.6511C64.9475 85.4203 62.1672 86.215 58.9186 86.215C58.1977 86.215 57.5466 86.1787 57.0421 86.1059V94.8048H51.5906V70.7998C53.2872 70.5117 55.6692 70.2953 59.0259 70.2953C62.4188 70.2953 64.8375 70.9443 66.4631 72.2446C68.0141 73.4701 69.0615 75.4921 69.0615 77.8742C69.0633 80.258 68.2686 82.2791 66.824 83.6511ZM4.76531 66.5863V3.92247H50.1908V23.9871C50.1908 25.0695 51.0677 25.9478 52.1516 25.9478H69.4711L69.4731 66.5863H4.76531Z" fill="#A5A7BC"/>
<path d="M16.0398 74.5913H15.967C15.6057 76.035 15.2455 77.8762 14.8465 79.2836L13.4026 84.446H18.7809L17.2662 79.2836C16.8321 77.8397 16.3993 76.0341 16.0398 74.5913Z" fill="#A5A7BC"/>
<path d="M34.2615 38.98L35.1378 41.9595L36.9301 40.5713L34.2615 38.98Z" fill="#A5A7BC"/>
<path d="M48.2874 40.1025L47.6307 22.7603L20.445 23.7909L20.5293 25.9934L10.3132 28.2731L17.9979 62.695L36.9789 58.4594L37.4094 58.4421C36.967 59.2032 36.7066 59.6562 36.7066 59.6562L36.1699 60.5026C35.9172 60.9047 36.0378 61.4379 36.4399 61.6917L38.5296 63.0129C38.9335 63.2674 39.4659 63.1469 39.7206 62.7438L40.6761 61.2302C41.1033 60.5935 41.8154 59.5318 42.677 58.2411L45.3386 58.1405L45.6852 58.5866C46.0949 59.1162 46.722 59.3181 47.084 59.0385L48.388 58.0267L48.9664 58.0057L48.9481 57.5921L50.4953 56.3915C50.8571 56.112 50.8168 55.4552 50.4072 54.9267L49.4651 53.7135L44.7451 57.3738L44.8399 57.4944C44.6389 57.3297 44.4521 57.146 44.3113 56.9737C44.2347 56.8797 44.1668 56.7898 44.0969 56.6977L43.7024 56.7132C43.7847 56.5906 43.8651 56.4719 43.9493 56.3473L44.0298 56.4506L45.4945 55.3141L47.1202 54.0523L47.9435 53.4156L48.3477 53.1035L48.7373 52.7991C48.7469 52.7952 48.7574 52.7883 48.766 52.7845L48.6358 49.3385C50.5909 46.4122 52.1648 44.0536 52.3371 43.7798C52.8253 43.0106 53.1721 40.9171 53.1721 40.9171L49.9168 38.8615C49.9188 38.8612 48.9922 39.4643 48.2874 40.1025ZM19.128 60.9161L12.093 29.4024L20.5848 27.5053L21.782 59.0338L28.7371 58.7696L19.128 60.9161ZM40.5764 59.9033C40.5581 59.8898 40.5419 59.8746 40.5227 59.8611L39.6265 59.2963L42.6835 54.7143L43.4112 55.6525L40.5764 59.9033ZM45.2678 44.8733L43.3586 45.1547L43.4524 45.7987L44.8484 45.5937C44.6167 45.9906 44.3773 46.4075 44.1303 46.8321L41.778 43.7965L41.5127 44.0006L40.9709 44.4242L40.1476 45.0614L38.5218 46.3212L37.0566 47.4583L40.8981 52.4113C39.9274 54.0886 39.016 55.6636 38.2921 56.9178L23.2144 57.4904L21.9908 25.223L46.1975 24.3053L46.77 39.4416L46.0214 34.3581L38.8206 35.418L39.8355 42.3023L37.4448 40.8766L35.3056 42.5315L36.5752 46.8356L41.2948 43.1734L40.799 42.8766L39.807 36.1511L45.2874 35.3441L45.5535 37.144L42.2485 37.6304L42.3442 38.2747L45.6472 37.7884L45.9078 39.5621L43.5181 39.914L43.612 40.558L46.0036 40.2061L46.2803 42.0865L43.8896 42.4383L43.9853 43.0827L46.3749 42.7308L46.4036 42.9162C46.071 43.4879 45.689 44.1486 45.2678 44.8733ZM51.9515 42.8593L46.907 50.4142L46.1803 49.475L50.9953 42.2566L51.9515 42.8593Z" fill="#A5A7BC"/>
<path d="M57.6027 28.6987C57.0944 30.5938 53.7271 31.4436 53.7271 31.4436C49.8822 32.3554 50.3638 38.08 50.3638 38.08L53.6171 40.1361C57.1327 40.2212 59.3807 36.5764 59.3807 36.5764C62.4887 31.0233 57.6027 28.6987 57.6027 28.6987ZM54.5143 39.4102L53.4248 38.9752C53.4248 38.9752 55.171 39.7067 59.2057 34.4801C59.2057 34.4801 58.8111 37.7272 54.5143 39.4102Z" fill="#A5A7BC"/>
</svg>
