<svg width="73" height="100" viewBox="0 0 73 100" fill="none" xmlns="http://www.w3.org/2000/svg">
<path d="M15.1801 84.5093H14.2529V87.9005C14.5205 87.9368 14.8423 87.9368 15.3061 87.9368C16.5372 87.9368 17.6253 87.4724 17.6253 86.2048C17.6255 84.9909 16.5372 84.5093 15.1801 84.5093Z" fill="#A5A7BC"/>
<path d="M40.3686 79.7617C38.5304 79.7617 37.46 81.5101 37.46 83.8499C37.46 86.2052 38.5649 87.8654 40.3877 87.8654C42.2259 87.8654 43.2782 86.1161 43.2782 83.7771C43.2784 81.6183 42.2432 79.7617 40.3686 79.7617Z" fill="#A5A7BC"/>
<path d="M17.3401 81.0829C17.3401 80.1733 16.644 79.6909 15.4129 79.6909C14.8236 79.6909 14.4851 79.7263 14.2529 79.7617V82.5632H15.1453C16.5737 82.5651 17.3401 81.9752 17.3401 81.0829Z" fill="#A5A7BC"/>
<path d="M27.5696 79.7617C25.7313 79.7617 24.6609 81.5101 24.6609 83.8499C24.6609 86.2052 25.7676 87.8654 27.5872 87.8654C29.4254 87.8654 30.4781 86.1161 30.4781 83.7771C30.4782 81.6183 29.4432 79.7617 27.5696 79.7617Z" fill="#A5A7BC"/>
<path d="M72.628 23.9651C72.6222 23.5059 72.4767 23.0532 72.1617 22.6955L52.8802 0.67066C52.8764 0.665031 52.8706 0.663034 52.8649 0.656862C52.75 0.528503 52.618 0.422657 52.4762 0.329339C52.4341 0.302105 52.3918 0.277596 52.3479 0.253267C52.2233 0.186274 52.095 0.131626 51.961 0.0913216C51.9247 0.0802468 51.8922 0.065904 51.8557 0.0559186C51.7084 0.0216049 51.559 0 51.4058 0H4.01971C1.85776 0 0.0981445 1.7598 0.0981445 3.92174V96.0784C0.0981445 98.2413 1.85776 100 4.01971 100H68.7255C70.8892 100 72.6472 98.2413 72.6472 96.0784V24.1842C72.647 24.1111 72.6356 24.0374 72.628 23.9651ZM9.20125 89.8283H6.47068V77.7994H9.20125V89.8283ZM19.2325 88.8633C18.3579 89.5603 16.894 89.9519 14.5019 89.9519C13.1638 89.9519 12.1648 89.8639 11.5578 89.7747V77.9603C12.2726 77.8167 13.7176 77.7094 15.0734 77.7094C16.7332 77.7094 17.7508 77.8702 18.6253 78.388C19.4636 78.8332 20.0705 79.6538 20.0705 80.7433C20.0705 81.8138 19.4458 82.8123 18.089 83.3121V83.3484C19.4634 83.7237 20.4801 84.7578 20.4801 86.3105C20.4825 87.4003 19.9826 88.2562 19.2325 88.8633ZM27.4452 90.0245C23.8755 90.0245 21.7875 87.3303 21.7875 83.9038C21.7875 80.2972 24.0907 77.603 27.6415 77.603C31.3363 77.603 33.353 80.3689 33.353 83.6885C33.3519 87.6338 30.9599 90.0245 27.4452 90.0245ZM40.2444 90.0245C36.6752 90.0245 34.5866 87.3303 34.5866 83.9038C34.5866 80.2972 36.8898 77.603 40.4398 77.603C44.1353 77.603 46.1516 80.3689 46.1516 83.6885C46.1516 87.6338 43.76 90.0245 40.2444 90.0245ZM54.6131 89.8283L51.6681 84.6344L50.6333 85.9011V89.8284H47.937V77.7994H50.6333V83.1179H50.6859C50.9541 82.6534 51.2393 82.2257 51.5073 81.7958L54.2378 77.7994H57.5753L53.5944 82.9216L57.7898 89.8284H54.6131V89.8283ZM61.8435 90.0064C60.4697 90.0064 59.1129 89.6503 58.4352 89.2751L58.9886 87.0251C59.72 87.4003 60.8442 87.7756 62.0043 87.7756C63.2538 87.7756 63.9136 87.2586 63.9136 86.4735C63.9136 85.723 63.342 85.2951 61.8974 84.7771C59.8981 84.0819 58.5953 82.9752 58.5953 81.2268C58.5953 79.1741 60.309 77.6041 63.1478 77.6041C64.5034 77.6041 65.5031 77.8893 66.2171 78.211L65.6102 80.4054C65.1276 80.1747 64.2718 79.8348 63.0931 79.8348C61.9167 79.8348 61.3439 80.3709 61.3439 80.9953C61.3439 81.7613 62.0227 82.1012 63.5746 82.6899C65.6992 83.475 66.6977 84.5817 66.6977 86.2763C66.6995 88.2925 65.1467 90.0064 61.8435 90.0064ZM4.01971 66.5863V3.92247H49.445V23.9876C49.445 25.0699 50.3221 25.9484 51.4058 25.9484H68.7255L68.7275 66.5863H4.01971Z" fill="#A5A7BC"/>
<path d="M60.8595 23.0649C60.8422 23.0629 59.095 22.8892 56.5503 22.8892C50.8795 22.8892 40.8401 23.7528 36.4543 29.4322C32.0678 23.7528 22.0289 22.8892 16.3581 22.8892C13.8129 22.8892 12.066 23.0629 12.0484 23.0649L10.5887 23.0874V27.05L10.5386 52.2517C21.5306 51.0185 33.5269 56.9439 35.8296 58.1492V58.1981H35.92C36.1202 58.3025 36.2297 58.3637 36.2297 58.3637L36.2308 58.1981H36.5166V58.3637C36.5166 58.3637 36.6248 58.3025 36.823 58.1981H36.8277V58.1952C38.8871 57.0999 50.9485 51.0031 62.0813 52.2517L62.2059 23.0874L60.8595 23.0649ZM35.8294 30.2777V54.2642C33.569 53.0309 24.6221 48.502 15.1435 48.502C14.107 48.502 13.0836 48.557 12.1003 48.6638L11.8227 48.6939V27.9256V24.3636C12.3679 24.3194 14.3626 24.2165 16.357 24.2165C21.8933 24.2165 31.6513 25.0213 35.9572 30.2775H35.8294V30.2777ZM61.0846 48.6703L60.807 48.6402C59.8237 48.532 58.7992 48.4775 57.7633 48.4775C47.8809 48.4775 38.5834 53.4207 36.8285 54.4058V30.3154C41.0697 24.9013 50.9628 24.0774 56.5512 24.0774C58.5454 24.0774 60.5398 24.1813 61.0855 24.2263V27.8138V48.6705H61.0846V48.6703Z" fill="#A5A7BC"/>
</svg>
