<svg width="73" height="100" viewBox="0 0 73 100" fill="none" xmlns="http://www.w3.org/2000/svg">
<path d="M61.0285 77.7075C61.0285 76.2562 59.9179 75.4873 57.9533 75.4873C57.0132 75.4873 56.4724 75.5439 56.1018 75.6013V80.0715H57.5256C59.803 80.0714 61.0285 79.132 61.0285 77.7075Z" fill="#A5A7BC"/>
<path d="M57.5837 83.1753H56.1025V88.5858C56.5305 88.6431 57.0419 88.6431 57.7819 88.6431C59.7474 88.6431 61.4833 87.902 61.4833 85.8819C61.4843 83.9451 59.7474 83.1753 57.5837 83.1753Z" fill="#A5A7BC"/>
<path d="M38.3073 75.6582C37.3404 75.6582 36.7138 75.7444 36.3433 75.8294V88.3869C36.7129 88.4732 37.3108 88.4732 37.8518 88.4732C41.7811 88.5019 44.345 86.3381 44.345 81.7539C44.3725 77.7653 42.0373 75.6582 38.3073 75.6582Z" fill="#A5A7BC"/>
<path d="M72.8238 23.9646C72.8181 23.5059 72.6734 23.053 72.3586 22.6951L53.0762 0.67066C53.0724 0.664487 53.0665 0.66249 53.0607 0.656862C52.9458 0.528503 52.8138 0.422657 52.672 0.329339C52.6299 0.302105 52.5878 0.277233 52.5437 0.252723C52.4191 0.186274 52.2909 0.131082 52.157 0.0907769C52.1206 0.0802468 52.088 0.0653594 52.0517 0.0559186C51.9042 0.0216049 51.755 0 51.6018 0H4.21551C2.05375 0 0.293945 1.7598 0.293945 3.92174V96.0784C0.293945 98.2413 2.05356 100 4.21551 100H68.9213C71.085 100 72.8428 98.2413 72.8428 96.0784V24.1842C72.8428 24.1096 72.8314 24.0374 72.8238 23.9646ZM24.4126 91.6609L24.1274 84.3156C24.0421 82.0082 23.9566 79.2183 23.9566 76.4285H23.8712C23.2734 78.8764 22.4755 81.6099 21.7353 83.8599L19.3996 91.3479H16.0112L13.9604 83.9172C13.3348 81.6672 12.6799 78.935 12.2242 76.4285H12.1674C12.0539 79.0193 11.9682 81.9804 11.8252 84.3731L11.4844 91.6627H7.4695L8.69408 72.4705H14.4744L16.3538 78.8775C16.9517 81.0986 17.5501 83.4902 17.9766 85.7402H18.0617C18.6036 83.5191 19.2574 80.9839 19.8841 78.8497L21.9339 72.4705H27.6009L28.6536 91.6627H24.4128V91.6609H24.4126ZM45.7672 89.3831C43.745 91.0625 40.6701 91.86 36.9117 91.86C34.6626 91.86 33.0671 91.7164 31.9849 91.5748V72.725C33.5804 72.4685 35.6584 72.3269 37.8514 72.3269C41.4952 72.3269 43.8583 72.9817 45.7098 74.3777C47.7031 75.8588 48.9554 78.2206 48.9554 81.6099C48.9554 85.2825 47.619 87.8177 45.7672 89.3831ZM64.0462 90.1231C62.6504 91.2337 60.3162 91.8598 56.5008 91.8598C54.3647 91.8598 52.7697 91.7162 51.8027 91.5746V72.725C52.9429 72.4971 55.2476 72.3269 57.412 72.3269C60.0604 72.3269 61.6831 72.5834 63.0791 73.4096C64.4175 74.1211 65.3864 75.4309 65.3864 77.1685C65.3864 78.8764 64.3888 80.4715 62.225 81.2691V81.3265C64.4175 81.924 66.0415 83.5756 66.0415 86.0521C66.0396 87.7891 65.243 89.1562 64.0462 90.1231ZM4.21551 66.5863V3.92247H49.641V23.9871C49.641 25.0695 50.5179 25.9478 51.6018 25.9478H68.9213L68.9233 66.5863H4.21551Z" fill="#A5A7BC"/>
<path d="M63.0066 34.4706C62.7624 34.2346 62.4071 34.1433 62.0798 34.2357L58.2348 35.3114C58.076 35.3564 57.9293 35.4407 57.8136 35.5574L56.9596 36.4124C56.865 36.5051 56.8122 36.6308 56.8084 36.7622L56.7566 38.2304H55.4498C55.3053 38.2304 55.1733 38.2883 55.0803 38.3828C54.9903 38.4737 54.9338 38.5972 54.928 38.7337L54.8821 40.1042H53.7227C53.578 40.1042 53.4469 40.1631 53.3541 40.2575C53.2621 40.3484 53.2058 40.471 53.2009 40.6084L53.1597 41.8248H51.9734C51.69 41.8359 51.5693 41.7994 51.4257 41.9434L51.3903 41.9779C51.3156 42.0739 51.263 42.2651 51.2668 42.5026L51.2247 43.762H49.8231C49.6842 43.762 49.552 43.817 49.4554 43.9152L47.3033 46.065C44.6704 44.9995 41.6105 45.6093 39.5855 47.6356C36.8055 50.4151 36.8055 54.9388 39.5855 57.7192C42.3658 60.4993 46.8895 60.4993 49.67 57.7192C51.5589 55.8292 52.2263 53.0298 51.4182 50.4991L62.0034 39.9122C62.1261 39.7896 62.214 39.6346 62.2563 39.4661L63.2692 35.3927C63.3514 35.0609 63.2497 34.7081 63.0066 34.4706ZM45.194 56.8288C44.4329 57.5908 42.7076 57.1543 41.4295 55.8751C40.1514 54.5941 39.7129 52.8708 40.4749 52.1088C41.236 51.3477 42.9602 51.7852 44.2394 53.0643C45.5195 54.3432 45.9553 56.0665 45.194 56.8288ZM50.3897 47.8984L60.5346 37.7522L60.8821 38.0983L50.7343 48.2444L50.3897 47.8984ZM51.3797 48.8904L51.2189 48.7284L61.3647 38.5826L61.5264 38.7446L51.3797 48.8904Z" fill="#A5A7BC"/>
<path d="M36.2537 52.2149H14.9727V32.328H54.6464V36.8446C54.9546 36.5348 55.3214 36.2874 55.7235 36.1151C55.8978 35.6454 56.1754 35.214 56.5442 34.8531L57.3272 34.0681V24.5063H12.29V54.8966H36.3497C36.202 54.0099 36.1645 53.1091 36.2537 52.2149Z" fill="#A5A7BC"/>
<path d="M46.3535 36.4253H23.2634V39.4048H46.3535V36.4253Z" fill="#A5A7BC"/>
<path d="M23.2634 47.0032H38.3551C38.6003 46.6926 38.8596 46.3887 39.1468 46.1014C40.0305 45.2182 41.0856 44.5199 42.2289 44.0239H23.2634V47.0032Z" fill="#A5A7BC"/>
</svg>
