<svg width="73" height="100" viewBox="0 0 73 100" fill="none" xmlns="http://www.w3.org/2000/svg">
<path d="M72.0024 22.2555L53.4993 1.15457C52.8558 0.420819 51.9274 0 50.9514 0H4.21587C2.05027 0 0.294434 1.75583 0.294434 3.92144V96.0786C0.294434 98.2445 2.05027 100 4.21587 100H68.9217C71.0876 100 72.8434 98.2442 72.8434 96.0782V24.4898C72.8434 23.6677 72.5447 22.8737 72.0024 22.2555ZM27.389 90.913L27.1524 84.8089C27.0811 82.8928 27.0104 80.5742 27.0104 78.2559H26.9395C26.4426 80.2903 25.7802 82.5616 25.165 84.4306L23.2253 90.6527H20.4098L18.7064 84.478C18.1862 82.6089 17.6417 80.3379 17.2635 78.2559H17.2161C17.1215 80.4086 17.0508 82.8691 16.9326 84.8565L16.6486 90.913H13.3124L14.3297 74.9673H19.1325L20.6937 80.2903C21.1906 82.1357 21.6874 84.1228 22.0423 85.9918H22.1133C22.5628 84.1464 23.107 82.0411 23.6275 80.2666L25.3306 74.9673H30.0388L30.9142 90.913H27.389ZM37.5861 91.1496C35.7647 91.1496 33.9663 90.6764 33.0675 90.1795L33.801 87.1988C34.7707 87.6956 36.2612 88.1922 37.799 88.1922C39.4552 88.1922 40.3306 87.506 40.3306 86.465C40.3306 85.4717 39.5735 84.9038 37.6568 84.2174C35.0073 83.2947 33.2801 81.8281 33.2801 79.5095C33.2801 76.7887 35.5514 74.7067 39.3129 74.7067C41.111 74.7067 42.4356 75.0853 43.382 75.5111L42.5776 78.4212C41.9391 78.1136 40.8031 77.6644 39.2419 77.6644C37.6804 77.6644 36.9233 78.3742 36.9233 79.2023C36.9233 80.2196 37.8224 80.6688 39.8804 81.4496C42.6959 82.4906 44.0208 83.9575 44.0208 86.2048C44.0214 88.8783 41.9631 91.1496 37.5861 91.1496ZM59.7782 90.1795C58.6665 90.5581 56.5608 91.0789 54.4551 91.0789C51.5451 91.0789 49.4397 90.3455 47.9728 88.9259C46.506 87.5537 45.7015 85.472 45.7252 83.1297C45.7489 77.83 49.6053 74.802 54.8337 74.802C56.8917 74.802 58.4769 75.2042 59.2577 75.583L58.5006 78.4692C57.6255 78.0906 56.5368 77.783 54.7864 77.783C51.782 77.783 49.5104 79.4862 49.5104 82.9404C49.5104 86.2291 51.5687 88.1691 54.5258 88.1691C55.3539 88.1691 56.0167 88.0742 56.3003 87.9325V84.5966H53.8397V81.7811H59.7778V90.1795H59.7782ZM4.21587 66.5843V3.92175H49.6413V23.9851C49.6413 25.0674 50.5183 25.946 51.6022 25.946H68.922L68.9239 66.5843H4.21587Z" fill="#A5A7BC"/>
<path d="M52.8423 31.7808H20.2957C18.3588 31.7808 16.7834 33.3561 16.7834 35.2931V55.2558C16.7834 57.1927 18.3588 58.7681 20.2957 58.7681H52.8423C54.7792 58.7681 56.3546 57.1927 56.3546 55.2558V35.2931C56.3546 33.3561 54.7792 31.7808 52.8423 31.7808ZM20.2957 34.6445H52.8423C52.9619 34.6445 53.0757 34.677 53.1745 34.7363L36.3831 46.0498L19.9532 34.7426C20.0541 34.6795 20.1718 34.6445 20.2957 34.6445ZM19.6472 53.1346V38.0088L30.7219 45.6302L19.6472 53.1346ZM52.8423 55.9043H20.6655L33.2547 47.3735L36.3657 49.5145L40.0556 47.0283L53.1161 55.8425C53.0319 55.8826 52.9382 55.9043 52.8423 55.9043ZM53.4909 52.6406L42.6174 45.3025L53.4909 37.976V52.6406Z" fill="#A5A7BC"/>
</svg>
