<svg width="73" height="100" viewBox="0 0 73 100" fill="none" xmlns="http://www.w3.org/2000/svg">
<path d="M37.5297 75.521C36.3948 75.521 35.6575 75.6227 35.2219 75.722V90.4709C35.6566 90.5725 36.3594 90.5725 36.9955 90.5725C41.6123 90.605 44.6204 88.0622 44.6204 82.6777C44.6547 77.9968 41.9127 75.521 37.5297 75.521Z" fill="#A5A7BC"/>
<path d="M15.9209 75.4541C12.4781 75.4541 10.469 78.7324 10.469 83.1135C10.469 87.5301 12.5427 90.6398 15.9554 90.6398C19.4007 90.6398 21.3718 87.3606 21.3718 82.9795C21.3718 78.9334 19.4327 75.4541 15.9209 75.4541Z" fill="#A5A7BC"/>
<path d="M72.9195 23.9626C72.9137 23.5041 72.7662 23.0521 72.4532 22.6931L53.1717 0.668844C53.1679 0.663579 53.1621 0.660674 53.1564 0.655954C53.0415 0.526687 52.9095 0.421931 52.7677 0.328612C52.7256 0.301379 52.6833 0.275962 52.6394 0.251997C52.5148 0.184459 52.3865 0.130537 52.2525 0.0902322C52.2162 0.0797021 52.1837 0.0639069 52.1454 0.0561001C51.9999 0.0206971 51.8487 0 51.6973 0H4.31121C2.14927 0 0.389648 1.75889 0.389648 3.92174V96.0784C0.389648 98.2402 2.14927 100 4.31121 100H69.017C71.1789 100 72.9387 98.2404 72.9387 96.0784V24.1824C72.9385 24.1087 72.9271 24.0364 72.9195 23.9626ZM15.6875 94.6843C8.99965 94.6843 5.08572 89.6367 5.08572 83.2134C5.08572 76.457 9.39925 71.4056 16.0572 71.4056C22.9797 71.4056 26.7591 76.5912 26.7591 82.8123C26.7582 90.2037 22.2761 94.6843 15.6875 94.6843ZM46.2937 91.6418C43.9193 93.6169 40.3079 94.5523 35.8923 94.5523C33.2503 94.5523 31.3776 94.3856 30.1062 94.2171V72.0759C31.9789 71.7755 34.4199 71.6079 36.9952 71.6079C41.2768 71.6079 44.0533 72.3766 46.2267 74.0158C48.5684 75.7544 50.0392 78.5309 50.0392 82.5118C50.0392 86.8259 48.4691 89.8036 46.2937 91.6418ZM68.0691 76.056H61.9168V94.3186H56.7986V76.056H50.7458V71.7755H68.0691V76.056ZM4.31121 66.5843V3.92174H49.7365V23.9852C49.7365 25.0677 50.6136 25.946 51.6973 25.946H69.017L69.019 66.5845H4.31121V66.5843Z" fill="#A5A7BC"/>
<path d="M29.313 36.8695C29.5385 36.5439 29.7936 36.2409 30.0425 35.9321C30.2838 35.6167 30.5609 35.3372 30.8179 35.033C31.0689 34.7251 31.3662 34.4644 31.6375 34.1781C31.9089 33.8871 32.2101 33.6344 32.5029 33.3697C32.7883 33.0939 33.0979 32.8526 33.4131 32.6148C33.7246 32.3764 34.022 32.1068 34.361 31.9105C34.6921 31.7019 35.0202 31.4746 35.361 31.2752C35.7128 31.103 36.0661 30.9225 36.4142 30.728C36.7617 30.5251 37.1429 30.4247 37.5104 30.2636L38.0716 30.041C38.2611 29.9773 38.4594 29.9419 38.6516 29.8822C39.0394 29.7783 39.429 29.6538 39.8292 29.5614C40.2313 29.5058 40.6373 29.4537 41.047 29.3818C41.4624 29.2918 41.876 29.2841 42.2974 29.2785L43.5784 29.2115C43.1727 29.0794 42.7589 28.9662 42.3397 28.8439C41.9203 28.7233 41.4953 28.6137 41.0587 28.5821C40.6238 28.5247 40.1827 28.4864 39.7391 28.4443C39.2987 28.4399 38.8546 28.4697 38.4065 28.4844C37.9526 28.483 37.5122 28.5634 37.0717 28.6567C36.6357 28.7549 36.1738 28.7999 35.748 28.9477C35.3176 29.0803 34.8864 29.2253 34.4579 29.3791C34.0405 29.5519 33.6366 29.7567 33.2204 29.9477C32.7992 30.1282 32.4254 30.3791 32.0315 30.6055C31.6317 30.8252 31.2579 31.0843 30.9002 31.3595C30.5384 31.6304 30.1611 31.888 29.8312 32.1948C29.4961 32.4978 29.1386 32.7794 28.8283 33.1059C28.5129 33.4267 28.1772 33.7326 27.89 34.079C27.5932 34.4185 27.2911 34.754 27.0168 35.1117C26.9187 35.2295 26.8345 35.3588 26.743 35.4813L26.3274 35.0078C25.9962 34.6532 25.6903 34.2687 25.3274 33.9499L24.2265 33.0107C23.8588 32.6972 23.4352 32.4699 23.0431 32.1977L22.4423 31.8085L21.8091 31.4873C21.3835 31.2843 20.9717 31.045 20.5351 30.8775L19.2177 30.392C18.7773 30.2489 18.3274 30.134 17.8835 30.0056C17.4431 29.8702 16.9892 29.786 16.5373 29.7035C16.0872 29.6117 15.635 29.5447 15.1811 29.4977C14.7292 29.4412 14.2791 29.3818 13.8254 29.3617C12.9173 29.3163 12.0135 29.2965 11.1136 29.3555C10.2154 29.4067 9.32125 29.5044 8.4458 29.7035C9.33051 29.8372 10.1978 29.9908 11.0538 30.1785C11.9097 30.3584 12.7581 30.5528 13.5852 30.8008C14.0032 30.9018 14.4129 31.032 14.8207 31.1627C15.2305 31.2843 15.6341 31.4212 16.0286 31.5812C16.4207 31.7438 16.8285 31.852 17.2076 32.0349C17.5948 32.205 17.983 32.3604 18.3588 32.539L19.4598 33.1197C19.8294 33.2998 20.1606 33.5447 20.5124 33.7515C20.8666 33.9555 21.1961 34.189 21.5124 34.4408C21.824 34.6941 22.1754 34.9027 22.4565 35.1861L23.3319 35.9984C23.6212 36.2694 23.8427 36.6006 24.1074 36.8916L24.4957 37.3379C24.6144 37.4938 24.7107 37.6672 24.8192 37.8299L25.4685 38.815L26.8566 40.9308L28.04 38.7905C28.1947 38.5113 28.4191 38.1523 28.6302 37.8344C28.851 37.5094 29.0756 37.1874 29.313 36.8695Z" fill="#A5A7BC"/>
<path d="M61.1586 41.0708C60.724 41.0129 60.2826 40.9746 59.8393 40.9325C59.3968 40.9287 58.9545 40.9579 58.5065 40.9726C58.0528 40.9717 57.6123 41.0521 57.1719 41.1449C56.7352 41.2431 56.2737 41.2885 55.8487 41.4365C55.4179 41.5686 54.985 41.7135 54.5582 41.8677C54.1386 42.0399 53.7367 42.2449 53.3231 42.4365C52.8999 42.6164 52.5264 42.8678 52.1319 43.0942C51.7318 43.3139 51.3583 43.5724 51.0003 43.848C50.6385 44.1186 50.2612 44.3765 49.9319 44.6835C49.5967 44.986 49.2367 45.2676 48.9266 45.594C48.6127 45.9148 48.2775 46.2208 47.9903 46.5677C47.6935 46.907 47.3908 47.2422 47.117 47.5998C47.0194 47.7175 46.9351 47.8473 46.8431 47.9698L46.4257 47.496C46.0963 47.1412 45.7919 46.7569 45.428 46.4386L44.3271 45.4994C43.9596 45.1854 43.5335 44.9581 43.1419 44.6866L42.5426 44.2974L41.9088 43.9757C41.4836 43.7727 41.072 43.5334 40.6354 43.3658L39.3199 42.8784C38.8774 42.7353 38.4275 42.6209 37.9834 42.492C37.543 42.3571 37.0891 42.2727 36.6378 42.1905C36.1877 42.098 35.7358 42.0316 35.2816 41.9846C34.8297 41.9277 34.3796 41.8687 33.9239 41.8482C33.0178 41.8032 32.1138 41.7836 31.2138 41.8424C30.3177 41.8933 29.4215 41.9913 28.5466 42.1905C29.4308 42.3235 30.2981 42.4777 31.1541 42.6649C32.01 42.8453 32.8584 43.0392 33.6855 43.2872C34.1035 43.3882 34.5132 43.5189 34.9212 43.6491C35.3309 43.7707 35.7343 43.9081 36.1289 44.0679C36.5208 44.2306 36.9282 44.3384 37.3084 44.5218C37.6951 44.6914 38.0829 44.8473 38.4593 45.0254L39.5602 45.6062C39.9297 45.7867 40.2608 46.0318 40.6123 46.2384C40.9665 46.4424 41.2979 46.6755 41.6129 46.9277C41.9252 47.1806 42.2763 47.3892 42.557 47.6726L43.433 48.4855C43.722 48.756 43.9433 49.0871 44.2084 49.3787L44.5962 49.8244C44.7147 49.9804 44.8117 50.1541 44.9197 50.317L45.5688 51.3023L46.9569 53.4181L48.1403 51.2774C48.2946 50.9978 48.5195 50.6396 48.7291 50.3217C48.9513 49.9962 49.1753 49.6735 49.4119 49.3558C49.6368 49.0303 49.8923 48.7276 50.1414 48.4185C50.3827 48.1031 50.6595 47.8235 50.9152 47.5194C51.1679 47.212 51.4656 46.9513 51.7385 46.6648C52.0074 46.3734 52.3071 46.1205 52.602 45.8558C52.8874 45.5806 53.1966 45.3393 53.5126 45.1009C53.8238 44.8626 54.1216 44.5931 54.4605 44.3972C54.7937 44.1886 55.1192 43.9608 55.46 43.7616C55.8124 43.5893 56.1648 43.4089 56.5132 43.215C56.8598 43.012 57.2428 42.911 57.6105 42.7502L58.1715 42.5276C58.3601 42.4639 58.5584 42.4285 58.7517 42.3687C59.1385 42.2649 59.531 42.1405 59.9293 42.0485C60.3294 41.9924 60.7372 41.9403 61.149 41.8691C61.5626 41.7791 61.9763 41.7709 62.3964 41.7653L63.6786 41.6986C63.2744 41.5661 62.8579 41.4535 62.4387 41.331C62.0204 41.2119 61.5954 41.1019 61.1586 41.0708Z" fill="#A5A7BC"/>
</svg>
