<svg width="73" height="100" viewBox="0 0 73 100" fill="none" xmlns="http://www.w3.org/2000/svg">
<path d="M35.1053 75.2896C33.9047 75.2896 33.1293 75.3958 32.6702 75.5011V91.0639C33.1302 91.1703 33.8713 91.1703 34.5409 91.1703C39.4098 91.2046 42.5864 88.5239 42.5864 82.8417C42.6209 77.9005 39.7279 75.2896 35.1053 75.2896Z" fill="#D62D30"/>
<path d="M14.3167 75.2207C13.2234 75.2207 12.4823 75.326 12.093 75.4313V82.4549C12.5525 82.5602 13.1175 82.5965 13.8909 82.5965C16.7517 82.5965 18.5153 81.149 18.5153 78.7142C18.5155 76.5266 16.9971 75.2207 14.3167 75.2207Z" fill="#D62D30"/>
<path d="M72.8238 23.9636C72.818 23.505 72.6725 23.0521 72.3575 22.694L53.076 0.67066C53.0722 0.664487 53.0647 0.66249 53.0607 0.656862C52.9458 0.528503 52.8138 0.422657 52.672 0.329339C52.6299 0.302105 52.5858 0.277596 52.5417 0.252723C52.4191 0.186274 52.2908 0.131082 52.155 0.0907769C52.1205 0.0802468 52.086 0.0653594 52.0497 0.0559186C51.9042 0.0206971 51.753 0 51.6016 0H4.21551C2.05356 0 0.293945 1.7598 0.293945 3.92174V96.0784C0.293945 98.2413 2.05356 100 4.21551 100H68.9213C71.0832 100 72.843 98.2413 72.843 96.0784V24.1833C72.8428 24.1096 72.8314 24.0374 72.8238 23.9636ZM21.6557 84.2179C19.8213 85.9468 17.1038 86.7244 13.9272 86.7244C13.2224 86.7244 12.5853 86.6881 12.0931 86.6191V95.1229H6.76452V71.6547C8.42229 71.3733 10.7527 71.1607 14.0352 71.1607C17.3516 71.1607 19.7164 71.7963 21.3039 73.0659C22.8222 74.2664 23.8429 76.2426 23.8429 78.571C23.8429 80.9013 23.0684 82.8775 21.6557 84.2179ZM44.3483 92.3005C41.8456 94.3818 38.0343 95.3698 33.3774 95.3698C30.5889 95.3698 28.6138 95.1937 27.2705 95.0176V71.6547C29.2471 71.3388 31.8244 71.1607 34.541 71.1607C39.0557 71.1607 41.9854 71.9726 44.2804 73.7016C46.7514 75.5369 48.3044 78.4657 48.3044 82.6649C48.3024 87.2184 46.6441 90.3588 44.3483 92.3005ZM66.3744 75.7488H57.233V81.183H65.7731V85.5603H57.233V95.1229H51.8352V71.3388H66.3744V75.7488ZM4.21551 66.5852V3.92174H49.6408V23.9862C49.6408 25.0684 50.5179 25.9469 51.6016 25.9469H68.9213L68.9233 66.5852H4.21551Z" fill="#D62D30"/>
<path d="M56.6854 42.1453C56.5704 42.1345 53.8074 41.8824 49.5661 41.8824C48.2373 41.8824 46.8989 41.9083 45.5775 41.9581C37.2019 35.6727 30.3417 29.3824 26.6691 25.8572C26.7361 25.469 26.7822 25.1622 26.8036 24.9265C27.288 19.8131 26.7495 16.361 25.2085 14.666C24.1994 13.5583 22.7174 13.1898 21.172 13.6119C20.2123 13.8634 18.4358 14.7944 17.867 16.6896C17.239 18.784 18.2484 21.3259 20.9004 24.2736C20.9425 24.3183 21.8425 25.2613 23.4777 26.8592C22.4149 31.9269 19.6328 42.8628 18.2829 48.1142C15.1124 49.8083 12.4708 51.8489 10.4258 54.1899L10.2918 54.3431L10.2052 54.527C9.99462 54.9695 8.98791 57.2661 9.74372 59.1111C10.0889 59.9499 10.7355 60.5626 11.6141 60.8843L11.8496 60.9477C11.8496 60.9477 12.062 60.9936 12.4354 60.9936C14.0712 60.9936 18.109 60.134 20.2747 52.1529L20.7994 50.1307C28.3592 46.4562 37.8088 45.2709 44.6583 44.9406C48.1816 47.5534 51.6875 49.9535 55.0846 52.079L55.1955 52.1432C55.3602 52.2275 56.8498 52.963 58.5944 52.9646C61.0875 52.9646 62.9085 51.4346 63.5864 48.7683L63.6207 48.5861C63.8102 47.0623 63.4274 45.6888 62.514 44.6151C60.5898 42.3533 57.0072 42.1561 56.6854 42.1453ZM12.4964 58.051C12.4812 58.0328 12.4739 58.0158 12.4663 57.9965C12.3036 57.6049 12.4988 56.655 12.786 55.9591C14.0191 54.5804 15.4993 53.3148 17.2074 52.1754C15.544 57.5599 13.125 58.0254 12.4964 58.051ZM23.0578 22.276C20.5033 19.4325 20.5416 18.0228 20.6791 17.5482C20.9046 16.755 21.9223 16.4552 21.9311 16.4525C22.4438 16.3131 22.7549 16.3405 23.032 16.6446C23.6585 17.3328 24.1967 19.41 23.9841 23.2201C23.3809 22.6141 23.0578 22.276 23.0578 22.276ZM21.7379 46.4904L21.782 46.3219L21.7762 46.3239C23.0552 41.3143 24.8998 33.979 25.9605 29.2671L25.9988 29.3036L26.0026 29.2811C29.434 32.5124 34.6954 37.2388 40.9951 42.1545L40.9243 42.1574L41.0285 42.236C35.0939 42.7373 28.0057 43.9072 21.7379 46.4904ZM60.7124 48.1338C60.2605 49.7943 59.3912 50.0212 58.5946 50.0212C57.6697 50.0212 56.7794 49.6363 56.5764 49.5434C54.2632 48.0935 51.8967 46.5136 49.5087 44.8234C49.5278 44.8234 49.545 44.8234 49.5661 44.8234C53.6599 44.8234 56.3867 45.0719 56.4938 45.0795C57.1775 45.1049 59.3413 45.4245 60.2738 46.5207C60.6394 46.9504 60.7794 47.4641 60.7124 48.1338Z" fill="#D62D30"/>
</svg>
