<svg width="73" height="100" viewBox="0 0 73 100" fill="none" xmlns="http://www.w3.org/2000/svg">
<path d="M72.5298 23.9626C72.524 23.5041 72.3766 23.0521 72.0636 22.6931L52.782 0.668844C52.7782 0.663579 52.7724 0.660674 52.7668 0.655954C52.6519 0.526687 52.5199 0.421931 52.3781 0.328612C52.336 0.301379 52.2937 0.275962 52.2497 0.251997C52.1252 0.184459 51.9968 0.130537 51.8628 0.0902322C51.8265 0.0797021 51.794 0.0639069 51.7557 0.0561001C51.6103 0.0206971 51.4591 0 51.3076 0H3.92156C1.75962 0 0 1.75889 0 3.92174V96.0784C0 98.2402 1.75962 100 3.92156 100H68.6273C70.7893 100 72.5491 98.2404 72.5491 96.0784V24.1824C72.5489 24.1087 72.5374 24.0364 72.5298 23.9626ZM3.92156 3.92174H49.3469V23.9852C49.3469 25.0677 50.2239 25.946 51.3076 25.946H68.6273L68.6293 66.5845H3.92156V3.92174Z" fill="#15499F"/>
<path d="M14.2578 45.2226L29.2796 52.201V48.8842L17.9185 43.9091V43.8462L29.2796 38.8697V35.5532L14.2578 42.5312V45.2226Z" fill="#15499F"/>
<path d="M31.5979 53.4523H34.7578L41.4541 30.7646H38.2945L31.5979 53.4523Z" fill="#15499F"/>
<path d="M43.2712 38.8697L54.8829 43.8462V43.9091L43.2712 48.8842V52.201L58.2912 45.3168V42.4374L43.2712 35.5532V38.8697Z" fill="#15499F"/>
<path d="M14.0776 86.4873V93H9.4502V73.8047H17.1099C18.5776 73.8047 19.874 74.0771 20.999 74.6221C22.1328 75.1582 23.0073 75.9272 23.6226 76.9292C24.2466 77.9224 24.5586 79.0518 24.5586 80.3174C24.5586 82.1895 23.8862 83.688 22.5415 84.813C21.2056 85.9292 19.3687 86.4873 17.0308 86.4873H14.0776ZM14.0776 82.9146H17.1099C18.0063 82.9146 18.6875 82.6904 19.1533 82.2422C19.6279 81.7939 19.8652 81.1611 19.8652 80.3438C19.8652 79.4473 19.6235 78.731 19.1401 78.1948C18.6567 77.6587 17.9976 77.3862 17.1626 77.3774H14.0776V82.9146ZM44.4315 93H39.8305V84.9844H33.0146V93H28.3871V73.8047H33.0146V81.4248H39.8305V73.8047H44.4315V93ZM53.3489 86.4873V93H48.7215V73.8047H56.3812C57.8489 73.8047 59.1453 74.0771 60.2703 74.6221C61.4041 75.1582 62.2786 75.9272 62.8938 76.9292C63.5179 77.9224 63.8299 79.0518 63.8299 80.3174C63.8299 82.1895 63.1575 83.688 61.8128 84.813C60.4769 85.9292 58.6399 86.4873 56.3021 86.4873H53.3489ZM53.3489 82.9146H56.3812C57.2776 82.9146 57.9588 82.6904 58.4246 82.2422C58.8992 81.7939 59.1365 81.1611 59.1365 80.3438C59.1365 79.4473 58.8948 78.731 58.4114 78.1948C57.928 77.6587 57.2688 77.3862 56.4339 77.3774H53.3489V82.9146Z" fill="white"/>
</svg>
