<svg width="74" height="100" viewBox="0 0 74 100" fill="none" xmlns="http://www.w3.org/2000/svg">
<path d="M46.2837 74.436H46.2175C45.8802 75.7793 45.5444 77.4921 45.1749 78.8018L43.8317 83.6053H48.8352L47.4258 78.8018C47.0218 77.4585 46.6196 75.7795 46.2837 74.436Z" fill="#A5A7BC"/>
<path d="M73.4711 23.9646C73.4655 23.5056 73.3199 23.0527 73.005 22.6952L53.7238 0.670264C53.7199 0.664611 53.7141 0.662604 53.7085 0.65695C53.5935 0.528004 53.4615 0.422221 53.3196 0.329387C53.2777 0.301665 53.2353 0.277225 53.1914 0.252968C53.0668 0.186397 52.9384 0.131317 52.8046 0.0910101C52.7681 0.0804317 52.7358 0.0656586 52.6993 0.0556274C52.5519 0.0215214 52.4024 0 52.2494 0H4.86305C2.70124 0 0.941406 1.75983 0.941406 3.92164V96.0785C0.941406 98.2405 2.70124 100 4.86305 100H69.5686C71.7323 100 73.4905 98.2405 73.4905 96.0785V24.1833C73.4906 24.1096 73.4788 24.0369 73.4711 23.9646ZM29.46 93.2443C29.0894 92.6077 28.5523 90.7591 27.8818 87.9708C27.2767 85.1502 26.3035 84.3769 24.2212 84.3441H22.6758V93.2443H17.6034V70.9081C19.2501 70.6399 21.7019 70.4389 24.422 70.4389C27.7815 70.4389 30.1325 70.9428 31.7442 72.2178C33.0875 73.2937 33.8274 74.8719 33.8274 76.9551C33.8274 79.8428 31.7778 81.8246 29.8293 82.5303V82.6308C31.409 83.2693 32.2811 84.7802 32.8518 86.8626C33.5578 89.4151 34.2626 92.3716 34.7001 93.2445H29.46V93.2443ZM51.3205 93.2443L49.5762 87.4339H43.0935L41.4803 93.2443H36.1747L43.0935 70.6063H49.8116L56.8303 93.2443H51.3205ZM4.86305 66.5853V3.92164H50.2884V23.986C50.2884 25.0684 51.1656 25.9468 52.2494 25.9468H69.5688L69.5708 66.5851H4.86305V66.5853Z" fill="#A5A7BC"/>
<path d="M24.9924 74.2344C23.7484 74.2344 23.044 74.3361 22.6747 74.4031V80.6492H24.6906C27.2436 80.6492 28.7554 79.3738 28.7554 77.3922C28.7543 75.3104 27.3434 74.2681 24.9924 74.2344Z" fill="#A5A7BC"/>
<path d="M40.1054 26.6877L30.6482 33.7477C30.6482 33.7477 29.7631 33.8376 28.7483 34.0865V44.3327C29.7624 44.5516 30.6482 44.6525 30.6482 44.6525L39.9008 51.5183C39.9008 51.5183 41.5991 52.9398 41.5991 51.4724C41.5991 49.9987 41.5991 28.0563 41.5991 26.7164C41.5991 25.5631 40.1054 26.6877 40.1054 26.6877Z" fill="#A5A7BC"/>
<path d="M25.7462 36.1533C25.7462 38.0658 25.7462 41.4129 25.7462 42.7524C25.7462 43.2652 26.469 43.6639 27.359 43.9603V34.5259C26.469 34.8963 25.7462 35.4201 25.7462 36.1533Z" fill="#A5A7BC"/>
<path d="M35.7528 18.5161C24.4089 18.5161 15.1805 27.7446 15.1805 39.0884C15.1805 50.4322 24.409 59.6609 35.7528 59.6609C47.0974 59.6609 56.3259 50.4322 56.3259 39.0884C56.3259 27.7446 47.0974 18.5161 35.7528 18.5161ZM35.7528 56.7208C26.0304 56.7208 18.1217 48.8121 18.1217 39.0897C18.1217 29.3671 26.0304 21.4585 35.7528 21.4585C45.4754 21.4585 53.3845 29.3671 53.3845 39.0897C53.3844 48.8119 45.4752 56.7208 35.7528 56.7208Z" fill="#A5A7BC"/>
</svg>
