<svg width="74" height="100" viewBox="0 0 74 100" fill="none" xmlns="http://www.w3.org/2000/svg">
<path d="M73.1773 23.9636C73.1715 23.505 73.024 23.0521 72.7091 22.694L53.4295 0.67066C53.4239 0.664487 53.4182 0.66249 53.4142 0.656862C53.2993 0.528503 53.1653 0.422657 53.0237 0.329339C52.9816 0.302105 52.9395 0.277596 52.8954 0.252723C52.7728 0.186274 52.6445 0.131082 52.5087 0.0907769C52.4722 0.0802468 52.4397 0.0653594 52.4034 0.0559186C52.2577 0.0206971 52.1065 0 51.9533 0H4.56902C2.40708 0 0.647461 1.7598 0.647461 3.92174V96.0784C0.647461 98.2413 2.40708 100 4.56902 100H69.2748C71.4367 100 73.1965 98.2413 73.1965 96.0784V24.1833C73.1963 24.1096 73.1849 24.0374 73.1773 23.9636ZM12.6631 95.1763C9.94646 95.1763 7.26328 94.4697 5.92287 93.7288L7.01619 89.2825C8.46444 90.0236 10.687 90.7645 12.981 90.7645C15.4515 90.7645 16.7575 89.742 16.7575 88.189C16.7575 86.707 15.6276 85.8597 12.7689 84.8361C8.8172 83.4604 6.24168 81.2727 6.24168 77.8145C6.24168 73.7551 9.62911 70.6491 15.2395 70.6491C17.9221 70.6491 19.8987 71.2139 21.3095 71.8497L20.1104 76.1905C19.1563 75.731 17.4642 75.0607 15.1338 75.0607C12.8054 75.0607 11.6761 76.1197 11.6761 77.3548C11.6761 78.8731 13.0165 79.5434 16.0879 80.7086C20.287 82.2617 22.2633 84.4494 22.2633 87.8003C22.262 91.789 19.1926 95.1763 12.6631 95.1763ZM37.7912 94.8241H31.51L23.8876 71.0382H29.7814L32.6746 81.0957C33.4865 83.9191 34.2276 86.6362 34.7925 89.6004H34.8972C35.4962 86.7415 36.2373 83.9191 37.0492 81.2028L40.0851 71.0391H45.8028L37.7912 94.8241ZM67.9306 93.729C66.2722 94.2938 63.1319 95.0712 59.9916 95.0712C55.6506 95.0712 52.5103 93.976 50.3217 91.86C48.133 89.8132 46.9344 86.7072 46.9687 83.2135C47.005 75.3083 52.7574 70.7911 60.5564 70.7911C63.6257 70.7911 65.9907 71.3906 67.1539 71.9554L66.0252 76.2627C64.7192 75.6979 63.0974 75.2382 60.4854 75.2382C56.003 75.2382 52.6154 77.7793 52.6154 82.9321C52.6154 87.8379 55.6849 90.7311 60.0967 90.7311C61.3318 90.7311 62.3207 90.5886 62.743 90.378V85.4033H59.0742V81.2041H67.9302V93.729H67.9306ZM69.2748 66.5852H4.56902V3.92174H49.9923V23.8843C49.9923 23.8843 49.8621 25.9471 52.5833 25.9471C55.3051 25.9471 69.2748 25.9471 69.2748 25.9471V66.5852Z" fill="#69A042"/>
<path d="M19.9004 41.5153V40.6952H18.0558L15.8581 39.8755V39.1168H14.2884C14.2424 39.068 14.1994 39.0157 14.16 38.9621L14.1685 37.0166C14.2557 36.9098 14.363 36.8218 14.4894 36.7519V36.9405H16.4668V36.7697C16.904 36.9501 17.2442 37.2335 17.4893 37.6217L17.4803 39.5992H19.4568V39.109L21.2746 38.863V39.1558H23.2511V37.1783H22.7931C22.3699 35.4914 21.445 34.0921 20.0414 33.0155C18.9826 32.2041 17.7815 31.7038 16.467 31.5249V31.0874H14.4895V31.5028C14.4785 31.5028 14.469 31.5039 14.457 31.5048C13.515 31.6063 12.5758 31.9581 11.6691 32.5493C10.4336 33.3463 9.57379 34.4483 9.11609 35.8236C8.98737 36.2081 8.8935 36.5961 8.83758 36.9835H8.39804V38.961H8.83178C8.96685 39.9932 9.32778 40.9481 9.90893 41.8051C10.516 42.703 11.3111 43.4149 12.2737 43.9233V44.6921H14.1604L16.3457 45.4863V46.2982H17.5631V48.1253H17.5917C17.4572 48.3011 17.2858 48.4365 17.0767 48.5351V48.3628H15.0986V48.6266C14.8799 48.5649 14.6945 48.4795 14.5433 48.3695C14.3178 48.2096 14.1353 47.9521 13.9975 47.5988H14.0856V45.6217H12.1079V46.1776L10.2089 46.4145V46.1484H8.23047V48.1255H8.84321C9.26296 50.0623 10.1974 51.5491 11.6235 52.5498C12.6288 53.2544 13.7964 53.6736 15.097 53.7972V54.2166H17.0754V53.7735L17.3325 53.7428L17.4401 53.7121C18.6282 53.5138 19.6981 53.0324 20.6188 52.2798C21.5431 51.5235 22.2148 50.565 22.6106 49.4343C22.76 49.0158 22.8715 48.5774 22.9423 48.1264H23.3316V46.1493H22.9463C22.662 44.1435 21.6397 42.5876 19.9004 41.5153ZM17.0765 52.5318V52.2406H15.0985V52.5834C14.0473 52.4552 13.1172 52.1097 12.3287 51.5552C11.2472 50.7902 10.5033 49.6377 10.1088 48.1268H10.2098V47.6544L12.1088 47.4173V47.6017H12.7168C13.05 48.7377 13.6862 49.4643 14.6235 49.7702C14.7768 49.8132 14.9347 49.8515 15.0985 49.8826V50.3421H17.0765V49.8355C18.008 49.615 18.6562 49.0318 18.9746 48.1266H19.5678V46.1495H18.9708C18.8307 45.7838 18.6152 45.4648 18.3227 45.1945V44.2936H16.6257L14.2795 43.4191V42.7157H12.5834C11.9042 42.3092 11.3354 41.766 10.8908 41.0934C10.4561 40.4394 10.1747 39.7248 10.0482 38.9612H10.4044V36.9837H10.0789C10.1228 36.7179 10.1865 36.4608 10.2679 36.2167C10.603 35.2128 11.2052 34.3846 12.0593 33.7572C12.7797 33.2267 13.5954 32.891 14.4895 32.757V33.0638H16.467V32.7599C17.505 32.9169 18.457 33.3285 19.3063 33.9863C20.4069 34.8312 21.1288 35.8795 21.5011 37.1773H21.2747V37.6282L19.457 37.8806V37.6206H18.8227C18.398 36.499 17.6086 35.7871 16.4679 35.4963V34.9628H14.4903V35.453C13.6607 35.656 13.087 36.1773 12.8085 36.9845H12.192V38.9621H12.8038C13.0021 39.5553 13.363 40.0238 13.8813 40.3599V41.0941H15.6511L17.9236 41.9414V42.6723H19.446C20.7197 43.5206 21.4646 44.6638 21.7097 46.1502H21.3579V48.1273H21.7127C21.66 48.4385 21.5796 48.7362 21.4708 49.0196C20.7528 50.9832 19.3252 52.1302 17.0883 52.5305C17.0847 52.5309 17.0809 52.5309 17.0765 52.5318Z" fill="#69A042"/>
<path d="M43.7654 33.7018V31.7241H41.7883V32.0569H39.9184V31.9821L43.1162 29.1085H44.4105V27.2085H42.5099V28.6644L39.1045 31.7234H37.9393V32.7702L35.7411 34.7448H34.2187V36.6448H36.1187V35.3938L37.8204 33.8644L33.0793 46.2811L28.648 33.5275V31.7232H26.6696V32.0558H24.7988V31.7232H22.8208V33.7007H23.516L29.7981 51.8072V53.6914H31.7756V53.386H34.0893V53.6914H36.0677V52.2055L36.0519 52.1184L43.0855 33.7025H43.7652V33.7018H43.7654ZM31.0552 51.7155L24.8014 33.688V33.2873H26.6717V33.7019H27.4228L32.0721 47.1589V49.1246H34.0768V47.1469H34.0481L39.1832 33.7019H39.9186V33.2873H41.7894V33.6315L34.909 51.7155H34.0915V52.1587H31.7779V51.7155H31.0552Z" fill="#69A042"/>
<path d="M66.2206 43.5035V41.5258H64.2158V41.9408H55.8653V41.5258H53.8604V43.5035H54.1926V45.4025H53.8604V47.4072H55.8653V47.0478H58.815C57.96 47.8844 56.9682 48.4043 55.8097 48.6216V48.3379H53.8326V48.6496C52.5428 48.4773 51.4419 47.9377 50.4826 47.0085C49.5291 46.0846 48.9602 45.0162 48.7555 43.7533H48.9986V41.7486H48.721C48.9125 40.4613 49.4793 39.364 50.4463 38.4062C51.4141 37.4454 52.5258 36.8887 53.8326 36.7135V37.0253H55.8097V36.7606C56.7135 36.9203 57.5456 37.2861 58.2903 37.8515V38.8802H60.2952V38.5242L63.0802 38.5449V38.8815H65.0851V36.9038H64.21C63.2852 35.3838 62.0597 34.1393 60.5643 33.2001C59.1165 32.2911 57.5196 31.7506 55.8097 31.5941V31.1177H53.8315V31.5848C51.1287 31.7782 48.7763 32.8559 46.8328 34.7898C44.8893 36.7242 43.7978 39.0632 43.5872 41.7487H43.1162V43.7535H43.593C43.8381 46.4223 44.9466 48.7378 46.8902 50.646C48.8319 52.5521 51.1641 53.6131 53.8306 53.8063V54.2199H55.8077V53.7928C57.4717 53.6226 59.0285 53.093 60.4473 52.2151V53.7211H62.4255V53.3333H64.214V53.7211H66.2189V51.744H65.8053L65.8302 43.5044H66.2207V43.5035H66.2206ZM53.8328 52.2407V52.5721C51.49 52.3834 49.443 51.4395 47.7456 49.7649C46.0499 48.0937 45.0697 46.0721 44.8303 43.7513H45.0944V41.7466H44.8224C45.0312 39.4062 45.9984 37.3611 47.7053 35.6621C49.4143 33.9623 51.4728 32.9977 53.8328 32.7918V33.1191H55.8099V32.8276C57.244 32.9799 58.5978 33.4432 59.8386 34.2092C61.1234 35.0004 62.1863 36.0445 63.0038 37.3159H60.2954V36.9013H59.0363C58.0942 36.168 57.0114 35.7041 55.8099 35.5189V35.0185H53.8328V35.4728C52.1946 35.658 50.7691 36.3484 49.5886 37.5298C48.408 38.7099 47.7101 40.1269 47.5091 41.7464H47.0216V43.7511H47.5147C47.7329 45.3551 48.4454 46.7464 49.6365 47.8923C50.8237 49.0347 52.2329 49.7043 53.8328 49.8862V50.3132H55.8099V49.8441C57.5639 49.5922 59.0383 48.7736 60.2024 47.406H61.2097V45.4012H59.2307V45.8446H55.8635V45.4012H55.4221V43.5022H55.8635V43.1699H64.2149V43.5022H64.5989C64.5951 44.1787 64.5866 45.5472 64.5759 47.608V51.7417H64.216V52.1015H62.4275V49.8028H60.4493V50.7631C59.0477 51.7627 57.4909 52.3638 55.8097 52.5534V52.2395H53.8326V52.2407H53.8328Z" fill="#69A042"/>
</svg>
