<svg width="74" height="100" viewBox="0 0 74 100" fill="none" xmlns="http://www.w3.org/2000/svg">
<path d="M73.2748 23.9646C73.2692 23.5061 73.1236 23.0533 72.8087 22.6952L53.5275 0.670629C53.5237 0.664975 53.5178 0.662969 53.5122 0.65695C53.3973 0.528551 53.2652 0.422768 53.1233 0.329387C53.0814 0.302212 53.0391 0.277772 52.9951 0.252968C52.8705 0.186397 52.7421 0.131682 52.6083 0.0915572C52.5718 0.0806141 52.5395 0.0656586 52.503 0.0561745C52.3557 0.0215214 52.2061 0 52.0531 0H4.66676C2.50495 0 0.745117 1.75983 0.745117 3.92164V96.0785C0.745117 98.2413 2.50495 100 4.66676 100H69.3724C71.536 100 73.2942 98.2413 73.2942 96.0785V24.1833C73.2944 24.1102 73.2825 24.0374 73.2748 23.9646ZM17.1734 93.1927C14.6166 93.1927 12.0924 92.5273 10.8305 91.8304L11.8598 87.6454C13.2217 88.3425 15.3137 89.0394 17.4725 89.0394C19.7972 89.0394 21.0265 88.0775 21.0265 86.6153C21.0265 85.2213 19.9637 84.4229 17.2734 83.4599C13.5538 82.1653 11.1292 80.106 11.1292 76.8517C11.1292 73.0327 14.3175 70.1095 19.5981 70.1095C22.1217 70.1095 23.9826 70.6419 25.31 71.2381L24.1812 75.3235C23.2846 74.8927 21.69 74.2607 19.4988 74.2607C17.308 74.2607 16.2442 75.2584 16.2442 76.4187C16.2442 77.8472 17.5059 78.478 20.3951 79.5745C24.3472 81.0354 26.207 83.0947 26.207 86.2496C26.207 90.0048 23.3176 93.1927 17.1734 93.1927ZM39.8592 83.5286V92.8616H34.8108V83.6942L27.7374 70.477H33.5162L35.8079 75.857C36.505 77.4844 36.9706 78.6794 37.5343 80.141H37.6015C38.0992 78.7452 38.6316 77.4508 39.2962 75.857L41.5536 70.477H47.233L39.8592 83.5286ZM54.1753 93.1927C51.6181 93.1927 49.0946 92.5273 47.8327 91.8304L48.8621 87.6454C50.2234 88.3425 52.3155 89.0394 54.4752 89.0394C56.7987 89.0394 58.0289 88.0775 58.0289 86.6153C58.0289 85.2213 56.9663 84.4229 54.2762 83.4599C50.5553 82.1653 48.1313 80.106 48.1313 76.8517C48.1313 73.0327 51.3194 70.1095 56.6007 70.1095C59.1245 70.1095 60.9836 70.6419 62.3126 71.2381L61.1829 75.3235C60.2868 74.8927 58.6917 74.2607 56.5011 74.2607C54.3105 74.2607 53.2461 75.2584 53.2461 76.4187C53.2461 77.8472 54.5078 78.478 57.3971 79.5745C61.3496 81.0354 63.2087 83.0947 63.2087 86.2496C63.2087 90.0048 60.3193 93.1927 54.1753 93.1927ZM4.66676 66.5853V3.92164H50.0921V23.986C50.0921 25.0684 50.9693 25.9468 52.0531 25.9468H69.3725L69.3745 66.5851H4.66676V66.5853Z" fill="#15499F"/>
<path d="M52.3057 16.1729L17.3279 16.2219L17.3326 61.6846L52.3117 61.6635L52.3057 16.1729ZM19.6365 59.4021L19.6093 18.4952L49.9449 18.4798L49.9525 59.3875L19.6365 59.4021Z" fill="#15499F"/>
<path d="M46.7862 34.4632C45.7685 34.0702 44.9299 33.2537 44.5122 32.2349C44.0892 31.2204 44.1026 30.0586 44.5439 29.0477C44.5842 28.9576 44.5642 28.8456 44.4903 28.7725L42.2969 26.58C42.226 26.5076 42.1133 26.487 42.0214 26.5264C41.013 26.9683 39.8517 26.9831 38.8347 26.5605C37.8201 26.143 37.0018 25.3075 36.606 24.2814C36.5783 24.2196 36.5432 24.1255 36.3714 24.1235L33.2683 24.1226C33.1655 24.1235 33.0716 24.1891 33.0343 24.2843C32.6342 25.3097 31.8248 26.1403 30.8049 26.562C29.791 26.9824 28.6301 26.9685 27.6197 26.5266C27.5252 26.4854 27.4156 26.5051 27.3419 26.5793L25.1471 28.7748C25.0754 28.8461 25.0548 28.955 25.096 29.0501C25.5392 30.061 25.5498 31.2192 25.1323 32.2363C24.7097 33.2511 23.8786 34.0669 22.8518 34.4647C22.758 34.503 22.6942 34.5964 22.6942 34.6981L22.6924 37.8031C22.6942 37.9736 22.7843 38.0088 22.8536 38.0332C23.3774 38.2382 23.8498 38.5441 24.249 38.9452C24.6291 39.3262 24.9264 39.7686 25.1285 40.2645C25.5498 41.2832 25.5381 42.4431 25.096 43.4519C25.0557 43.5433 25.0763 43.6549 25.15 43.7277L27.3421 45.9197C27.4167 45.9943 27.5265 46.0149 27.6181 45.9746C28.6287 45.5324 29.7873 45.52 30.8052 45.9413C31.7952 46.3518 32.5875 47.1505 32.9991 48.1319C33.1011 48.0494 33.216 47.9805 33.3422 47.9307C33.5228 47.8618 33.6689 47.7186 33.7382 47.5473C33.808 47.3788 33.8062 47.1758 33.7316 47.0048C33.508 46.4844 33.62 45.8991 34.0139 45.5088L35.0533 44.4687C35.4453 44.0746 36.0298 43.9628 36.5418 44.1814C36.7209 44.2591 36.9246 44.263 37.0939 44.1916C37.2631 44.1216 37.405 43.9786 37.4709 43.8063C37.6749 43.2872 38.1822 42.9445 38.7326 42.9421H40.2024C40.571 42.9454 40.909 43.0842 41.1578 43.3313L41.3301 43.5061L41.4507 43.7784C41.5369 43.999 41.6728 44.1216 41.8377 44.1891C42.0106 44.2619 42.2147 44.2591 42.3832 44.1844C42.8716 43.9748 43.4133 44.0709 43.8062 44.412L44.4905 43.7278C44.5603 43.656 44.5824 43.5425 44.5421 43.4473C44.1007 42.4395 44.0885 41.2786 44.5085 40.2629C44.93 39.2461 45.7597 38.4314 46.7862 38.0325C46.879 37.9962 46.9443 37.9023 46.9452 37.8012L46.9443 34.6972C46.9461 34.526 46.8571 34.491 46.7862 34.4632ZM39.0877 40.5175C36.7342 42.8694 32.907 42.8694 30.5519 40.5144C28.2021 38.162 28.2021 34.3357 30.5539 31.9839C32.9038 29.633 36.7342 29.63 39.0879 31.9821C41.441 34.3348 41.4383 38.1646 39.0877 40.5175Z" fill="#15499F"/>
<path d="M45.061 48.6311C44.5784 48.4458 44.1792 48.0577 43.9819 47.5771C43.7809 47.096 43.7885 46.545 43.9974 46.0663C44.0183 46.0221 44.0059 45.9707 43.9733 45.9362L42.9346 44.8959C42.8992 44.8629 42.8465 44.8518 42.8024 44.8715C42.3265 45.0819 41.7741 45.086 41.2953 44.8892C40.8138 44.69 40.4261 44.295 40.2384 43.8078C40.2249 43.7779 40.2078 43.7339 40.1263 43.7339L38.6559 43.7319C38.6079 43.7339 38.5619 43.7646 38.5441 43.8085C38.3564 44.2957 37.9714 44.6869 37.4888 44.8872C37.0077 45.0858 36.4592 45.0799 35.9814 44.8713C35.9372 44.8516 35.8833 44.8603 35.8473 44.8946L34.809 45.9348C34.7736 45.9703 34.766 46.022 34.7857 46.0677C34.9943 46.5456 35.0011 47.0957 34.801 47.5748C34.6022 48.0565 34.2086 48.4455 33.7218 48.6337C33.6773 48.6505 33.6472 48.6955 33.6472 48.7429V50.2148C33.6472 50.297 33.6903 50.3127 33.7236 50.3231C33.9706 50.4218 34.1942 50.5653 34.3844 50.7547C34.5639 50.935 34.7041 51.1446 34.8001 51.379C34.9991 51.8597 34.9952 52.4123 34.7847 52.8898C34.7652 52.9329 34.7756 52.9865 34.8112 53.0211L35.8493 54.0598C35.8834 54.0941 35.9356 54.1038 35.9795 54.0848C36.4578 53.8751 37.0069 53.8703 37.4888 54.0697C37.9714 54.2687 38.3564 54.6622 38.5459 55.1476C38.5592 55.1809 38.5767 55.222 38.656 55.224L40.1264 55.222C40.1744 55.222 40.2194 55.1917 40.2368 55.1476C40.4263 54.6611 40.812 54.2687 41.2935 54.0697C41.7743 53.8665 42.3236 53.8742 42.8024 54.0848C42.8463 54.1038 42.899 54.0961 42.9346 54.0598L43.9733 53.0211C44.0069 52.9867 44.0183 52.9331 43.9974 52.8898C43.7885 52.4102 43.7829 51.8597 43.9819 51.379C44.1832 50.8986 44.5748 50.5117 45.061 50.3231C45.1052 50.3067 45.1345 50.2611 45.1365 50.213V48.7429C45.1365 48.6618 45.0906 48.6452 45.061 48.6311ZM41.4122 51.5001C40.297 52.6155 38.4846 52.6155 37.3702 51.5001C36.2551 50.3837 36.2562 48.5735 37.3702 47.4575C38.4846 46.344 40.2959 46.3402 41.4122 47.4564C42.5266 48.5706 42.5266 50.3837 41.4122 51.5001Z" fill="#15499F"/>
</svg>
