<svg width="74" height="100" viewBox="0 0 74 100" fill="none" xmlns="http://www.w3.org/2000/svg">
<path d="M73.371 23.9636C73.3654 23.505 73.2198 23.0522 72.9049 22.6942L53.6237 0.670629C53.6198 0.664428 53.614 0.662604 53.6084 0.65695C53.4935 0.528551 53.3614 0.422768 53.2195 0.329387C53.1776 0.302212 53.1352 0.277772 53.0913 0.252968C52.9667 0.186397 52.8383 0.131317 52.7045 0.0910101C52.668 0.0804317 52.6357 0.0656586 52.5992 0.0561745C52.4519 0.0206095 52.3023 0 52.1493 0H4.76295C2.60114 0 0.841309 1.75983 0.841309 3.92164V96.0785C0.841309 98.2413 2.60114 100 4.76295 100H69.4685C71.6322 100 73.3904 98.2413 73.3904 96.0785V24.1833C73.3905 24.1096 73.3787 24.0374 73.371 23.9636ZM28.4225 76.3423H22.5287V93.8294H17.6287V76.3423H11.8326V72.2427H28.4225V76.3423ZM44.7922 93.8294H31.02V72.2427H44.3441V76.2464H35.9196V80.7303H43.8639V84.7023H35.9196V89.8266H44.7922V93.8294ZM59.4963 93.8294L57.5431 89.9223C56.7428 88.4171 56.2296 87.2962 55.6206 86.0466H55.5575C55.1094 87.2962 54.5637 88.4171 53.8916 89.9223L52.0984 93.8294H46.5251L52.7703 82.9063L46.7492 72.2427H52.3537L54.2438 76.1816C54.8843 77.495 55.3658 78.5521 55.877 79.769H55.9414C56.4536 78.3921 56.8688 77.43 57.4149 76.1816L59.2395 72.2427H64.8135L58.7283 82.7798L65.1333 93.8292H59.4963V93.8294ZM4.76295 66.5853V3.92164H50.1883V23.986C50.1883 25.0684 51.0655 25.9468 52.1493 25.9468H69.4687L69.4707 66.5851H4.76295V66.5853Z" fill="#A5A7BC"/>
<path d="M26.7963 32.9448V28.3813H10.7583V32.9448H11.2914C11.3345 32.2625 11.451 31.7046 11.6423 31.2703C11.8344 30.8381 12.0943 30.4957 12.4217 30.2468C12.7483 29.9978 13.1364 29.8271 13.5844 29.7352C14.0325 29.6427 14.547 29.5957 15.1306 29.5957H17.4547V44.4175C17.4547 45.0575 17.4088 45.5625 17.315 45.9321C17.2226 46.3016 17.0923 46.5823 16.9215 46.7732C16.7509 46.9667 16.537 47.0911 16.2824 47.1476C16.0278 47.2045 15.7276 47.2328 15.3852 47.2328H14.7042V47.7654H22.915V47.2328H22.2538C21.9121 47.2328 21.6149 47.2084 21.3592 47.1575C21.1012 47.1083 20.8896 46.9919 20.7178 46.8066C20.5482 46.6226 20.4156 46.341 20.3248 45.9651C20.2305 45.587 20.1854 45.0732 20.1854 44.4184V29.5957H22.915C24.0097 29.5957 24.8375 29.8486 25.4 30.3535C25.961 30.8585 26.3196 31.7221 26.4766 32.9448H26.7963Z" fill="#A5A7BC"/>
<path d="M39.6559 50.4357C39.4136 50.6635 39.1878 50.8534 38.9731 51.0008C38.7608 51.15 38.5146 51.268 38.2381 51.3533C37.9605 51.4376 37.6309 51.4967 37.2463 51.5239C36.8624 51.5523 36.3936 51.5658 35.8384 51.5658H32.5535C32.1413 51.5658 31.8287 51.5456 31.6162 51.5023C31.4012 51.4595 31.2456 51.3646 31.1466 51.2164C31.0465 51.0662 30.9905 50.8498 30.9766 50.5652C30.9615 50.2802 30.9551 49.8957 30.9551 49.4122V43.0152H35.1994C35.8251 43.0152 36.3229 43.0621 36.6916 43.1546C37.061 43.2474 37.3497 43.4035 37.5558 43.6242C37.7613 43.8449 37.9109 44.1389 38.0028 44.5095C38.0967 44.8792 38.1781 45.3419 38.2478 45.8949H38.7821V39.1556H38.2478C38.2202 39.6389 38.1615 40.0584 38.0772 40.4135C37.993 40.7692 37.8379 41.0603 37.6176 41.2892C37.3975 41.5173 37.0965 41.686 36.7121 41.8004C36.3285 41.9133 35.824 41.9713 35.1983 41.9713H30.954V34.3144H36.2649C36.9176 34.3144 37.4547 34.3459 37.8744 34.4107C38.2946 34.4753 38.6402 34.6213 38.9093 34.8477C39.1801 35.0751 39.3966 35.3998 39.56 35.8176C39.7238 36.2367 39.8754 36.7959 40.018 37.4919H40.3596V33.2485H25.4307V33.7809H26.1128C26.9237 33.7809 27.4993 33.973 27.8414 34.3574C28.0827 34.6418 28.2033 35.4016 28.2033 36.6389V49.222C28.2033 50.1594 28.1464 50.7854 28.0324 51.0976C27.9755 51.2689 27.8768 51.4164 27.7345 51.5456C27.5916 51.674 27.4316 51.7765 27.2551 51.8549C27.0756 51.9335 26.8885 51.9937 26.6897 52.0367C26.4896 52.0798 26.2981 52.1002 26.1128 52.1002H25.4307V52.6322H40.3596L42.0446 47.7711H41.4683C40.8287 48.9945 40.2244 49.8824 39.6559 50.4357Z" fill="#A5A7BC"/>
<path d="M59.7787 46.0772C59.459 45.9852 59.1316 45.8034 58.7977 45.5329C58.4625 45.2625 58.1006 44.8694 57.7098 44.3496C57.3191 43.8313 56.825 43.1311 56.2288 42.2485L52.0688 36.0431L55.9071 31.1167C56.7179 30.0937 57.3209 29.4116 57.7211 29.0692C58.0909 28.7418 58.4774 28.4788 58.8845 28.2804C59.2885 28.0811 59.8179 27.9605 60.4729 27.9175V27.3853H53.6043V27.9175C54.3725 27.9468 54.9105 28.0318 55.2156 28.1732C55.5231 28.3161 55.6745 28.5937 55.6745 29.0056C55.6745 29.1205 55.6669 29.2206 55.6534 29.3047C55.6401 29.3898 55.6038 29.4861 55.5472 29.5928C55.4899 29.6995 55.4046 29.8352 55.2915 29.9988C55.1779 30.1617 55.0141 30.3789 54.8013 30.6476L51.367 35.0206L48.382 30.5633C47.925 29.8952 47.7001 29.382 47.7001 29.0282C47.7001 28.7586 47.8411 28.5135 48.1263 28.2928C48.4098 28.0721 48.9286 27.9477 49.6832 27.9184V27.3862H40.7237V27.9184C41.2068 27.9477 41.6473 28.0145 42.0467 28.1214C42.445 28.2281 42.8395 28.4135 43.2302 28.6762C43.6207 28.9401 44.0265 29.3087 44.446 29.784C44.8653 30.2607 45.3384 30.883 45.8637 31.6509L49.6812 37.2379L45.1181 43.0182C44.7198 43.5152 44.3367 43.9593 43.9654 44.3496C43.5959 44.7407 43.2224 45.068 42.847 45.3325C42.4677 45.5948 42.0755 45.8025 41.6635 45.9604C41.2499 46.1175 40.8094 46.2094 40.3396 46.238V46.7704H47.2069V46.238C46.4812 46.2094 45.991 46.096 45.7355 45.895C45.4801 45.6967 45.3517 45.4488 45.3517 45.1496C45.3517 45.0502 45.3555 44.9577 45.3623 44.8723C45.3689 44.7872 45.4015 44.6881 45.4579 44.5732C45.5164 44.4607 45.6047 44.3175 45.7251 44.1457C45.8458 43.9761 46.02 43.7488 46.2478 43.4634L50.3197 38.2605L53.6045 43.229C53.8038 43.5422 53.9667 43.7901 54.0947 43.9763C54.2231 44.1607 54.3189 44.3139 54.3821 44.4344C54.4463 44.5561 54.4854 44.6471 54.4989 44.7107C54.5153 44.7753 54.5209 44.8442 54.5209 44.9137C54.5209 45.3274 54.3955 45.6471 54.1478 45.8745C53.8986 46.1 53.3834 46.2216 52.6022 46.2364V46.7688H60.9174V46.2364C60.4787 46.2223 60.0979 46.17 59.7787 46.0772Z" fill="#A5A7BC"/>
</svg>
