<svg width="73" height="100" viewBox="0 0 73 100" fill="none" xmlns="http://www.w3.org/2000/svg">
<path d="M72.9204 23.9646C72.9148 23.5056 72.7701 23.0526 72.4553 22.6951L53.1728 0.670115C53.169 0.664487 53.1632 0.66249 53.1574 0.656862C53.0425 0.52814 52.9105 0.422294 52.7687 0.329339C52.7266 0.301561 52.6845 0.277233 52.6404 0.252723C52.5158 0.18573 52.3876 0.131082 52.2536 0.0907769C52.2173 0.0797021 52.1847 0.0653594 52.1483 0.0553739C52.0009 0.0210602 51.8517 0 51.6985 0H4.31219C2.15043 0 0.390625 1.7598 0.390625 3.92174V96.0784C0.390625 98.2402 2.15024 100 4.31219 100H69.018C71.1817 100 72.9395 98.2404 72.9395 96.0784V24.1833C72.9395 24.1096 72.9281 24.037 72.9204 23.9646ZM24.0661 75.2413H17.7907V93.8629H12.5729V75.2413H6.40042V70.8764H24.0661V75.2413ZM45.0405 92.8059C43.4379 93.3517 40.4029 94.1024 37.3668 94.1024C33.1729 94.1024 30.1364 93.0434 28.022 90.9984C25.908 89.0194 24.7481 86.0178 24.7826 82.6431C24.8161 75.0039 30.3759 70.638 37.9136 70.638C40.8797 70.638 43.1651 71.2183 44.29 71.762L43.1985 75.9229C41.9365 75.3782 40.3682 74.9351 37.8446 74.9351C33.5133 74.9351 30.2384 77.3898 30.2384 82.3693C30.2384 87.1102 33.205 89.9071 37.4688 89.9071C38.6632 89.9071 39.6168 89.7711 40.0265 89.5661V84.7562H36.4799V80.6987H45.0396V92.8061H45.0405V92.8059ZM62.8074 93.8629L61.0334 87.9623H54.4521L52.8148 93.8629H47.4247L54.4521 70.8764H61.2727L68.4007 93.8629H62.8074ZM4.31219 66.5852V3.92174H49.7377V23.9862C49.7377 25.0684 50.6146 25.9469 51.6985 25.9469H69.018L69.02 66.5852H4.31219Z" fill="#A5A7BC"/>
<path d="M57.6918 74.7646H57.6228C57.2821 76.1301 56.9411 77.8687 56.5649 79.1995L55.2006 84.0755H60.2835L58.851 79.1995C58.4415 77.8351 58.0326 76.1299 57.6918 74.7646Z" fill="#A5A7BC"/>
<path d="M46.1203 33.6526C45.9414 33.6526 45.7642 33.6617 45.5879 33.6731L43.9106 19.7896L32.4749 28.3718H13.3511V48.2524H33.2327V39.1561L35.4912 40.1201C34.5921 41.8358 34.1197 43.7407 34.1197 45.6555C34.1197 52.2728 39.5046 57.6562 46.1204 57.6562C52.7381 57.6562 58.1217 52.2728 58.1217 45.6555C58.1215 39.0371 52.7381 33.6526 46.1203 33.6526ZM33.5807 29.2859L42.8154 22.3567L44.1577 33.4607C40.7877 34.0025 37.8004 35.9193 35.8828 38.7724L33.5816 37.7891V29.2859H33.5807ZM36.9925 39.6254C38.7386 36.9896 41.5613 35.2104 44.6698 34.7948L45.7029 43.342L36.9925 39.6254ZM32.1867 29.8957V37.5733L25.6659 34.7901L32.1867 29.8957Z" fill="#A5A7BC"/>
</svg>
