<svg width="74" height="100" viewBox="0 0 74 100" fill="none" xmlns="http://www.w3.org/2000/svg">
<path d="M73.2749 23.9636C73.2693 23.505 73.1237 23.0521 72.8087 22.694L53.5262 0.67066C53.5224 0.664487 53.5166 0.66249 53.5101 0.656862C53.3961 0.528503 53.263 0.422657 53.1223 0.329339C53.0802 0.302105 53.0379 0.277596 52.9939 0.252723C52.8694 0.186274 52.741 0.131082 52.6061 0.0907769C52.5698 0.0802468 52.5382 0.0653594 52.5017 0.0559186C52.3554 0.0216049 52.2042 0 52.0518 0H4.66668C2.50492 0 0.745117 1.7598 0.745117 3.92174V96.0784C0.745117 98.2413 2.50474 100 4.66668 100H69.3724C71.5362 100 73.294 98.2413 73.294 96.0784V24.1833C73.294 24.1096 73.2826 24.0374 73.2749 23.9636ZM27.9678 76.821H21.858V94.9544H16.7756V76.821H10.7645V72.5701H27.9678V76.821ZM46.9001 76.821H40.7899V94.9544H35.708V76.821H29.697V72.5701H46.9003V76.821H46.9001ZM63.2759 76.7223H54.6735V81.8359H62.71V85.9548H54.6735V94.9544H49.5905V72.5701H63.2739V76.7223H63.2759ZM4.66668 66.5852V3.92174H50.0922V23.9862C50.0922 25.0684 50.9691 25.9469 52.0529 25.9469H69.3724L69.3744 66.5852H4.66668Z" fill="#999999"/>
<path d="M38.3103 29.0683C37.785 26.7872 37.3577 25.5986 36.787 24.839C36.0272 23.6977 35.2188 23.3655 31.6558 23.3655H28.2814V46.748C28.2814 50.5034 28.661 50.9773 33.1757 51.2636V52.5924H19.5374V51.2636C23.8611 50.9773 24.2422 50.5033 24.2422 46.748V23.3653H21.2952C17.3512 23.3653 16.3991 23.746 15.7824 24.8388C15.2117 25.6469 14.8303 26.9772 14.262 29.0681H12.8833C13.1208 26.2164 13.3577 23.1269 13.4539 20.5122H14.4042C15.0705 21.6055 15.687 21.7005 17.0178 21.7005H35.7903C37.0737 21.7005 37.4539 21.4162 38.2144 20.5122H39.212C39.212 22.6985 39.4495 26.1691 39.6868 28.9241L38.3103 29.0683Z" fill="#999999"/>
<path d="M55.5111 35.2981C54.9882 33.0165 54.5614 31.8284 53.9906 31.0688C53.2304 29.9276 52.4214 29.5953 48.8571 29.5953H45.4831V52.9778C45.4831 56.7338 45.8642 57.2076 50.3775 57.4929V58.8227H36.7372V57.4929C41.0627 57.2076 41.4438 56.7336 41.4438 52.9778V29.5953H38.495C34.5529 29.5953 33.6006 29.9758 32.9823 31.0688C32.4116 31.8769 32.0326 33.2071 31.4619 35.2981H30.0852C30.3227 32.4461 30.5578 29.3569 30.6538 26.7422H31.6061C32.2704 27.8355 32.8895 27.9308 34.2197 27.9308H52.9902C54.2762 27.9308 54.6532 27.6465 55.4145 26.7422H56.413C56.413 28.9285 56.6523 32.399 56.89 35.1541L55.5111 35.2981Z" fill="#999999"/>
</svg>
