<svg width="74" height="100" viewBox="0 0 74 100" fill="none" xmlns="http://www.w3.org/2000/svg">
<path d="M73.4712 23.9651C73.4654 23.5059 73.32 23.0532 73.005 22.6955L53.7234 0.67066C53.7196 0.665031 53.7138 0.663034 53.7082 0.656862C53.5933 0.528503 53.4613 0.422657 53.3195 0.329339C53.2774 0.302105 53.2351 0.277596 53.1911 0.253267C53.0666 0.186274 52.9382 0.131626 52.8042 0.0913216C52.7679 0.0802468 52.7354 0.065904 52.6989 0.0559186C52.5517 0.0216049 52.4023 0 52.249 0H4.86297C2.70103 0 0.941406 1.7598 0.941406 3.92174V96.0784C0.941406 98.2413 2.70103 100 4.86297 100H69.5687C71.7325 100 73.4905 98.2413 73.4905 96.0784V24.1842C73.4903 24.1111 73.4789 24.0374 73.4712 23.9651ZM21.1079 93.1716H15.408L8.48969 71.5839H13.8383L16.465 80.7128C17.2023 83.2738 17.8747 85.7409 18.3865 88.4314H18.4837C19.028 85.8379 19.699 83.274 20.4363 80.8096L23.1914 71.5857H28.3794L21.1079 93.1716ZM41.482 89.4559C42.9564 89.4559 44.5897 89.1362 45.551 88.7513L46.2863 92.5626C45.3901 93.0118 43.372 93.4924 40.7467 93.4924C33.2832 93.4924 29.4401 88.8479 29.4401 82.6976C29.4401 75.3312 34.6919 71.2326 41.2262 71.2326C43.7567 71.2326 45.6781 71.7448 46.5426 72.1929L45.5508 76.0676C44.557 75.6511 43.1803 75.2682 41.4511 75.2682C37.5755 75.2682 34.5644 77.6062 34.5644 82.4105C34.5648 86.7339 37.1267 89.4559 41.482 89.4559ZM62.6887 75.5877H54.3937V80.5195H62.1439V84.4917H54.3937V93.1718H49.4938V71.5839H62.6889V75.5877H62.6887ZM4.86297 66.5863V3.92247H50.2883V23.9876C50.2883 25.0699 51.1654 25.9484 52.249 25.9484H69.5687L69.5707 66.5863H4.86297Z" fill="#A5A7BC"/>
<path d="M30.0845 41.8472C28.7119 41.3642 28.7 40.8816 28.7 40.8816C28.5598 40.7473 28.4215 40.6356 28.2835 40.5298C28.9207 39.8501 29.3884 38.9285 29.5071 38.0726C29.5943 38.0109 29.7344 37.863 29.7862 37.5258C29.7862 37.5258 30.1146 36.3521 29.6803 36.4793C29.8292 36.0285 30.3343 34.2687 29.363 33.1743C29.363 33.1743 28.9067 32.552 27.8009 32.2228C27.8009 32.2228 26.1411 31.701 24.8065 32.0383C23.4714 32.3768 23.4394 32.6522 23.0718 33.9207C23.0718 33.9207 22.796 34.5774 23.1607 36.5009C22.6442 36.2591 22.9961 37.5258 22.9961 37.5258C23.0487 37.8639 23.1909 38.0107 23.2751 38.0726C23.3813 38.9434 23.8147 39.8256 24.388 40.4842C24.1148 40.7088 23.9576 40.896 23.9576 40.896L20.995 42.4543C20.1851 42.7678 19.8427 43.2355 19.8427 43.2355C18.6431 45.0129 18.5017 48.973 18.5017 48.973C18.5175 49.8767 18.9086 49.97 18.9086 49.97C21.6664 51.2008 25.9906 51.4199 25.9906 51.4199C30.4349 51.5129 33.6691 50.1581 33.6691 50.1581C34.1368 49.8613 34.1517 49.6267 34.1517 49.6267C34.4772 46.7894 33.0761 43.5955 33.0761 43.5955C32.654 42.6582 30.0845 41.8472 30.0845 41.8472Z" fill="#A5A7BC"/>
<path d="M58.9031 27.165H16.6238C15.865 27.165 15.2494 27.7807 15.2494 28.5409V54.8086C15.2494 55.5688 15.865 56.1833 16.6238 56.1833H58.9031C59.6614 56.1833 60.278 55.5686 60.278 54.8086V28.5407C60.278 27.7807 59.6632 27.165 58.9031 27.165ZM59.0274 54.8084C59.0274 54.8774 58.9719 54.9337 58.9029 54.9337H16.6238C16.5548 54.9337 16.4992 54.8772 16.4992 54.8084V28.5407C16.4992 28.4719 16.5548 28.4154 16.6238 28.4154H58.9031C58.9721 28.4154 59.0276 28.4719 59.0276 28.5407V54.8084H59.0274Z" fill="#A5A7BC"/>
<path d="M55.0253 38.0464H37.7632V39.548H55.0253V38.0464Z" fill="#A5A7BC"/>
<path d="M55.0253 33.0449H37.7632V34.5453H55.0253V33.0449Z" fill="#A5A7BC"/>
<path d="M55.0253 43.0239H37.7632V44.5238H55.0253V43.0239Z" fill="#A5A7BC"/>
<path d="M50.7735 48.1787H37.7632V49.6785H50.7735V48.1787Z" fill="#A5A7BC"/>
</svg>
