<svg width="73" height="100" viewBox="0 0 73 100" fill="none" xmlns="http://www.w3.org/2000/svg">
<path d="M72.9224 23.9651C72.9168 23.5059 72.7721 23.0532 72.4573 22.6951L53.1748 0.67066C53.171 0.665031 53.1652 0.663034 53.1594 0.656862C53.0444 0.528503 52.9125 0.422657 52.7707 0.329339C52.7285 0.302105 52.6864 0.277596 52.6423 0.252723C52.5178 0.186274 52.3896 0.131626 52.2556 0.0913216C52.2193 0.0802468 52.1866 0.0653594 52.1503 0.0559186C52.0029 0.0216049 51.8536 0 51.7004 0H4.31414C2.15238 0 0.392578 1.7598 0.392578 3.92174V96.0784C0.392578 98.2413 2.1522 100 4.31414 100H69.0199C71.1837 100 72.9415 98.2413 72.9415 96.0784V24.1842C72.9415 24.1111 72.93 24.0374 72.9224 23.9651ZM28.7698 93.3391H23.6701L21.9071 84.3749C21.5055 82.2715 21.166 80.325 20.9181 77.9439H20.8564C20.4859 80.2925 20.1464 82.2715 19.6514 84.3749L17.672 93.3391H12.5091L7.56413 72.5039H12.6035L14.1789 81.0986C14.6427 83.5716 15.0759 86.2611 15.4149 88.3626H15.4775C15.817 86.1048 16.3119 83.6031 16.8366 81.0363L18.5992 72.5039H23.607L25.2767 81.2833C25.7406 83.7237 26.0801 85.9515 26.3907 88.2694H26.4515C26.7613 85.9514 27.2251 83.5091 27.6583 81.0362L29.3562 72.5037H34.1476L28.7698 93.3391ZM41.4426 93.6483C39.0626 93.6483 36.713 93.03 35.5398 92.3807L36.4976 88.4851C37.7652 89.1342 39.7137 89.7832 41.7222 89.7832C43.886 89.7832 45.0292 88.8871 45.0292 87.5265C45.0292 86.2284 44.0412 85.4864 41.5365 84.5903C38.0746 83.3847 35.817 81.4681 35.817 78.4389C35.817 74.8829 38.785 72.164 43.7013 72.164C46.0499 72.164 47.7808 72.6591 49.0178 73.2152L47.9666 77.018C47.1316 76.6159 45.6478 76.0271 43.6075 76.0271C41.5672 76.0271 40.579 76.9548 40.579 78.0367C40.579 79.3655 41.7529 79.9534 44.4412 80.9741C48.1196 82.3335 49.8506 84.2504 49.8506 87.1877C49.8507 90.6814 47.1623 93.6483 41.4426 93.6483ZM65.7705 76.3671H57.7628V81.1275H65.2439V84.9608H57.7628V93.3382H53.0332V72.504H65.7705V76.3671ZM4.31414 66.5863V3.92247H49.7396V23.9876C49.7396 25.0699 50.6165 25.9484 51.7004 25.9484H69.0199L69.0219 66.5863H4.31414Z" fill="#A5A7BC"/>
<path d="M36.733 57.2175C36.7215 57.2052 36.7114 57.1908 36.6994 57.1783H18.2644C17.3597 57.1783 16.6219 56.3348 16.6219 55.2981C16.6219 54.2622 17.3586 53.4196 18.2644 53.4196H35.5418C34.7161 52.939 34.2163 52.0848 34.2163 51.1398V48.8646C34.2163 47.7909 34.8582 46.8339 35.8515 46.425C36.0249 46.3575 36.1369 46.2484 36.1896 46.12C36.2419 45.9928 36.2408 45.8328 36.1849 45.7044C35.7526 44.7604 35.9576 43.5819 36.7105 42.8072L37.7406 41.778H22.4986V40.1436H42.0605C42.5029 39.2457 43.421 38.6563 44.4245 38.6563H46.6992C47.3359 38.6563 47.9247 38.8846 48.3882 39.2738V19.0725C48.3996 17.7076 49.8491 17.745 50.0138 17.745H50.0205C50.7375 17.745 51.3215 18.4118 51.3215 19.2332C51.3215 20.0538 50.7375 20.7225 50.0205 20.7225C49.5543 20.7225 49.1741 21.1547 49.1741 21.6898C49.1741 22.225 49.5543 22.6587 50.0205 22.6587C51.671 22.6587 53.0133 21.1221 53.0133 19.2332C53.0133 17.3437 51.6708 15.8076 50.0463 15.8076H19.9017C18.5015 15.8076 17.3635 17.1106 17.3635 18.7134V51.6062H17.3712C17.3712 51.6138 17.375 51.6176 17.3759 51.6253C15.967 52.0715 14.9302 53.5477 14.9302 55.2988C14.9302 57.4043 16.4251 59.116 18.2644 59.116H38.6914C38.5727 59.0318 38.4586 58.9426 38.3524 58.8384L36.733 57.2175ZM22.4986 23.0284H42.7604V24.6625H22.4986V23.0284ZM22.4986 27.1137H42.7604V28.748H22.4986V27.1137ZM22.4986 31.7548H42.7604V33.3891H22.4986V31.7548ZM22.4986 35.8401H42.7604V37.4742H22.4986V35.8401Z" fill="#A5A7BC"/>
<path d="M49.7767 52.3455C49.9097 52.2919 50.017 52.1884 50.0686 52.0639C50.1203 51.9393 50.1183 51.7921 50.0648 51.6684C49.901 51.2941 49.9853 50.8538 50.2707 50.5675L51.0317 49.805C51.2249 49.6154 51.4722 49.5116 51.7307 49.5116H51.9095L52.1136 49.5902C52.2725 49.6601 52.4065 49.6539 52.527 49.604C52.6554 49.5499 52.7598 49.4451 52.8077 49.3188C52.9522 48.9558 53.2815 48.7256 53.6635 48.6979V47.9883C53.6635 47.9146 53.6156 47.8451 53.5459 47.8155C52.7933 47.5216 52.1855 46.9273 51.8761 46.1821C51.568 45.4353 51.5757 44.5822 51.9012 43.8442C51.9299 43.7776 51.9144 43.6953 51.8629 43.6412L50.2525 42.0323C50.1645 41.9433 50.0993 41.9715 50.0495 41.992C49.3162 42.3166 48.4582 42.3271 47.7135 42.0165C46.9678 41.7097 46.3711 41.0987 46.0782 40.3473C46.0515 40.2794 45.9834 40.2314 45.9068 40.2314H43.633C43.5564 40.2314 43.4876 40.2794 43.4608 40.3473C43.1679 41.0998 42.5722 41.7097 41.8266 42.0165C41.0846 42.3262 40.2276 42.3186 39.4885 41.992C39.4426 41.9733 39.3756 41.9431 39.2856 42.0323L37.6763 43.6412C37.624 43.6953 37.6082 43.7776 37.6383 43.8451C37.9615 44.5842 37.9711 45.4353 37.6628 46.1822C37.354 46.9275 36.7456 47.5216 35.9927 47.8157C35.9228 47.8444 35.8767 47.9108 35.8767 47.9885V50.2643C35.8767 50.3391 35.9226 50.4061 35.9927 50.4348C36.7465 50.7285 37.3531 51.3233 37.6628 52.068C37.9711 52.8148 37.9617 53.667 37.6374 54.407C37.6082 54.4731 37.624 54.5553 37.6763 54.6091L39.2856 56.2193C39.3756 56.3093 39.4397 56.2795 39.4894 56.2558C39.8667 56.0911 40.2698 56.0049 40.6863 56.0049C41.0799 56.0049 41.4637 56.0815 41.8255 56.2327C42.5722 56.541 43.1679 57.1499 43.4608 57.9025C43.4876 57.9694 43.5564 58.0174 43.633 58.0174H45.9068C45.9845 58.0174 46.0495 57.9713 46.0782 57.9025C46.3711 57.149 46.9667 56.541 47.7135 56.2327C48.4391 55.932 49.2645 55.9359 49.9865 56.2307C49.9962 56.135 50.0208 56.0401 50.0611 55.9473C50.1185 55.8189 50.1194 55.6697 50.0679 55.5441C50.0172 55.4206 49.9099 55.3173 49.7835 55.2676C49.3967 55.1125 49.1536 54.7525 49.1536 54.3445V53.2665C49.1516 52.8578 49.3967 52.4958 49.7767 52.3455ZM44.7685 53.549C42.3289 53.549 40.3453 51.566 40.3453 49.1232C40.3453 46.6862 42.3291 44.698 44.7685 44.698C47.2098 44.698 49.1955 46.6851 49.1955 49.1232C49.1955 51.566 47.21 53.549 44.7685 53.549Z" fill="#A5A7BC"/>
<path d="M58.5423 53.1832C58.1843 53.0443 57.8971 52.761 57.7506 52.4096C57.6061 52.0563 57.6081 51.6521 57.7631 51.3026C57.7764 51.2701 57.7687 51.2307 57.7448 51.204L56.9837 50.443C56.9407 50.4018 56.9091 50.4154 56.8851 50.4248C56.5376 50.577 56.1317 50.5837 55.7793 50.4361C55.4251 50.2906 55.1426 50.0014 55.0039 49.6449C54.9904 49.6124 54.9597 49.5898 54.9234 49.5898H53.8454C53.8091 49.5898 53.7764 49.6113 53.7649 49.6449C53.626 50.0005 53.3428 50.2897 52.9913 50.4361C52.6391 50.5835 52.233 50.5788 51.8828 50.4248C51.8617 50.4152 51.829 50.4018 51.7871 50.443L51.0249 51.204C51.0001 51.23 50.9924 51.269 51.0059 51.3026C51.162 51.6521 51.1638 52.0561 51.0173 52.4096C50.8717 52.761 50.5827 53.0443 50.2274 53.1832C50.1938 53.1975 50.1709 53.2282 50.1709 53.2654V54.3444C50.1709 54.3789 50.1938 54.4105 50.2274 54.4248C50.5827 54.5646 50.8717 54.846 51.0173 55.1984C51.1638 55.5506 51.1609 55.9557 51.0059 56.307C50.9926 56.3376 51.0002 56.376 51.0249 56.4026L51.7871 57.1648C51.829 57.2067 51.8608 57.1924 51.8828 57.183C52.0627 57.1044 52.2522 57.0633 52.4496 57.0633C52.6362 57.0633 52.817 57.0996 52.9895 57.1706C53.3428 57.3171 53.6262 57.6054 53.7649 57.9624C53.7773 57.9949 53.8109 58.017 53.8454 58.017H54.9234C54.9597 58.017 54.9904 57.9969 55.0039 57.9624C55.1428 57.6071 55.4251 57.318 55.7793 57.1706C56.1315 57.025 56.5376 57.0299 56.886 57.183C56.9091 57.1937 56.9398 57.2049 56.9817 57.1648L57.7439 56.4026C57.7687 56.3767 57.7764 56.3384 57.7611 56.307C57.6079 55.9566 57.6041 55.5506 57.7497 55.1984C57.8953 54.8462 58.1845 54.5646 58.5404 54.4248C58.573 54.4105 58.5961 54.3789 58.5961 54.3444V53.2654C58.5968 53.23 58.5739 53.1975 58.5423 53.1832ZM54.3833 55.8994C53.2266 55.8994 52.2884 54.9591 52.2884 53.8026C52.2884 52.6479 53.2266 51.7059 54.3833 51.7059C55.5398 51.7059 56.4801 52.6477 56.4801 53.8026C56.4801 54.9591 55.54 55.8994 54.3833 55.8994Z" fill="#A5A7BC"/>
</svg>
