<svg width="73" height="100" viewBox="0 0 73 100" fill="none" xmlns="http://www.w3.org/2000/svg">
<path d="M72.7236 23.9626C72.7198 23.5041 72.5733 23.0521 72.2585 22.6931L52.9778 0.668844C52.9722 0.663579 52.9666 0.660674 52.9626 0.655954C52.8477 0.526687 52.7137 0.421931 52.5721 0.328612C52.5299 0.301379 52.4878 0.275962 52.4437 0.251997C52.3212 0.184459 52.191 0.130537 52.057 0.0902322C52.0205 0.0797021 51.988 0.0639069 51.9517 0.0561001C51.8061 0.0206971 51.6549 0 51.5016 0H4.11736C1.9536 0 0.195801 1.75889 0.195801 3.92174V96.0784C0.195801 98.2402 1.9536 100 4.11736 100H68.8231C70.9851 100 72.7449 98.2404 72.7449 96.0784V24.1824C72.7447 24.1087 72.7332 24.0364 72.7236 23.9626ZM18.6969 92.691L16.7586 88.8183C15.9654 87.3275 15.4583 86.217 14.8557 84.9782H14.7931C14.3488 86.217 13.8083 87.3275 13.142 88.8183L11.3646 92.691H5.8443L12.0311 81.8684L6.06634 71.3025H11.6193L13.4901 75.2048C14.1253 76.5069 14.6006 77.5543 15.1095 78.7588H15.1724C15.6802 77.3955 16.0919 76.4438 16.6315 75.2048L18.441 71.3025H23.9619L17.9322 81.7431L24.2802 92.6912H18.6969V92.691ZM45.2918 92.691L44.9739 84.5031C44.8782 81.9316 44.7823 78.8219 44.7823 75.7121H44.6885C44.0221 78.4418 43.1338 81.4882 42.3085 83.9948L39.7063 92.3406H35.9278L33.644 84.059C32.947 81.5523 32.2175 78.506 31.7075 75.7121H31.6449C31.5185 78.5997 31.4223 81.9009 31.2635 84.5654L30.8842 92.6901H26.4094L27.7751 71.3005H34.2164L36.3112 78.4419C36.9777 80.9158 37.644 83.5814 38.1188 86.0888H38.2144C38.8175 83.6148 39.5472 80.7903 40.246 78.4103L42.5305 71.3005H48.8455L50.0192 92.6901H45.2916V92.691H45.2918ZM67.096 92.691H53.7342V71.3023H58.5902V88.6295H67.096V92.691ZM68.8231 66.5843H4.11736V3.92174H49.5407V23.9852C49.5407 25.0677 50.4197 25.946 51.5016 25.946H68.8231V66.5843Z" fill="#2B74B9"/>
<path d="M7.90771 42.6444L19.2252 47.902V45.4031L10.6664 41.6538V41.6061L19.2252 37.8574V35.3579L7.90771 40.6155V42.6444Z" fill="#2B74B9"/>
<path d="M54.885 37.8574L63.6339 41.6061V41.6538L54.885 45.4031V47.902L66.2027 42.7147V40.5451L54.885 35.3579V37.8574Z" fill="#2B74B9"/>
<path d="M36.8303 28.1255C29.372 28.1255 23.3259 34.1716 23.3259 41.6293C23.3259 49.0869 29.372 55.1336 36.8303 55.1336C44.2885 55.1336 50.3337 49.0869 50.3337 41.6293C50.3337 34.1714 44.2885 28.1255 36.8303 28.1255ZM41.9054 33.4853L42.8715 32.839C42.8715 32.839 42.4655 31.7989 42.5345 31.2891C42.7682 31.175 43.7197 31.6743 44.5231 32.5202C43.9822 34.5341 42.7126 34.294 42.7126 34.294C42.7126 34.294 41.784 34.2716 41.9054 33.4853ZM33.7655 45.3756C33.7055 45.6772 33.3419 46.4039 33.1004 46.8863C32.8591 47.3694 32.7386 47.5517 32.4347 47.793C32.132 48.0381 31.9526 48.4584 31.9526 48.4584L31.8918 49.4853C31.8918 49.4853 32.0106 50.333 32.1919 50.6356C32.3728 50.9361 31.5447 52.7369 31.5447 52.7369C31.0191 52.6327 30.7271 52.0238 30.5447 51.5432C30.3622 51.0577 30.122 50.8001 30.1828 50.2583C30.2437 49.7135 29.7132 49.4263 29.5336 49.1243C29.3537 48.8182 29.1104 48.3981 29.1104 48.096C29.1104 47.793 28.4465 47.3694 28.4465 47.3694C28.4465 47.3694 27.2368 46.8255 27.0554 46.5853C26.8738 46.3431 26.6905 45.3124 26.6317 44.8921C26.5699 44.4704 26.8121 43.3823 26.8121 43.3823C26.8121 43.3823 27.3003 43.0156 26.9937 42.7166C26.6907 42.415 26.6327 41.6265 26.6327 41.6265L26.0881 41.0234C26.0881 41.0234 25.6634 40.4188 25.6037 40.1157C25.5431 39.8137 25.6037 39.6322 25.6645 39.3297C25.7244 39.0258 25.5438 38.4833 25.5438 38.1823C27.8029 32.6442 31.5899 31.3521 31.5899 31.3521L31.8929 32.6188C31.8929 32.6188 31.2281 32.801 30.8677 32.6814C30.5029 32.5599 30.3194 32.5599 30.3194 32.5599L29.8379 33.2239C29.8379 33.2239 29.6536 33.648 29.5937 33.8902C29.5338 34.1324 29.7144 34.4933 29.7144 34.4933C29.7144 34.4933 30.5599 34.5541 30.5599 34.3128C30.5599 34.0706 30.4412 33.9499 30.4412 33.9499L30.3196 33.5267C30.3196 33.5267 30.8679 33.2237 32.3134 33.343C33.7647 33.4655 33.2224 34.4924 33.8284 34.7364C34.4332 34.9782 33.3421 35.8235 33.1008 36.3061C32.8595 36.7901 32.4968 35.701 32.4968 35.701C32.4968 35.701 32.8597 35.2825 32.256 35.1576C31.6509 35.0394 31.2507 36.2462 31.5565 36.1872C31.8577 36.1275 32.1952 36.5127 32.1333 36.8134C32.0726 37.1164 32.0726 37.093 31.7704 37.7569C31.4682 38.4214 30.8116 38.9136 30.8116 38.9136C30.8116 38.9136 30.5027 38.7253 30.6814 39.0892C30.8668 39.4512 30.6215 40.297 30.6215 40.5392C30.6215 40.7794 29.8958 40.1155 29.7771 39.5094C29.6536 38.9087 28.9461 39.4325 28.7048 39.4942C28.4626 39.5559 28.0213 39.3889 27.9049 39.0892C27.7814 38.7852 26.6919 39.6919 26.3887 39.8724C26.0881 40.0547 26.2106 40.5392 26.6918 40.297C27.1752 40.0548 27.5979 40.2362 27.4782 40.7226C27.3586 41.2028 26.876 40.904 26.9349 41.2028C26.9948 41.5049 27.4782 41.8079 27.5979 42.2326C27.7193 42.6538 28.8702 42.2934 29.2321 42.1109C29.5935 41.9276 30.6222 41.748 30.7419 42.2326C30.8673 42.7166 32.0133 42.8951 32.4356 43.0147C32.8602 43.1362 33.7064 43.197 34.1914 43.6805C34.6732 44.1654 33.8294 45.0726 33.7655 45.3756ZM36.4855 31.2284C36.4241 31.8344 35.4597 32.6186 35.5797 32.8628C35.7012 33.107 35.5797 34.1404 34.7339 33.2322C33.8869 32.3256 33.0387 32.0178 33.1015 31.4107C33.1164 31.29 33.977 31.101 33.9908 30.8889C35.2729 29.697 37.3203 29.9421 37.4771 30.2244C37.1099 30.8234 36.5469 30.6233 36.4855 31.2284ZM46.9904 35.2883C47.8079 36.691 49.0029 40.4325 48.5613 41.1008C48.2961 40.9811 48.0732 40.8814 48.0732 40.8814H46.4599L47.4259 42.0118C47.4259 42.0118 47.894 42.6977 48.5566 42.6538C48.1202 47.7099 43.9007 50.9573 43.9007 50.9573C43.2564 50.3119 43.5792 49.75 43.5792 49.75L43.76 48.7801L43.8624 47.1489C43.8624 47.1489 43.8624 45.458 42.2491 46.2607C40.5162 46.7031 41.2382 46.7031 39.4889 46.8242C37.7358 46.9459 38.026 43.2502 38.026 43.2502C38.026 37.7177 42.2682 41.8931 42.2682 41.8931C44.6884 43.5029 45.0111 40.5579 45.0111 40.5579L46.7832 39.9156L46.9443 39.108L46.6866 37.9817L44.1111 36.9189C44.1111 36.9189 43.8631 37.7555 44.5236 38.7843C44.5236 38.7843 44.3034 39.9528 43.7616 39.6507L42.2689 38.9011C42.2689 38.9011 41.7662 38.6832 40.9611 39.1687C40.1531 39.6507 38.7869 39.1447 38.7869 39.1447C38.7869 39.1447 38.8978 38.3343 39.746 37.9134L40.4392 37.4557C40.4392 37.4557 40.2573 36.628 40.4161 35.9842C40.5752 35.3399 40.8604 35.904 41.5038 35.4194C42.1481 34.9385 42.5924 36.3664 43.5583 36.2061C44.5243 36.0443 44.0428 35.8835 44.6892 35.5617C45.3355 35.2391 45.8179 36.2061 45.8179 36.2061L47.1047 36.3664C47.1053 36.3673 46.9041 34.9105 46.9904 35.2883Z" fill="#2B74B9"/>
</svg>
