<svg width="300" height="163" viewBox="0 0 300 163" fill="none" xmlns="http://www.w3.org/2000/svg">
<g clip-path="url(#clip0)">
<path d="M150.963 162.857C232.31 162.857 298.255 158.499 298.255 153.123C298.255 147.746 232.31 143.388 150.963 143.388C69.6152 143.388 3.67004 147.746 3.67004 153.123C3.67004 158.499 69.6152 162.857 150.963 162.857Z" fill="#E6E8F7"/>
<path d="M145.317 46.5547C121.319 46.5547 104.089 61.9251 104.089 97.7893C104.089 138.435 121.319 149.195 145.317 149.195C169.315 149.195 187.572 137.411 187.572 97.7893C187.572 55.4354 169.315 46.5547 145.317 46.5547ZM145.475 135.703C128.853 135.703 120.17 125.968 120.17 97.8155C120.17 72.9752 129.209 59.8757 145.83 59.8757C162.452 59.8757 171.491 68.4803 171.491 97.8155C171.491 125.258 162.097 135.703 145.475 135.703Z" fill="#2F2E41"/>
<path d="M89.719 120.845H79.7968V91.6761C79.7968 90.1268 79.1803 88.641 78.083 87.5455C76.9856 86.45 75.4973 85.8345 73.9454 85.8345H71.6204C70.852 85.8345 70.0911 85.9856 69.3812 86.2792C68.6712 86.5727 68.0262 87.003 67.4828 87.5455C66.9395 88.0879 66.5084 88.7319 66.2144 89.4406C65.9203 90.1493 65.769 90.9089 65.769 91.6761V120.845H37.7819C37.2062 120.845 36.6402 120.696 36.1389 120.414C35.6376 120.131 35.218 119.724 34.9209 119.231C34.6237 118.739 34.459 118.178 34.4428 117.604C34.4266 117.029 34.5594 116.46 34.8284 115.952L64.4495 59.9836C64.8188 59.2858 65.0427 58.5206 65.1075 57.7341C65.1724 56.9475 65.0769 56.156 64.8269 55.4074C64.5769 54.6587 64.1776 53.9683 63.6529 53.378C63.1283 52.7876 62.4892 52.3095 61.7744 51.9725L60.0258 51.1482C58.668 50.5081 57.1157 50.4136 55.6901 50.8842C54.2645 51.3548 53.0747 52.3546 52.3668 53.6765L16.2399 121.144C15.6247 122.293 15.3029 123.576 15.3029 124.878V124.878C15.3029 125.919 15.5081 126.949 15.9068 127.91C16.3056 128.871 16.89 129.744 17.6268 130.479C18.3636 131.215 19.2383 131.798 20.2009 132.197C21.1636 132.595 22.1954 132.799 23.2373 132.799H65.769V151.244C65.769 152.163 65.9504 153.074 66.3029 153.923C66.6553 154.773 67.172 155.545 67.8233 156.195C68.4746 156.845 69.2478 157.361 70.0988 157.713C70.9497 158.065 71.8618 158.246 72.7829 158.246H72.7829C73.704 158.246 74.616 158.065 75.467 157.713C76.318 157.361 77.0912 156.845 77.7425 156.195C78.3938 155.545 78.9104 154.773 79.2629 153.923C79.6154 153.074 79.7968 152.163 79.7968 151.244V132.799H89.719C91.307 132.799 92.8299 132.17 93.9528 131.049C95.0756 129.928 95.7065 128.407 95.7065 126.822V126.822C95.7065 125.237 95.0757 123.716 93.9528 122.595C92.8299 121.475 91.307 120.845 89.719 120.845V120.845Z" fill="#6C63FF"/>
<path d="M273.45 120.845H263.528V91.6761C263.528 90.1268 262.911 88.641 261.814 87.5455C260.717 86.45 259.228 85.8345 257.676 85.8345H255.351C254.583 85.8345 253.822 85.9856 253.112 86.2792C252.402 86.5727 251.757 87.003 251.214 87.5455C250.67 88.0879 250.239 88.7319 249.945 89.4406C249.651 90.1493 249.5 90.9089 249.5 91.6761V120.845H221.513C220.937 120.845 220.371 120.696 219.87 120.414C219.369 120.131 218.949 119.724 218.652 119.231C218.355 118.739 218.19 118.178 218.174 117.604C218.157 117.029 218.29 116.46 218.559 115.952L248.18 59.9836C248.55 59.2859 248.774 58.5206 248.838 57.7341C248.903 56.9475 248.808 56.156 248.558 55.4074C248.308 54.6587 247.908 53.9683 247.384 53.378C246.859 52.7876 246.22 52.3095 245.505 51.9725L243.757 51.1482C242.399 50.5081 240.847 50.4136 239.421 50.8842C237.995 51.3548 236.806 52.3546 236.098 53.6765L199.971 121.144C199.356 122.293 199.034 123.576 199.034 124.878V124.878C199.034 126.979 199.87 128.994 201.358 130.479C202.846 131.965 204.864 132.799 206.968 132.799H249.5V151.244C249.5 153.101 250.239 154.882 251.554 156.195C252.87 157.508 254.654 158.246 256.514 158.246V158.246C258.374 158.246 260.158 157.508 261.473 156.195C262.789 154.882 263.528 153.101 263.528 151.244V132.799H273.45C275.038 132.799 276.561 132.17 277.684 131.049C278.807 129.928 279.437 128.407 279.437 126.822V126.822C279.437 125.237 278.807 123.716 277.684 122.595C276.561 121.475 275.038 120.845 273.45 120.845Z" fill="#6C63FF"/>
<path d="M92.4562 117.429H82.534V88.2605C82.534 87.4934 82.3827 86.7338 82.0886 86.025C81.7945 85.3163 81.3635 84.6723 80.8202 84.1299C80.2768 83.5875 79.6317 83.1572 78.9218 82.8636C78.2119 82.5701 77.451 82.419 76.6826 82.419H74.3576C72.8057 82.419 71.3174 83.0344 70.22 84.1299C69.1226 85.2254 68.5061 86.7112 68.5061 88.2605V117.429H40.5191C39.9434 117.429 39.3774 117.281 38.8761 116.998C38.3748 116.715 37.9552 116.308 37.658 115.816C37.3609 115.323 37.1962 114.763 37.18 114.188C37.1638 113.614 37.2966 113.045 37.5656 112.537L67.1867 56.5681C67.556 55.8703 67.7799 55.105 67.8447 54.3185C67.9096 53.532 67.8141 52.7405 67.5641 51.9918C67.3141 51.2431 66.9147 50.5527 66.3901 49.9624C65.8655 49.372 65.2264 48.8939 64.5116 48.5569L62.763 47.7326C61.4052 47.0925 59.8529 46.998 58.4273 47.4686C57.0017 47.9392 55.8119 48.939 55.104 50.2609L18.9771 117.729C18.3619 118.878 18.04 120.16 18.04 121.463V121.463C18.04 123.564 18.876 125.578 20.364 127.064C21.852 128.549 23.8702 129.384 25.9745 129.384H68.5061V147.828C68.5061 148.748 68.6876 149.658 69.0401 150.508C69.3925 151.357 69.9092 152.129 70.5605 152.78C71.2118 153.43 71.985 153.946 72.836 154.297C73.6869 154.649 74.599 154.83 75.5201 154.83H75.5201C77.3803 154.83 79.1643 154.093 80.4797 152.78C81.795 151.466 82.534 149.685 82.534 147.828V129.384H92.4562C93.2424 129.384 94.021 129.229 94.7475 128.929C95.4739 128.629 96.134 128.188 96.69 127.633C97.246 127.078 97.687 126.419 97.9879 125.694C98.2888 124.969 98.4437 124.192 98.4437 123.407V123.407C98.4437 122.622 98.2888 121.844 97.9879 121.119C97.687 120.394 97.246 119.735 96.69 119.18C96.134 118.625 95.4739 118.185 94.7475 117.884C94.0211 117.584 93.2425 117.429 92.4562 117.429V117.429Z" stroke="#3F3D56" stroke-miterlimit="10"/>
<path d="M278.582 117.429H268.66V88.2605C268.66 86.7112 268.043 85.2254 266.946 84.1299C265.849 83.0344 264.36 82.419 262.808 82.419H260.483C259.715 82.419 258.954 82.5701 258.244 82.8636C257.534 83.1572 256.889 83.5875 256.346 84.1299C255.803 84.6723 255.371 85.3163 255.077 86.025C254.783 86.7338 254.632 87.4934 254.632 88.2605V117.429H226.645C226.069 117.429 225.503 117.281 225.002 116.998C224.501 116.715 224.081 116.308 223.784 115.816C223.487 115.323 223.322 114.763 223.306 114.188C223.29 113.614 223.422 113.045 223.691 112.537L253.313 56.5681C253.682 55.8703 253.906 55.105 253.971 54.3185C254.035 53.532 253.94 52.7405 253.69 51.9918C253.44 51.2431 253.041 50.5527 252.516 49.9624C251.991 49.372 251.352 48.8939 250.637 48.5569L248.889 47.7326C247.531 47.0925 245.979 46.998 244.553 47.4686C243.128 47.9392 241.938 48.939 241.23 50.2609L205.103 117.729C204.488 118.878 204.166 120.16 204.166 121.463C204.166 123.564 205.002 125.578 206.49 127.064C207.978 128.549 209.996 129.384 212.1 129.384H254.632V147.828C254.632 149.685 255.371 151.466 256.686 152.78C258.002 154.093 259.786 154.83 261.646 154.83V154.83C263.506 154.83 265.29 154.093 266.606 152.78C267.921 151.466 268.66 149.685 268.66 147.828V129.384H278.582C279.368 129.384 280.147 129.229 280.873 128.929C281.6 128.629 282.26 128.188 282.816 127.633C283.372 127.078 283.813 126.419 284.114 125.694C284.415 124.969 284.57 124.192 284.57 123.407V123.407C284.57 121.821 283.939 120.301 282.816 119.18C281.693 118.059 280.17 117.429 278.582 117.429V117.429Z" stroke="#3F3D56" stroke-miterlimit="10"/>
<path d="M150.792 43.4807C126.794 43.4807 109.563 58.8511 109.563 94.7153C109.563 135.361 126.794 146.121 150.792 146.121C174.79 146.121 193.046 134.337 193.046 94.7153C193.046 52.3614 174.79 43.4807 150.792 43.4807ZM150.949 132.629C134.328 132.629 125.644 122.894 125.644 94.7415C125.644 69.9012 134.683 56.8017 151.305 56.8017C167.926 56.8017 176.966 65.4062 176.966 94.7415C176.966 122.184 167.571 132.629 150.949 132.629V132.629Z" stroke="#3F3D56" stroke-miterlimit="10"/>
<path d="M131.556 8.68368C133.545 8.68368 135.158 7.07358 135.158 5.08741C135.158 3.10125 133.545 1.49115 131.556 1.49115C129.566 1.49115 127.953 3.10125 127.953 5.08741C127.953 7.07358 129.566 8.68368 131.556 8.68368Z" fill="#2F2E41"/>
<path d="M140.342 26.1387C145.922 26.1387 150.446 20.2873 150.446 13.0693C150.446 5.85135 145.922 0 140.342 0C134.762 0 130.238 5.85135 130.238 13.0693C130.238 20.2873 134.762 26.1387 140.342 26.1387Z" fill="#2F2E41"/>
<path opacity="0.1" d="M140.342 22.1916C135.28 22.1916 131.088 17.3774 130.352 11.0958C130.276 11.7509 130.238 12.4099 130.238 13.0694C130.238 20.2874 134.762 26.1387 140.342 26.1387C145.922 26.1387 150.446 20.2874 150.446 13.0694C150.446 12.4099 150.408 11.7509 150.331 11.0958C149.596 17.3774 145.404 22.1916 140.342 22.1916Z" fill="black"/>
<path d="M160.903 51.3435C160.686 52.2337 159.75 52.9466 158.714 53.4447C156.535 54.4919 153.848 54.8044 151.242 54.9093C150.577 54.9497 149.91 54.9374 149.247 54.8725C147.962 54.7485 146.757 54.1954 145.826 53.3027C145.76 53.2595 145.705 53.2002 145.668 53.1303C145.631 53.0604 145.612 52.9822 145.613 52.903C145.614 52.8238 145.636 52.7463 145.675 52.6775C145.715 52.6088 145.771 52.5512 145.838 52.51C147.226 50.9883 149.542 50.0553 151.874 49.3835C153.643 48.8741 156.728 47.5546 158.657 47.7326C160.525 47.9051 161.177 50.2195 160.903 51.3435Z" fill="#3F3D56"/>
<path opacity="0.1" d="M160.903 51.3435C160.686 52.2337 159.75 52.9466 158.714 53.4447C156.535 54.4919 153.848 54.8044 151.242 54.9093C150.577 54.9497 149.91 54.9374 149.247 54.8725C147.962 54.7485 146.757 54.1954 145.826 53.3027C145.76 53.2595 145.705 53.2002 145.668 53.1303C145.631 53.0604 145.612 52.9822 145.613 52.903C145.614 52.8238 145.636 52.7463 145.675 52.6775C145.715 52.6088 145.771 52.5512 145.838 52.51C147.226 50.9883 149.542 50.0553 151.874 49.3835C153.643 48.8741 156.728 47.5546 158.657 47.7326C160.525 47.9051 161.177 50.2195 160.903 51.3435Z" fill="black"/>
<path d="M133.204 44.6903C132.539 45.9914 132.418 47.5028 132.869 48.8925C133.327 50.2716 134.185 51.484 135.334 52.376C138.153 54.6316 142.033 54.942 145.645 54.9107C148.811 54.8832 151.972 54.6669 155.112 54.2629C156.164 54.1698 157.198 53.9301 158.184 53.5508C159.363 53.0416 160.399 52.1076 160.819 50.8955C161.239 49.6835 160.941 48.1993 159.944 47.3904C159.068 46.6796 157.86 46.5819 156.733 46.5143L150.287 46.1275C150.924 45.484 151.772 45.1201 152.547 44.6523C153.576 44.0317 154.26 42.9897 155.008 42.0502C156.161 40.6747 157.415 39.3873 158.76 38.1987C158.97 39.4002 159.732 40.3869 160.628 41.2159C161.524 42.0449 162.557 42.7124 163.488 43.5017C165.744 45.4135 167.368 48.0083 169.741 49.7738C171.373 49.3457 172.898 48.5853 174.222 47.5404L173.3 45.873C173.223 45.7014 173.103 45.5524 172.952 45.4402C172.691 45.2799 172.355 45.3625 172.052 45.3171C171.242 45.1959 170.888 44.2623 170.57 43.5087C169.698 41.4399 168.027 39.8348 166.6 38.0998C165.547 36.8192 164.613 35.4455 163.809 33.9958C163.33 33.1312 162.891 32.231 162.241 31.4861C161.59 30.7412 160.679 30.1556 159.689 30.1535C158.814 30.1517 158.008 30.5949 157.256 31.0408C154.965 32.3989 152.762 33.8977 150.657 35.5285C149.556 36.3819 148.462 37.2836 147.17 37.807C146.626 38.0273 146.053 38.1779 145.531 38.446C144.617 38.9155 143.924 39.7099 143.177 40.4151C140.514 42.9304 136.868 44.56 133.204 44.6903Z" fill="#3F3D56"/>
<path d="M146.684 26.7878C146.654 27.5566 146.49 28.3144 146.2 29.0271C146.053 29.3826 145.834 29.704 145.556 29.9712C145.279 30.2385 144.95 30.4459 144.589 30.5805C144.077 30.7176 143.539 30.735 143.019 30.6314C142.565 30.5841 142.128 30.4354 141.74 30.1963C141.135 29.7814 140.834 29.0411 140.724 28.3166C140.614 27.593 140.663 26.8536 140.593 26.1247C140.525 25.5359 140.413 24.9531 140.258 24.3809C140.21 24.1906 140.162 24.0011 140.114 23.8116C140.068 23.6222 140.022 23.4327 139.98 23.2433C139.941 23.0652 139.905 22.8863 139.874 22.7065C139.849 22.5547 139.826 22.4021 139.809 22.2486C139.794 21.7935 139.718 21.3425 139.584 20.9075C139.457 20.6253 139.299 20.3584 139.113 20.1119C139.033 19.9979 138.955 19.8838 138.884 19.7654C138.678 19.4577 138.583 19.0896 138.613 18.7207C138.621 18.6637 138.635 18.6076 138.654 18.5532C138.661 18.5322 138.669 18.5111 138.678 18.4909C138.757 18.4695 138.829 18.4292 138.889 18.3734C138.949 18.3176 138.994 18.248 139.021 18.1708C139.052 18.0048 139.037 17.8339 138.98 17.6752C138.914 17.4535 138.825 17.2396 138.712 17.0375C138.638 16.9042 138.388 16.6638 138.386 16.5112C138.383 16.2042 138.984 15.9569 139.227 15.8358C139.97 15.4644 140.798 15.2968 141.627 15.3499C142.159 15.3858 142.735 15.549 143.029 15.9937C143.292 16.3946 143.257 16.9138 143.37 17.3796C143.381 17.4473 143.41 17.5109 143.453 17.5647C143.51 17.6168 143.583 17.6499 143.66 17.6594C143.79 17.6852 143.923 17.6906 144.055 17.6752H144.056C144.091 17.6724 144.125 17.6674 144.16 17.6603C144.365 17.6225 144.559 17.5388 144.727 17.4155C144.836 17.3866 144.946 17.3629 145.057 17.3445C145.061 17.344 145.066 17.3432 145.07 17.3419C145.51 18.7286 145.567 20.2154 145.927 21.6276C146.106 22.3301 146.361 23.024 146.397 23.7467C146.4 23.7783 146.401 23.8107 146.402 23.8432C146.407 24.0756 146.389 24.3098 146.398 24.5414C146.402 24.6457 146.413 24.7495 146.433 24.8519C146.473 25.0166 146.522 25.1789 146.58 25.3378L146.583 25.3457C146.599 25.3966 146.615 25.4484 146.628 25.5001C146.638 25.5378 146.647 25.5747 146.654 25.6124L146.655 25.615C146.72 26.0026 146.73 26.3974 146.684 26.7878V26.7878Z" fill="#FBBEBE"/>
<path d="M140.518 17.7182C143.381 17.7182 145.701 15.4012 145.701 12.5431C145.701 9.68496 143.381 7.36798 140.518 7.36798C137.655 7.36798 135.334 9.68496 135.334 12.5431C135.334 15.4012 137.655 17.7182 140.518 17.7182Z" fill="#FBBEBE"/>
<path d="M173.429 40.7395C173.279 39.3276 172.776 37.9759 171.967 36.8082C172.102 37.6064 172.236 38.4043 172.371 39.2019C172.204 39.2504 172.025 39.2489 171.858 39.1977C171.691 39.1464 171.543 39.0476 171.431 38.9133C171.213 38.6412 171.046 38.3319 170.938 38.0002C170.349 36.5407 169.579 35.1607 168.646 33.8926C165.346 33.6181 162.083 32.2524 159.181 30.6604C156.278 29.0692 153.562 27.1615 150.697 25.5028C150.201 25.2031 149.684 24.9393 149.149 24.7134C148.253 24.3546 147.247 24.1686 146.397 23.7467C146.34 23.7187 146.283 23.6889 146.227 23.6582C146.035 23.5539 145.853 23.4321 145.684 23.2941C145.592 23.22 145.506 23.1403 145.424 23.0556C145 22.5632 144.664 22.0019 144.43 21.396C143.974 20.3891 143.812 19.1742 143.357 18.1673C143.566 17.9721 143.801 17.8065 144.055 17.6752H144.056C144.093 17.6559 144.13 17.6375 144.167 17.6199C144.348 17.5353 144.535 17.4669 144.727 17.4156C144.836 17.3866 144.946 17.3629 145.057 17.3445C145.061 17.3441 145.066 17.3432 145.07 17.3419C145.583 17.2584 146.109 17.2999 146.603 17.4629C147.325 17.7068 147.934 18.1936 148.541 18.6541C149.528 19.3478 150.474 20.0969 151.375 20.8978C151.876 21.3767 152.333 21.903 152.871 22.3381C153.319 22.6829 153.791 22.9951 154.283 23.2722C157.197 25.0054 160.112 26.7384 163.027 28.471C164.014 29.0578 165.001 29.6446 165.966 30.2656C167.432 31.2094 168.845 32.2322 170.256 33.254C171.089 33.8557 171.92 34.4578 172.752 35.0601C173.025 35.2338 173.264 35.4548 173.459 35.7127C173.631 36.0054 173.738 36.3318 173.773 36.6696C173.981 38.0343 173.864 39.429 173.429 40.7395V40.7395Z" fill="#FBBEBE"/>
<path d="M147.969 30.6796C147.62 32.2453 146.035 33.1917 145.206 34.5671C144.176 36.274 144.596 38.2581 144.983 40.2132C144.276 40.8211 143.57 41.4289 142.863 42.0368C142.473 42.3709 142.082 42.7069 141.663 43.0025C141.05 43.4121 140.41 43.7791 139.747 44.1007C139.122 44.4217 138.496 44.743 137.87 45.0646C137.289 45.3911 136.673 45.6517 136.033 45.8418C134.8 46.1576 133.491 45.9365 132.272 45.5707C132.128 45.5331 131.99 45.4768 131.861 45.4032C131.784 45.3579 131.718 45.298 131.666 45.2269C131.545 45.0117 131.502 44.7622 131.542 44.5191C131.665 42.4701 132.167 40.4641 132.667 38.4729C132.934 37.2784 133.294 36.1063 133.742 34.967C134.181 33.9908 134.686 33.0455 135.254 32.1374C135.88 30.9949 136.622 29.9194 137.468 28.9279C137.88 28.5463 138.226 28.1001 138.494 27.607C138.806 26.8965 138.686 26.0816 138.749 25.308C138.797 24.7267 138.952 24.1593 139.205 23.6335V23.6327C139.34 23.3495 139.503 23.0804 139.692 22.8292C139.777 23.0274 139.862 23.2254 139.947 23.423C140.004 23.5528 140.059 23.6824 140.114 23.8116C140.186 23.9783 140.258 24.1443 140.329 24.3098C140.533 24.7852 140.738 25.2604 140.942 25.7352C141.163 26.3332 141.477 26.8925 141.873 27.3921C142.055 27.6479 142.299 27.8525 142.583 27.9857C142.867 28.119 143.181 28.1765 143.494 28.1525C143.807 28.1286 144.108 28.024 144.368 27.8491C144.629 27.6741 144.839 27.4348 144.979 27.1544C145.275 26.631 145.489 26.0658 145.614 25.4782C145.787 24.7627 145.811 24.0192 145.684 23.2941C145.472 21.8977 144.877 20.4715 144.445 19.1742C144.269 18.7416 144.167 18.2826 144.144 17.8164C144.145 17.764 144.15 17.7118 144.16 17.6603C144.162 17.6471 144.165 17.6331 144.167 17.6199C144.348 17.5352 144.535 17.4668 144.727 17.4155C144.836 17.3866 144.946 17.3629 145.057 17.3445C145.437 19.4005 145.818 21.4565 146.2 23.5125C146.209 23.5608 146.218 23.609 146.227 23.6581C146.281 23.9528 146.337 24.2476 146.398 24.5414C146.454 24.808 146.513 25.0738 146.58 25.3378L146.583 25.3457C146.606 25.4352 146.629 25.5238 146.654 25.6124L146.655 25.615C146.723 25.8571 146.798 26.0974 146.883 26.3343C147.4 27.7614 148.301 29.1981 147.969 30.6796Z" fill="#6C63FF"/>
<path d="M169.007 52.6826C168.991 52.9842 169.05 53.2852 169.178 53.5588C169.502 54.1507 170.281 54.2853 170.954 54.3406C174.889 54.6636 178.848 54.5431 182.756 53.9817C182.968 53.9672 183.174 53.9035 183.357 53.7956C183.912 53.4067 183.57 52.4589 182.963 52.1555C182.357 51.8521 181.637 51.9252 180.971 51.7938C180.309 51.6276 179.68 51.355 179.106 50.9865C177.756 50.2122 176.426 49.4049 175.115 48.5647C174.335 48.0644 173.414 47.5305 172.535 47.8271C170.155 48.631 168.992 50.119 169.007 52.6826Z" fill="#3F3D56"/>
<path d="M140 23.1337V23.1345C139.994 23.1714 139.988 23.2073 139.98 23.2433C139.97 23.303 139.959 23.3635 139.947 23.4231C139.838 23.9801 139.705 24.5344 139.551 25.0853C139.129 26.6071 138.564 28.1044 138.004 29.5797C136.5 33.5356 134.995 37.4918 133.49 41.4483C133.111 42.4447 132.732 43.442 132.301 44.4183C132.157 44.7437 132.008 45.0717 131.861 45.4033C131.332 46.59 130.824 47.8154 130.655 49.0785C130.498 49.9098 130.48 50.7613 130.601 51.5985C130.77 52.4265 131.274 53.2353 132.062 53.5414C132.447 53.6914 132.997 53.8922 132.892 54.2913C132.835 54.5106 132.585 54.6176 132.361 54.6545C132.065 54.7015 131.763 54.683 131.475 54.6003C131.187 54.5175 130.921 54.3725 130.695 54.1756C130.275 53.8028 129.951 53.223 129.392 53.1607C129.004 53.1186 128.647 53.3502 128.292 53.5124C126.844 54.1729 125.157 53.7107 123.637 53.2414C123.756 52.6265 124.375 52.2213 124.989 52.0985C125.603 51.9748 126.238 52.0625 126.865 52.0459C127.065 52.0565 127.264 52.0054 127.435 51.8994C127.588 51.7593 127.695 51.5765 127.742 51.3748C128.146 50.1812 128.446 48.9551 128.639 47.7102C128.842 46.4094 128.926 45.0884 129.214 43.8034C129.438 42.8008 129.784 41.8298 130.081 40.8457C130.656 38.8194 131.127 36.7654 131.494 34.6917C131.68 33.8301 131.813 32.9581 131.892 32.0805C131.942 31.3524 131.919 30.6209 131.989 29.8955C132.107 28.9518 132.304 28.0196 132.578 27.1088C132.847 26.115 133.116 25.1218 133.384 24.1292C133.782 22.66 134.209 21.1338 135.218 19.9917C135.568 19.5897 135.997 19.2638 136.479 19.0341C136.961 18.8045 137.485 18.676 138.018 18.6567C138.218 18.6565 138.417 18.678 138.613 18.7208C138.645 18.7287 138.678 18.7366 138.71 18.7453C138.923 18.8009 139.127 18.8853 139.317 18.9962C139.628 18.7988 139.787 18.8681 139.993 19.1725C140.174 19.4946 140.259 19.8615 140.239 20.2303C140.257 21.2036 140.176 22.1762 140 23.1337Z" fill="#FBBEBE"/>
<path d="M140.342 24.2967L140.329 24.3098L140.258 24.3809L139.551 25.0852L139.205 23.6335L138.018 18.6567C138.218 18.6564 138.417 18.6779 138.613 18.7207C138.621 18.6637 138.635 18.6076 138.654 18.5532L138.71 18.7453L139.113 20.1118L139.874 22.7064L140 23.1336V23.1344L140.342 24.2967Z" fill="#6C63FF"/>
<path d="M144.825 8.41917C144.824 8.88001 144.732 9.33621 144.555 9.76171C144.378 10.1872 144.118 10.5736 143.791 10.8989C143.673 11.0173 143.546 11.1269 143.412 11.2268C142.805 11.6831 142.067 11.9301 141.307 11.9305H137.092C136.161 11.929 135.268 11.5586 134.61 10.9006C133.952 10.2426 133.582 9.35074 133.582 8.42088C133.582 7.49103 133.952 6.59917 134.61 5.94116C135.268 5.28314 136.161 4.91275 137.092 4.91132H141.307C142.239 4.91374 143.132 5.28398 143.791 5.94121C144.45 6.59844 144.821 7.48927 144.825 8.41917V8.41917Z" fill="#2F2E41"/>
<path d="M148.777 8.68368C150.766 8.68368 152.379 7.07358 152.379 5.08741C152.379 3.10125 150.766 1.49115 148.777 1.49115C146.787 1.49115 145.174 3.10125 145.174 5.08741C145.174 7.07358 146.787 8.68368 148.777 8.68368Z" fill="#2F2E41"/>
<path opacity="0.1" d="M148.689 1.49115C148.645 1.49115 148.601 1.4929 148.557 1.49448C149.489 1.5283 150.371 1.92164 151.019 2.59175C151.666 3.26186 152.028 4.1565 152.028 5.08741C152.028 6.01833 151.666 6.91296 151.019 7.58307C150.371 8.25318 149.489 8.64653 148.557 8.68035C148.601 8.68192 148.645 8.68368 148.689 8.68368C149.644 8.68368 150.56 8.30478 151.236 7.63035C151.912 6.95592 152.291 6.0412 152.291 5.08741C152.291 4.13363 151.912 3.2189 151.236 2.54447C150.56 1.87004 149.644 1.49115 148.689 1.49115V1.49115Z" fill="black"/>
<path opacity="0.1" d="M131.556 1.49115C131.6 1.49115 131.644 1.4929 131.687 1.49448C130.756 1.5283 129.873 1.92164 129.226 2.59175C128.579 3.26186 128.217 4.1565 128.217 5.08741C128.217 6.01833 128.579 6.91296 129.226 7.58307C129.873 8.25318 130.756 8.64653 131.687 8.68035C131.644 8.68192 131.6 8.68368 131.556 8.68368C130.601 8.68284 129.685 8.30357 129.01 7.62923C128.336 6.9549 127.956 6.04065 127.956 5.08741C127.956 4.13417 128.336 3.21993 129.01 2.54559C129.685 1.87125 130.601 1.49199 131.556 1.49115Z" fill="black"/>
<path opacity="0.1" d="M143.412 11.2268C142.805 11.6831 142.067 11.9301 141.307 11.9304H137.092C136.333 11.9301 135.594 11.6831 134.988 11.2268H143.412Z" fill="black"/>
<path d="M170.632 37.2851C170.632 37.2851 171.54 39.8974 172.371 39.2019L171.709 35.7872L170.632 37.2851Z" fill="#FBBEBE"/>
<path d="M281.144 116.951C281.99 117.258 282.896 117.365 283.79 117.263C284.684 117.161 285.542 116.853 286.297 116.363C287.052 115.874 287.682 115.216 288.138 114.441C288.595 113.667 288.865 112.797 288.927 111.901C288.989 111.005 288.842 110.106 288.498 109.276C288.153 108.446 287.62 107.708 286.94 107.118C286.26 106.529 285.453 106.106 284.582 105.881C283.71 105.657 282.798 105.638 281.918 105.825L282.064 108.811L280.648 106.252C279.259 106.903 278.187 108.079 277.665 109.52C277.48 110.024 277.368 110.553 277.331 111.089C277.242 112.347 277.566 113.6 278.254 114.658C278.942 115.716 279.957 116.521 281.144 116.951V116.951Z" fill="#57B894"/>
<path d="M288.147 151.585C287.647 149.045 289.812 146.794 291.95 145.331C294.088 143.867 296.587 142.429 297.316 139.946C298.365 136.377 295.241 133.108 292.811 130.289C291.007 128.198 289.458 125.9 288.197 123.444C287.691 122.459 287.226 121.43 287.093 120.331C286.901 118.749 287.411 117.175 287.923 115.666C289.632 110.639 291.459 105.654 293.404 100.711" stroke="#3F3D56" stroke-miterlimit="10"/>
<path d="M281.384 116.183C282.229 116.49 283.135 116.596 284.029 116.494C284.924 116.392 285.782 116.084 286.536 115.594C287.291 115.105 287.921 114.447 288.378 113.672C288.834 112.898 289.104 112.028 289.167 111.132C289.229 110.236 289.082 109.337 288.737 108.507C288.392 107.677 287.859 106.939 287.179 106.35C286.5 105.76 285.693 105.337 284.821 105.113C283.95 104.888 283.038 104.869 282.158 105.056L282.303 108.042L280.888 105.483C279.499 106.135 278.426 107.31 277.905 108.751C277.719 109.256 277.607 109.784 277.57 110.32C277.481 111.578 277.805 112.831 278.493 113.889C279.181 114.947 280.196 115.752 281.384 116.183V116.183Z" stroke="#3F3D56" stroke-miterlimit="10"/>
<path d="M287.436 99.6793C287.768 98.765 288.325 97.9487 289.056 97.3058C289.787 96.6629 290.669 96.214 291.619 96.0004L292.098 98.8392L292.985 95.8577C294.216 95.876 295.41 96.2845 296.394 97.0244C297.378 97.7642 298.101 98.7971 298.459 99.9739C298.817 101.151 298.79 102.411 298.384 103.571C297.978 104.732 297.212 105.734 296.198 106.433C295.184 107.131 293.974 107.49 292.743 107.457C291.512 107.424 290.323 107.001 289.347 106.25C288.372 105.498 287.662 104.457 287.318 103.276C286.975 102.095 287.016 100.835 287.436 99.6793H287.436Z" fill="#57B894"/>
<path d="M287.755 98.6543C288.087 97.7399 288.644 96.9237 289.375 96.2808C290.106 95.6378 290.988 95.1889 291.938 94.9754L292.417 97.8142L293.304 94.8327C294.535 94.8509 295.729 95.2595 296.713 95.9993C297.697 96.7392 298.42 97.7721 298.778 98.9488C299.136 100.126 299.109 101.385 298.703 102.546C298.297 103.707 297.531 104.709 296.517 105.408C295.503 106.106 294.293 106.465 293.062 106.432C291.831 106.399 290.642 105.976 289.667 105.225C288.692 104.473 287.981 103.432 287.637 102.251C287.294 101.07 287.335 99.8103 287.755 98.6543H287.755Z" stroke="#3F3D56" stroke-miterlimit="10"/>
<path d="M291.79 130.347C293.132 130.833 294.605 130.809 295.93 130.279C297.255 129.75 298.339 128.753 298.974 127.478C299.61 126.202 299.753 124.738 299.377 123.364C299 121.99 298.131 120.802 296.934 120.027L296.252 122.318L295.769 119.446C295.764 119.443 295.759 119.441 295.754 119.44C295.036 119.18 294.274 119.063 293.512 119.097C292.749 119.13 292 119.314 291.309 119.636C290.617 119.959 289.996 120.415 289.481 120.977C288.966 121.539 288.566 122.197 288.306 122.914C288.046 123.63 287.929 124.391 287.964 125.152C287.998 125.914 288.182 126.661 288.506 127.351C288.829 128.041 289.286 128.661 289.849 129.175C290.413 129.689 291.073 130.087 291.79 130.347H291.79Z" fill="#57B894"/>
<path d="M292.067 129.309C293.408 129.794 294.882 129.77 296.207 129.241C297.532 128.712 298.615 127.715 299.251 126.439C299.886 125.164 300.03 123.7 299.653 122.325C299.277 120.951 298.407 119.764 297.21 118.988L296.528 121.28L296.045 118.407C296.04 118.405 296.035 118.403 296.03 118.402C295.313 118.141 294.551 118.025 293.788 118.059C293.026 118.092 292.277 118.276 291.585 118.598C290.894 118.921 290.273 119.376 289.757 119.939C289.242 120.501 288.843 121.159 288.583 121.876C288.322 122.592 288.206 123.353 288.24 124.114C288.274 124.875 288.458 125.623 288.782 126.313C289.106 127.003 289.562 127.623 290.126 128.137C290.69 128.651 291.349 129.049 292.067 129.309H292.067Z" stroke="#3F3D56" stroke-miterlimit="10"/>
<path d="M285.74 139.981C285.971 141.292 286.646 142.483 287.652 143.355C288.658 144.228 289.934 144.728 291.266 144.773C292.597 144.818 293.904 144.404 294.966 143.601C296.029 142.798 296.783 141.655 297.101 140.363C297.419 139.072 297.283 137.71 296.715 136.506C296.147 135.303 295.182 134.331 293.982 133.754C292.781 133.176 291.418 133.029 290.122 133.335C288.825 133.642 287.674 134.385 286.86 135.438L289.449 139.329L285.912 137.264C285.637 138.143 285.579 139.075 285.74 139.981V139.981Z" fill="#57B894"/>
<path d="M285.98 139.213C286.21 140.523 286.885 141.714 287.891 142.586C288.897 143.459 290.173 143.959 291.505 144.004C292.837 144.049 294.143 143.635 295.206 142.832C296.268 142.029 297.022 140.886 297.34 139.595C297.659 138.303 297.523 136.941 296.955 135.738C296.387 134.534 295.422 133.562 294.221 132.985C293.021 132.408 291.658 132.26 290.361 132.567C289.065 132.873 287.913 133.616 287.1 134.67L289.689 138.56L286.151 136.495C285.877 137.374 285.818 138.306 285.98 139.213V139.213Z" stroke="#3F3D56" stroke-miterlimit="10"/>
<path d="M2.51511 131.084C3.07086 131.286 3.66593 131.356 4.25343 131.289C4.84094 131.222 5.40481 131.019 5.9006 130.698C6.39639 130.376 6.81056 129.944 7.11045 129.435C7.41034 128.926 7.58776 128.355 7.62872 127.766C7.66968 127.177 7.57307 126.586 7.34649 126.041C7.11992 125.496 6.76958 125.011 6.32308 124.624C5.87659 124.236 5.34615 123.958 4.77357 123.811C4.20099 123.663 3.60192 123.651 3.02358 123.774L3.11916 125.736L2.18936 124.054C1.27682 124.482 0.571851 125.254 0.229362 126.201C0.10773 126.533 0.033787 126.88 0.00973845 127.232C-0.0489505 128.059 0.163879 128.882 0.615975 129.577C1.06807 130.272 1.73479 130.801 2.51511 131.084V131.084Z" fill="#57B894"/>
<path d="M7.11578 153.839C6.78756 152.17 8.2098 150.691 9.61463 149.73C11.0195 148.768 12.6609 147.824 13.1403 146.192C13.8292 143.847 11.7772 141.699 10.1801 139.847C8.99516 138.473 7.9776 136.963 7.14869 135.35C6.78832 134.716 6.54286 134.024 6.42363 133.305C6.29769 132.265 6.63221 131.231 6.96921 130.239C8.09188 126.936 9.29221 123.661 10.5702 120.414" stroke="#3F3D56" stroke-miterlimit="10"/>
<path d="M2.6724 130.579C3.22814 130.781 3.82322 130.851 4.41072 130.784C4.99822 130.717 5.56209 130.514 6.05788 130.192C6.55368 129.871 6.96784 129.438 7.26773 128.93C7.56762 128.421 7.74503 127.85 7.78599 127.261C7.82696 126.672 7.73034 126.081 7.50377 125.536C7.2772 124.991 6.92686 124.505 6.48036 124.118C6.03387 123.731 5.50343 123.453 4.93085 123.306C4.35827 123.158 3.75921 123.146 3.18087 123.269L3.27644 125.23L2.34665 123.549C1.43411 123.977 0.729138 124.749 0.38665 125.696C0.265019 126.028 0.191077 126.375 0.167027 126.727C0.108334 127.554 0.321163 128.377 0.77326 129.072C1.22536 129.767 1.89208 130.296 2.6724 130.579V130.579Z" stroke="#3F3D56" stroke-miterlimit="10"/>
<path d="M6.64912 119.736C6.86722 119.135 7.23326 118.599 7.71353 118.176C8.1938 117.754 8.77285 117.459 9.3973 117.319L9.71168 119.184L10.2945 117.225C11.1038 117.237 11.8883 117.505 12.5348 117.992C13.1813 118.478 13.6563 119.156 13.8912 119.929C14.1262 120.703 14.109 121.53 13.842 122.293C13.575 123.056 13.0722 123.714 12.406 124.173C11.7398 124.632 10.9448 124.868 10.1358 124.846C9.3267 124.824 8.54547 124.547 7.90484 124.053C7.26421 123.559 6.79734 122.875 6.57163 122.099C6.34592 121.323 6.37306 120.495 6.64912 119.736V119.736Z" fill="#57B894"/>
<path d="M6.85878 119.063C7.07687 118.462 7.44292 117.925 7.92319 117.503C8.40346 117.081 8.9825 116.786 9.60696 116.645L9.92133 118.511L10.5042 116.552C11.3134 116.564 12.0979 116.832 12.7444 117.318C13.3909 117.804 13.8659 118.483 14.1009 119.256C14.3359 120.029 14.3186 120.857 14.0516 121.62C13.7847 122.382 13.2818 123.041 12.6156 123.5C11.9495 123.958 11.1545 124.194 10.3454 124.172C9.53636 124.151 8.75512 123.873 8.11449 123.379C7.47386 122.886 7.00699 122.201 6.78128 121.425C6.55558 120.649 6.58271 119.822 6.85878 119.063V119.063Z" stroke="#3F3D56" stroke-miterlimit="10"/>
<path d="M9.5098 139.885C10.3912 140.204 11.3593 140.188 12.2298 139.841C13.1003 139.493 13.8122 138.838 14.2298 138C14.6474 137.162 14.7415 136.2 14.4942 135.297C14.2469 134.394 13.6755 133.614 12.8889 133.104L12.4411 134.61L12.1235 132.723C12.1203 132.721 12.1171 132.72 12.1138 132.719C11.6423 132.548 11.1417 132.471 10.6406 132.493C10.1395 132.515 9.64758 132.636 9.19309 132.848C8.7386 133.06 8.33041 133.359 7.99184 133.729C7.65326 134.098 7.39095 134.531 7.21988 135.001C7.04882 135.472 6.97236 135.972 6.99488 136.472C7.01739 136.972 7.13843 137.463 7.3511 137.917C7.56376 138.37 7.86386 138.778 8.23426 139.115C8.60467 139.453 9.0381 139.715 9.5098 139.885V139.885Z" fill="#57B894"/>
<path d="M9.69146 139.203C10.5728 139.522 11.541 139.506 12.4115 139.159C13.2819 138.811 13.9938 138.156 14.4114 137.318C14.829 136.48 14.9232 135.518 14.6759 134.615C14.4286 133.712 13.8572 132.932 13.0706 132.422L12.6227 133.928L12.3051 132.041C12.302 132.039 12.2987 132.038 12.2954 132.037C11.8241 131.866 11.3237 131.79 10.8228 131.812C10.3219 131.835 9.83038 131.955 9.3762 132.167C8.45894 132.595 7.74964 133.37 7.40433 134.32C7.05903 135.27 7.106 136.319 7.53492 137.234C7.96384 138.15 8.73957 138.858 9.69146 139.203V139.203Z" stroke="#3F3D56" stroke-miterlimit="10"/>
<path d="M5.53485 146.215C5.68639 147.076 6.12982 147.859 6.79076 148.432C7.45171 149.005 8.28997 149.334 9.16497 149.363C10.04 149.393 10.8985 149.121 11.5966 148.593C12.2947 148.066 12.7898 147.315 12.999 146.466C13.2082 145.617 13.1188 144.723 12.7456 143.932C12.3725 143.141 11.7383 142.503 10.9496 142.124C10.1608 141.744 9.26543 141.647 8.41352 141.849C7.56161 142.05 6.80501 142.538 6.27062 143.23L7.97176 145.786L5.64736 144.43C5.46714 145.007 5.42855 145.62 5.53485 146.215V146.215Z" fill="#57B894"/>
<path d="M5.69208 145.71C5.84362 146.571 6.28704 147.354 6.94799 147.927C7.60893 148.5 8.4472 148.829 9.3222 148.858C10.1972 148.888 11.0557 148.616 11.7538 148.088C12.4519 147.561 12.947 146.81 13.1562 145.961C13.3654 145.112 13.276 144.218 12.9028 143.427C12.5297 142.636 11.8956 141.998 11.1068 141.618C10.3181 141.239 9.42265 141.142 8.57074 141.344C7.71883 141.545 6.96224 142.033 6.42784 142.725L8.12899 145.281L5.80458 143.925C5.62436 144.502 5.58578 145.115 5.69208 145.71V145.71Z" stroke="#3F3D56" stroke-miterlimit="10"/>
<path d="M134.293 95.0875C136.915 95.0875 139.04 92.3419 139.04 88.9549C139.04 85.568 136.915 82.8223 134.293 82.8223C131.672 82.8223 129.547 85.568 129.547 88.9549C129.547 92.3419 131.672 95.0875 134.293 95.0875Z" fill="#2F2E41"/>
<path d="M160.122 95.2269C162.744 95.2269 164.869 92.4813 164.869 89.0943C164.869 85.7073 162.744 82.9617 160.122 82.9617C157.5 82.9617 155.375 85.7073 155.375 89.0943C155.375 92.4813 157.5 95.2269 160.122 95.2269Z" fill="#2F2E41"/>
<path d="M156.492 107.213C156.492 109.984 152.616 112.231 147.836 112.231C143.056 112.231 139.18 109.984 139.18 107.213C139.18 104.813 142.087 102.806 145.971 102.316C146.589 102.234 147.212 102.194 147.836 102.196C148.881 102.192 149.923 102.305 150.944 102.53C154.188 103.252 156.492 105.078 156.492 107.213Z" fill="#2F2E41"/>
<path d="M135.41 93.6938C138.032 93.6938 140.157 90.9481 140.157 87.5612C140.157 84.1742 138.032 81.4286 135.41 81.4286C132.789 81.4286 130.663 84.1742 130.663 87.5612C130.663 90.9481 132.789 93.6938 135.41 93.6938Z" stroke="#3F3D56" stroke-miterlimit="10"/>
<path d="M161.239 93.8331C163.861 93.8331 165.986 91.0875 165.986 87.7005C165.986 84.3136 163.861 81.5679 161.239 81.5679C158.617 81.5679 156.492 84.3136 156.492 87.7005C156.492 91.0875 158.617 93.8331 161.239 93.8331Z" stroke="#3F3D56" stroke-miterlimit="10"/>
<path d="M148.953 110.837C153.734 110.837 157.609 108.591 157.609 105.82C157.609 103.048 153.734 100.802 148.953 100.802C144.172 100.802 140.297 103.048 140.297 105.82C140.297 108.591 144.172 110.837 148.953 110.837Z" stroke="#3F3D56" stroke-miterlimit="10"/>
<path d="M151.047 102.948C151.049 103.299 150.918 103.637 150.679 103.894C150.566 104.017 150.428 104.115 150.276 104.183C150.123 104.25 149.958 104.286 149.791 104.286H146.998C146.654 104.275 146.329 104.127 146.093 103.876C145.858 103.626 145.732 103.292 145.742 102.948C145.74 102.677 145.82 102.411 145.971 102.184C146.589 102.098 147.212 102.055 147.836 102.056C148.882 102.053 149.926 102.173 150.944 102.413C151.013 102.583 151.048 102.765 151.047 102.948V102.948Z" fill="white"/>
<path d="M135.41 87.2824C136.181 87.2824 136.807 86.6584 136.807 85.8887C136.807 85.1189 136.181 84.4949 135.41 84.4949C134.639 84.4949 134.014 85.1189 134.014 85.8887C134.014 86.6584 134.639 87.2824 135.41 87.2824Z" fill="white"/>
<path d="M161.379 87.2824C162.15 87.2824 162.775 86.6584 162.775 85.8887C162.775 85.1189 162.15 84.4949 161.379 84.4949C160.607 84.4949 159.982 85.1189 159.982 85.8887C159.982 86.6584 160.607 87.2824 161.379 87.2824Z" fill="white"/>
<path opacity="0.3" d="M162.775 100.384C163.546 100.384 164.171 99.7598 164.171 98.9901C164.171 98.2203 163.546 97.5963 162.775 97.5963C162.004 97.5963 161.379 98.2203 161.379 98.9901C161.379 99.7598 162.004 100.384 162.775 100.384Z" fill="#6C63FF"/>
<path opacity="0.3" d="M128.709 100.384C129.48 100.384 130.105 99.7598 130.105 98.9901C130.105 98.2203 129.48 97.5963 128.709 97.5963C127.938 97.5963 127.313 98.2203 127.313 98.9901C127.313 99.7598 127.938 100.384 128.709 100.384Z" fill="#6C63FF"/>
</g>
<defs>
<clipPath id="clip0">
<rect width="300" height="162.857" fill="white"/>
</clipPath>
</defs>
</svg>
