<svg width="100" height="30" viewBox="0 0 100 30" fill="none" xmlns="http://www.w3.org/2000/svg">
<path d="M99.4444 26.4144C99.4444 27.9539 98.1714 29.2009 96.5968 29.2009H3.40689C1.83304 29.2009 0.555542 27.9539 0.555542 26.4144V4.1924C0.555542 2.6536 1.83304 1.40219 3.40689 1.40219H96.5961C98.1714 1.40219 99.4437 2.6536 99.4437 4.1924L99.4444 26.4144Z" fill="black"/>
<path d="M96.2963 1.43579C98.0111 1.43579 99.4065 2.79628 99.4065 4.46822V26.1349C99.4065 27.8068 98.0111 29.1673 96.2963 29.1673H3.7037C1.98889 29.1673 0.593518 27.8068 0.593518 26.1349V4.46822C0.593518 2.79628 1.98889 1.43579 3.7037 1.43579H96.2963ZM96.2963 0.857114H3.7037C1.66759 0.857114 0 2.48302 0 4.46822V26.1349C0 28.1201 1.66759 29.746 3.7037 29.746H96.2963C98.3324 29.746 100 28.1201 100 26.1349V4.46822C100 2.48302 98.3324 0.857114 96.2963 0.857114Z" fill="#A6A6A6"/>
<path d="M22.3171 15.1456C22.2956 12.8178 24.2719 11.6854 24.3623 11.6327C23.243 10.0416 21.5082 9.82422 20.8986 9.80689C19.4415 9.65739 18.0282 10.6569 17.286 10.6569C16.5289 10.6569 15.386 9.82133 14.1541 9.84589C12.5689 9.86972 11.086 10.7646 10.2726 12.1541C8.59411 14.9874 9.84597 19.151 11.4541 21.4412C12.2586 22.5628 13.1986 23.8151 14.4289 23.7711C15.6326 23.7227 16.0823 23.0228 17.5349 23.0228C18.9741 23.0228 19.3963 23.7711 20.6512 23.7429C21.943 23.7227 22.7563 22.6162 23.5326 21.4845C24.4623 20.1989 24.8356 18.9329 24.8504 18.8679C24.82 18.8578 22.3415 17.9355 22.3171 15.1456Z" fill="white"/>
<path d="M19.9467 8.30033C20.5941 7.51095 21.0371 6.437 20.9141 5.34717C19.9771 5.38761 18.8052 5.97911 18.1304 6.75117C17.5334 7.4315 17 8.54661 17.1378 9.59528C18.1904 9.67183 19.2712 9.07745 19.9467 8.30033Z" fill="white"/>
<path d="M39.737 23.61H38.0548L37.1333 20.7868H33.9303L33.0526 23.61H31.4148L34.5881 13.9987H36.5481L39.737 23.61ZM36.8555 19.6024L36.0222 17.0927C35.9341 16.8363 35.7689 16.2325 35.5252 15.282H35.4955C35.3985 15.6908 35.2422 16.2946 35.0274 17.0927L34.2089 19.6024H36.8555V19.6024Z" fill="white"/>
<path d="M47.8978 20.0596C47.8978 21.2382 47.5711 22.1699 46.9178 22.8538C46.3326 23.4627 45.6059 23.7667 44.7385 23.7667C43.8022 23.7667 43.1296 23.4388 42.72 22.7831H42.6904V26.4339H41.1111V18.9611C41.1111 18.2201 41.0911 17.4596 41.0526 16.6796H42.4415L42.5296 17.7781H42.5593C43.0859 16.9504 43.8852 16.5373 44.9578 16.5373C45.7963 16.5373 46.4963 16.8601 47.0563 17.5065C47.6178 18.1536 47.8978 19.0044 47.8978 20.0596ZM46.2889 20.1159C46.2889 19.4413 46.1334 18.8852 45.8208 18.4476C45.4793 17.9911 45.0208 17.7629 44.4459 17.7629C44.0563 17.7629 43.7022 17.89 43.3859 18.1406C43.0689 18.3934 42.8615 18.7235 42.7645 19.1322C42.7156 19.3229 42.6911 19.4789 42.6911 19.6017V20.7572C42.6911 21.2613 42.8496 21.6867 43.1667 22.0341C43.4837 22.3815 43.8956 22.5548 44.4022 22.5548C44.9971 22.5548 45.46 22.331 45.7911 21.8846C46.123 21.4376 46.2889 20.8482 46.2889 20.1159Z" fill="white"/>
<path d="M56.0733 20.0596C56.0733 21.2382 55.7467 22.1699 55.0926 22.8538C54.5081 23.4627 53.7815 23.7667 52.9141 23.7667C51.9778 23.7667 51.3052 23.4388 50.8963 22.7831H50.8667V26.4339H49.2874V18.9611C49.2874 18.2201 49.2674 17.4596 49.2289 16.6796H50.6178L50.7059 17.7781H50.7355C51.2615 16.9504 52.0607 16.5373 53.1341 16.5373C53.9718 16.5373 54.6718 16.8601 55.2333 17.5065C55.7926 18.1536 56.0733 19.0044 56.0733 20.0596ZM54.4644 20.1159C54.4644 19.4413 54.3081 18.8852 53.9955 18.4476C53.6541 17.9911 53.197 17.7629 52.6215 17.7629C52.2311 17.7629 51.8778 17.89 51.5607 18.1406C51.2437 18.3934 51.037 18.7235 50.94 19.1322C50.8918 19.3229 50.8667 19.4789 50.8667 19.6017V20.7572C50.8667 21.2613 51.0252 21.6867 51.3407 22.0341C51.6578 22.3808 52.0696 22.5548 52.5778 22.5548C53.1726 22.5548 53.6356 22.331 53.9667 21.8846C54.2985 21.4376 54.4644 20.8482 54.4644 20.1159Z" fill="white"/>
<path d="M65.2141 20.9147C65.2141 21.7322 64.923 22.3974 64.3385 22.9109C63.6963 23.4721 62.8022 23.7523 61.6533 23.7523C60.5926 23.7523 59.7422 23.553 59.0985 23.1536L59.4644 21.8702C60.1578 22.279 60.9185 22.4841 61.7474 22.4841C62.3422 22.4841 62.8052 22.3526 63.1378 22.0912C63.4689 21.8297 63.6341 21.4787 63.6341 21.0411C63.6341 20.6511 63.4978 20.3225 63.2244 20.056C62.9526 19.7895 62.4985 19.5417 61.8644 19.3128C60.1385 18.6852 59.2763 17.7658 59.2763 16.5568C59.2763 15.7667 59.5785 15.1188 60.1837 14.6147C60.7867 14.1099 61.5911 13.8578 62.597 13.8578C63.4941 13.8578 64.2393 14.0102 64.8341 14.3143L64.4392 15.5695C63.8837 15.2748 63.2555 15.1275 62.5526 15.1275C61.997 15.1275 61.563 15.2611 61.2518 15.5269C60.9889 15.7645 60.857 16.0541 60.857 16.3972C60.857 16.7771 61.0074 17.0912 61.3096 17.3382C61.5726 17.5665 62.0504 17.8135 62.7437 18.08C63.5918 18.4129 64.2148 18.8022 64.6156 19.2485C65.0148 19.6934 65.2141 20.2502 65.2141 20.9147Z" fill="white"/>
<path d="M70.4355 17.8351H68.6948V21.1999C68.6948 22.0558 69.0014 22.4833 69.6163 22.4833C69.8985 22.4833 70.1326 22.4595 70.3177 22.4118L70.3614 23.5811C70.0503 23.6945 69.6407 23.7515 69.1333 23.7515C68.5096 23.7515 68.0222 23.5659 67.6703 23.1954C67.32 22.8242 67.1437 22.2016 67.1437 21.327V17.8336H66.1066V16.6781H67.1437V15.4091L68.6948 14.9527V16.6781H70.4355V17.8351Z" fill="white"/>
<path d="M78.2896 20.0877C78.2896 21.153 77.977 22.0276 77.3533 22.7115C76.6992 23.4157 75.8311 23.7667 74.7489 23.7667C73.7059 23.7667 72.8755 23.4294 72.2563 22.7549C71.637 22.0803 71.3274 21.2288 71.3274 20.2025C71.3274 19.1286 71.6459 18.2489 72.2852 17.565C72.9229 16.8803 73.7837 16.538 74.8659 16.538C75.9089 16.538 76.7481 16.8753 77.3815 17.5506C77.9874 18.2056 78.2896 19.0513 78.2896 20.0877ZM76.6511 20.1375C76.6511 19.4984 76.5111 18.9502 76.2274 18.4931C75.8963 17.9398 75.4229 17.6639 74.8096 17.6639C74.1748 17.6639 73.6926 17.9406 73.3615 18.4931C73.0778 18.9509 72.9378 19.5078 72.9378 20.1664C72.9378 20.8056 73.0778 21.3538 73.3615 21.8102C73.7029 22.3634 74.18 22.6393 74.7955 22.6393C75.3985 22.6393 75.8718 22.3577 76.2133 21.7958C76.5044 21.3299 76.6511 20.776 76.6511 20.1375Z" fill="white"/>
<path d="M83.4229 18.0337C83.2666 18.0056 83.0999 17.9911 82.9251 17.9911C82.3696 17.9911 81.9399 18.1955 81.6377 18.605C81.3748 18.9661 81.2429 19.4226 81.2429 19.9736V23.61H79.6644L79.6792 18.8621C79.6792 18.0633 79.6592 17.3361 79.6199 16.6803H80.9955L81.0533 18.0063H81.097C81.2636 17.5506 81.5266 17.1837 81.8866 16.9085C82.2385 16.6608 82.6185 16.5373 83.0281 16.5373C83.174 16.5373 83.3059 16.5474 83.4229 16.5655V18.0337Z" fill="white"/>
<path d="M90.4859 19.8169C90.4859 20.0928 90.4674 20.3253 90.4281 20.5153H85.6904C85.7089 21.1999 85.9378 21.7235 86.3778 22.0846C86.777 22.4075 87.2933 22.5693 87.9274 22.5693C88.6289 22.5693 89.2689 22.4602 89.8444 22.2414L90.0918 23.3103C89.4192 23.5963 88.6252 23.7385 87.7089 23.7385C86.6067 23.7385 85.7415 23.4222 85.1118 22.7903C84.4837 22.1583 84.1689 21.3097 84.1689 20.2451C84.1689 19.2001 84.4615 18.3298 85.0474 17.6358C85.6607 16.8948 86.4896 16.5243 87.5326 16.5243C88.557 16.5243 89.3326 16.8948 89.8592 17.6358C90.2763 18.2244 90.4859 18.9524 90.4859 19.8169ZM88.98 19.4175C88.9904 18.961 88.8874 18.5667 88.6733 18.2338C88.4 17.8055 87.98 17.5917 87.4148 17.5917C86.8985 17.5917 86.4785 17.8004 86.1578 18.2193C85.8948 18.5523 85.7385 18.9516 85.6904 19.4168H88.98V19.4175Z" fill="white"/>
<path d="M36.3333 8.08584C36.3333 8.9359 36.0719 9.57579 35.5496 10.0055C35.0659 10.402 34.3785 10.6006 33.4882 10.6006C33.0467 10.6006 32.6689 10.5818 32.3526 10.5443V5.89967C32.7652 5.83467 33.2096 5.80145 33.6896 5.80145C34.5378 5.80145 35.177 5.98129 35.6082 6.34095C36.0911 6.74756 36.3333 7.32895 36.3333 8.08584ZM35.5148 8.10679C35.5148 7.55573 35.3652 7.13323 35.0659 6.83856C34.7667 6.54462 34.3296 6.39729 33.7541 6.39729C33.5096 6.39729 33.3015 6.41317 33.1289 6.4464V9.97734C33.2245 9.99179 33.3993 9.99829 33.6533 9.99829C34.2474 9.99829 34.7059 9.83723 35.0289 9.51512C35.3519 9.19301 35.5148 8.72356 35.5148 8.10679Z" fill="white"/>
<path d="M40.6734 8.82828C40.6734 9.35189 40.52 9.78089 40.2134 10.1174C39.8919 10.4634 39.466 10.636 38.9341 10.636C38.4215 10.636 38.0134 10.4706 37.7089 10.1384C37.4052 9.80689 37.2534 9.38873 37.2534 8.88462C37.2534 8.35739 37.4097 7.92478 37.7237 7.58895C38.0378 7.25312 38.46 7.08484 38.9919 7.08484C39.5045 7.08484 39.9163 7.25023 40.2282 7.58173C40.5245 7.90384 40.6734 8.31984 40.6734 8.82828ZM39.8682 8.85284C39.8682 8.53867 39.7985 8.26928 39.66 8.04467C39.4971 7.77312 39.2652 7.63734 38.9637 7.63734C38.6519 7.63734 38.4148 7.77312 38.2519 8.04467C38.1126 8.26928 38.0437 8.54301 38.0437 8.86656C38.0437 9.18073 38.1134 9.45012 38.2519 9.67473C38.42 9.94628 38.6541 10.0821 38.9563 10.0821C39.2526 10.0821 39.4852 9.94412 39.6526 9.66751C39.7963 9.43856 39.8682 9.16701 39.8682 8.85284Z" fill="white"/>
<path d="M46.4926 7.15417L45.4 10.5587H44.6889L44.2363 9.08034C44.1215 8.71129 44.0282 8.3444 43.9556 7.9804H43.9415C43.8741 8.35451 43.7808 8.72067 43.6608 9.08034L43.18 10.5587H42.4608L41.4333 7.15417H42.2311L42.6259 8.77268C42.7215 9.15545 42.8 9.52017 42.863 9.8654H42.8771C42.9348 9.58084 43.0304 9.21829 43.1652 8.7799L43.6608 7.1549H44.2933L44.7682 8.74523C44.883 9.13306 44.9763 9.50645 45.0482 9.86612H45.0696C45.1222 9.51584 45.2015 9.14245 45.3067 8.74523L45.7304 7.1549H46.4926V7.15417Z" fill="white"/>
<path d="M50.517 10.5587H49.7407V8.60873C49.7407 8.00784 49.5067 7.70739 49.037 7.70739C48.8067 7.70739 48.6207 7.78973 48.4763 7.95512C48.3333 8.12051 48.2607 8.31551 48.2607 8.53867V10.558H47.4844V8.12701C47.4844 7.82801 47.4748 7.50373 47.4563 7.15273H48.1385L48.1748 7.68501H48.1963C48.2867 7.51962 48.4215 7.38312 48.5985 7.27406C48.8089 7.14695 49.0444 7.08267 49.3022 7.08267C49.6281 7.08267 49.8993 7.18523 50.1148 7.39106C50.383 7.64312 50.517 8.01939 50.517 8.51917V10.5587V10.5587Z" fill="white"/>
<path d="M52.6578 10.5587H51.8822V5.59201H52.6578V10.5587Z" fill="white"/>
<path d="M57.2282 8.82828C57.2282 9.35189 57.0748 9.78089 56.7682 10.1174C56.4467 10.4634 56.02 10.636 55.4889 10.636C54.9756 10.636 54.5674 10.4706 54.2637 10.1384C53.96 9.80689 53.8082 9.38873 53.8082 8.88462C53.8082 8.35739 53.9645 7.92478 54.2785 7.58895C54.5926 7.25312 55.0148 7.08484 55.5459 7.08484C56.0593 7.08484 56.4704 7.25023 56.783 7.58173C57.0793 7.90384 57.2282 8.31984 57.2282 8.82828ZM56.4222 8.85284C56.4222 8.53867 56.3526 8.26928 56.2141 8.04467C56.0519 7.77312 55.8193 7.63734 55.5185 7.63734C55.2059 7.63734 54.9689 7.77312 54.8067 8.04467C54.6674 8.26928 54.5985 8.54301 54.5985 8.86656C54.5985 9.18073 54.6682 9.45012 54.8067 9.67473C54.9748 9.94628 55.2089 10.0821 55.5111 10.0821C55.8074 10.0821 56.0393 9.94412 56.2067 9.66751C56.3511 9.43856 56.4222 9.16701 56.4222 8.85284Z" fill="white"/>
<path d="M60.9852 10.5587H60.2882L60.2304 10.1666H60.2089C59.9704 10.4793 59.6304 10.636 59.1889 10.636C58.8593 10.636 58.5926 10.5327 58.3919 10.3276C58.2096 10.1413 58.1185 9.90945 58.1185 9.63428C58.1185 9.21828 58.2963 8.90123 58.6541 8.68167C59.0111 8.46212 59.5133 8.3545 60.16 8.35956V8.29601C60.16 7.84751 59.9185 7.62362 59.4348 7.62362C59.0904 7.62362 58.7867 7.70812 58.5245 7.87567L58.3667 7.37878C58.6911 7.18306 59.0919 7.08484 59.5645 7.08484C60.477 7.08484 60.9348 7.55428 60.9348 8.49317V9.74695C60.9348 10.0871 60.9519 10.3579 60.9852 10.5587ZM60.1793 9.38873V8.86367C59.323 8.84923 58.8948 9.07817 58.8948 9.54978C58.8948 9.72745 58.9437 9.86034 59.0437 9.94917C59.1437 10.038 59.2711 10.0821 59.423 10.0821C59.5933 10.0821 59.7526 10.0293 59.8978 9.92462C60.0437 9.81917 60.1333 9.68556 60.1667 9.52162C60.1748 9.48478 60.1793 9.44 60.1793 9.38873Z" fill="white"/>
<path d="M65.3963 10.5587H64.7074L64.6711 10.012H64.6496C64.4296 10.428 64.0548 10.636 63.5282 10.636C63.1074 10.636 62.7571 10.475 62.4793 10.1528C62.2015 9.83073 62.063 9.41257 62.063 8.89907C62.063 8.34801 62.2134 7.90168 62.5156 7.56079C62.8082 7.24301 63.1667 7.08412 63.5934 7.08412C64.0622 7.08412 64.3904 7.23795 64.5771 7.54634H64.5919V5.59201H65.3689V9.64151C65.3689 9.97301 65.3778 10.2785 65.3963 10.5587ZM64.5919 9.12295V8.55529C64.5919 8.45707 64.5845 8.37762 64.5704 8.31696C64.5267 8.13496 64.4326 7.98184 64.2896 7.85834C64.1452 7.73484 63.9711 7.67273 63.7704 7.67273C63.4808 7.67273 63.2541 7.78468 63.0874 8.00929C62.9222 8.2339 62.8385 8.52062 62.8385 8.8709C62.8385 9.20745 62.9178 9.48045 63.0771 9.69062C63.2452 9.91451 63.4719 10.0265 63.7556 10.0265C64.0104 10.0265 64.2141 9.93329 64.3689 9.74623C64.5185 9.57362 64.5919 9.36562 64.5919 9.12295Z" fill="white"/>
<path d="M72.0356 8.82828C72.0356 9.35189 71.8823 9.78089 71.5756 10.1174C71.2541 10.4634 70.8289 10.636 70.2963 10.636C69.7845 10.636 69.3763 10.4706 69.0712 10.1384C68.7675 9.80689 68.6156 9.38873 68.6156 8.88462C68.6156 8.35739 68.7719 7.92478 69.086 7.58895C69.4 7.25312 69.8223 7.08484 70.3549 7.08484C70.8667 7.08484 71.2793 7.25023 71.5904 7.58173C71.8867 7.90384 72.0356 8.31984 72.0356 8.82828ZM71.2312 8.85284C71.2312 8.53867 71.1615 8.26928 71.023 8.04467C70.8593 7.77312 70.6282 7.63734 70.326 7.63734C70.0149 7.63734 69.7778 7.77312 69.6141 8.04467C69.4749 8.26928 69.406 8.54301 69.406 8.86656C69.406 9.18073 69.4756 9.45012 69.6141 9.67473C69.7823 9.94628 70.0163 10.0821 70.3186 10.0821C70.6149 10.0821 70.8482 9.94412 71.0156 9.66751C71.1586 9.43856 71.2312 9.16701 71.2312 8.85284Z" fill="white"/>
<path d="M76.2097 10.5587H75.4341V8.60873C75.4341 8.00784 75.2 7.70739 74.7297 7.70739C74.4993 7.70739 74.3134 7.78973 74.1697 7.95512C74.026 8.12051 73.9541 8.31551 73.9541 8.53867V10.558H73.1771V8.12701C73.1771 7.82801 73.1682 7.50373 73.1497 7.15273H73.8311L73.8674 7.68501H73.8889C73.98 7.51962 74.1148 7.38312 74.2911 7.27406C74.5022 7.14695 74.7371 7.08267 74.9956 7.08267C75.3208 7.08267 75.5919 7.18523 75.8074 7.39106C76.0763 7.64312 76.2097 8.01939 76.2097 8.51917V10.5587V10.5587Z" fill="white"/>
<path d="M81.4341 7.72111H80.5793V9.375C80.5793 9.79533 80.7311 10.0055 81.0319 10.0055C81.1711 10.0055 81.2867 9.99394 81.3778 9.97011L81.3978 10.5443C81.2445 10.6006 81.043 10.6288 80.7948 10.6288C80.4882 10.6288 80.2497 10.5378 80.0771 10.3558C79.9037 10.1738 79.8178 9.86755 79.8178 9.43783V7.72111H79.3074V7.15416H79.8178V6.53016L80.5785 6.30627V7.15344H81.4334V7.72111H81.4341Z" fill="white"/>
<path d="M85.5437 10.5587H84.7667V8.62318C84.7667 8.0129 84.5326 7.7074 84.0637 7.7074C83.7037 7.7074 83.4578 7.88434 83.323 8.23823C83.3 8.31262 83.2867 8.40362 83.2867 8.51051V10.558H82.5111V5.59201H83.2867V7.64384H83.3015C83.5459 7.27046 83.8963 7.08412 84.3504 7.08412C84.6719 7.08412 84.9378 7.18668 85.1489 7.39251C85.4119 7.6489 85.5437 8.03023 85.5437 8.53434V10.5587V10.5587Z" fill="white"/>
<path d="M89.783 8.69539C89.783 8.83117 89.7726 8.94528 89.7541 9.03845H87.4259C87.4363 9.375 87.5474 9.63139 87.763 9.80906C87.96 9.96795 88.2141 10.0474 88.5252 10.0474C88.8696 10.0474 89.1837 9.99395 89.4667 9.88634L89.5882 10.4121C89.257 10.5522 88.8674 10.6223 88.4163 10.6223C87.8756 10.6223 87.4496 10.467 87.1415 10.1564C86.8319 9.84589 86.6785 9.42917 86.6785 8.90628C86.6785 8.39278 86.8215 7.96523 87.1096 7.62434C87.4104 7.26034 87.817 7.07834 88.3304 7.07834C88.8326 7.07834 89.2141 7.26034 89.4719 7.62434C89.68 7.91323 89.783 8.27073 89.783 8.69539ZM89.0422 8.49967C89.0482 8.27506 88.997 8.08151 88.8919 7.91828C88.757 7.70812 88.5519 7.60267 88.2741 7.60267C88.0207 7.60267 87.8141 7.70523 87.6563 7.91106C87.5274 8.07501 87.4511 8.27073 87.4259 8.49967H89.0422Z" fill="white"/>
</svg>
