<svg width="56" height="56" viewBox="0 0 56 56" fill="none" xmlns="http://www.w3.org/2000/svg">
<path d="M44.601 41.0255L41.1562 44.4702L50.8721 54.186L54.3168 50.7413L44.601 41.0255Z" stroke="white" stroke-width="2" stroke-miterlimit="10"/>
<path d="M39.5977 39.4731L42.3457 42.2212" stroke="white" stroke-width="2" stroke-miterlimit="10"/>
<path d="M44.5948 20.3614C46.4685 26.9818 44.8446 34.3516 39.5983 39.473C31.9786 47.0927 19.6122 47.0927 11.9926 39.473C4.37292 31.8534 4.37292 19.487 11.9926 11.8673C19.6122 4.24767 31.9786 4.24767 39.5983 11.8673C40.5976 12.8666 41.5969 14.1158 42.3463 15.24" stroke="white" stroke-width="2" stroke-miterlimit="10"/>
<path d="M8.74463 36.2254L23.6092 21.2359L31.8535 29.605L51.4647 10.1187" stroke="white" stroke-width="2" stroke-miterlimit="10"/>
<path d="M48.3418 9.11938H52.4639V13.2415" stroke="white" stroke-width="2" stroke-miterlimit="10"/>
<path d="M37.0997 47.7173C33.7271 49.4661 29.8548 50.4654 25.7327 50.4654C12.1172 50.4654 1 39.3482 1 25.7327C1 12.1172 12.1172 1 25.7327 1C32.478 1 38.5987 3.74808 43.0955 8.12002" stroke="white" stroke-width="2" stroke-miterlimit="10" stroke-dasharray="1.99 1.99"/>
</svg>
