<svg width="54" height="61" viewBox="0 0 54 61" fill="none" xmlns="http://www.w3.org/2000/svg">
<path d="M50.6391 39.7105C50.6391 37.7289 53.6516 37.7289 53.6516 39.7105V53.3044C53.6516 54.1367 52.977 54.8106 52.1454 54.8106H48.8511V58.6853C48.8511 59.5169 48.1765 60.1916 47.3449 60.1916H6.30671C5.47511 60.1916 4.80049 59.5169 4.80049 58.6853V54.8106H1.50622C0.674624 54.8106 0 54.1367 0 53.3044V39.7105C0 37.7289 3.01244 37.7289 3.01244 39.7105V46.7633H7.69685V35.6094C7.69685 34.7778 8.37147 34.1032 9.20307 34.1032H13.8064C14.638 34.1032 15.3127 34.7778 15.3127 35.6094V46.7633H17.9104V28.5609C17.9104 27.7286 18.585 27.0547 19.4166 27.0547H24.0207C24.8523 27.0547 25.5269 27.7286 25.5269 28.5609V46.7633H28.1247V35.6094C28.1247 34.7778 28.7993 34.1032 29.6309 34.1032H34.2342C35.0658 34.1032 35.7405 34.7778 35.7405 35.6094V46.7633H38.3389V21.3678C38.3389 20.5362 39.0136 19.8616 39.8452 19.8616H44.4485C45.2801 19.8616 45.9547 20.5362 45.9547 21.3678V46.7633H50.6391V39.7105V39.7105ZM45.8387 54.8106H7.81293V57.1784H45.8387V54.8106ZM7.81805 29.4823C5.83652 29.4823 5.83652 26.4691 7.81805 26.4691H11.4102L12.9741 20.6312C13.1544 19.9587 13.7626 19.5148 14.4278 19.5148L26.8017 19.5134C27.515 19.5134 28.1123 20.0098 28.2685 20.675L30.1288 26.4691H31.6847L32.5594 14.4697C32.6156 13.6768 33.2763 13.0708 34.0597 13.0716L44.3894 13.0694C46.3709 13.0694 46.3709 16.0818 44.3894 16.0818H35.4586L34.5891 28.0068C34.5723 28.8245 33.9042 29.4823 33.0829 29.4823L29.0351 29.4779C28.3999 29.4779 27.8093 29.072 27.6048 28.4346L25.708 22.5258H15.5813L14.0379 28.2864C13.8948 28.969 13.2888 29.4823 12.5638 29.4823H7.81805V29.4823ZM7.27557 1.48614C7.27557 -0.495381 10.288 -0.495381 10.288 1.48614V2.02643H12.9113C14.8921 2.02643 14.8921 5.03887 12.9113 5.03887H10.288V8.23822H10.8641C13.4041 8.23822 15.4762 10.3103 15.4762 12.8496C15.4762 15.386 13.399 17.4617 10.8641 17.4617H10.288V18.0027C10.288 19.9835 7.27557 19.9835 7.27557 18.0027V17.4617H4.65301C2.67148 17.4617 2.67148 14.4493 4.65301 14.4493H7.27557V11.2507H6.69951C4.16456 11.2507 2.08739 9.17423 2.08739 6.63855C2.08739 4.1036 4.16383 2.02643 6.69951 2.02643H7.27557V1.48614V1.48614ZM10.288 11.2507V14.4493H10.8641C11.7461 14.4493 12.4638 13.7309 12.4638 12.8496C12.4638 11.9735 11.7409 11.2507 10.8641 11.2507H10.288ZM7.27557 8.23822V5.03887H6.69951C5.819 5.03887 5.10057 5.75949 5.10057 6.63855C5.10057 7.51906 5.81827 8.23822 6.69951 8.23822H7.27557ZM41.3514 46.7633H42.9423V22.8741H41.3514V46.7633ZM31.1371 46.7633H32.728V37.1164H31.1371V46.7633ZM20.9236 46.7633H22.5145V30.0671H20.9236V46.7633ZM10.7093 46.7633H12.3002V37.1164H10.7093V46.7633ZM3.01244 49.7758V51.7982C18.888 51.7982 34.7636 51.7982 50.6391 51.7982V49.7758C34.7636 49.7758 18.888 49.7758 3.01244 49.7758V49.7758Z" fill="white"/>
</svg>
