<svg width="60" height="55" viewBox="0 0 60 55" fill="none" xmlns="http://www.w3.org/2000/svg">
<path d="M48.7489 30.0405C50.0924 27.1684 50.364 23.9104 49.5146 20.8555C48.6653 17.8005 46.751 15.1503 44.1178 13.3839L44.4578 12.775C45.1482 11.5999 45.5261 10.2676 45.5555 8.90497V8.88163C45.5536 6.55698 44.6411 4.32557 43.0136 2.66568C41.3861 1.0058 39.1731 0.0495373 36.8489 0.00187102C34.5247 -0.0457953 32.2744 0.818923 30.5802 2.41068C28.886 4.00244 27.8828 6.19456 27.7855 8.51719C27.7512 10.0194 28.1331 11.5018 28.8889 12.8005L29.2144 13.3839C26.5087 15.199 24.5665 17.9474 23.7589 21.1039H20C20 20.8092 19.8829 20.5265 19.6746 20.3182C19.4662 20.1098 19.1836 19.9927 18.8889 19.9927H4.44444C3.2657 19.9927 2.13524 20.461 1.30175 21.2945C0.468252 22.128 0 23.2584 0 24.4372C0 25.6159 0.468252 26.7464 1.30175 27.5799C2.13524 28.4134 3.2657 28.8816 4.44444 28.8816H18.8889C19.1836 28.8816 19.4662 28.7646 19.6746 28.5562C19.8829 28.3478 20 28.0652 20 27.7705H23.7778C23.9788 28.5503 24.2507 29.3102 24.59 30.0405C20.648 32.4282 17.5009 35.9293 15.5452 40.1025C13.5894 44.2757 12.9126 48.9344 13.6 53.4916C13.6396 53.7547 13.7723 53.9948 13.974 54.1683C14.1756 54.3418 14.4329 54.4372 14.6989 54.4372H58.64C58.906 54.4372 59.1632 54.3418 59.3649 54.1683C59.5665 53.9948 59.6992 53.7547 59.7389 53.4916C60.4262 48.9344 59.7494 44.2757 57.7937 40.1025C55.838 35.9293 52.6909 32.4282 48.7489 30.0405ZM17.7778 26.6594H4.44444C3.85507 26.6594 3.28984 26.4253 2.87309 26.0085C2.45635 25.5918 2.22222 25.0266 2.22222 24.4372C2.22222 23.8478 2.45635 23.2826 2.87309 22.8658C3.28984 22.4491 3.85507 22.215 4.44444 22.215H17.7778V26.6594ZM23.3333 25.5483H20V23.3261H23.3333V25.5483ZM30.1722 7.37719C30.4677 6.10356 31.1306 4.9447 32.0787 4.0444C33.0268 3.1441 34.2183 2.54198 35.5055 2.31275C35.8932 2.24744 36.2857 2.21473 36.6789 2.21497C38.2524 2.21054 39.7755 2.76987 40.9722 3.79164C41.712 4.41747 42.3066 5.19707 42.7143 6.07614C43.1221 6.9552 43.3333 7.9126 43.3333 8.88163H44.4444L43.3333 8.90163C43.3033 9.88518 43.0226 10.8448 42.5178 11.6894L36.6667 22.1594L30.8311 11.715C30.2749 10.7736 29.9893 9.69709 30.0055 8.60386C30.0241 8.19079 30.0799 7.78023 30.1722 7.37719V7.37719ZM43.8889 24.4372C43.891 25.6629 43.5812 26.8689 42.9886 27.9418C42.396 29.0147 41.5401 29.9192 40.5014 30.57C39.4628 31.2208 38.2756 31.5965 37.0517 31.6619C35.8277 31.7272 34.6073 31.48 33.5052 30.9435C32.4032 30.4069 31.4559 29.5988 30.7524 28.595C30.0489 27.5913 29.6125 26.4251 29.4841 25.2061C29.3558 23.9872 29.5398 22.7556 30.0188 21.6274C30.4978 20.4992 31.2561 19.5115 32.2222 18.7572L35.7 24.9794C35.7964 25.152 35.9371 25.2957 36.1077 25.3958C36.2782 25.4959 36.4723 25.5486 36.67 25.5486C36.8677 25.5486 37.0618 25.4959 37.2323 25.3958C37.4028 25.2957 37.5436 25.152 37.64 24.9794L41.1178 18.7572C41.9824 19.4298 42.6817 20.2913 43.162 21.2758C43.6423 22.2604 43.8909 23.3417 43.8889 24.4372V24.4372ZM30.3022 15.3261L31.13 16.8072C29.5129 17.9773 28.3082 19.6297 27.6887 21.5271C27.0691 23.4246 27.0667 25.4695 27.6817 27.3684C28.2967 29.2673 29.4974 30.9226 31.1117 32.0966C32.7259 33.2706 34.6706 33.903 36.6667 33.903C38.6627 33.903 40.6074 33.2706 42.2216 32.0966C43.8359 30.9226 45.0367 29.2673 45.6516 27.3684C46.2666 25.4695 46.2642 23.4246 45.6446 21.5271C45.0251 19.6297 43.8204 17.9773 42.2033 16.8072L43.0311 15.3261C44.9688 16.6801 46.4241 18.6169 47.1856 20.8548C47.947 23.0927 47.9749 25.5151 47.2651 27.7699C46.5553 30.0248 45.1449 31.9945 43.2389 33.3927C41.3329 34.791 39.0306 35.5449 36.6667 35.5449C34.3027 35.5449 32.0004 34.791 30.0944 33.3927C28.1884 31.9945 26.778 30.0248 26.0682 27.7699C25.3584 25.5151 25.3863 23.0927 26.1478 20.8548C26.9092 18.6169 28.3645 16.6801 30.3022 15.3261V15.3261ZM45.7844 41.5927C39.7322 40.7938 33.6011 40.7938 27.5489 41.5927C28.2304 39.6641 29.0765 37.7976 30.0778 36.0138C32.0829 37.1648 34.3546 37.7704 36.6667 37.7704C38.9787 37.7704 41.2504 37.1648 43.2555 36.0138C44.2568 37.7976 45.1029 39.6641 45.7844 41.5927V41.5927ZM23.3711 52.2149H15.6667C15.5913 51.4766 15.5542 50.7349 15.5555 49.9927C15.5588 48.7653 15.6704 47.5406 15.8889 46.3327L20.4011 45.2038C21.7396 44.8698 23.0874 44.5772 24.4444 44.3261C23.8097 46.9105 23.4499 49.5548 23.3711 52.2149V52.2149ZM19.8622 43.0494L16.4733 43.8961C17.9792 38.9295 21.2546 34.6879 25.6789 31.975C26.3957 33.0166 27.2561 33.9517 28.2344 34.7527C26.9455 37.0405 25.8987 39.4566 25.1111 41.9616C23.3455 42.2583 21.5955 42.6161 19.8622 43.0494V43.0494ZM25.5933 52.2149C25.6756 49.4258 26.0859 46.656 26.8155 43.9627C33.3475 42.9972 39.9858 42.9972 46.5178 43.9627C47.2474 46.656 47.6577 49.4258 47.74 52.2149H25.5933ZM57.7778 49.9927C57.7791 50.7349 57.7421 51.4766 57.6666 52.2149H49.9666C49.8864 49.5547 49.5251 46.9104 48.8889 44.3261C50.2429 44.5772 51.59 44.8694 52.93 45.2027L57.4444 46.3327C57.6629 47.5406 57.7745 48.7653 57.7778 49.9927V49.9927ZM53.4711 43.0494C51.7378 42.6161 49.9878 42.2583 48.2278 41.9616C47.4375 39.4574 46.3881 37.0425 45.0967 34.7561C46.075 33.955 46.9354 33.0199 47.6522 31.9783C52.0765 34.6912 55.3519 38.9328 56.8578 43.8994L53.4711 43.0494Z" fill="white"/>
<path d="M36.6666 12.2151C37.5456 12.2151 38.4049 11.9544 39.1358 11.466C39.8667 10.9777 40.4364 10.2835 40.7727 9.47143C41.1091 8.65932 41.1971 7.76569 41.0257 6.90355C40.8542 6.04141 40.4309 5.24949 39.8093 4.62792C39.1877 4.00635 38.3958 3.58306 37.5337 3.41157C36.6715 3.24008 35.7779 3.3281 34.9658 3.66449C34.1537 4.00088 33.4596 4.57053 32.9712 5.30142C32.4828 6.0323 32.2222 6.89159 32.2222 7.77062C32.2222 8.94936 32.6904 10.0798 33.5239 10.9133C34.3574 11.7468 35.4879 12.2151 36.6666 12.2151ZM36.6666 5.5484C37.1061 5.5484 37.5358 5.67873 37.9012 5.92291C38.2667 6.16709 38.5515 6.51415 38.7197 6.92021C38.8879 7.32627 38.9319 7.77308 38.8461 8.20415C38.7604 8.63522 38.5487 9.03118 38.238 9.34196C37.9272 9.65275 37.5312 9.86439 37.1001 9.95014C36.6691 10.0359 36.2223 9.99188 35.8162 9.82368C35.4101 9.65549 35.0631 9.37066 34.8189 9.00522C34.5747 8.63977 34.4444 8.21013 34.4444 7.77062C34.4444 7.18125 34.6785 6.61602 35.0953 6.19927C35.512 5.78252 36.0772 5.5484 36.6666 5.5484V5.5484Z" fill="white"/>
</svg>
