<svg width="56" height="60" viewBox="0 0 56 60" fill="none" xmlns="http://www.w3.org/2000/svg">
<path d="M1 59.8855V56.6735C1 56.0044 1.40149 55.4691 1.93682 55.3352L9.83284 52.6586V48.2422" stroke="white" stroke-width="2" stroke-miterlimit="10"/>
<path d="M25.6248 59.8855V56.6735C25.6248 56.0044 25.2233 55.4691 24.688 55.3352L16.792 52.6586V48.2422" stroke="white" stroke-width="2" stroke-miterlimit="10"/>
<path d="M19.3347 38.205C19.3347 34.8592 16.6581 32.3164 13.4462 32.3164C10.1004 32.3164 7.55762 34.993 7.55762 38.205L8.09294 45.298C8.22677 46.2348 8.76209 47.1716 9.56508 47.5731L12.5094 49.4468H14.383L17.3273 47.5731C18.1303 47.1716 18.7994 46.2348 18.7994 45.298L19.3347 38.205Z" stroke="white" stroke-width="2" stroke-miterlimit="10"/>
<path d="M9.83301 52.5249L12.1081 55.0677H14.7848L16.926 52.5249" stroke="white" stroke-width="2" stroke-miterlimit="10"/>
<path d="M30.1748 59.8856V56.9414C30.1748 56.2722 30.5763 55.7369 31.1116 55.603L39.0076 52.9264V48.51" stroke="white" stroke-width="2" stroke-miterlimit="10"/>
<path d="M54.7996 59.8856V56.9414C54.7996 56.2722 54.3981 55.7369 53.8628 55.603L45.9668 52.9264V48.51" stroke="white" stroke-width="2" stroke-miterlimit="10"/>
<path d="M48.3757 38.4728C48.3757 35.127 45.6991 32.5842 42.4872 32.5842C39.1414 32.5842 36.5986 35.2608 36.5986 38.4728L37.134 45.5658C37.2678 46.5026 37.8031 47.4395 38.6061 47.8409L41.5504 49.7146H43.424L46.3683 47.8409C47.1713 47.4395 47.8404 46.5026 47.8404 45.5658L48.3757 38.4728Z" stroke="white" stroke-width="2" stroke-miterlimit="10"/>
<path d="M39.0078 52.9265L41.1491 55.4693H43.8257L46.1008 52.9265" stroke="white" stroke-width="2" stroke-miterlimit="10"/>
<path d="M21.2085 45.1645L24.5543 44.0938V39.9451" stroke="white" stroke-width="2" stroke-miterlimit="10"/>
<path d="M34.3238 45.2983L31.1118 44.0938V39.9451" stroke="white" stroke-width="2" stroke-miterlimit="10"/>
<path d="M33.5206 30.4429C33.5206 27.3648 30.9778 24.822 27.8997 24.822C24.8216 24.822 22.2788 27.3648 22.2788 30.4429L22.8141 37.2683C22.8141 38.2051 23.3495 39.0081 24.2863 39.4096L26.9629 41.1494H28.7027L31.5131 39.4096C32.3161 39.0081 32.8514 38.2051 32.9853 37.2683L33.5206 30.4429Z" stroke="white" stroke-width="2" stroke-miterlimit="10"/>
<path d="M24.5542 44.0935L26.6955 46.5025H29.1045L31.2457 44.0935" stroke="white" stroke-width="2" stroke-miterlimit="10"/>
<path d="M47.7072 30.978V26.6955L41.0157 25.7586C40.6142 24.2865 40.0789 22.9482 39.4097 21.7437L43.5585 16.2567L40.6142 13.3124L35.1271 17.4611C33.9227 16.6581 32.5844 16.1228 31.1122 15.8552L30.1754 9.02979H25.8928L24.956 15.8552C23.4839 16.2567 22.1455 16.792 20.9411 17.4611L15.454 13.3124L12.3759 16.2567L16.3908 21.7437C15.5878 22.9482 15.0525 24.2865 14.7848 25.7586L7.95947 26.6955V30.978" stroke="white" stroke-width="2" stroke-miterlimit="10"/>
<path d="M3.54279 38.6065C1.93682 35.1269 1 31.3796 1 27.3647C1.13383 12.7771 12.9109 1 27.3647 1C41.9522 1 53.7294 12.7771 53.7294 27.3647C53.7294 31.2458 52.9264 34.8592 51.4542 38.0712" stroke="white" stroke-width="2" stroke-miterlimit="10" stroke-dasharray="1.99 1.99"/>
</svg>
