<svg width="60" height="59" viewBox="0 0 60 59" fill="none" xmlns="http://www.w3.org/2000/svg">
<path d="M52 39.2V5C52 4.73478 51.8946 4.48043 51.7071 4.29289C51.5196 4.10536 51.2652 4 51 4H46V3C46 2.20435 45.6839 1.44129 45.1213 0.87868C44.5587 0.316071 43.7956 0 43 0C42.2044 0 41.4413 0.316071 40.8787 0.87868C40.3161 1.44129 40 2.20435 40 3V4H36V3C36 2.20435 35.6839 1.44129 35.1213 0.87868C34.5587 0.316071 33.7956 0 33 0C32.2044 0 31.4413 0.316071 30.8787 0.87868C30.3161 1.44129 30 2.20435 30 3V4H22V3C22 2.20435 21.6839 1.44129 21.1213 0.87868C20.5587 0.316071 19.7956 0 19 0C18.2044 0 17.4413 0.316071 16.8787 0.87868C16.3161 1.44129 16 2.20435 16 3V4H12V3C12 2.20435 11.6839 1.44129 11.1213 0.87868C10.5587 0.316071 9.79565 0 9 0C8.20435 0 7.44129 0.316071 6.87868 0.87868C6.31607 1.44129 6 2.20435 6 3V4H1C0.734784 4 0.48043 4.10536 0.292893 4.29289C0.105357 4.48043 0 4.73478 0 5V49C0 49.2652 0.105357 49.5196 0.292893 49.7071C0.48043 49.8946 0.734784 50 1 50H40.051C40.2363 51.8402 40.9283 53.593 42.0502 55.0635C43.172 56.534 44.6796 57.6645 46.4055 58.3295C48.1314 58.9944 50.0078 59.1677 51.8263 58.83C53.6447 58.4924 55.3339 57.657 56.7061 56.4169C58.0782 55.1767 59.0795 53.5802 59.5986 51.8051C60.1178 50.0299 60.1345 48.1455 59.6468 46.3614C59.1592 44.5773 58.1863 42.9634 56.8363 41.6992C55.4863 40.4349 53.8122 39.5698 52 39.2V39.2ZM42 3C42 2.73478 42.1054 2.48043 42.2929 2.29289C42.4804 2.10536 42.7348 2 43 2C43.2652 2 43.5196 2.10536 43.7071 2.29289C43.8946 2.48043 44 2.73478 44 3V7H42V3ZM32 3C32 2.73478 32.1054 2.48043 32.2929 2.29289C32.4804 2.10536 32.7348 2 33 2C33.2652 2 33.5196 2.10536 33.7071 2.29289C33.8946 2.48043 34 2.73478 34 3V7H32V3ZM18 3C18 2.73478 18.1054 2.48043 18.2929 2.29289C18.4804 2.10536 18.7348 2 19 2C19.2652 2 19.5196 2.10536 19.7071 2.29289C19.8946 2.48043 20 2.73478 20 3V7H18V3ZM8 5V3C8 2.73478 8.10536 2.48043 8.29289 2.29289C8.48043 2.10536 8.73478 2 9 2C9.26522 2 9.51957 2.10536 9.70711 2.29289C9.89464 2.48043 10 2.73478 10 3V7H8V5ZM2 6H6V8C6 8.26522 6.10536 8.51957 6.29289 8.70711C6.48043 8.89464 6.73478 9 7 9H11C11.2652 9 11.5196 8.89464 11.7071 8.70711C11.8946 8.51957 12 8.26522 12 8V6H16V8C16 8.26522 16.1054 8.51957 16.2929 8.70711C16.4804 8.89464 16.7348 9 17 9H21C21.2652 9 21.5196 8.89464 21.7071 8.70711C21.8946 8.51957 22 8.26522 22 8V6H30V8C30 8.26522 30.1054 8.51957 30.2929 8.70711C30.4804 8.89464 30.7348 9 31 9H35C35.2652 9 35.5196 8.89464 35.7071 8.70711C35.8946 8.51957 36 8.26522 36 8V6H40V8C40 8.26522 40.1054 8.51957 40.2929 8.70711C40.4804 8.89464 40.7348 9 41 9H45C45.2652 9 45.5196 8.89464 45.7071 8.70711C45.8946 8.51957 46 8.26522 46 8V6H50V10H2V6ZM2 48V12H50V39C47.5219 39.0031 45.1331 39.925 43.2954 41.5874C41.4577 43.2499 40.3017 45.5347 40.051 48H2ZM50 57C48.4177 57 46.871 56.5308 45.5554 55.6518C44.2398 54.7727 43.2145 53.5233 42.609 52.0615C42.0035 50.5997 41.845 48.9911 42.1537 47.4393C42.4624 45.8874 43.2243 44.462 44.3431 43.3431C45.462 42.2243 46.8874 41.4624 48.4393 41.1537C49.9911 40.845 51.5997 41.0035 53.0615 41.609C54.5233 42.2145 55.7727 43.2398 56.6518 44.5554C57.5308 45.871 58 47.4177 58 49C57.9976 51.121 57.154 53.1544 55.6542 54.6542C54.1544 56.154 52.121 56.9976 50 57Z" fill="white"/>
<path d="M47.8002 44.3999L46.2002 45.5999L49.2002 49.5999C49.3547 49.8056 49.5824 49.9438 49.8362 49.9859L55.8362 50.9859L56.1642 49.0139L50.5642 48.0789L47.8002 44.3999Z" fill="white"/>
<path d="M38 17C37.2044 17 36.4413 17.3161 35.8787 17.8787C35.3161 18.4413 35 19.2044 35 20C35 20.011 35 20.021 35 20.032L31.482 22.143C31.3713 22.2095 31.2745 22.2967 31.197 22.4L25.783 29.618L19.578 25.187C19.3658 25.0361 19.1031 24.9739 18.8458 25.0137C18.5884 25.0535 18.3568 25.1921 18.2 25.4L12.768 32.644L8 29.465V16H6V43C6 43.2652 6.10536 43.5196 6.29289 43.7071C6.48043 43.8946 6.73478 44 7 44H39V42H8V31.868L12.445 34.832C12.6577 34.9739 12.9167 35.0289 13.1687 34.9858C13.4207 34.9426 13.6466 34.8046 13.8 34.6L19.214 27.382L25.419 31.813C25.6314 31.9648 25.8948 32.0275 26.1529 31.9877C26.4109 31.9479 26.6432 31.8088 26.8 31.6L32.683 23.757L35.724 21.932C36.0495 22.3154 36.4664 22.6105 36.9361 22.7903C37.4059 22.97 37.9133 23.0285 38.4116 22.9604C38.9099 22.8923 39.383 22.6998 39.7873 22.4006C40.1915 22.1014 40.5139 21.7052 40.7246 21.2485C40.9354 20.7919 41.0277 20.2895 40.993 19.7877C40.9584 19.286 40.7979 18.8011 40.5264 18.3777C40.2549 17.9544 39.8811 17.6062 39.4396 17.3654C38.998 17.1246 38.5029 16.999 38 17V17ZM38 21C37.8022 21 37.6089 20.9414 37.4444 20.8315C37.28 20.7216 37.1518 20.5654 37.0761 20.3827C37.0004 20.2 36.9806 19.9989 37.0192 19.8049C37.0578 19.6109 37.153 19.4327 37.2929 19.2929C37.4327 19.153 37.6109 19.0578 37.8049 19.0192C37.9989 18.9806 38.2 19.0004 38.3827 19.0761C38.5654 19.1518 38.7216 19.28 38.8315 19.4444C38.9414 19.6089 39 19.8022 39 20C39 20.2652 38.8946 20.5196 38.7071 20.7071C38.5196 20.8946 38.2652 21 38 21Z" fill="white"/>
<path d="M28 34H24V36H28V34Z" fill="white"/>
<path d="M21 21H17V23H21V21Z" fill="white"/>
<path d="M15 37H11V39H15V37Z" fill="white"/>
</svg>
