<svg width="49" height="59" viewBox="0 0 49 59" fill="none" xmlns="http://www.w3.org/2000/svg">
<path d="M7 12V30H6C5.20435 30 4.44129 30.3161 3.87868 30.8787C3.31607 31.4413 3 32.2044 3 33V51H1C0.734784 51 0.48043 51.1054 0.292893 51.2929C0.105357 51.4804 0 51.7348 0 52V54C0.00158786 55.3256 0.528882 56.5964 1.46622 57.5338C2.40356 58.4711 3.6744 58.9984 5 59H37C38.3256 58.9984 39.5964 58.4711 40.5338 57.5338C41.4711 56.5964 41.9984 55.3256 42 54V52C42 51.7348 41.8946 51.4804 41.7071 51.2929C41.5196 51.1054 41.2652 51 41 51H39V33C39 32.2044 38.6839 31.4413 38.1213 30.8787C37.5587 30.3161 36.7956 30 36 30H35V15H40C40.2652 15 40.5196 14.8946 40.7071 14.7071C40.8946 14.5196 41 14.2652 41 14V12C40.9984 10.6744 40.4711 9.40356 39.5338 8.46622C38.5964 7.52888 37.3256 7.00159 36 7H12C10.6744 7.00159 9.40356 7.52888 8.46622 8.46622C7.52888 9.40356 7.00159 10.6744 7 12V12ZM35 9H36C36.7956 9 37.5587 9.31607 38.1213 9.87868C38.6839 10.4413 39 11.2044 39 12V13H35V9ZM5 33C5 32.7348 5.10536 32.4804 5.29289 32.2929C5.48043 32.1054 5.73478 32 6 32H7V51H5V33ZM35 38V32H36C36.2652 32 36.5196 32.1054 36.7071 32.2929C36.8946 32.4804 37 32.7348 37 33V51H35V38ZM38 53H40V54C40 54.7956 39.6839 55.5587 39.1213 56.1213C38.5587 56.6839 37.7956 57 37 57H5C4.20435 57 3.44129 56.6839 2.87868 56.1213C2.31607 55.5587 2 54.7956 2 54V53H16.28L17.052 55.316C17.1183 55.515 17.2455 55.6882 17.4156 55.811C17.5858 55.9337 17.7902 55.9998 18 56H24C24.2098 55.9998 24.4142 55.9337 24.5844 55.811C24.7545 55.6882 24.8817 55.515 24.948 55.316L25.72 53H38ZM18.388 53H23.612L23.279 54H18.721L18.388 53ZM9 38V12C9 11.2044 9.31607 10.4413 9.87868 9.87868C10.4413 9.31607 11.2044 9 12 9H33V51H9V38Z" fill="white"/>
<path d="M12 27H30C30.2652 27 30.5196 26.8946 30.7071 26.7071C30.8946 26.5196 31 26.2652 31 26V12C31 11.7348 30.8946 11.4804 30.7071 11.2929C30.5196 11.1054 30.2652 11 30 11H12C11.7348 11 11.4804 11.1054 11.2929 11.2929C11.1054 11.4804 11 11.7348 11 12V26C11 26.2652 11.1054 26.5196 11.2929 26.7071C11.4804 26.8946 11.7348 27 12 27ZM13 13H29V25H13V13Z" fill="white"/>
<path d="M24.447 18.105L18.447 15.105C18.2945 15.0288 18.1251 14.9928 17.9548 15.0005C17.7845 15.0082 17.619 15.0594 17.474 15.149C17.329 15.2387 17.2093 15.364 17.1264 15.5129C17.0434 15.6618 16.9999 15.8295 17 16V22C16.9999 22.1705 17.0434 22.3381 17.1264 22.4871C17.2093 22.636 17.329 22.7612 17.474 22.8509C17.619 22.9406 17.7845 22.9917 17.9548 22.9994C18.1251 23.0071 18.2945 22.9712 18.447 22.895L24.447 19.895C24.6134 19.812 24.7534 19.6844 24.8512 19.5263C24.9491 19.3682 25.0009 19.1859 25.0009 19C25.0009 18.814 24.9491 18.6318 24.8512 18.4737C24.7534 18.3156 24.6134 18.1879 24.447 18.105ZM19 20.382V17.618L21.764 19L19 20.382Z" fill="white"/>
<path d="M12 39H17C17.2652 39 17.5196 38.8946 17.7071 38.7071C17.8946 38.5196 18 38.2652 18 38V30C18 29.7348 17.8946 29.4804 17.7071 29.2929C17.5196 29.1054 17.2652 29 17 29H12C11.7348 29 11.4804 29.1054 11.2929 29.2929C11.1054 29.4804 11 29.7348 11 30V38C11 38.2652 11.1054 38.5196 11.2929 38.7071C11.4804 38.8946 11.7348 39 12 39ZM13 31H16V37H13V31Z" fill="white"/>
<path d="M30 33H21C20.7348 33 20.4804 33.1054 20.2929 33.2929C20.1054 33.4804 20 33.7348 20 34C20 34.2652 20.1054 34.5196 20.2929 34.7071C20.4804 34.8946 20.7348 35 21 35H30C30.2652 35 30.5196 34.8946 30.7071 34.7071C30.8946 34.5196 31 34.2652 31 34C31 33.7348 30.8946 33.4804 30.7071 33.2929C30.5196 33.1054 30.2652 33 30 33Z" fill="white"/>
<path d="M30 29H21C20.7348 29 20.4804 29.1054 20.2929 29.2929C20.1054 29.4804 20 29.7348 20 30C20 30.2652 20.1054 30.5196 20.2929 30.7071C20.4804 30.8946 20.7348 31 21 31H30C30.2652 31 30.5196 30.8946 30.7071 30.7071C30.8946 30.5196 31 30.2652 31 30C31 29.7348 30.8946 29.4804 30.7071 29.2929C30.5196 29.1054 30.2652 29 30 29V29Z" fill="white"/>
<path d="M30 37H21C20.7348 37 20.4804 37.1054 20.2929 37.2929C20.1054 37.4804 20 37.7348 20 38C20 38.2652 20.1054 38.5196 20.2929 38.7071C20.4804 38.8946 20.7348 39 21 39H30C30.2652 39 30.5196 38.8946 30.7071 38.7071C30.8946 38.5196 31 38.2652 31 38C31 37.7348 30.8946 37.4804 30.7071 37.2929C30.5196 37.1054 30.2652 37 30 37Z" fill="white"/>
<path d="M30 41H21C20.7348 41 20.4804 41.1054 20.2929 41.2929C20.1054 41.4804 20 41.7348 20 42V48C20 48.2652 20.1054 48.5196 20.2929 48.7071C20.4804 48.8946 20.7348 49 21 49H30C30.2652 49 30.5196 48.8946 30.7071 48.7071C30.8946 48.5196 31 48.2652 31 48V42C31 41.7348 30.8946 41.4804 30.7071 41.2929C30.5196 41.1054 30.2652 41 30 41ZM29 47H22V43H29V47Z" fill="white"/>
<path d="M12 44H17C17.2652 44 17.5196 43.8946 17.7071 43.7071C17.8946 43.5196 18 43.2652 18 43C18 42.7348 17.8946 42.4804 17.7071 42.2929C17.5196 42.1054 17.2652 42 17 42H12C11.7348 42 11.4804 42.1054 11.2929 42.2929C11.1054 42.4804 11 42.7348 11 43C11 43.2652 11.1054 43.5196 11.2929 43.7071C11.4804 43.8946 11.7348 44 12 44Z" fill="white"/>
<path d="M18 47C18 46.7348 17.8946 46.4804 17.7071 46.2929C17.5196 46.1054 17.2652 46 17 46H12C11.7348 46 11.4804 46.1054 11.2929 46.2929C11.1054 46.4804 11 46.7348 11 47C11 47.2652 11.1054 47.5196 11.2929 47.7071C11.4804 47.8946 11.7348 48 12 48H17C17.2652 48 17.5196 47.8946 17.7071 47.7071C17.8946 47.5196 18 47.2652 18 47Z" fill="white"/>
<path d="M40 6C40.7956 6 41.5587 6.31607 42.1213 6.87868C42.6839 7.44129 43 8.20435 43 9C43 9.26522 43.1054 9.51957 43.2929 9.70711C43.4804 9.89464 43.7348 10 44 10C44.2652 10 44.5196 9.89464 44.7071 9.70711C44.8946 9.51957 45 9.26522 45 9C44.9984 7.6744 44.4711 6.40356 43.5338 5.46622C42.5964 4.52888 41.3256 4.00159 40 4C39.7348 4 39.4804 4.10536 39.2929 4.29289C39.1054 4.48043 39 4.73478 39 5C39 5.26522 39.1054 5.51957 39.2929 5.70711C39.4804 5.89464 39.7348 6 40 6Z" fill="white"/>
<path d="M40 2C41.8558 2.00238 43.6349 2.74064 44.9471 4.05288C46.2594 5.36512 46.9976 7.14422 47 9C47 9.26522 47.1054 9.51957 47.2929 9.70711C47.4804 9.89464 47.7348 10 48 10C48.2652 10 48.5196 9.89464 48.7071 9.70711C48.8946 9.51957 49 9.26522 49 9C48.9974 6.61386 48.0483 4.32622 46.361 2.63896C44.6738 0.951708 42.3861 0.00264685 40 0C39.7348 0 39.4804 0.105357 39.2929 0.292893C39.1054 0.48043 39 0.734784 39 1C39 1.26522 39.1054 1.51957 39.2929 1.70711C39.4804 1.89464 39.7348 2 40 2Z" fill="white"/>
</svg>
