<svg width="55" height="48" viewBox="0 0 55 48" fill="none" xmlns="http://www.w3.org/2000/svg">
<path d="M10 43H8V45H10V43Z" fill="white"/>
<path d="M52 0H10C9.20435 0 8.44129 0.31607 7.87868 0.878679C7.31607 1.44129 7 2.20435 7 3V17H3C2.20435 17 1.44129 17.3161 0.87868 17.8787C0.316071 18.4413 0 19.2044 0 20V45C0 45.7956 0.316071 46.5587 0.87868 47.1213C1.44129 47.6839 2.20435 48 3 48H15C15.7956 48 16.5587 47.6839 17.1213 47.1213C17.6839 46.5587 18 45.7956 18 45V39H25V41.723L22.143 46.485C22.0518 46.6367 22.0026 46.8099 22.0003 46.9869C21.998 47.1639 22.0427 47.3383 22.1298 47.4924C22.2169 47.6464 22.3434 47.7746 22.4963 47.8638C22.6492 47.953 22.823 48 23 48H39C39.177 48 39.3508 47.953 39.5037 47.8638C39.6566 47.7746 39.7831 47.6464 39.8702 47.4924C39.9573 47.3383 40.002 47.1639 39.9997 46.9869C39.9974 46.8099 39.9482 46.6367 39.857 46.485L37 41.723V39H52C52.7956 39 53.5587 38.6839 54.1213 38.1213C54.6839 37.5587 55 36.7956 55 36V3C55 2.20435 54.6839 1.44129 54.1213 0.878679C53.5587 0.31607 52.7956 0 52 0V0ZM16 45C16 45.2652 15.8946 45.5196 15.7071 45.7071C15.5196 45.8946 15.2652 46 15 46H3C2.73478 46 2.48043 45.8946 2.29289 45.7071C2.10536 45.5196 2 45.2652 2 45V42H16V45ZM16 40H2V23H16V40ZM16 21H2V20C2 19.7348 2.10536 19.4804 2.29289 19.2929C2.48043 19.1054 2.73478 19 3 19H15C15.2652 19 15.5196 19.1054 15.7071 19.2929C15.8946 19.4804 16 19.7348 16 20V21ZM15 17H13V6H18V20C18 19.2044 17.6839 18.4413 17.1213 17.8787C16.5587 17.3161 15.7956 17 15 17ZM37.233 46H24.767L26.857 42.515C26.9505 42.3595 26.9999 42.1815 27 42V39H35V42C35.0001 42.1815 35.0495 42.3595 35.143 42.515L37.233 46ZM53 36C53 36.2652 52.8946 36.5196 52.7071 36.7071C52.5196 36.8946 52.2652 37 52 37H18V31H53V36ZM53 29H18V26H19C19.2652 26 19.5196 25.8946 19.7071 25.7071C19.8946 25.5196 20 25.2652 20 25V5C20 4.73478 19.8946 4.48043 19.7071 4.29289C19.5196 4.10536 19.2652 4 19 4H12C11.7348 4 11.4804 4.10536 11.2929 4.29289C11.1054 4.48043 11 4.73478 11 5V17H9V3C9 2.73478 9.10536 2.48043 9.29289 2.29289C9.48043 2.10536 9.73478 2 10 2H52C52.2652 2 52.5196 2.10536 52.7071 2.29289C52.8946 2.48043 53 2.73478 53 3V29Z" fill="white"/>
<path d="M32 33H30V35H32V33Z" fill="white"/>
<path d="M9 35C9.98891 35 10.9556 34.7068 11.7779 34.1574C12.6001 33.6079 13.241 32.8271 13.6194 31.9134C13.9978 30.9998 14.0969 29.9945 13.9039 29.0245C13.711 28.0546 13.2348 27.1637 12.5355 26.4645C11.8363 25.7652 10.9454 25.289 9.97545 25.0961C9.00555 24.9031 8.00021 25.0022 7.08658 25.3806C6.17295 25.759 5.39206 26.3999 4.84265 27.2222C4.29325 28.0444 4 29.0111 4 30C4.00159 31.3256 4.52888 32.5964 5.46622 33.5338C6.40356 34.4711 7.6744 34.9984 9 35V35ZM9 27C9.59334 27 10.1734 27.176 10.6667 27.5056C11.1601 27.8352 11.5446 28.3038 11.7716 28.852C11.9987 29.4001 12.0581 30.0033 11.9424 30.5853C11.8266 31.1672 11.5409 31.7018 11.1213 32.1213C10.7018 32.5409 10.1672 32.8266 9.58527 32.9424C9.00333 33.0581 8.40013 32.9987 7.85195 32.7716C7.30377 32.5446 6.83524 32.1601 6.50559 31.6667C6.17595 31.1734 6 30.5933 6 30C6 29.2044 6.31607 28.4413 6.87868 27.8787C7.44129 27.3161 8.20435 27 9 27V27Z" fill="white"/>
<path d="M14 36H4V38H14V36Z" fill="white"/>
<path d="M31 4C29.22 4 27.4799 4.52784 25.9999 5.51677C24.5198 6.50571 23.3663 7.91131 22.6851 9.55585C22.0039 11.2004 21.8257 13.01 22.1729 14.7558C22.5202 16.5016 23.3774 18.1053 24.636 19.364C25.8947 20.6226 27.4984 21.4798 29.2442 21.8271C30.99 22.1743 32.7996 21.9961 34.4442 21.3149C36.0887 20.6337 37.4943 19.4802 38.4832 18.0001C39.4722 16.5201 40 14.78 40 13C39.9974 10.6139 39.0483 8.32622 37.361 6.63896C35.6738 4.95171 33.3861 4.00265 31 4V4ZM31 20C29.6155 20 28.2622 19.5895 27.111 18.8203C25.9599 18.0511 25.0627 16.9579 24.5328 15.6788C24.003 14.3997 23.8644 12.9922 24.1345 11.6344C24.4046 10.2765 25.0713 9.02922 26.0503 8.05025C27.0292 7.07129 28.2765 6.4046 29.6344 6.1345C30.9922 5.86441 32.3997 6.00303 33.6788 6.53284C34.9579 7.06266 36.0511 7.95986 36.8203 9.11101C37.5895 10.2622 38 11.6155 38 13C37.9976 14.8558 37.2594 16.6349 35.9471 17.9471C34.6349 19.2594 32.8558 19.9976 31 20V20Z" fill="white"/>
<path d="M39 24H23V26H39V24Z" fill="white"/>
<path d="M50 4H43C42.7348 4 42.4804 4.10536 42.2929 4.29289C42.1054 4.48043 42 4.73478 42 5V14C42 14.2652 42.1054 14.5196 42.2929 14.7071C42.4804 14.8946 42.7348 15 43 15H50C50.2652 15 50.5196 14.8946 50.7071 14.7071C50.8946 14.5196 51 14.2652 51 14V5C51 4.73478 50.8946 4.48043 50.7071 4.29289C50.5196 4.10536 50.2652 4 50 4ZM49 13H44V6H49V13Z" fill="white"/>
<path d="M50 17H43C42.7348 17 42.4804 17.1054 42.2929 17.2929C42.1054 17.4804 42 17.7348 42 18V25C42 25.2652 42.1054 25.5196 42.2929 25.7071C42.4804 25.8946 42.7348 26 43 26H50C50.2652 26 50.5196 25.8946 50.7071 25.7071C50.8946 25.5196 51 25.2652 51 25V18C51 17.7348 50.8946 17.4804 50.7071 17.2929C50.5196 17.1054 50.2652 17 50 17ZM49 24H44V19H49V24Z" fill="white"/>
</svg>
