<svg width="75" height="75" viewBox="0 0 75 75" fill="none" xmlns="http://www.w3.org/2000/svg">
<path d="M75 37.5127C75.0042 31.2759 73.4518 25.1366 70.4833 19.651C67.5149 14.1654 63.2243 9.50687 58.0001 6.0974C52.776 2.68793 46.7835 0.635303 40.5655 0.125472C34.3475 -0.38436 28.1005 0.664718 22.3904 3.17766C16.6804 5.69061 11.6877 9.588 7.8648 14.5168C4.04188 19.4455 1.50949 25.2499 0.497062 31.404C-0.515369 37.5581 0.0241499 43.8675 2.06674 49.7606C4.10933 55.6537 7.59045 60.9442 12.1947 65.1528C12.3375 65.3132 12.4979 65.4571 12.6728 65.5817C19.5189 71.6497 28.3515 75.0003 37.501 75C46.6505 74.9997 55.4829 71.6487 62.3286 65.5803C62.5022 65.4565 62.6615 65.3137 62.8035 65.1546C66.6479 61.6486 69.7183 57.3793 71.8184 52.6197C73.9185 47.8601 75.0021 42.7148 75 37.5127V37.5127ZM5.76923 37.5127C5.76515 32.3738 7.01014 27.3107 9.39706 22.7593C11.784 18.2079 15.2414 14.3044 19.4717 11.3846C23.7021 8.46485 28.5787 6.61627 33.6821 5.99795C38.7854 5.37962 43.9627 6.01005 48.7683 7.83501C53.5739 9.65997 57.864 12.6248 61.2695 16.4744C64.675 20.324 67.0939 24.9431 68.318 29.9342C69.5421 34.9254 69.5349 40.1391 68.2968 45.1268C67.0588 50.1145 64.627 54.7268 61.2108 58.5669C57.9953 53.9059 53.4717 50.3007 48.2099 48.2056C51.0359 45.9802 53.0981 42.9298 54.1095 39.4785C55.121 36.0273 55.0315 32.3467 53.8535 28.9486C52.6755 25.5505 50.4675 22.6039 47.5366 20.5184C44.6057 18.4329 41.0976 17.3122 37.5 17.3122C33.9024 17.3122 30.3943 18.4329 27.4634 20.5184C24.5325 22.6039 22.3245 25.5505 21.1465 28.9486C19.9685 32.3467 19.879 36.0273 20.8904 39.4785C21.9019 42.9298 23.9641 45.9802 26.7901 48.2056C21.5283 50.3007 17.0046 53.9059 13.7892 58.5669C8.61823 52.7727 5.7632 45.2776 5.76923 37.5127V37.5127ZM25.9615 34.6291C25.9615 32.3478 26.6383 30.1177 27.9061 28.2208C29.174 26.324 30.976 24.8455 33.0844 23.9725C35.1928 23.0995 37.5128 22.8711 39.751 23.3161C41.9893 23.7612 44.0452 24.8598 45.6589 26.4729C47.2726 28.086 48.3715 30.1413 48.8168 32.3788C49.262 34.6163 49.0335 36.9355 48.1601 39.0432C47.2868 41.1508 45.8079 42.9523 43.9104 44.2197C42.0129 45.4872 39.7821 46.1636 37.5 46.1636C34.4409 46.1602 31.508 44.9439 29.3449 42.7815C27.1817 40.619 25.965 37.6872 25.9615 34.6291V34.6291ZM18.0588 62.564C20.147 59.3037 23.0221 56.6209 26.4195 54.7627C29.8169 52.9045 33.6273 51.9306 37.5 51.9306C41.3727 51.9306 45.1831 52.9045 48.5805 54.7627C51.9778 56.6209 54.853 59.3037 56.9412 62.564C51.3829 66.8862 44.5419 69.2329 37.5 69.2329C30.4581 69.2329 23.6171 66.8862 18.0588 62.564V62.564Z" fill="#E2E7F7"/>
</svg>
