<svg width="70" height="70" viewBox="0 0 70 70" fill="none" xmlns="http://www.w3.org/2000/svg">
<path d="M30.1496 41.4775L32.0798 40.8623L36.1574 44.4815C36.3944 44.6953 36.7065 44.8065 37.0253 44.7907C37.3442 44.7748 37.6437 44.6333 37.8584 44.397L40.428 41.5499C40.5357 41.4323 40.6191 41.2945 40.6732 41.1444C40.7273 40.9944 40.7511 40.8351 40.7433 40.6758C40.7354 40.5165 40.696 40.3603 40.6274 40.2163C40.5588 40.0723 40.4623 39.9433 40.3436 39.8368L38.9924 38.6305L43.3234 37.2672C43.4964 37.2116 43.6546 37.1176 43.7862 36.9923C43.9178 36.867 44.0194 36.7135 44.0834 36.5434C44.1477 36.3751 44.1734 36.1946 44.1588 36.0151C44.1442 35.8355 44.0896 35.6616 43.9989 35.5059L38.3289 25.6979C38.2388 25.5416 38.1149 25.4075 37.9661 25.3054C37.8173 25.2033 37.6476 25.1359 37.4693 25.1081C37.2911 25.0804 37.1088 25.0929 36.9361 25.1449C36.7633 25.1968 36.6044 25.2869 36.4711 25.4084L26.277 34.7338C26.0739 34.9196 25.9404 35.1692 25.8987 35.4414C25.857 35.7135 25.9096 35.9917 26.0478 36.2297L28.7381 40.8864C28.8687 41.133 29.0807 41.3266 29.3381 41.4344C29.5955 41.5422 29.8822 41.5574 30.1496 41.4775ZM37.8222 40.8864L36.8692 41.948L34.7459 40.0299L36.3263 39.5232L37.8222 40.8864ZM36.9898 28.2555L41.1519 35.4938L30.2943 38.9079L28.5812 35.904L36.9898 28.2555Z" fill="white"/>
<path d="M33.7674 57.0399V57.1123C33.216 57.3828 32.7727 57.8323 32.5098 58.3873C32.2469 58.9424 32.18 59.5702 32.32 60.1681C32.4601 60.7661 32.7988 61.2989 33.2808 61.6795C33.7628 62.0601 34.3597 62.266 34.9738 62.2636C35.057 62.2636 35.1368 62.2966 35.1956 62.3554C35.2544 62.4143 35.2875 62.494 35.2875 62.5772C35.2875 62.8547 34.8652 62.903 34.7567 62.7944C34.6442 62.6819 34.5106 62.5927 34.3637 62.5318C34.2167 62.4709 34.0592 62.4396 33.9001 62.4396C33.741 62.4396 33.5835 62.4709 33.4366 62.5318C33.2896 62.5927 33.1561 62.6819 33.0436 62.7944C32.9311 62.9069 32.8419 63.0404 32.781 63.1874C32.7201 63.3343 32.6888 63.4918 32.6888 63.6509C32.6888 63.81 32.7201 63.9675 32.781 64.1145C32.8419 64.2614 32.9311 64.395 33.0436 64.5075C33.2586 64.7111 33.5025 64.8818 33.7674 65.0141V65.0865C33.7674 65.4065 33.8945 65.7133 34.1208 65.9396C34.347 66.1658 34.6539 66.2929 34.9738 66.2929C35.2938 66.2929 35.6006 66.1658 35.8269 65.9396C36.0531 65.7133 36.1802 65.4065 36.1802 65.0865V65.0141C36.7277 64.7395 37.1667 64.2885 37.4265 63.7339C37.6864 63.1793 37.7519 62.5533 37.6126 61.9569C37.4732 61.3604 37.1371 60.8283 36.6584 60.4462C36.1797 60.0642 35.5863 59.8544 34.9738 59.8508C34.9283 59.8598 34.8814 59.8587 34.8364 59.8474C34.7914 59.8362 34.7495 59.815 34.7136 59.7856C34.6778 59.7562 34.6489 59.7192 34.629 59.6773C34.6092 59.6353 34.5989 59.5895 34.5989 59.5432C34.5989 59.4968 34.6092 59.451 34.629 59.409C34.6489 59.3671 34.6778 59.3301 34.7136 59.3007C34.7495 59.2713 34.7914 59.2502 34.8364 59.2389C34.8814 59.2276 34.9283 59.2265 34.9738 59.2355C35.0138 59.2345 35.0536 59.2414 35.0909 59.2559C35.1281 59.2704 35.1622 59.2922 35.191 59.32C35.3031 59.433 35.4365 59.5228 35.5836 59.584C35.7306 59.6453 35.8882 59.6768 36.0475 59.6768C36.2068 59.6768 36.3644 59.6453 36.5115 59.584C36.6585 59.5228 36.7919 59.433 36.904 59.32C37.1287 59.0939 37.2548 58.7882 37.2548 58.4695C37.2548 58.1508 37.1287 57.845 36.904 57.619C36.6922 57.4115 36.4476 57.2403 36.1802 57.1123V57.0399C36.1802 56.7199 36.0531 56.4131 35.8269 56.1868C35.6006 55.9606 35.2938 55.8335 34.9738 55.8335C34.6539 55.8335 34.347 55.9606 34.1208 56.1868C33.8945 56.4131 33.7674 56.7199 33.7674 57.0399V57.0399Z" fill="white"/>
<path d="M36.1802 12.9579V12.8855C36.7316 12.615 37.1749 12.1655 37.4378 11.6104C37.7007 11.0554 37.7676 10.4276 37.6276 9.8296C37.4875 9.23162 37.1488 8.69881 36.6668 8.31821C36.1848 7.93761 35.588 7.73172 34.9738 7.73418C34.8906 7.73418 34.8108 7.70114 34.752 7.64231C34.6932 7.58349 34.6601 7.50371 34.6601 7.42052C34.6601 7.33733 34.6932 7.25755 34.752 7.19873C34.8108 7.13991 34.8906 7.10686 34.9738 7.10686C35.0147 7.1074 35.055 7.11624 35.0923 7.13283C35.1296 7.14942 35.1632 7.17342 35.191 7.20337C35.2999 7.31966 35.4308 7.41322 35.5761 7.47864C35.7214 7.54407 35.8782 7.58006 36.0374 7.58455C36.1967 7.58904 36.3553 7.56193 36.504 7.50478C36.6528 7.44764 36.7887 7.3616 36.904 7.25163C37.1287 7.02559 37.2548 6.71983 37.2548 6.40112C37.2548 6.08241 37.1287 5.77665 36.904 5.55061C36.696 5.3386 36.4506 5.16683 36.1802 5.04393V4.91123C36.1802 4.59127 36.0531 4.28442 35.8269 4.05818C35.6006 3.83194 35.2938 3.70483 34.9738 3.70483C34.6539 3.70483 34.347 3.83194 34.1208 4.05818C33.8945 4.28442 33.7674 4.59127 33.7674 4.91123V4.99567C33.216 5.26617 32.7727 5.71566 32.5098 6.27071C32.2469 6.82577 32.18 7.45357 32.32 8.05155C32.4601 8.64953 32.7988 9.18235 33.2808 9.56295C33.7628 9.94355 34.3597 10.1494 34.9738 10.147C35.057 10.147 35.1368 10.18 35.1956 10.2388C35.2544 10.2977 35.2875 10.3774 35.2875 10.4606C35.2875 10.7381 34.8652 10.7864 34.7567 10.6778C34.6445 10.5647 34.5111 10.475 34.3641 10.4137C34.2171 10.3525 34.0594 10.3209 33.9001 10.3209C33.7409 10.3209 33.5832 10.3525 33.4362 10.4137C33.2892 10.475 33.1557 10.5647 33.0436 10.6778C32.8189 10.9038 32.6928 11.2096 32.6928 11.5283C32.6928 11.847 32.8189 12.1528 33.0436 12.3788C33.2554 12.5863 33.5 12.7574 33.7674 12.8855V12.9579C33.7674 13.2778 33.8945 13.5847 34.1208 13.8109C34.347 14.0372 34.6539 14.1643 34.9738 14.1643C35.2938 14.1643 35.6006 14.0372 35.8269 13.8109C36.0531 13.5847 36.1802 13.2778 36.1802 12.9579V12.9579Z" fill="white"/>
<path d="M8.91484 36.2054C8.96033 36.1964 9.00726 36.1975 9.05225 36.2088C9.09724 36.2201 9.13918 36.2412 9.17503 36.2706C9.21089 36.3 9.23977 36.337 9.2596 36.379C9.27943 36.4209 9.28972 36.4667 9.28972 36.5131C9.28972 36.5595 9.27943 36.6053 9.2596 36.6472C9.23977 36.6891 9.21089 36.7261 9.17503 36.7555C9.13918 36.785 9.09724 36.8061 9.05225 36.8173C9.00726 36.8286 8.96033 36.8298 8.91484 36.8207C8.87485 36.8217 8.83506 36.8148 8.79778 36.8003C8.7605 36.7858 8.72647 36.764 8.69769 36.7363C8.58554 36.6232 8.45211 36.5334 8.3051 36.4722C8.15809 36.4109 8.00041 36.3794 7.84115 36.3794C7.68189 36.3794 7.52421 36.4109 7.3772 36.4722C7.23019 36.5334 7.09676 36.6232 6.98461 36.7363C6.75992 36.9623 6.6338 37.2681 6.6338 37.5868C6.6338 37.9055 6.75992 38.2112 6.98461 38.4373C7.19646 38.6447 7.441 38.8159 7.70844 38.944V39.0163C7.70844 39.3363 7.83555 39.6431 8.06179 39.8694C8.28803 40.0956 8.59488 40.2227 8.91484 40.2227C9.23479 40.2227 9.54164 40.0956 9.76789 39.8694C9.99413 39.6431 10.1212 39.3363 10.1212 39.0163V38.944C10.6726 38.6735 11.116 38.224 11.3789 37.6689C11.6418 37.1139 11.7086 36.4861 11.5686 35.8881C11.4286 35.2901 11.0899 34.7573 10.6078 34.3767C10.1258 33.9961 9.52899 33.7902 8.91484 33.7927C8.83165 33.7927 8.75187 33.7596 8.69305 33.7008C8.63422 33.642 8.60118 33.5622 8.60118 33.479C8.60118 33.2015 9.02341 33.1533 9.13199 33.2618C9.24447 33.3743 9.37801 33.4636 9.52497 33.5244C9.67194 33.5853 9.82945 33.6166 9.98853 33.6166C10.1476 33.6166 10.3051 33.5853 10.4521 33.5244C10.599 33.4636 10.7326 33.3743 10.8451 33.2618C10.9575 33.1494 11.0468 33.0158 11.1076 32.8689C11.1685 32.7219 11.1999 32.5644 11.1999 32.4053C11.1999 32.2462 11.1685 32.0887 11.1076 31.9418C11.0468 31.7948 10.9575 31.6613 10.8451 31.5488C10.6278 31.3479 10.3843 31.1774 10.1212 31.0421V31.0421C10.1212 30.7221 9.99413 30.4153 9.76789 30.189C9.54164 29.9628 9.23479 29.8357 8.91484 29.8357C8.59488 29.8357 8.28803 29.9628 8.06179 30.189C7.83555 30.4153 7.70844 30.7221 7.70844 31.0421C7.16099 31.3167 6.72197 31.7677 6.46212 32.3223C6.20227 32.877 6.13675 33.5029 6.2761 34.0994C6.41545 34.6958 6.75156 35.2279 7.23026 35.61C7.70896 35.992 8.30237 36.2018 8.91484 36.2054Z" fill="white"/>
<path d="M8.91603 43.9273C11.0722 43.9238 13.1542 43.14 14.7775 41.7208C16.4007 40.3015 17.4555 38.3428 17.7468 36.2064H20.0872C20.3464 39.319 21.5741 42.2721 23.5978 44.6511L21.9451 46.328C20.1436 44.9578 17.889 44.323 15.6373 44.552C13.3856 44.7811 11.3049 45.8568 9.8162 47.5616C8.3275 49.2664 7.54192 51.4731 7.61837 53.7351C7.69483 55.9971 8.62761 58.1457 10.228 59.7461C11.8284 61.3465 13.977 62.2793 16.239 62.3557C18.501 62.4322 20.7077 61.6466 22.4125 60.1579C24.1173 58.6692 25.1931 56.5885 25.4221 54.3368C25.6511 52.0851 25.0163 49.8305 23.6461 48.029L25.323 46.3763C27.702 48.4 30.6551 49.6277 33.7677 49.8869V52.2273C31.5255 52.5331 29.483 53.6791 28.0535 55.4334C26.624 57.1877 25.914 59.4195 26.0673 61.6773C26.2206 63.9351 27.2256 66.0505 28.879 67.5955C30.5325 69.1406 32.7111 70 34.9741 70C37.2371 70 39.4157 69.1406 41.0692 67.5955C42.7226 66.0505 43.7277 63.9351 43.8809 61.6773C44.0342 59.4195 43.3242 57.1877 41.8947 55.4334C40.4652 53.6791 38.4227 52.5331 36.1805 52.2273V49.8869C39.2936 49.6301 42.2475 48.4021 44.6252 46.3763L46.278 48.029C45.0559 49.6335 44.4123 51.604 44.4517 53.6205C44.4911 55.637 45.2113 57.5809 46.4952 59.1363C47.7791 60.6918 49.5512 61.7673 51.5237 62.1883C53.4961 62.6092 55.553 62.3507 57.36 61.4549C59.167 60.5591 60.6179 59.0785 61.4771 57.2538C62.3362 55.4291 62.5531 53.3675 62.0924 51.4039C61.6318 49.4404 60.5206 47.6903 58.9396 46.4381C57.3585 45.1859 55.4005 44.5051 53.3836 44.5064C51.4304 44.5 49.5299 45.1406 47.979 46.328L46.3504 44.6511C48.3784 42.2747 49.6066 39.3201 49.861 36.2064H52.2014C52.5072 38.4486 53.6532 40.4911 55.4075 41.9206C57.1618 43.3501 59.3936 44.0601 61.6514 43.9068C63.9092 43.7536 66.0246 42.7485 67.5696 41.0951C69.1147 39.4416 69.9741 37.263 69.9741 35C69.9741 32.737 69.1147 30.5584 67.5696 28.9049C66.0246 27.2515 63.9092 26.2465 61.6514 26.0932C59.3936 25.9399 57.1618 26.6499 55.4075 28.0794C53.6532 29.5089 52.5072 31.5514 52.2014 33.7936H49.861C49.6091 30.6793 48.3805 27.724 46.3504 25.3489L48.0031 23.6961C49.8046 25.0663 52.0592 25.7011 54.3109 25.4721C56.5626 25.2431 58.6433 24.1673 60.132 22.4625C61.6207 20.7577 62.4063 18.5511 62.3298 16.289C62.2534 14.027 61.3206 11.8785 59.7202 10.278C58.1198 8.67763 55.9712 7.74484 53.7092 7.66839C51.4472 7.59194 49.2405 8.37752 47.5357 9.86622C45.8309 11.3549 44.7552 13.4356 44.5261 15.6873C44.2971 17.939 44.9319 20.1936 46.3021 21.9951L44.6252 23.6237C42.2501 21.5936 39.2948 20.3651 36.1805 20.1131V17.7727C38.4227 17.4669 40.4652 16.321 41.8947 14.5666C43.3242 12.8123 44.0342 10.5805 43.8809 8.32272C43.7277 6.0649 42.7226 3.94955 41.0692 2.4045C39.4157 0.85944 37.2371 0 34.9741 0C32.7111 0 30.5325 0.85944 28.879 2.4045C27.2256 3.94955 26.2206 6.0649 26.0673 8.32272C25.914 10.5805 26.624 12.8123 28.0535 14.5666C29.483 16.321 31.5255 17.4669 33.7677 17.7727V20.1131C30.654 20.3675 27.6994 21.5957 25.323 23.6237L23.6461 21.971C25.0163 20.1695 25.6511 17.9149 25.4221 15.6632C25.1931 13.4115 24.1173 11.3308 22.4125 9.8421C20.7077 8.3534 18.501 7.56781 16.239 7.64426C13.977 7.72072 11.8284 8.6535 10.228 10.2539C8.62761 11.8543 7.69483 14.0029 7.61837 16.2649C7.54192 18.5269 8.3275 20.7336 9.8162 22.4384C11.3049 24.1432 13.3856 25.2189 15.6373 25.448C17.889 25.677 20.1436 25.0422 21.9451 23.672L23.5978 25.3489C21.572 27.7266 20.344 30.6805 20.0872 33.7936H17.7468C17.5129 32.0984 16.7961 30.5063 15.6819 29.2074C14.5677 27.9086 13.1032 26.9578 11.4633 26.4687C9.82341 25.9796 8.07739 25.9728 6.43373 26.4491C4.79008 26.9255 3.31824 27.8648 2.19396 29.1549C1.06968 30.4451 0.340477 32.0316 0.0934101 33.7249C-0.153657 35.4183 0.0918561 37.147 0.800635 38.7046C1.50941 40.2622 2.65151 41.5829 4.09054 42.509C5.52958 43.4351 7.20475 43.9275 8.91603 43.9273V43.9273ZM21.1489 58.03C20.2382 58.9423 19.0775 59.5639 17.8135 59.8161C16.5495 60.0684 15.239 59.9401 14.048 59.4474C12.8569 58.9547 11.8388 58.1197 11.1225 57.0481C10.4062 55.9766 10.0238 54.7166 10.0238 53.4277C10.0238 52.1387 10.4062 50.8787 11.1225 49.8072C11.8388 48.7356 12.8569 47.9006 14.048 47.4079C15.239 46.9152 16.5495 46.7868 17.8135 47.0391C19.0775 47.2914 20.2382 47.913 21.1489 48.8253C21.754 49.4292 22.2341 50.1466 22.5617 50.9364C22.8892 51.7261 23.0578 52.5727 23.0578 53.4277C23.0578 54.2826 22.8892 55.1292 22.5617 55.9189C22.2341 56.7087 21.754 57.4261 21.1489 58.03ZM41.4886 61.0581C41.4886 62.3465 41.1066 63.606 40.3907 64.6773C39.6749 65.7487 38.6575 66.5836 37.4671 67.0767C36.2767 67.5698 34.9669 67.6988 33.7032 67.4474C32.4395 67.1961 31.2787 66.5756 30.3676 65.6645C29.4566 64.7535 28.8361 63.5927 28.5848 62.329C28.3334 61.0653 28.4624 59.7555 28.9555 58.5651C29.4485 57.3747 30.2835 56.3573 31.3548 55.6415C32.4261 54.9256 33.6857 54.5436 34.9741 54.5436C36.7019 54.5436 38.3589 55.2299 39.5806 56.4516C40.8023 57.6733 41.4886 59.3303 41.4886 61.0581V61.0581ZM58.0041 48.8253C59.0706 49.8909 59.7345 51.2934 59.8826 52.7938C60.0307 54.2941 59.6539 55.7994 58.8163 57.0529C57.9787 58.3065 56.7322 59.2307 55.2894 59.6681C53.8466 60.1054 52.2968 60.0288 50.9041 59.4513C49.5115 58.8738 48.3623 57.8311 47.6524 56.501C46.9426 55.171 46.716 53.6359 47.0113 52.1574C47.3067 50.679 48.1057 49.3488 49.2721 48.3936C50.4385 47.4384 51.9001 46.9173 53.4078 46.9192C55.132 46.92 56.7853 47.6056 58.0041 48.8253V48.8253ZM61.0322 28.4855C62.3206 28.4855 63.5801 28.8676 64.6514 29.5834C65.7228 30.2992 66.5577 31.3166 67.0508 32.507C67.5439 33.6974 67.6729 35.0072 67.4215 36.2709C67.1702 37.5346 66.5497 38.6954 65.6386 39.6065C64.7276 40.5175 63.5668 41.138 62.3031 41.3894C61.0394 41.6407 59.7296 41.5117 58.5392 41.0186C57.3488 40.5256 56.3314 39.6906 55.6156 38.6193C54.8997 37.548 54.5177 36.2885 54.5177 35C54.5177 33.2722 55.204 31.6153 56.4257 30.3935C57.6474 29.1718 59.3044 28.4855 61.0322 28.4855ZM48.7994 11.97C49.3939 11.3232 50.1132 10.8033 50.9139 10.4417C51.7145 10.08 52.5801 9.88407 53.4584 9.8656C54.3368 9.84713 55.2098 10.0065 56.025 10.3342C56.8402 10.6618 57.5807 11.151 58.2019 11.7722C58.8231 12.3935 59.3123 13.1339 59.6399 13.9491C59.9676 14.7643 60.127 15.6373 60.1085 16.5157C60.09 17.394 59.8941 18.2596 59.5324 19.0603C59.1708 19.8609 58.6509 20.5802 58.0041 21.1747C56.7828 22.394 55.1275 23.0787 53.4017 23.0787C51.676 23.0787 50.0207 22.394 48.7994 21.1747V21.1747C48.1942 20.5708 47.7141 19.8534 47.3866 19.0637C47.059 18.2739 46.8904 17.4273 46.8904 16.5724C46.8904 15.7174 47.059 14.8708 47.3866 14.0811C47.7141 13.2913 48.1942 12.5739 48.7994 11.97V11.97ZM28.4596 8.94193C28.4572 7.65297 28.8372 6.39227 29.5516 5.31937C30.266 4.24648 31.2826 3.40962 32.4727 2.9147C33.6629 2.41978 34.9731 2.28905 36.2376 2.53905C37.5021 2.78905 38.664 3.40855 39.5763 4.31913C40.4886 5.22972 41.1102 6.39048 41.3626 7.6545C41.6149 8.91852 41.4866 10.229 40.9939 11.4201C40.5012 12.6111 39.6662 13.6293 38.5946 14.3456C37.5231 15.062 36.2631 15.4444 34.9741 15.4444C33.2484 15.4444 31.5933 14.7597 30.3719 13.5406C29.1505 12.3215 28.4628 10.6676 28.4596 8.94193V8.94193ZM11.9441 21.1747C11.0363 20.263 10.4189 19.103 10.1696 17.8408C9.92027 16.5786 10.0503 15.2709 10.5432 14.0825C11.0361 12.8942 11.8698 11.8783 12.9392 11.1632C14.0087 10.448 15.266 10.0655 16.5525 10.0639C17.4067 10.061 18.253 10.228 19.0421 10.5552C19.8312 10.8825 20.5474 11.3634 21.1489 11.97C21.7957 12.5645 22.3155 13.2838 22.6772 14.0845C23.0388 14.8851 23.2347 15.7507 23.2532 16.6291C23.2717 17.5074 23.1123 18.3804 22.7847 19.1956C22.457 20.0108 21.9678 20.7513 21.3466 21.3725C20.7254 21.9937 19.9849 22.4829 19.1697 22.8105C18.3546 23.1382 17.4815 23.2976 16.6032 23.2791C15.7248 23.2606 14.8592 23.0647 14.0586 22.7031C13.2579 22.3414 12.5386 21.8216 11.9441 21.1747V21.1747ZM34.9741 22.4656C38.2984 22.4656 41.4866 23.7862 43.8373 26.1368C46.1879 28.4875 47.5085 31.6757 47.5085 35C47.5085 38.3243 46.1879 41.5125 43.8373 43.8632C41.4866 46.2138 38.2984 47.5344 34.9741 47.5344V47.5344C31.6498 47.5344 28.4616 46.2138 26.1109 43.8632C23.7603 41.5125 22.4397 38.3243 22.4397 35C22.4397 31.6757 23.7603 28.4875 26.1109 26.1368C28.4616 23.7862 31.6498 22.4656 34.9741 22.4656V22.4656ZM8.91603 28.4975C10.205 28.4976 11.465 28.8799 12.5366 29.5963C13.6081 30.3126 14.4431 31.3308 14.9358 32.5219C15.4285 33.7129 15.5568 35.0234 15.3045 36.2874C15.0521 37.5515 14.4305 38.7122 13.5182 39.6228C12.6059 40.5334 11.444 41.1529 10.1795 41.4029C8.91506 41.6529 7.60483 41.5221 6.41467 41.0272C5.22451 40.5323 4.20791 39.6955 3.49354 38.6226C2.77917 37.5497 2.39913 36.289 2.40152 35C2.40152 33.2722 3.08787 31.6153 4.30958 30.3935C5.53128 29.1718 7.18828 28.4855 8.91603 28.4855V28.4975Z" fill="white"/>
<path d="M61.033 36.2054C61.0785 36.1964 61.1254 36.1975 61.1704 36.2088C61.2154 36.2201 61.2573 36.2412 61.2932 36.2706C61.329 36.3 61.3579 36.337 61.3778 36.379C61.3976 36.4209 61.4079 36.4667 61.4079 36.5131C61.4079 36.5595 61.3976 36.6053 61.3778 36.6472C61.3579 36.6891 61.329 36.7261 61.2932 36.7555C61.2573 36.785 61.2154 36.8061 61.1704 36.8173C61.1254 36.8286 61.0785 36.8298 61.033 36.8207C60.993 36.8217 60.9532 36.8148 60.9159 36.8003C60.8787 36.7858 60.8446 36.764 60.8158 36.7363C60.5903 36.5091 60.2837 36.3808 59.9636 36.3797C59.6434 36.3786 59.336 36.5047 59.1088 36.7302C58.8816 36.9558 58.7534 37.2624 58.7522 37.5825C58.7511 37.9026 58.8772 38.2101 59.1028 38.4373C59.3168 38.6421 59.5609 38.8129 59.8266 38.944V39.0163C59.8266 39.3363 59.9537 39.6431 60.18 39.8694C60.4062 40.0956 60.713 40.2227 61.033 40.2227C61.353 40.2227 61.6598 40.0956 61.886 39.8694C62.1123 39.6431 62.2394 39.3363 62.2394 39.0163V38.944C62.7908 38.6735 63.2341 38.224 63.497 37.6689C63.7599 37.1139 63.8268 36.4861 63.6868 35.8881C63.5467 35.2901 63.208 34.7573 62.726 34.3767C62.244 33.9961 61.6472 33.7902 61.033 33.7927C60.9498 33.7927 60.87 33.7596 60.8112 33.7008C60.7524 33.642 60.7193 33.5622 60.7193 33.479C60.7193 33.2015 61.1536 33.1533 61.2622 33.2618C61.4883 33.4865 61.794 33.6127 62.1127 33.6127C62.4314 33.6127 62.7372 33.4865 62.9632 33.2618C63.0763 33.1497 63.1661 33.0163 63.2273 32.8693C63.2885 32.7223 63.3201 32.5646 63.3201 32.4053C63.3201 32.2461 63.2885 32.0884 63.2273 31.9414C63.1661 31.7944 63.0763 31.6609 62.9632 31.5488C62.7482 31.3451 62.5043 31.1744 62.2394 31.0421V31.0421C62.2394 30.7221 62.1123 30.4153 61.886 30.189C61.6598 29.9628 61.353 29.8357 61.033 29.8357C60.713 29.8357 60.4062 29.9628 60.18 30.189C59.9537 30.4153 59.8266 30.7221 59.8266 31.0421C59.2792 31.3167 58.8401 31.7677 58.5803 32.3223C58.3204 32.877 58.2549 33.5029 58.3943 34.0994C58.5336 34.6958 58.8697 35.2279 59.3484 35.61C59.8271 35.992 60.4205 36.2018 61.033 36.2054Z" fill="white"/>
</svg>
