<svg width="56" height="62" viewBox="0 0 56 62" fill="none" xmlns="http://www.w3.org/2000/svg">
<path d="M12.4082 17.8501C11.3104 17.8501 10.2235 18.0674 9.21003 18.4894C8.19661 18.9114 7.27674 19.5299 6.50345 20.3091C5.73016 21.0883 5.11875 22.0129 4.70446 23.0295C4.29018 24.0461 4.08121 25.1347 4.0896 26.2324C4.09118 26.4471 4.17754 26.6524 4.32985 26.8036C4.48217 26.9548 4.68808 27.0397 4.90272 27.0397H4.90882C5.1245 27.0381 5.33071 26.9509 5.4821 26.7972C5.63348 26.6436 5.71765 26.4361 5.71608 26.2205C5.70927 25.3374 5.8773 24.4617 6.21049 23.6439C6.54368 22.826 7.03545 22.0822 7.65744 21.4553C8.27943 20.8284 9.01935 20.3308 9.83454 19.9912C10.6497 19.6516 11.5241 19.4767 12.4072 19.4766L12.4517 19.4766H12.4528C12.6684 19.4768 12.8754 19.3913 13.028 19.2388C13.1806 19.0864 13.2664 18.8796 13.2665 18.664C13.2667 18.4483 13.1812 18.2414 13.0287 18.0887C12.8763 17.9361 12.6695 17.8503 12.4539 17.8502L12.4082 17.8501Z" fill="white"/>
<path d="M31.4634 13.2643L33.8786 13.4752C33.985 13.4846 34.0861 13.5264 34.168 13.595C34.25 13.6636 34.3089 13.7558 34.3367 13.859C34.5324 14.581 34.8225 15.274 35.1993 15.9201C35.2537 16.013 35.278 16.1204 35.269 16.2277C35.2599 16.3349 35.2179 16.4367 35.1488 16.5192L33.6002 18.3643C33.5161 18.4645 33.4726 18.5926 33.4783 18.7233C33.484 18.854 33.5384 18.9778 33.631 19.0703L35.1859 20.6253C35.2784 20.7178 35.4022 20.7723 35.5329 20.778C35.6636 20.7837 35.7917 20.7402 35.8919 20.6561L37.7492 19.0972C37.8312 19.0285 37.9323 18.9866 38.0389 18.9772C38.1455 18.9678 38.2524 18.9915 38.3451 19.0448C38.9938 19.4175 39.6889 19.7029 40.4123 19.8937C40.5163 19.921 40.6093 19.9797 40.6786 20.0619C40.748 20.1441 40.7902 20.2457 40.7996 20.3528L41.0092 22.7514C41.0205 22.8817 41.0804 23.003 41.1768 23.0914C41.2732 23.1798 41.3993 23.2289 41.5301 23.2289H43.7292C43.86 23.2289 43.9861 23.1798 44.0826 23.0914C44.179 23.0031 44.2388 22.8817 44.2502 22.7514L44.4612 20.3362C44.4705 20.2298 44.5123 20.1287 44.5809 20.0468C44.6496 19.9648 44.7417 19.9059 44.8449 19.8781C45.5669 19.6824 46.2599 19.3924 46.9061 19.0155C46.999 18.9611 47.1064 18.9368 47.2136 18.9458C47.3208 18.9549 47.4227 18.9969 47.5051 19.066L49.3502 20.6146C49.4504 20.6987 49.5785 20.7422 49.7092 20.7365C49.8399 20.7308 49.9638 20.6763 50.0563 20.5838L51.6112 19.0289C51.7037 18.9364 51.7582 18.8126 51.7639 18.6819C51.7696 18.5511 51.7261 18.4231 51.642 18.3228L50.0832 16.4656C50.0144 16.3836 49.9725 16.2825 49.9632 16.1759C49.9538 16.0693 49.9774 15.9625 50.0308 15.8697C50.4034 15.221 50.6888 14.5259 50.8796 13.8025C50.9069 13.6985 50.9657 13.6055 51.0479 13.5362C51.1301 13.4668 51.2317 13.4246 51.3388 13.4152L53.7373 13.2057C53.8677 13.1943 53.989 13.1345 54.0774 13.038C54.1658 12.9416 54.2148 12.8155 54.2148 12.6847V10.4856C54.2148 10.3548 54.1658 10.2287 54.0774 10.1323C53.989 10.0358 53.8677 9.97599 53.7373 9.96461L51.3222 9.75369C51.2157 9.74437 51.1147 9.70257 51.0327 9.63394C50.9508 9.56531 50.8919 9.47317 50.864 9.36998C50.6683 8.64799 50.3783 7.95497 50.0014 7.30882C49.947 7.21593 49.9227 7.10852 49.9318 7.00128C49.9408 6.89404 49.9828 6.79221 50.0519 6.70974L51.6005 4.86464C51.6847 4.76444 51.7282 4.63635 51.7225 4.50565C51.7168 4.37495 51.6623 4.25113 51.5698 4.15862L50.0149 2.6036C49.9224 2.51109 49.7985 2.45661 49.6678 2.45091C49.5371 2.44521 49.409 2.4887 49.3088 2.57281L47.4516 4.13165C47.3696 4.20039 47.2684 4.24228 47.1619 4.25165C47.0553 4.26102 46.9484 4.23741 46.8557 4.18402C46.2069 3.81141 45.5119 3.52601 44.7885 3.33521C44.6845 3.3079 44.5914 3.24913 44.5221 3.16694C44.4528 3.08475 44.4105 2.98315 44.4011 2.87604L44.1916 0.477473C44.1802 0.347141 44.1204 0.225809 44.024 0.137417C43.9275 0.0490259 43.8014 -4.78054e-06 43.6706 3.49599e-10H41.4716C41.3407 -4.78054e-06 41.2146 0.0490259 41.1182 0.137417C41.0217 0.225809 40.9619 0.347141 40.9505 0.477473L40.7396 2.89263C40.7302 2.99911 40.6884 3.10015 40.6198 3.18209C40.5512 3.26404 40.459 3.32293 40.3558 3.35081C39.6339 3.54649 38.9408 3.83652 38.2947 4.21341C38.2018 4.26776 38.0944 4.29207 37.9872 4.28303C37.8799 4.27399 37.7781 4.23202 37.6956 4.16289L35.8505 2.61425C35.7503 2.53014 35.6222 2.48664 35.4915 2.49234C35.3608 2.49804 35.237 2.55252 35.1445 2.64503L33.5895 4.2C33.497 4.29251 33.4425 4.41633 33.4368 4.54703C33.4311 4.67773 33.4746 4.80582 33.5587 4.90603L35.1175 6.76327C35.1863 6.84525 35.2282 6.94638 35.2375 7.05296C35.2469 7.15955 35.2233 7.26643 35.1699 7.35915C34.7973 8.0079 34.5119 8.70297 34.3211 9.42637C34.2938 9.53036 34.235 9.62338 34.1528 9.69271C34.0706 9.76203 33.969 9.80428 33.8619 9.81367L31.4633 10.0232C31.333 10.0346 31.2117 10.0944 31.1233 10.1909C31.0349 10.2873 30.9858 10.4134 30.9858 10.5442V12.7433C30.9858 12.8741 31.0349 13.0002 31.1233 13.0966C31.2117 13.1931 31.333 13.2529 31.4634 13.2643V13.2643ZM42.6004 7.47925C43.4182 7.47925 44.2177 7.72177 44.8977 8.17615C45.5778 8.63053 46.1078 9.27635 46.4208 10.032C46.7338 10.7876 46.8157 11.619 46.6561 12.4212C46.4965 13.2233 46.1027 13.9601 45.5244 14.5385C44.9461 15.1168 44.2093 15.5106 43.4071 15.6702C42.605 15.8297 41.7735 15.7478 41.0179 15.4349C40.2623 15.1219 39.6165 14.5919 39.1621 13.9118C38.7077 13.2318 38.4652 12.4323 38.4652 11.6144C38.4652 10.5177 38.9009 9.46593 39.6764 8.69043C40.4518 7.91493 41.5036 7.47926 42.6004 7.47925V7.47925Z" fill="white"/>
<path d="M48.0821 43.1499H46.9089C46.6933 43.1499 46.4864 43.2356 46.3339 43.3881C46.1814 43.5406 46.0957 43.7475 46.0957 43.9631C46.0957 44.1788 46.1814 44.3857 46.3339 44.5382C46.4864 44.6907 46.6933 44.7764 46.9089 44.7764H48.0821C48.2978 44.7764 48.5047 44.6907 48.6572 44.5382C48.8097 44.3857 48.8954 44.1788 48.8954 43.9631C48.8954 43.7475 48.8097 43.5406 48.6572 43.3881C48.5047 43.2356 48.2978 43.1499 48.0821 43.1499V43.1499Z" fill="white"/>
<path d="M52.3824 43.1499H51.2092C50.9936 43.1499 50.7867 43.2356 50.6342 43.3881C50.4817 43.5406 50.396 43.7475 50.396 43.9631C50.396 44.1788 50.4817 44.3857 50.6342 44.5382C50.7867 44.6907 50.9936 44.7764 51.2092 44.7764H52.3824C52.5981 44.7764 52.805 44.6907 52.9575 44.5382C53.11 44.3857 53.1957 44.1788 53.1957 43.9631C53.1957 43.7475 53.11 43.5406 52.9575 43.3881C52.805 43.2356 52.5981 43.1499 52.3824 43.1499V43.1499Z" fill="white"/>
<path d="M2.45322 43.1499H1.28004C1.06435 43.1499 0.857502 43.2356 0.70499 43.3881C0.552477 43.5406 0.466797 43.7475 0.466797 43.9631C0.466797 44.1788 0.552477 44.3857 0.70499 44.5382C0.857502 44.6907 1.06435 44.7764 1.28004 44.7764H2.45322C2.66891 44.7764 2.87576 44.6907 3.02827 44.5382C3.18078 44.3857 3.26646 44.1788 3.26646 43.9631C3.26646 43.7475 3.18078 43.5406 3.02827 43.3881C2.87576 43.2356 2.66891 43.1499 2.45322 43.1499V43.1499Z" fill="white"/>
<path d="M6.75399 43.1499H5.58082C5.36514 43.1499 5.15828 43.2356 5.00577 43.3881C4.85326 43.5406 4.76758 43.7475 4.76758 43.9631C4.76758 44.1788 4.85326 44.3857 5.00577 44.5382C5.15828 44.6907 5.36514 44.7764 5.58082 44.7764H6.75402C6.9697 44.7764 7.17655 44.6907 7.32907 44.5382C7.48158 44.3857 7.56726 44.1788 7.56726 43.9631C7.56726 43.7475 7.48158 43.5406 7.32907 43.3881C7.17655 43.2356 6.9697 43.1499 6.75402 43.1499H6.75399Z" fill="white"/>
<path d="M55.6297 26.262C55.6487 24.3984 55.239 22.5553 54.4324 20.8751C54.3868 20.7779 54.3225 20.6906 54.243 20.6184C54.1636 20.5461 54.0706 20.4903 53.9695 20.4542C53.8684 20.4181 53.7611 20.4024 53.6539 20.4079C53.5466 20.4135 53.4416 20.4402 53.3447 20.4866C53.2479 20.533 53.1612 20.5981 53.0896 20.6781C53.0181 20.7582 52.9631 20.8516 52.9278 20.953C52.8925 21.0545 52.8777 21.1619 52.8842 21.269C52.8906 21.3762 52.9183 21.4811 52.9655 21.5775C53.6648 23.0349 54.0199 24.6336 54.0033 26.2501C53.9606 31.9897 49.2609 36.6716 43.4737 36.8087V34.8751C43.4729 34.1672 43.1914 33.4885 42.6908 32.988C42.1903 32.4874 41.5116 32.2059 40.8037 32.2051H12.8562C12.1483 32.2059 11.4697 32.4875 10.9691 32.988C10.4686 33.4886 10.187 34.1672 10.1863 34.8751V36.584C5.28317 35.5617 1.66402 31.2703 1.62682 26.25C1.61615 24.8452 1.88363 23.4521 2.41385 22.1512C2.94406 20.8502 3.72652 19.6671 4.71612 18.6699C5.70573 17.6728 6.88291 16.8814 8.1798 16.3413C9.4767 15.8012 10.8677 15.5232 12.2725 15.5232H12.3168C13.3089 15.5218 14.2802 15.2379 15.117 14.7048C15.9537 14.1717 16.6214 13.4113 17.0419 12.5126C18.1395 10.1546 19.9797 8.22139 22.2808 7.00899C24.5819 5.7966 27.2169 5.37188 29.7824 5.79987C29.9951 5.83536 30.2133 5.78487 30.3888 5.65952C30.5643 5.53417 30.6829 5.34423 30.7184 5.13147C30.7539 4.91872 30.7034 4.70059 30.578 4.52506C30.4527 4.34952 30.2627 4.23098 30.05 4.19549C27.1336 3.70905 24.1381 4.19197 21.5223 5.57028C18.9065 6.94859 16.8146 9.14631 15.5669 11.8269C15.2774 12.4452 14.8177 12.9683 14.2417 13.3348C13.6657 13.7014 12.9972 13.8962 12.3144 13.8966H12.2725C10.6531 13.8967 9.04961 14.2172 7.55459 14.8398C6.05958 15.4623 4.70256 16.3746 3.56177 17.5241C2.42098 18.6736 1.51896 20.0374 0.907721 21.5371C0.296479 23.0368 -0.0119023 24.6426 0.000351344 26.2621C0.0441413 32.1642 4.37409 37.1911 10.1863 38.2398V52.526C10.1871 53.2339 10.4686 53.9126 10.9692 54.4132C11.4697 54.9137 12.1484 55.1953 12.8563 55.1961L24.6632 55.193C24.8457 55.193 25.0208 55.2655 25.1498 55.3946C25.2789 55.5236 25.3514 55.6987 25.3514 55.8812C25.3514 56.0637 25.2789 56.2387 25.1498 56.3678C25.0208 56.4968 24.8457 56.5693 24.6632 56.5693H22.2108V59.6681H20.9269C20.7112 59.6681 20.5044 59.7537 20.3519 59.9062C20.1994 60.0588 20.1137 60.2656 20.1137 60.4813C20.1137 60.697 20.1994 60.9038 20.3519 61.0563C20.5044 61.2089 20.7112 61.2945 20.9269 61.2945H32.7331C32.9488 61.2945 33.1556 61.2089 33.3081 61.0563C33.4606 60.9038 33.5463 60.697 33.5463 60.4813C33.5463 60.2656 33.4606 60.0588 33.3081 59.9062C33.1556 59.7537 32.9488 59.6681 32.7331 59.6681H31.2493V55.4459C31.2494 55.3797 31.2757 55.3162 31.3225 55.2693C31.3694 55.2225 31.4328 55.1962 31.4991 55.1961H40.8037C41.5116 55.1953 42.1903 54.9137 42.6908 54.4132C43.1914 53.9126 43.4729 53.2339 43.4737 52.526V38.4383C50.1515 38.3011 55.5805 32.892 55.6297 26.262ZM41.8473 50.149H11.8127V37.6261H41.8473V50.149Z" fill="white"/>
</svg>
