<svg width="64" height="52" viewBox="0 0 64 52" fill="none" xmlns="http://www.w3.org/2000/svg">
<path d="M5.19555 5.99974C5.85826 5.99974 6.3955 5.46251 6.3955 4.7998C6.3955 4.13709 5.85826 3.59985 5.19555 3.59985C4.53284 3.59985 3.99561 4.13709 3.99561 4.7998C3.99561 5.46251 4.53284 5.99974 5.19555 5.99974Z" fill="white"/>
<path d="M13.1995 5.99974C13.8622 5.99974 14.3994 5.46251 14.3994 4.7998C14.3994 4.13709 13.8622 3.59985 13.1995 3.59985C12.5367 3.59985 11.9995 4.13709 11.9995 4.7998C11.9995 5.46251 12.5367 5.99974 13.1995 5.99974Z" fill="white"/>
<path d="M9.20336 5.99974C9.86607 5.99974 10.4033 5.46251 10.4033 4.7998C10.4033 4.13709 9.86607 3.59985 9.20336 3.59985C8.54065 3.59985 8.00342 4.13709 8.00342 4.7998C8.00342 5.46251 8.54065 5.99974 9.20336 5.99974Z" fill="white"/>
<path d="M17.9993 22.2111L21.5992 18.6113C21.8251 18.3853 21.9521 18.0788 21.9521 17.7593C21.9521 17.4398 21.8251 17.1333 21.5992 16.9073C21.3732 16.6814 21.0668 16.5544 20.7472 16.5544C20.4277 16.5544 20.1212 16.6814 19.8952 16.9073L15.4315 21.3831C15.208 21.608 15.0825 21.9121 15.0825 22.2291C15.0825 22.5461 15.208 22.8502 15.4315 23.0751L19.8952 27.5509C20.0068 27.6633 20.1395 27.7526 20.2857 27.8135C20.432 27.8744 20.5888 27.9058 20.7472 27.9058C20.9056 27.9058 21.0625 27.8744 21.2087 27.8135C21.3549 27.7526 21.4876 27.6633 21.5992 27.5509C21.8227 27.326 21.9481 27.0219 21.9481 26.7049C21.9481 26.3879 21.8227 26.0838 21.5992 25.8589L17.9993 22.2111Z" fill="white"/>
<path d="M35.1823 27.5267C35.4071 27.7501 35.7112 27.8756 36.0283 27.8756C36.3453 27.8756 36.6494 27.7501 36.8742 27.5267L41.35 23.1109C41.5735 22.886 41.6989 22.5819 41.6989 22.2649C41.6989 21.9479 41.5735 21.6438 41.35 21.4189L36.8742 16.9431C36.6483 16.7188 36.3424 16.5934 36.024 16.5945C35.7056 16.5956 35.4007 16.7232 35.1763 16.9491C34.9519 17.1751 34.8265 17.4809 34.8276 17.7993C34.8288 18.1178 34.9563 18.4227 35.1823 18.6471L38.7821 22.2469L35.1823 25.8467C34.9624 26.071 34.8393 26.3726 34.8393 26.6867C34.8393 27.0008 34.9624 27.3024 35.1823 27.5267V27.5267Z" fill="white"/>
<path d="M31.1985 17.2913C31.0615 17.2119 30.9102 17.1605 30.7533 17.1399C30.5964 17.1192 30.4369 17.1299 30.2841 17.1711C30.1313 17.2124 29.9882 17.2835 29.863 17.3803C29.7378 17.4771 29.6329 17.5978 29.5545 17.7353L25.1267 25.5109C25.0399 25.6475 24.9816 25.8002 24.9554 25.9599C24.9291 26.1196 24.9354 26.2829 24.9739 26.4401C25.0124 26.5973 25.0823 26.7451 25.1794 26.8746C25.2765 27.004 25.3988 27.1125 25.5389 27.1935C25.679 27.2745 25.8341 27.3263 25.9947 27.3458C26.1554 27.3654 26.3183 27.3522 26.4737 27.3071C26.6292 27.262 26.7739 27.1859 26.8991 27.0835C27.0244 26.981 27.1276 26.8543 27.2027 26.7109L31.6784 18.9712C31.7622 18.8306 31.8163 18.6744 31.8374 18.5121C31.8585 18.3498 31.8462 18.1849 31.8012 18.0276C31.7563 17.8702 31.6796 17.7238 31.576 17.5971C31.4723 17.4705 31.3438 17.3664 31.1985 17.2913V17.2913Z" fill="white"/>
<path d="M61.0292 33.9105C60.9584 33.9099 60.8895 33.8878 60.8316 33.8471C60.7737 33.8063 60.7296 33.7489 60.7052 33.6825C60.2278 32.4264 59.5511 31.2555 58.7013 30.2146C58.6611 30.1564 58.6395 30.0874 58.6395 30.0166C58.6395 29.9459 58.6611 29.8768 58.7013 29.8186C59.0668 29.1852 59.1659 28.4326 58.9769 27.7262C58.7879 27.0197 58.3263 26.4172 57.6934 26.0508L56.7934 25.5108V3.59984C56.7934 2.6451 56.4141 1.72947 55.739 1.05437C55.0639 0.379268 54.1483 0 53.1936 0H3.59984C2.6451 0 1.72947 0.379268 1.05437 1.05437C0.379267 1.72947 0 2.6451 0 3.59984V34.0064C0.00315799 34.747 0.298736 35.4563 0.822381 35.9799C1.34603 36.5036 2.05533 36.7992 2.79587 36.8023H19.1991L17.9992 41.2421H16.4033C15.2345 41.2429 14.1002 41.6377 13.1835 42.3628C12.2668 43.0878 11.6214 44.1008 11.3515 45.2379H8.39962C8.08137 45.2379 7.77616 45.3644 7.55113 45.5894C7.32609 45.8144 7.19967 46.1196 7.19967 46.4379C7.19967 46.7561 7.32609 47.0613 7.55113 47.2864C7.77616 47.5114 8.08137 47.6378 8.39962 47.6378H38.9622C38.9419 47.9245 38.9703 48.2126 39.0462 48.4898C39.1362 48.8418 39.2963 49.172 39.5169 49.4607C39.7375 49.7493 40.0141 49.9905 40.3302 50.1697L42.862 51.6336C43.1764 51.8141 43.5232 51.9309 43.8827 51.9773C44.2422 52.0237 44.6073 51.9988 44.9572 51.9041C45.3071 51.8094 45.6349 51.6467 45.9219 51.4253C46.2089 51.2039 46.4495 50.9281 46.6299 50.6137C46.6688 50.5525 46.7247 50.504 46.7908 50.4741C46.8569 50.4443 46.9302 50.4344 47.0019 50.4457C48.32 50.6737 49.6675 50.6737 50.9857 50.4457C51.0587 50.4339 51.1335 50.4448 51.2001 50.477C51.2666 50.5092 51.3216 50.5611 51.3577 50.6257C51.6022 51.0445 51.9528 51.3914 52.3741 51.6315C52.7955 51.8717 53.2726 51.9966 53.7575 51.9936C54.2413 51.9983 54.7176 51.8741 55.1375 51.6336L57.6694 50.1697C57.9837 49.9883 58.259 49.7465 58.4794 49.4582C58.6998 49.1698 58.8608 48.8407 58.9533 48.4898C59.0489 48.141 59.0737 47.7765 59.0263 47.4179C58.9789 47.0594 58.8602 46.7139 58.6773 46.4019C58.636 46.3419 58.6139 46.2707 58.6139 46.1979C58.6139 46.125 58.636 46.0539 58.6773 45.9939C59.5245 44.9556 60.2009 43.7891 60.6812 42.5381C60.7041 42.4706 60.7478 42.4122 60.806 42.3712C60.8643 42.3303 60.934 42.3088 61.0052 42.3101C61.7362 42.3069 62.4364 42.0151 62.9533 41.4982C63.4701 40.9813 63.7619 40.2812 63.7651 39.5502V36.6223C63.7526 35.9028 63.4596 35.2167 62.9485 34.7101C62.4375 34.2035 61.7488 33.9166 61.0292 33.9105V33.9105ZM2.39989 3.59984C2.39989 3.28159 2.52631 2.97638 2.75135 2.75135C2.97638 2.52631 3.28159 2.39989 3.59984 2.39989H53.1936C53.5118 2.39989 53.817 2.52631 54.0421 2.75135C54.2671 2.97638 54.3935 3.28159 54.3935 3.59984V7.19967H2.39989V3.59984ZM2.79587 34.4024C2.74387 34.4024 2.69238 34.3922 2.64434 34.3723C2.59629 34.3524 2.55264 34.3232 2.51587 34.2865C2.4791 34.2497 2.44993 34.206 2.43003 34.158C2.41013 34.1099 2.39989 34.0585 2.39989 34.0064V9.59956H54.3935V24.3109C53.8257 24.1601 53.2245 24.1952 52.6781 24.4112C52.1317 24.6272 51.6689 25.0126 51.3577 25.5108V25.5108C51.3203 25.57 51.266 25.6166 51.2017 25.6444C51.1375 25.6722 51.0664 25.68 50.9977 25.6668C49.6785 25.4508 48.333 25.4508 47.0139 25.6668C46.9451 25.6818 46.8733 25.6748 46.8087 25.6468C46.7441 25.6188 46.69 25.5713 46.6539 25.5108V25.5108C46.4736 25.1963 46.2329 24.9205 45.9456 24.6994C45.6583 24.4782 45.33 24.3162 44.9798 24.2225C44.6296 24.1288 44.2642 24.1053 43.9049 24.1534C43.5456 24.2016 43.1993 24.3203 42.886 24.5029L40.3542 25.9668C40.0389 26.1441 39.7627 26.3833 39.5421 26.6699C39.3215 26.9565 39.161 27.2846 39.0702 27.6347C38.8783 28.3422 38.9732 29.0967 39.3342 29.7346C39.378 29.7914 39.4017 29.861 39.4017 29.9326C39.4017 30.0043 39.378 30.0739 39.3342 30.1306C38.4844 31.1715 37.8078 32.3424 37.3303 33.5985C37.3059 33.6649 37.2618 33.7223 37.2039 33.7631C37.146 33.8038 37.0771 33.8259 37.0063 33.8265C36.4186 33.8273 35.8466 34.0166 35.3744 34.3664L2.79587 34.4024ZM34.7984 41.2421H20.3991L21.599 36.8023H34.1984V39.5502C34.2061 40.1649 34.4171 40.7599 34.7984 41.2421V41.2421ZM16.4153 43.642H37.7743C38.0485 44.1952 38.3613 44.7285 38.7102 45.2379H13.8834C14.1099 44.7612 14.4668 44.3583 14.9127 44.0759C15.3586 43.7934 15.8754 43.643 16.4033 43.642H16.4153ZM61.3892 39.5502C61.3892 39.6457 61.3513 39.7372 61.2838 39.8047C61.2163 39.8723 61.1247 39.9102 61.0292 39.9102C60.4703 39.9116 59.9248 40.0819 59.4644 40.3988C59.004 40.7158 58.6502 41.1645 58.4493 41.6861C58.0658 42.6978 57.5229 43.6417 56.8414 44.482C56.49 44.9161 56.2779 45.4462 56.2329 46.0029C56.1879 46.5596 56.3122 47.1169 56.5894 47.6018C56.6087 47.6432 56.6187 47.6882 56.6187 47.7338C56.6187 47.7794 56.6087 47.8245 56.5894 47.8658C56.579 47.9135 56.5586 47.9584 56.5297 47.9977C56.5007 48.0369 56.4638 48.0697 56.4214 48.0938L53.9255 49.5097C53.8839 49.5329 53.838 49.5476 53.7906 49.5529C53.7432 49.5582 53.6952 49.554 53.6494 49.5406C53.6037 49.5272 53.561 49.5049 53.5239 49.4749C53.4869 49.4448 53.4562 49.4077 53.4336 49.3657C53.1498 48.8822 52.7262 48.496 52.2184 48.2582C51.7107 48.0204 51.1428 47.9422 50.5897 48.0338C49.5333 48.2138 48.4542 48.2138 47.3978 48.0338C46.8435 47.9433 46.2747 48.0233 45.7668 48.2633C45.259 48.5033 44.836 48.892 44.554 49.3777C44.5041 49.4582 44.4255 49.5166 44.3341 49.5412C44.2427 49.5657 44.1454 49.5545 44.062 49.5097L41.5301 48.0458C41.4877 48.0217 41.4508 47.9889 41.4219 47.9497C41.3929 47.9104 41.3726 47.8655 41.3621 47.8178C41.3428 47.7765 41.3328 47.7314 41.3328 47.6858C41.3328 47.6402 41.3428 47.5952 41.3621 47.5538C41.6361 47.068 41.7585 46.5113 41.7136 45.9553C41.6687 45.3994 41.4585 44.8695 41.1101 44.434C40.4224 43.5958 39.8753 42.6516 39.4902 41.6381C39.2889 41.1302 38.9402 40.6942 38.489 40.3863C38.0377 40.0783 37.5046 39.9125 36.9583 39.9102C36.8628 39.9102 36.7713 39.8723 36.7038 39.8047C36.6363 39.7372 36.5983 39.6457 36.5983 39.5502V36.6223C36.5967 36.5746 36.6048 36.527 36.6223 36.4826C36.6398 36.4382 36.6663 36.3978 36.7 36.3641C36.7338 36.3303 36.7742 36.3038 36.8186 36.2863C36.863 36.2688 36.9106 36.2607 36.9583 36.2623C37.5156 36.2602 38.0592 36.0894 38.5175 35.7724C38.9759 35.4554 39.3275 35.0071 39.5262 34.4864C39.9086 33.4717 40.4559 32.527 41.1461 31.6906C41.4945 31.255 41.7047 30.7252 41.7496 30.1692C41.7945 29.6132 41.6721 29.0565 41.3981 28.5707C41.3786 28.5273 41.3685 28.4803 41.3685 28.4327C41.3685 28.3851 41.3786 28.3381 41.3981 28.2947C41.4079 28.2483 41.4281 28.2047 41.4572 28.1673C41.4863 28.1299 41.5235 28.0996 41.5661 28.0787L44.098 26.6148C44.1569 26.5984 44.2191 26.5984 44.278 26.6148C44.338 26.6155 44.3969 26.6313 44.4493 26.6607C44.5017 26.69 44.5459 26.732 44.578 26.7828V26.7828C44.8612 27.2674 45.2844 27.655 45.7919 27.8949C46.2994 28.1347 46.8676 28.2155 47.4218 28.1267C48.4782 27.9468 49.5573 27.9468 50.6137 28.1267C51.1716 28.2021 51.7393 28.1072 52.2425 27.8546C52.7456 27.6019 53.1607 27.2033 53.4336 26.7108V26.7108C53.457 26.6712 53.4881 26.6367 53.525 26.6092C53.5619 26.5817 53.6039 26.5618 53.6485 26.5506C53.6931 26.5395 53.7396 26.5373 53.785 26.5442C53.8305 26.5511 53.8742 26.5669 53.9135 26.5908L56.4454 28.0547C56.488 28.0756 56.5253 28.1059 56.5544 28.1433C56.5835 28.1807 56.6037 28.2243 56.6134 28.2707C56.633 28.3141 56.6431 28.3611 56.6431 28.4087C56.6431 28.4563 56.633 28.5033 56.6134 28.5467C56.3372 29.0297 56.2135 29.585 56.2585 30.1396C56.3034 30.6942 56.515 31.2223 56.8654 31.6546C57.5472 32.4991 58.09 33.447 58.4733 34.4624C58.6625 34.9928 59.008 35.4533 59.4643 35.7832C59.9207 36.1132 60.4663 36.2969 61.0292 36.3103C61.0769 36.3087 61.1245 36.3168 61.1689 36.3343C61.2134 36.3518 61.2537 36.3783 61.2875 36.412C61.3213 36.4458 61.3477 36.4862 61.3652 36.5306C61.3827 36.575 61.3909 36.6226 61.3892 36.6703V39.5502Z" fill="white"/>
<path d="M48.9937 32.6384C47.9162 32.6384 46.8629 32.9579 45.967 33.5565C45.0712 34.1551 44.3729 35.006 43.9606 36.0014C43.5483 36.9969 43.4404 38.0922 43.6506 39.149C43.8608 40.2057 44.3796 41.1764 45.1415 41.9383C45.9034 42.7002 46.8741 43.2191 47.9308 43.4293C48.9876 43.6395 50.083 43.5316 51.0784 43.1192C52.0739 42.7069 52.9247 42.0087 53.5233 41.1128C54.1219 40.2169 54.4414 39.1636 54.4414 38.0862C54.4414 36.6413 53.8674 35.2557 52.8458 34.234C51.8241 33.2124 50.4385 32.6384 48.9937 32.6384ZM48.9937 41.134C48.3908 41.134 47.8016 40.9553 47.3003 40.6204C46.7991 40.2855 46.4085 39.8095 46.1778 39.2525C45.9471 38.6956 45.8868 38.0828 46.0044 37.4916C46.122 36.9003 46.4122 36.3573 46.8385 35.931C47.2647 35.5048 47.8078 35.2145 48.399 35.0969C48.9903 34.9793 49.6031 35.0396 50.16 35.2703C50.7169 35.501 51.193 35.8917 51.5279 36.3929C51.8628 36.8941 52.0415 37.4834 52.0415 38.0862C52.0352 38.8904 51.7113 39.6594 51.1404 40.2258C50.5695 40.7923 49.7979 41.1101 48.9937 41.11V41.134Z" fill="white"/>
</svg>
