<svg width="60" height="64" viewBox="0 0 60 64" fill="none" xmlns="http://www.w3.org/2000/svg">
<path d="M33.154 60.6167H6.80896C6.75683 60.6167 6.70523 60.6063 6.65722 60.586C6.60921 60.5657 6.56577 60.5359 6.52948 60.4985C6.49319 60.4611 6.46479 60.4168 6.44597 60.3681C6.42715 60.3195 6.41829 60.2676 6.41992 60.2155V33.5909C7.42771 34.0519 8.50326 34.3475 9.60516 34.4662V57.0789C9.60516 57.4014 9.73324 57.7106 9.96124 57.9386C10.1892 58.1666 10.4985 58.2947 10.8209 58.2947H25.7258C26.0483 58.2947 26.3575 58.1666 26.5855 57.9386C26.8135 57.7106 26.9416 57.4014 26.9416 57.0789C26.9416 56.7565 26.8135 56.4473 26.5855 56.2193C26.3575 55.9913 26.0483 55.8632 25.7258 55.8632H11.988V34.4662C13.9287 34.2523 15.7744 33.5132 17.3263 32.3285C18.8782 31.1437 20.0777 29.5581 20.7954 27.7423C21.5132 25.9266 21.7222 23.9494 21.3999 22.0238C21.0776 20.0981 20.2363 18.2967 18.9663 16.8137H44.6427V33.141C44.6427 33.4635 44.7708 33.7727 44.9988 34.0007C45.2268 34.2287 45.536 34.3568 45.8585 34.3568C46.1809 34.3568 46.4901 34.2287 46.7181 34.0007C46.9461 33.7727 47.0742 33.4635 47.0742 33.141V15.6222C47.0742 15.2998 46.9461 14.9906 46.7181 14.7626C46.4901 14.5346 46.1809 14.4065 45.8585 14.4065H16.1337C14.6641 13.5647 13.0144 13.0869 11.3224 13.0128C9.63039 12.9388 7.94526 13.2708 6.40776 13.981V9.25177C6.40613 9.19967 6.41499 9.14777 6.43381 9.09915C6.45263 9.05054 6.48103 9.00621 6.51732 8.96879C6.55361 8.93136 6.59705 8.90161 6.64506 8.88131C6.69307 8.861 6.74467 8.85055 6.7968 8.85058H19.1609V10.8809C19.1609 11.2033 19.2889 11.5125 19.5169 11.7405C19.7449 11.9685 20.0542 12.0966 20.3766 12.0966H36.3028C36.6252 12.0966 36.9344 11.9685 37.1624 11.7405C37.3904 11.5125 37.5185 11.2033 37.5185 10.8809V8.85058H49.8218C49.8739 8.85055 49.9255 8.861 49.9735 8.88131C50.0215 8.90161 50.065 8.93136 50.1013 8.96879C50.1375 9.00621 50.1659 9.05054 50.1848 9.09915C50.2036 9.14777 50.2124 9.19967 50.2108 9.25177V34.2838C50.2108 34.6063 50.3389 34.9155 50.5669 35.1435C50.7949 35.3715 51.1041 35.4996 51.4266 35.4996C51.749 35.4996 52.0582 35.3715 52.2862 35.1435C52.5142 34.9155 52.6423 34.6063 52.6423 34.2838V9.25177C52.6391 8.51438 52.3448 7.80811 51.8233 7.28669C51.3019 6.76527 50.5956 6.47093 49.8583 6.46773H37.4699V6.0179C37.4699 5.69547 37.3418 5.38624 37.1138 5.15825C36.8858 4.93025 36.5766 4.80217 36.2541 4.80217H33.4944V3.58643C33.4785 2.6297 33.0872 1.71756 32.4049 1.04666C31.7226 0.37577 30.8041 -0.000132871 29.8472 3.52314e-08H26.7228C25.766 0.0159477 24.8539 0.407236 24.183 1.0895C23.5121 1.77177 23.1362 2.69035 23.1363 3.64722V4.86295H20.3523C20.0298 4.86295 19.7206 4.99104 19.4926 5.21904C19.2646 5.44703 19.1365 5.75626 19.1365 6.07869V6.47989H6.80896C6.44073 6.47507 6.07519 6.54303 5.7333 6.67988C5.39142 6.81672 5.07993 7.01975 4.81673 7.27731C4.55353 7.53486 4.34379 7.84187 4.19956 8.18071C4.05533 8.51954 3.97946 8.88353 3.97629 9.25177V15.4399C2.73425 16.4475 1.73276 17.7196 1.04486 19.1635C0.356966 20.6074 0 22.1866 0 23.7859C0 25.3853 0.356966 26.9645 1.04486 28.4084C1.73276 29.8522 2.73425 31.1243 3.97629 32.132V60.2155C3.97628 60.955 4.26921 61.6644 4.79097 62.1884C5.31273 62.7125 6.02084 63.0085 6.76033 63.0117H33.154C33.4764 63.0117 33.7857 62.8836 34.0137 62.6556C34.2417 62.4276 34.3697 62.1184 34.3697 61.796C34.3697 61.4736 34.2417 61.1643 34.0137 60.9363C33.7857 60.7083 33.4764 60.5802 33.154 60.5802V60.6167ZM26.7228 2.48011H29.908C30.2304 2.48011 30.5396 2.60819 30.7676 2.83619C30.9956 3.06418 31.1237 3.37341 31.1237 3.69584V4.91158H25.5313V3.69584C25.5313 3.37758 25.656 3.07198 25.8788 2.84467C26.1015 2.61736 26.4045 2.48647 26.7228 2.48011ZM21.5437 7.23364H35.087V9.66512H21.5437V7.23364ZM2.4323 23.792C2.4299 22.1382 2.91781 20.5209 3.83435 19.1443C4.7509 17.7677 6.05494 16.6938 7.58169 16.0581C9.10843 15.4225 10.7893 15.2537 12.412 15.5731C14.0346 15.8925 15.5262 16.6857 16.6981 17.8526C17.8701 19.0194 18.6698 20.5075 18.9963 22.1287C19.3227 23.75 19.1613 25.4316 18.5323 26.9611C17.9033 28.4906 16.835 29.7993 15.4625 30.7218C14.0899 31.6444 12.4747 32.1393 10.8209 32.1441V32.1441C8.60143 32.1474 6.4714 31.2696 4.89858 29.7036C3.32576 28.1376 2.43874 26.0115 2.4323 23.792V23.792Z" fill="white"/>
<path d="M46.8919 38.5877C45.1339 38.5963 43.3978 38.9775 41.7979 39.7062L41.5548 39.2928C41.3946 39.0212 41.1352 38.8224 40.8312 38.7385C40.5272 38.6546 40.2026 38.692 39.9257 38.843C37.8132 40.0726 36.0595 41.8341 34.8395 43.9522C33.6194 46.0702 32.9754 48.4709 32.9717 50.9153C32.9717 51.2377 33.0998 51.5469 33.3278 51.7749C33.5558 52.0029 33.865 52.131 34.1874 52.131H34.6372C34.8704 54.51 35.7895 56.77 37.2829 58.6365C38.7762 60.503 40.7796 61.8956 43.0494 62.645C45.3193 63.3944 47.7579 63.4684 50.0691 62.8581C52.3802 62.2477 54.4643 60.9792 56.0681 59.2067C57.6719 57.4342 58.7264 55.2341 59.1034 52.8737C59.4805 50.5132 59.1638 48.094 58.1919 45.9102C57.22 43.7263 55.6347 41.8717 53.6287 40.5718C51.6227 39.2719 49.2823 38.5826 46.8919 38.5877ZM40.1202 41.5784L44.8251 49.7846H35.4275C35.5896 48.164 36.0913 46.5956 36.8998 45.1817C37.7084 43.7678 38.8057 42.54 40.1202 41.5784V41.5784ZM46.8919 60.8843C44.4598 60.881 42.1131 59.9877 40.2944 58.3728C38.4758 56.758 37.3111 54.5334 37.0201 52.1188H46.8919C47.0984 52.1121 47.2998 52.0529 47.477 51.9468C47.6543 51.8407 47.8016 51.6912 47.905 51.5123C48.0084 51.3335 48.0645 51.1312 48.0681 50.9246C48.0716 50.7181 48.0225 50.514 47.9253 50.3317L42.9894 41.8215C44.3497 41.2201 45.8275 40.9311 47.3142 40.9758C48.801 41.0204 50.2588 41.3976 51.5806 42.0795C52.9024 42.7615 54.0547 43.7309 54.9527 44.9166C55.8507 46.1023 56.4717 47.4741 56.77 48.9312C57.0683 50.3884 57.0363 51.8939 56.6765 53.337C56.3167 54.7802 55.6381 56.1245 54.6906 57.271C53.7431 58.4175 52.5508 59.3372 51.2012 59.9625C49.8516 60.5878 48.3791 60.9028 46.8919 60.8843V60.8843Z" fill="white"/>
<path d="M21.3978 37.0071C21.1711 36.788 20.8681 36.6655 20.5528 36.6655C20.2375 36.6655 19.9346 36.788 19.7079 37.0071L16.1336 40.5328C15.9145 40.7595 15.792 41.0624 15.792 41.3777C15.792 41.693 15.9145 41.996 16.1336 42.2227C16.2418 42.3357 16.3721 42.4254 16.5164 42.486C16.6607 42.5467 16.8159 42.577 16.9725 42.5752C17.2914 42.5739 17.597 42.4473 17.8235 42.2227L20.4981 39.548L22.9296 41.9795C23.1563 42.1986 23.4592 42.3211 23.7745 42.3211C24.0898 42.3211 24.3928 42.1986 24.6195 41.9795L29.2028 37.384L31.2939 39.4751C31.5206 39.6942 31.8235 39.8167 32.1388 39.8167C32.4541 39.8167 32.757 39.6942 32.9837 39.4751L40.4484 32.1199C40.6675 31.8932 40.79 31.5902 40.79 31.2749C40.79 30.9596 40.6675 30.6567 40.4484 30.43C40.2217 30.2109 39.9187 30.0884 39.6034 30.0884C39.2881 30.0884 38.9852 30.2109 38.7585 30.43L32.2178 36.9828L30.1268 34.8918C29.9001 34.6726 29.5971 34.5501 29.2818 34.5501C28.9665 34.5501 28.6636 34.6726 28.4369 34.8918L23.8414 39.4872L21.3978 37.0071Z" fill="white"/>
<path d="M7.5381 24.9348C7.90165 25.1474 8.30416 25.2849 8.72181 25.3392C9.13945 25.3935 9.56375 25.3635 9.96958 25.2509L12.2795 24.6308C12.3812 24.6024 12.4877 24.5952 12.5923 24.6098C12.6969 24.6245 12.7974 24.6606 12.8873 24.716C12.9787 24.7641 13.0586 24.8314 13.1215 24.9132C13.1844 24.995 13.229 25.0895 13.2521 25.1901C13.308 25.3948 13.2806 25.6134 13.1758 25.798C13.071 25.9825 12.8973 26.118 12.6928 26.1748L9.22798 27.0988C8.97162 27.1964 8.7558 27.3778 8.61557 27.6135C8.47535 27.8493 8.41897 28.1255 8.45559 28.3973C8.49221 28.6692 8.61968 28.9206 8.81729 29.1109C9.0149 29.3011 9.27103 29.4189 9.54407 29.4452C9.64133 29.4452 11.003 29.0926 11.003 29.0926L11.1124 29.4816C11.1826 29.7325 11.3316 29.9541 11.5374 30.1139C11.7431 30.2737 11.9947 30.3632 12.2552 30.3691C12.3598 30.3868 12.4666 30.3868 12.5713 30.3691C12.8723 30.2811 13.1276 30.0802 13.2839 29.8083C13.4402 29.5364 13.4854 29.2147 13.4101 28.9102L13.3129 28.5212C13.7214 28.4169 14.1053 28.2325 14.442 27.9788C14.7788 27.725 15.0618 27.4069 15.2747 27.0429C15.4876 26.6788 15.626 26.2762 15.6821 25.8582C15.7381 25.4403 15.7106 25.0154 15.6012 24.6082C15.4917 24.2009 15.3025 23.8195 15.0445 23.486C14.7864 23.1524 14.4648 22.8734 14.0981 22.6652C13.7314 22.457 13.327 22.3236 12.9084 22.2728C12.4898 22.2221 12.0653 22.255 11.6595 22.3696L9.36171 22.9896C9.15731 23.0453 8.93927 23.0191 8.75384 22.9167C8.57116 22.8081 8.43646 22.6343 8.37696 22.4304C8.32506 22.2257 8.35594 22.0088 8.46291 21.8267C8.56987 21.6446 8.7443 21.5121 8.94836 21.4578L12.4011 20.5217C12.7043 20.4362 12.9625 20.2363 13.1213 19.9641C13.28 19.692 13.3269 19.3688 13.2521 19.0628C13.2138 18.9053 13.1445 18.7572 13.0482 18.6269C12.9519 18.4967 12.8305 18.387 12.6912 18.3043C12.5519 18.2216 12.3974 18.1676 12.237 18.1455C12.0765 18.1233 11.9132 18.1334 11.7567 18.1753L10.6139 18.4914L10.5045 18.1023C10.3825 17.8454 10.1742 17.6394 9.91598 17.5202C9.65775 17.4009 9.36588 17.376 9.09117 17.4498C8.81647 17.5235 8.57631 17.6912 8.41249 17.9237C8.24868 18.1563 8.17157 18.4389 8.1946 18.7224L8.30402 19.1114C7.69555 19.2747 7.14917 19.6147 6.73398 20.0885C6.31878 20.5624 6.05341 21.1486 5.97142 21.7733C5.88944 22.3979 5.99453 23.0328 6.27339 23.5977C6.55226 24.1626 6.99238 24.6322 7.5381 24.9469V24.9348Z" fill="white"/>
<path d="M39.6338 20.6067H25.3002C24.9778 20.6067 24.6685 20.7348 24.4406 20.9628C24.2126 21.1908 24.0845 21.5 24.0845 21.8224C24.0845 22.1449 24.2126 22.4541 24.4406 22.6821C24.6685 22.9101 24.9778 23.0382 25.3002 23.0382H39.6338C39.9562 23.0382 40.2654 22.9101 40.4934 22.6821C40.7214 22.4541 40.8495 22.1449 40.8495 21.8224C40.8495 21.5 40.7214 21.1908 40.4934 20.9628C40.2654 20.7348 39.9562 20.6067 39.6338 20.6067Z" fill="white"/>
<path d="M39.634 24.5823H30.8686C30.5461 24.5823 30.2369 24.7104 30.0089 24.9384C29.7809 25.1664 29.6528 25.4756 29.6528 25.798C29.6528 26.1204 29.7809 26.4297 30.0089 26.6577C30.2369 26.8857 30.5461 27.0138 30.8686 27.0138H39.634C39.9565 27.0138 40.2657 26.8857 40.4937 26.6577C40.7217 26.4297 40.8498 26.1204 40.8498 25.798C40.8498 25.4756 40.7217 25.1664 40.4937 24.9384C40.2657 24.7104 39.9565 24.5823 39.634 24.5823Z" fill="white"/>
</svg>
