<svg width="44" height="60" viewBox="0 0 44 60" fill="none" xmlns="http://www.w3.org/2000/svg">
<path d="M43 2H30V1C30 0.734784 29.8946 0.48043 29.7071 0.292893C29.5196 0.105357 29.2652 0 29 0H15C14.7348 0 14.4804 0.105357 14.2929 0.292893C14.1054 0.48043 14 0.734784 14 1V2H1C0.734784 2 0.48043 2.10536 0.292893 2.29289C0.105357 2.48043 0 2.73478 0 3V59C0 59.2652 0.105357 59.5196 0.292893 59.7071C0.48043 59.8946 0.734784 60 1 60H43C43.2652 60 43.5196 59.8946 43.7071 59.7071C43.8946 59.5196 44 59.2652 44 59V3C44 2.73478 43.8946 2.48043 43.7071 2.29289C43.5196 2.10536 43.2652 2 43 2V2ZM16 2H28V5C28 5.26522 27.8946 5.51957 27.7071 5.70711C27.5196 5.89464 27.2652 6 27 6H17C16.7348 6 16.4804 5.89464 16.2929 5.70711C16.1054 5.51957 16 5.26522 16 5V2ZM17 8H38V54H6V8H17ZM42 58H2V4H14V5C14.0033 5.34144 14.0656 5.67974 14.184 6H5C4.73478 6 4.48043 6.10536 4.29289 6.29289C4.10536 6.48043 4 6.73478 4 7V55C4 55.2652 4.10536 55.5196 4.29289 55.7071C4.48043 55.8946 4.73478 56 5 56H39C39.2652 56 39.5196 55.8946 39.7071 55.7071C39.8946 55.5196 40 55.2652 40 55V7C40 6.73478 39.8946 6.48043 39.7071 6.29289C39.5196 6.10536 39.2652 6 39 6H29.816C29.9344 5.67974 29.9967 5.34144 30 5V4H42V58Z" fill="white"/>
<path d="M14.0002 24.0001C15.1343 23.9991 16.245 23.6767 17.2033 23.0703C18.1617 22.4639 18.9286 21.5983 19.4151 20.5738C19.9016 19.5493 20.0878 18.408 19.952 17.282C19.8163 16.156 19.3642 15.0916 18.6482 14.2121L19.8132 12.5811C19.9554 12.3651 20.0084 12.1024 19.961 11.8482C19.9137 11.594 19.7697 11.368 19.5594 11.2177C19.349 11.0673 19.0885 11.0043 18.8327 11.0419C18.5769 11.0794 18.3455 11.2146 18.1872 11.4191L17.1332 12.8931C16.343 12.4058 15.4505 12.1085 14.526 12.0246C13.6014 11.9407 12.67 12.0726 11.805 12.4097C10.94 12.7468 10.1651 13.2801 9.54113 13.9675C8.91718 14.6549 8.46126 15.4777 8.20922 16.3712C7.95719 17.2647 7.91593 18.2045 8.08869 19.1166C8.26145 20.0288 8.64351 20.8884 9.20482 21.6278C9.76613 22.3673 10.4914 22.9664 11.3235 23.378C12.1556 23.7897 13.0719 24.0026 14.0002 24.0001V24.0001ZM14.0002 14.0001C14.6894 14.0043 15.3654 14.1887 15.9612 14.5351L13.8722 17.4581L12.7072 16.2931C12.5186 16.1109 12.266 16.0101 12.0038 16.0124C11.7416 16.0147 11.4908 16.1198 11.3054 16.3052C11.12 16.4906 11.0148 16.7415 11.0125 17.0037C11.0103 17.2659 11.1111 17.5185 11.2932 17.7071L13.2932 19.7071C13.4807 19.8946 13.735 20 14.0002 20.0001C14.0272 20.0001 14.0552 20.0001 14.0822 20.0001C14.227 19.988 14.3673 19.9445 14.4936 19.8727C14.6198 19.8008 14.7289 19.7023 14.8132 19.5841L17.4132 15.9451C17.7938 16.5632 17.9969 17.2742 18.0002 18.0001C18.0002 18.7912 17.7656 19.5645 17.3261 20.2223C16.8866 20.8801 16.2619 21.3928 15.531 21.6956C14.8001 21.9983 13.9958 22.0775 13.2199 21.9232C12.4439 21.7689 11.7312 21.3879 11.1718 20.8285C10.6124 20.2691 10.2314 19.5563 10.0771 18.7804C9.92274 18.0045 10.002 17.2002 10.3047 16.4693C10.6075 15.7384 11.1201 15.1137 11.7779 14.6742C12.4357 14.2347 13.2091 14.0001 14.0002 14.0001V14.0001Z" fill="white"/>
<path d="M14.0002 38.0001C15.1343 37.9991 16.245 37.6767 17.2033 37.0703C18.1617 36.4639 18.9286 35.5983 19.4151 34.5738C19.9016 33.5493 20.0878 32.408 19.952 31.282C19.8163 30.156 19.3642 29.0916 18.6482 28.2121L19.8132 26.5811C19.9554 26.3651 20.0084 26.1024 19.961 25.8482C19.9137 25.594 19.7697 25.368 19.5594 25.2177C19.349 25.0673 19.0885 25.0043 18.8327 25.0419C18.5769 25.0794 18.3455 25.2146 18.1872 25.4191L17.1332 26.8931C16.343 26.4058 15.4505 26.1085 14.526 26.0246C13.6014 25.9407 12.67 26.0726 11.805 26.4097C10.94 26.7468 10.1651 27.2801 9.54113 27.9675C8.91718 28.6549 8.46126 29.4777 8.20922 30.3712C7.95719 31.2647 7.91593 32.2045 8.08869 33.1166C8.26145 34.0288 8.64351 34.8884 9.20482 35.6278C9.76613 36.3673 10.4914 36.9664 11.3235 37.378C12.1556 37.7897 13.0719 38.0026 14.0002 38.0001V38.0001ZM14.0002 28.0001C14.6894 28.0043 15.3654 28.1887 15.9612 28.5351L13.8722 31.4581L12.7072 30.2931C12.5186 30.1109 12.266 30.0101 12.0038 30.0124C11.7416 30.0147 11.4908 30.1198 11.3054 30.3052C11.12 30.4906 11.0148 30.7415 11.0125 31.0037C11.0103 31.2659 11.1111 31.5185 11.2932 31.7071L13.2932 33.7071C13.4807 33.8946 13.735 34 14.0002 34.0001C14.0272 34.0001 14.0552 34.0001 14.0822 34.0001C14.227 33.988 14.3673 33.9445 14.4936 33.8726C14.6198 33.8008 14.7289 33.7023 14.8132 33.5841L17.4132 29.9451C17.7938 30.5632 17.9969 31.2742 18.0002 32.0001C18.0002 32.7912 17.7656 33.5645 17.3261 34.2223C16.8866 34.8801 16.2619 35.3928 15.531 35.6956C14.8001 35.9983 13.9958 36.0775 13.2199 35.9232C12.4439 35.7689 11.7312 35.3879 11.1718 34.8285C10.6124 34.2691 10.2314 33.5563 10.0771 32.7804C9.92274 32.0045 10.002 31.2002 10.3047 30.4693C10.6075 29.7384 11.1201 29.1137 11.7779 28.6742C12.4357 28.2347 13.2091 28.0001 14.0002 28.0001V28.0001Z" fill="white"/>
<path d="M14.0002 52.0001C15.1343 51.9991 16.245 51.6767 17.2033 51.0703C18.1617 50.4639 18.9286 49.5983 19.4151 48.5738C19.9016 47.5493 20.0878 46.408 19.952 45.282C19.8163 44.156 19.3642 43.0916 18.6482 42.2121L19.8132 40.5811C19.9554 40.3651 20.0084 40.1024 19.961 39.8482C19.9137 39.594 19.7697 39.368 19.5594 39.2177C19.349 39.0673 19.0885 39.0043 18.8327 39.0419C18.5769 39.0794 18.3455 39.2146 18.1872 39.4191L17.1332 40.8931C16.343 40.4058 15.4505 40.1085 14.526 40.0246C13.6014 39.9407 12.67 40.0726 11.805 40.4097C10.94 40.7468 10.1651 41.2801 9.54113 41.9675C8.91718 42.6549 8.46126 43.4777 8.20922 44.3712C7.95719 45.2647 7.91593 46.2045 8.08869 47.1166C8.26145 48.0288 8.64351 48.8884 9.20482 49.6278C9.76613 50.3673 10.4914 50.9664 11.3235 51.378C12.1556 51.7897 13.0719 52.0026 14.0002 52.0001V52.0001ZM14.0002 42.0001C14.6894 42.0043 15.3654 42.1887 15.9612 42.5351L13.8722 45.4581L12.7072 44.2931C12.5186 44.1109 12.266 44.0101 12.0038 44.0124C11.7416 44.0147 11.4908 44.1198 11.3054 44.3052C11.12 44.4906 11.0148 44.7415 11.0125 45.0037C11.0103 45.2659 11.1111 45.5185 11.2932 45.7071L13.2932 47.7071C13.4807 47.8946 13.735 48 14.0002 48.0001C14.0272 48.0001 14.0552 48.0001 14.0822 48.0001C14.227 47.988 14.3673 47.9445 14.4936 47.8727C14.6198 47.8008 14.7289 47.7023 14.8132 47.5841L17.4132 43.9451C17.7938 44.5632 17.9969 45.2742 18.0002 46.0001C18.0002 46.7912 17.7656 47.5645 17.3261 48.2223C16.8866 48.8801 16.2619 49.3928 15.531 49.6956C14.8001 49.9983 13.9958 50.0775 13.2199 49.9232C12.4439 49.7689 11.7312 49.3879 11.1718 48.8285C10.6124 48.2691 10.2314 47.5563 10.0771 46.7804C9.92274 46.0045 10.002 45.2002 10.3047 44.4693C10.6075 43.7384 11.1201 43.1137 11.7779 42.6742C12.4357 42.2347 13.2091 42.0001 14.0002 42.0001V42.0001Z" fill="white"/>
<path d="M24 18H33C33.2652 18 33.5196 17.8946 33.7071 17.7071C33.8946 17.5196 34 17.2652 34 17C34 16.7348 33.8946 16.4804 33.7071 16.2929C33.5196 16.1054 33.2652 16 33 16H24C23.7348 16 23.4804 16.1054 23.2929 16.2929C23.1054 16.4804 23 16.7348 23 17C23 17.2652 23.1054 17.5196 23.2929 17.7071C23.4804 17.8946 23.7348 18 24 18Z" fill="white"/>
<path d="M24 22H33C33.2652 22 33.5196 21.8946 33.7071 21.7071C33.8946 21.5196 34 21.2652 34 21C34 20.7348 33.8946 20.4804 33.7071 20.2929C33.5196 20.1054 33.2652 20 33 20H24C23.7348 20 23.4804 20.1054 23.2929 20.2929C23.1054 20.4804 23 20.7348 23 21C23 21.2652 23.1054 21.5196 23.2929 21.7071C23.4804 21.8946 23.7348 22 24 22Z" fill="white"/>
<path d="M24 32H33C33.2652 32 33.5196 31.8946 33.7071 31.7071C33.8946 31.5196 34 31.2652 34 31C34 30.7348 33.8946 30.4804 33.7071 30.2929C33.5196 30.1054 33.2652 30 33 30H24C23.7348 30 23.4804 30.1054 23.2929 30.2929C23.1054 30.4804 23 30.7348 23 31C23 31.2652 23.1054 31.5196 23.2929 31.7071C23.4804 31.8946 23.7348 32 24 32Z" fill="white"/>
<path d="M24 36H33C33.2652 36 33.5196 35.8946 33.7071 35.7071C33.8946 35.5196 34 35.2652 34 35C34 34.7348 33.8946 34.4804 33.7071 34.2929C33.5196 34.1054 33.2652 34 33 34H24C23.7348 34 23.4804 34.1054 23.2929 34.2929C23.1054 34.4804 23 34.7348 23 35C23 35.2652 23.1054 35.5196 23.2929 35.7071C23.4804 35.8946 23.7348 36 24 36Z" fill="white"/>
<path d="M24 46H33C33.2652 46 33.5196 45.8946 33.7071 45.7071C33.8946 45.5196 34 45.2652 34 45C34 44.7348 33.8946 44.4804 33.7071 44.2929C33.5196 44.1054 33.2652 44 33 44H24C23.7348 44 23.4804 44.1054 23.2929 44.2929C23.1054 44.4804 23 44.7348 23 45C23 45.2652 23.1054 45.5196 23.2929 45.7071C23.4804 45.8946 23.7348 46 24 46Z" fill="white"/>
<path d="M24 50H33C33.2652 50 33.5196 49.8946 33.7071 49.7071C33.8946 49.5196 34 49.2652 34 49C34 48.7348 33.8946 48.4804 33.7071 48.2929C33.5196 48.1054 33.2652 48 33 48H24C23.7348 48 23.4804 48.1054 23.2929 48.2929C23.1054 48.4804 23 48.7348 23 49C23 49.2652 23.1054 49.5196 23.2929 49.7071C23.4804 49.8946 23.7348 50 24 50Z" fill="white"/>
</svg>
