<svg width="47" height="60" viewBox="0 0 47 60" fill="none" xmlns="http://www.w3.org/2000/svg">
<path d="M42 20.9663H33C32.7348 20.9663 32.4804 21.0717 32.2929 21.2592C32.1054 21.4467 32 21.7011 32 21.9663V36.9663H24V34.9663H28V32.9663H18V34.9663H22V36.9663H14V30.9663C14 30.9523 13.993 30.9413 13.992 30.9273C13.9872 30.8248 13.9666 30.7236 13.931 30.6273C13.922 30.6053 13.917 30.5833 13.908 30.5613C13.899 30.5393 13.901 30.5363 13.895 30.5243L10 22.7303V20.9663C10 20.7011 9.89464 20.4467 9.70711 20.2592C9.51957 20.0717 9.26522 19.9663 9 19.9663C8.73478 19.9663 8.48043 20.0717 8.29289 20.2592C8.10536 20.4467 8 20.7011 8 20.9663V22.7303L4.105 30.5193C4.099 30.5313 4.098 30.5443 4.092 30.5563C4.086 30.5683 4.078 30.6003 4.069 30.6223C4.03339 30.7186 4.01282 30.8198 4.008 30.9223C4.008 30.9363 4 30.9473 4 30.9613V37.9613C4 38.2265 4.10536 38.4809 4.29289 38.6684C4.48043 38.856 4.73478 38.9613 5 38.9613H42C42.2652 38.9613 42.5196 38.856 42.7071 38.6684C42.8946 38.4809 43 38.2265 43 37.9613V21.9663C43 21.7011 42.8946 21.4467 42.7071 21.2592C42.5196 21.0717 42.2652 20.9663 42 20.9663ZM9 25.2023L11.382 29.9663H6.618L9 25.2023ZM12 36.9663H6V31.9663H12V36.9663ZM41 36.9663H34V34.9663H36V32.9663H34V30.9663H38V28.9663H34V26.9663H36V24.9663H34V22.9663H41V36.9663Z" fill="white"/>
<path d="M0 43.9663V47.9663C0.00158786 49.2919 0.528882 50.5628 1.46622 51.5001C2.40356 52.4374 3.6744 52.9647 5 52.9663H17.674L16.039 58.6913C15.9964 58.8401 15.989 58.9968 16.0173 59.1489C16.0455 59.3011 16.1087 59.4446 16.2019 59.5682C16.295 59.6918 16.4156 59.7921 16.5541 59.8612C16.6926 59.9303 16.8452 59.9663 17 59.9663H29C29.1548 59.9663 29.3074 59.9303 29.4459 59.8612C29.5844 59.7921 29.705 59.6918 29.7981 59.5682C29.8913 59.4446 29.9545 59.3011 29.9827 59.1489C30.011 58.9968 30.0036 58.8401 29.961 58.6913L28.326 52.9663H42C43.3256 52.9647 44.5964 52.4374 45.5338 51.5001C46.4711 50.5628 46.9984 49.2919 47 47.9663V18.9663C46.9984 17.6407 46.4711 16.3699 45.5338 15.4325C44.5964 14.4952 43.3256 13.9679 42 13.9663H30.659L30.919 13.3603C30.9809 13.2165 31.0082 13.0601 30.9987 12.9038C30.9891 12.7474 30.943 12.5956 30.864 12.4603L23.864 0.460324C23.7688 0.318631 23.6402 0.202534 23.4895 0.12226C23.3388 0.0419865 23.1707 0 23 0C22.8293 0 22.6612 0.0419865 22.5105 0.12226C22.3598 0.202534 22.2312 0.318631 22.136 0.460324L15.136 12.4603C15.057 12.5956 15.0109 12.7474 15.0013 12.9038C14.9918 13.0601 15.019 13.2165 15.081 13.3603L15.341 13.9663H5C3.6744 13.9679 2.40356 14.4952 1.46622 15.4325C0.528882 16.3699 0.00158786 17.6407 0 18.9663V43.9663ZM18.326 57.9663L19.754 52.9663H26.246L27.674 57.9663H18.326ZM23 2.95132L28.882 13.0353L26.341 18.9663H24V15.7823C24.6672 15.5464 25.2296 15.0823 25.5876 14.4718C25.9457 13.8614 26.0765 13.1441 25.9568 12.4466C25.8371 11.7491 25.4747 11.1164 24.9337 10.6602C24.3926 10.2041 23.7077 9.9539 23 9.9539C22.2923 9.9539 21.6074 10.2041 21.0663 10.6602C20.5253 11.1164 20.1629 11.7491 20.0432 12.4466C19.9235 13.1441 20.0543 13.8614 20.4124 14.4718C20.7704 15.0823 21.3328 15.5464 22 15.7823V18.9663H19.659L17.118 13.0353L23 2.95132ZM20 22.9663V20.9663H26V22.9663H20ZM26 24.9663V28.9663H20V24.9663H26ZM22 12.9663C22 12.7685 22.0586 12.5752 22.1685 12.4108C22.2784 12.2463 22.4346 12.1181 22.6173 12.0424C22.8 11.9668 23.0011 11.947 23.1951 11.9855C23.3891 12.0241 23.5673 12.1194 23.7071 12.2592C23.847 12.3991 23.9422 12.5773 23.9808 12.7712C24.0194 12.9652 23.9996 13.1663 23.9239 13.349C23.8482 13.5317 23.72 13.6879 23.5556 13.7978C23.3911 13.9077 23.1978 13.9663 23 13.9663C22.7348 13.9663 22.4804 13.861 22.2929 13.6734C22.1054 13.4859 22 13.2315 22 12.9663ZM2 18.9663C2 18.1707 2.31607 17.4076 2.87868 16.845C3.44129 16.2824 4.20435 15.9663 5 15.9663H16.2L18 20.1663V29.9663C18 30.2315 18.1054 30.4859 18.2929 30.6734C18.4804 30.861 18.7348 30.9663 19 30.9663H27C27.2652 30.9663 27.5196 30.861 27.7071 30.6734C27.8946 30.4859 28 30.2315 28 29.9663V20.1663L29.8 15.9663H42C42.7956 15.9663 43.5587 16.2824 44.1213 16.845C44.6839 17.4076 45 18.1707 45 18.9663V42.9663H2V18.9663ZM2 44.9663H45V47.9663C45 48.762 44.6839 49.525 44.1213 50.0876C43.5587 50.6503 42.7956 50.9663 42 50.9663H5C4.20435 50.9663 3.44129 50.6503 2.87868 50.0876C2.31607 49.525 2 48.762 2 47.9663V44.9663Z" fill="white"/>
<path d="M24 46.9663H22V48.9663H24V46.9663Z" fill="white"/>
<path d="M6 9.96631H4V11.9663H6V9.96631Z" fill="white"/>
<path d="M2 9.96631H0V11.9663H2V9.96631Z" fill="white"/>
<path d="M10 9.96631H8V11.9663H10V9.96631Z" fill="white"/>
<path d="M14 9.96631H12V11.9663H14V9.96631Z" fill="white"/>
<path d="M46 9.96631H32V11.9663H46V9.96631Z" fill="white"/>
</svg>
