<svg width="75" height="75" viewBox="0 0 75 75" fill="none" xmlns="http://www.w3.org/2000/svg">
<path d="M37.5 0C17.1712 0 0 17.1712 0 37.5C0 57.8288 17.1712 75 37.5 75C57.8288 75 75 57.8288 75 37.5C75 17.1712 57.8288 0 37.5 0ZM37.5 18.75C43.9762 18.75 48.75 23.52 48.75 30C48.75 36.48 43.9762 41.25 37.5 41.25C31.0275 41.25 26.25 36.48 26.25 30C26.25 23.52 31.0275 18.75 37.5 18.75ZM18.3525 55.395C21.7163 50.445 27.3262 47.145 33.75 47.145H41.25C47.6775 47.145 53.2838 50.445 56.6475 55.395C51.855 60.525 45.0563 63.75 37.5 63.75C29.9437 63.75 23.145 60.525 18.3525 55.395Z" fill="#DBDCE8"/>
</svg>
